<?xml version="1.0" encoding="utf-8"?>
<!-- Generator: Adobe Illustrator 25.1.0, SVG Export Plug-In . SVG Version: 6.00 Build 0)  -->
<svg version="1.1" xmlns="http://www.w3.org/2000/svg" xmlns:xlink="http://www.w3.org/1999/xlink" x="0px" y="0px"
	 viewBox="0 0 408.3 274.4" style="enable-background:new 0 0 408.3 274.4;" xml:space="preserve">
<style type="text/css">
	.¾ÆÄ¡Çü_x0020_³ì»ö{fill:url(#SVGID_1_);stroke:#FFFFFF;stroke-width:0.25;stroke-miterlimit:1;}
	.st0{fill-rule:evenodd;clip-rule:evenodd;fill:#8DC63F;}
	.st1{fill-rule:evenodd;clip-rule:evenodd;fill:#89BF44;}
	.st2{fill-rule:evenodd;clip-rule:evenodd;fill:#388841;}
	.st3{fill-rule:evenodd;clip-rule:evenodd;fill:#FFFFFF;}
	.st4{fill-rule:evenodd;clip-rule:evenodd;fill:none;stroke:#89BF44;stroke-width:2;}
	.st5{fill:#444545;}
	.st6{fill:#398841;}
	.st7{fill:#505150;}
</style>
<linearGradient id="SVGID_1_" gradientUnits="userSpaceOnUse" x1="0" y1="841.8896" x2="0.7071" y2="841.1825">
	<stop  offset="0" style="stop-color:#20AC4B"/>
	<stop  offset="0.9831" style="stop-color:#19361A"/>
</linearGradient>
<g id="_xB7__xB9_ÀÌ_xBE_î_x5F_1_x5F__xBB_ç_xBA__xBB_">
</g>
<g id="_xB7__xB9_ÀÌ_xBE_î_x5F_2">
	<path class="st0" d="M271.2,100c4.7,0,8.6-3.7,8.6-8.4c0-4.6-3.8-8.4-8.6-8.4c-4.7,0-8.6,3.8-8.6,8.4
		C262.6,96.3,266.5,100,271.2,100"/>
	<path class="st0" d="M298.4,116.7c1.8,2.7,3.5,5.2,5,7.4c7.5,3.6,12.7,11.2,12.7,20.1c0,12.3-10,22.3-22.3,22.3
		c-12.3,0-22.3-10-22.3-22.3c0-0.5,0-0.9,0.1-1.4h-1.2c-0.2,0.4-1.9,3.1-4,6.5c2.4,13,13.8,22.8,27.4,22.8
		c15.4,0,27.9-12.5,27.9-27.9C321.7,130.4,311.6,118.9,298.4,116.7"/>
	<path class="st0" d="M256.5,163.1l13.2-21.5h28.6c3.3,0,11.4-5.6,7.3-12.1c0,0-18-27-19.5-28.5c-1.5-1.5-6.2-2.9-10.3-0.1
		c-3.2,2.2-10,17.5-10,17.5s-7.7,0.1-10.1,0c-2.3-0.1-3,7.8-0.1,7.8h14l5.2-9.1l10.9,16.6h-22.1l-17.3,29.3c-1,1.8-0.8,4.4,2.6,4.4
		C252.1,167.5,254.2,166,256.5,163.1"/>
	<rect x="246.1" y="121.9" class="st0" width="24.9" height="6.9"/>
	<polygon class="st0" points="248.9,122.3 246.2,124.2 231.7,103.4 234.4,101.5 	"/>
	<path class="st1" d="M129.5,190.5c22,8.3,49,13.1,77.8,13.1c76,0,137.7-33.5,137.7-75c0-21.2-19.5-48.8-69.3-48.8
		c-36.1,0-67.5,15.9-67.5,35.5c0,3.4,2,7.3,4.6,9.9c4,4.6,5.2,10.3,5.2,15.5c0,24-35.7,43.3-79.6,43.3c-29,0-55.6-8.1-68.7-21.2
		c-10.5-10.5-13.9-22.4-13.9-34.3c0-45.8,67.9-82.8,151.6-82.8c83.9,0,151.8,37.1,151.8,82.8c0,45.8-67.9,82.8-151.8,82.8
		c-33.1,0-63.7-5.8-88.5-15.5L129.5,190.5z"/>
	<path class="st2" d="M128.5,183.7c22,8.3,49,13.1,77.8,13.1c76,0,137.7-33.5,137.7-75c0-21.2-19.5-48.8-69.3-48.8
		c-36.1,0-67.5,15.9-67.5,35.5c0,3.4,2,7.3,4.6,9.9c4,4.6,5.2,10.3,5.2,15.5c0,24-35.7,43.3-79.6,43.3c-29,0-55.6-8.1-68.7-21.2
		c-10.5-10.5-13.9-22.4-13.9-34.3c0-45.8,67.9-82.8,151.6-82.8c83.9,0,151.8,37.1,151.8,82.8c0,45.8-67.9,82.8-151.8,82.8
		c-33.1,0-63.7-5.8-88.5-15.5L128.5,183.7z"/>
	<g>
		<polygon class="st3" points="132.6,150.6 120,150.6 118.2,109.3 91.6,150.6 79.1,150.6 79,82.6 94.7,82.6 93.7,125.5 120.6,82.6 
			131.9,82.6 133.1,125.5 158,82.6 173.7,82.6 		"/>
		<path class="st3" d="M184,151.1l0.2-12.1h-19l-6.7,12.1h-18.2l41-68.1h17.9l2.9,68.1H184z M185.1,103.1l-14,24.8h13.7L185.1,103.1
			z"/>
	</g>
	<ellipse class="st4" cx="205.7" cy="126.1" rx="187.5" ry="122.2"/>
	<g>
		<path d="M66.5,174.9l3.8,2.7c-2.3,5.2-4,8.9-4.9,10.9c-0.7,1.4-1.3,2.8-1.9,4.1l0,0l0.7-0.7c1.1-1.1,2.2-2.2,3.3-3.2
			c2-1.8,4.6-4.3,7.9-7.4l3.7,2.7c-2.4,5.3-4,8.8-4.9,10.8c-0.6,1.4-1.3,2.7-2,4.2l0.1,0.1c0.8-0.8,1.9-1.8,3.1-2.9
			c1.8-1.6,4.8-4.3,9.1-8.1l3.6,2.6l-17.7,14.2l-3.4-2.5c2.3-5,3.8-8.4,4.6-10.1c0.9-1.8,1.8-3.7,2.9-5.7l0,0
			c-1.6,1.6-3.1,3.1-4.5,4.3c-1.5,1.4-4.2,3.9-8.3,7.6l-3.3-2.4L66.5,174.9z"/>
		<path class="st5" d="M101.8,201.8l-9.8-5.2l-2.1,4l8.9,4.7l-1.7,3.3l-8.9-4.7l-2.6,4.9l10.2,5.4l-1.8,3.3l-14-7.4l10-19l13.6,7.2
			L101.8,201.8z"/>
		<path class="st5" d="M106.8,199.9l9.8,3.9c2.1,0.8,3.4,2.1,4,3.7c0.4,1.2,0.4,2.5-0.1,3.8c-0.5,1.3-1.2,2.1-2.1,2.6
			c-0.5,0.3-1.1,0.5-1.9,0.6l0,0c0.9,0.8,1.5,1.8,1.6,2.9c0.1,0.9,0,1.9-0.5,3.1c-0.3,0.8-0.8,1.5-1.4,2.1c-0.6,0.6-1.2,1-1.9,1.3
			c-0.9,0.4-1.7,0.5-2.5,0.5c-1.1,0-2.5-0.4-4.3-1.1l-8.5-3.4L106.8,199.9z M104.2,218l5.2,2.1c1,0.4,1.9,0.5,2.6,0.2
			c0.7-0.3,1.3-0.9,1.7-1.9c0.3-0.8,0.3-1.5-0.2-2.2c-0.4-0.6-0.9-1-1.7-1.3l-5.5-2.2L104.2,218z M107.6,209.3l5.1,2
			c0.8,0.3,1.6,0.4,2.2,0.3c0.7-0.2,1.2-0.6,1.5-1.3c0.3-0.8,0.3-1.5-0.1-2c-0.3-0.5-1-0.9-2-1.3l-4.9-2L107.6,209.3z"/>
		<path d="M133,231.7l-4.5-1.1l12.5-19l4.9,1.2l2.1,22.6l-4.6-1.1l-0.3-4.6l-7.7-1.9L133,231.7z M137.6,224.4l5.3,1.3l-0.6-8.9
			l-0.1,0L137.6,224.4z"/>
		<path class="st5" d="M168.1,224.1c-0.1-1.1-0.3-1.9-0.7-2.5c-0.6-1-1.7-1.6-3.2-1.9c-1.4-0.2-2.5,0.1-3.6,0.9
			c-1.4,1.1-2.3,2.9-2.7,5.6c-0.3,2.1-0.2,3.8,0.4,5.2c0.7,1.6,1.9,2.5,3.6,2.8c1.2,0.2,2.2,0,3.1-0.6c0.9-0.6,1.6-1.5,2-2.7
			l4.4,0.7c-0.9,2.3-2.1,4.1-3.8,5.2c-1.8,1.2-3.9,1.7-6.4,1.3c-2.8-0.4-5-1.7-6.3-3.9c-1.5-2.3-1.9-5.2-1.4-8.7
			c0.5-3.5,1.9-6.1,4-7.8c2-1.6,4.4-2.2,7.2-1.8c2.8,0.4,4.9,1.6,6.3,3.6c1.1,1.6,1.6,3.4,1.5,5.3L168.1,224.1z"/>
		<path class="st5" d="M190,226.2c-0.2-1.1-0.5-1.9-0.9-2.4c-0.7-1-1.8-1.5-3.4-1.6c-1.4-0.1-2.5,0.3-3.5,1.2
			c-1.3,1.2-2,3.1-2.2,5.8c-0.1,2.1,0.1,3.8,0.8,5.1c0.8,1.5,2.1,2.4,3.9,2.5c1.2,0.1,2.2-0.2,3-0.8c0.8-0.6,1.4-1.6,1.8-2.9
			l4.4,0.3c-0.7,2.4-1.8,4.2-3.3,5.5c-1.7,1.4-3.8,2-6.3,1.8c-2.9-0.2-5.1-1.3-6.6-3.3c-1.6-2.1-2.3-5-2.1-8.6
			c0.2-3.5,1.4-6.3,3.3-8.1c1.9-1.8,4.2-2.6,7-2.4c2.8,0.2,5,1.2,6.6,3.1c1.2,1.5,1.9,3.2,1.9,5.2L190,226.2z"/>
		<path class="st5" d="M213.8,223.1l-11,0.1l0,4.5l10.1-0.1l0,3.7l-10.1,0.1l0.1,5.6l11.5-0.1l0,3.8l-15.8,0.2l-0.2-21.4l15.3-0.2
			L213.8,223.1z"/>
		<path class="st5" d="M222.2,233.7c0.1,0.9,0.4,1.5,0.9,2c0.8,0.8,2.1,1.1,3.8,1c1.2-0.1,2.2-0.3,2.9-0.7c0.9-0.5,1.3-1.3,1.2-2.3
			c-0.1-0.8-0.5-1.3-1.2-1.7c-0.5-0.3-1.5-0.5-2.8-0.6l-2.3-0.4c-1.1-0.2-2-0.3-2.5-0.5c-0.9-0.2-1.6-0.5-2.2-0.8
			c-0.7-0.4-1.3-1-1.6-1.6c-0.4-0.8-0.7-1.7-0.8-2.8c-0.1-1.6,0.2-3.1,1.1-4.3c1.3-1.7,3.4-2.7,6.4-2.9c2.8-0.2,5,0.4,6.6,2
			c1.2,1.2,1.9,2.6,2,4.3l-4.1,0.3c-0.2-0.8-0.5-1.4-0.9-1.9c-0.8-0.8-2-1.1-3.6-0.9c-1,0.1-1.8,0.3-2.4,0.7c-0.8,0.5-1.1,1.2-1,2.1
			c0.1,0.7,0.3,1.2,0.9,1.5c0.3,0.2,0.8,0.4,1.5,0.5l0.1,0l5.2,0.9c1.7,0.3,3,0.7,3.9,1.3c1.2,0.9,1.9,2.2,2,4
			c0.2,2.7-0.8,4.7-3,6.1c-1.3,0.8-2.9,1.3-4.7,1.5c-3.4,0.3-5.9-0.4-7.5-2c-1.2-1.1-1.8-2.6-2-4.4L222.2,233.7z"/>
		<path class="st5" d="M243.5,231.5c0.2,0.8,0.5,1.5,1.1,2c0.9,0.7,2.2,0.9,3.8,0.7c1.2-0.2,2.1-0.5,2.8-1c0.9-0.6,1.2-1.4,1.1-2.4
			c-0.1-0.8-0.6-1.3-1.3-1.6c-0.5-0.2-1.5-0.3-2.8-0.4l-2.3-0.2c-1.2-0.1-2-0.2-2.6-0.3c-0.9-0.2-1.6-0.4-2.2-0.7
			c-0.7-0.4-1.3-0.9-1.8-1.5c-0.5-0.7-0.8-1.6-1-2.7c-0.3-1.6,0-3.1,0.8-4.4c1.1-1.8,3.2-2.9,6.1-3.4c2.8-0.4,5,0,6.7,1.5
			c1.3,1.1,2.1,2.4,2.4,4.1l-4.1,0.6c-0.2-0.8-0.6-1.4-1.1-1.8c-0.8-0.7-2.1-0.9-3.7-0.7c-1,0.2-1.7,0.5-2.3,0.9
			c-0.7,0.6-1,1.3-0.9,2.2c0.1,0.7,0.4,1.2,1,1.5c0.3,0.2,0.8,0.3,1.5,0.4l0.1,0l5.3,0.5c1.7,0.1,3.1,0.5,4,1c1.3,0.8,2,2,2.3,3.8
			c0.4,2.7-0.4,4.8-2.5,6.3c-1.3,0.9-2.8,1.6-4.6,1.8c-3.3,0.5-5.9,0.1-7.6-1.4c-1.3-1-2-2.4-2.3-4.2L243.5,231.5z"/>
		<path class="st5" d="M267.3,233.8l-4.3,1l-4.7-20.9l4.3-1L267.3,233.8z"/>
		<path class="st5" d="M267.6,211.8l10.1-3c2.2-0.6,4-0.5,5.4,0.4c1.1,0.7,1.8,1.7,2.2,3c0.4,1.3,0.4,2.4,0,3.4
			c-0.2,0.5-0.6,1.1-1.2,1.6l0,0c1.2,0.1,2.3,0.5,3.1,1.3c0.7,0.6,1.2,1.5,1.5,2.7c0.2,0.8,0.3,1.6,0.2,2.5
			c-0.1,0.8-0.3,1.6-0.7,2.3c-0.5,0.8-1,1.5-1.7,1.9c-0.9,0.6-2.2,1.2-4.1,1.7l-8.8,2.6L267.6,211.8z M274,218.7l5.2-1.5
			c0.9-0.3,1.5-0.6,1.9-1.2c0.5-0.6,0.6-1.2,0.4-2c-0.2-0.8-0.7-1.4-1.3-1.5c-0.6-0.2-1.4-0.1-2.4,0.2l-5.1,1.5L274,218.7z
			 M276.7,227.6l5.4-1.6c1-0.3,1.8-0.8,2.1-1.4c0.4-0.7,0.5-1.5,0.1-2.6c-0.2-0.8-0.7-1.4-1.5-1.6c-0.6-0.2-1.4-0.2-2.2,0l-5.6,1.7
			L276.7,227.6z"/>
		<path class="st5" d="M300.1,223.7l-4.1,1.5l-7.6-20.1l4.1-1.5L300.1,223.7z"/>
		<path class="st5" d="M308.5,216l9.4-4.3l1.6,3.5l-13.4,6.1l-8.9-19.5l4-1.8L308.5,216z"/>
		<path class="st5" d="M328,210.5l-3.8,2.1l-10.4-18.7l3.8-2.1L328,210.5z"/>
		<path class="st5" d="M341.8,201.8l-3.6,2.5l-9.9-14.6l-5.3,3.6l-2.1-3.1l14.3-9.7l2.1,3.1l-5.3,3.6L341.8,201.8z"/>
		<path class="st5" d="M359.1,187.7l-3.2,3l-5.5-6l-14.5-4.8l3.8-3.5l9.7,3.9l-3.3-9.7l3.6-3.3l4,14.6L359.1,187.7z"/>
	</g>
	<path class="st6" d="M54.7,30"/>
	<g>
		<g>
			<path class="st6" d="M85.6,53.9c-1.4-3.5-2.8-5.9-3.9-7.9l-8.3,5l-1.5-2.5l11.4-6.8l1.1,1.8c1.3,2.2,2.9,4.9,4.5,8.9L85.6,53.9z
				 M85.5,57.7c2.1-1.4,4.2-2.8,6.1-4.3l1.5,2.2c-4,3.5-9,6.5-12.8,8.9l-1.9-2.4c1.2-0.7,2.6-1.5,4-2.4l-3.9-6.6l3.1-1.9L85.5,57.7z
				 M96.9,46.2L94,48l6.4,10.6l-3.2,1.9L83.8,38.2l3.2-1.9l5.4,9l3-1.8L96.9,46.2z"/>
			<path class="st6" d="M114.9,29.8l-14.2,5.5l-1.1-2.7l5.4-2.1l-0.9-2.3l3.5-1.3l0.9,2.3l5.4-2.1L114.9,29.8z M111.6,42.2
				c-3.5,1.3-6.6,0.5-7.7-2.2c-1-2.6,0.8-5.4,4.2-6.7c3.5-1.3,6.6-0.5,7.6,2.2C116.8,38.2,115,40.9,111.6,42.2z M110.5,39.6
				c1.5-0.6,2.4-1.6,1.9-2.9c-0.5-1.2-1.8-1.4-3.3-0.8c-1.6,0.6-2.4,1.6-1.9,2.8C107.7,40,109,40.2,110.5,39.6z M108,45.5l16.1-6.2
				l3.1,8.1l-3.5,1.3l-2-5.3l-12.6,4.9L108,45.5z M124.6,31l-3.2,1.2l2.3,6.1l-3.5,1.3l-5.8-15.2l3.5-1.3l2.4,6.2l3.2-1.2L124.6,31z
				"/>
			<path class="st6" d="M143.9,18.7c1.8,7.7,0.7,14.7-7.2,21.1l-2.6-2.4c5.7-4.6,7.6-9.2,6.8-14.9l-8.4,2l-0.7-2.9L143.9,18.7z
				 M150.8,14.3l5.9,25.3l-3.6,0.9l-5.9-25.3L150.8,14.3z"/>
			<path class="st6" d="M176.5,23.9l0.2,1.7l7-0.8l0.8,6.7L170.4,33l0.2,1.5l14.8-1.7l0.3,2.8l-18.4,2.1l-0.8-6.8l14.1-1.6l-0.2-1.4
				l-14.1,1.6l-0.3-2.7l7.1-0.8l-0.2-1.7l-9.8,1.1l-0.3-2.9l23.2-2.7l0.3,2.9L176.5,23.9z M183.5,19c-4.5,0-7.9-1.3-9.8-3.5
				c-1.4,2.5-4.4,4.6-8.8,5.6l-1.5-2.6c5.7-1.2,8.2-4.1,7.9-6.6l-0.1-0.5l3.8-0.4l0.1,0.5c0.3,2.5,3.4,4.8,9.2,4.7L183.5,19z"/>
			<path class="st6" d="M207.7,23.9c-2.8-0.9-4.8-2.7-5.9-5c-1.1,2.6-3.1,4.8-6.1,5.8l-1.9-2.9c4.1-1.5,5.9-4.8,6-8l-5.1,0l0-3
				l13.9-0.1l0,3l-5,0c0.1,3,2,6,5.9,7.2L207.7,23.9z M215.7,30c0,3.2-3.3,5-8.8,5.1c-5.5,0.1-8.9-1.8-8.9-4.9c0-3.2,3.3-5,8.8-5.1
				C212.3,25.1,215.7,26.9,215.7,30z M212,30.1c0-1.5-1.8-2.2-5.2-2.1c-3.4,0-5.2,0.8-5.2,2.2c0,1.5,1.8,2.2,5.2,2.1
				C210.2,32.3,212,31.5,212,30.1z M211.7,15.3l-0.1-6.3l3.7,0l0.1,15.5l-3.7,0l-0.1-6.2l-3.9,0l0-3L211.7,15.3z"/>
			<path class="st6" d="M247.5,31.7l-0.3,3l-23.3-2.4l0.3-3l9.8,1l0.5-4.7l-7.3-0.7l1.4-13.5l3.7,0.4l-0.4,4l11,1.1l0.4-4l3.6,0.4
				l-1.4,13.5l-7.3-0.7l-0.5,4.7L247.5,31.7z M231.1,22.2l11,1.1l0.4-3.6l-11-1.1L231.1,22.2z"/>
			<path class="st6" d="M278.4,31.3l-0.6,2.8l-22.9-5l0.6-2.8l9.6,2.1l0.3-1.6l-6.8-1.5l2.4-10.9l17.4,3.8l-0.6,2.8l-13.8-3
				l-0.3,1.3l13.2,2.9l-0.6,2.6L263.3,22l-0.3,1.4l14,3.1l-0.6,2.8l-7.2-1.6l-0.3,1.6L278.4,31.3z M273.9,38.9
				c-0.6,2.7-4.1,3.5-9.7,2.2c-5.5-1.2-8.4-3.4-7.8-6.1c0.6-2.7,4.1-3.5,9.7-2.2C271.6,34,274.5,36.1,273.9,38.9z M270.3,38.1
				c0.2-1-1.3-1.8-4.8-2.6c-3.5-0.8-5.2-0.7-5.4,0.4c-0.2,1,1.3,1.9,4.8,2.6C268.3,39.2,270.1,39.1,270.3,38.1z"/>
			<path class="st6" d="M303.5,49.6l-1,2.8l-16.8-6.1l2.9-7.9l3.5,1.3l-1.9,5.1L303.5,49.6z M298.4,39.8c-2.4-1.9-3.5-4.4-3.8-7.1
				c-2,2.1-4.6,3.4-7.8,3.3l-0.8-3.4c4.5,0.1,7.5-2.7,8.7-5.9l0.9-2.4l3.5,1.3l-0.9,2.4c-1.2,3.2-0.6,6.9,2.9,9.7L298.4,39.8z
				 M304.1,46l-3.5-1.3l6.5-17.8l3.5,1.3L304.1,46z"/>
			<path class="st6" d="M333.2,60.2l-8.7-4.9l-4,7l-3.2-1.8l4-7l-8.5-4.8l1.5-2.6l20.4,11.6L333.2,60.2z M333.4,54.1l-15.6-8.9
				l5.7-10l3.2,1.8l-1.5,2.6l9.3,5.3l1.5-2.6l3.2,1.8L333.4,54.1z M333,47.4l-9.3-5.3l-1.3,2.3l9.3,5.3L333,47.4z"/>
		</g>
	</g>
	<g>
		<path class="st7" d="M28.7,185.1c-0.6,0-1.3,0.1-2,0.2c-0.8,0.1-1.5,0.4-2.4,0.6s-1.7,0.6-2.5,1c-0.9,0.4-1.7,0.9-2.5,1.4
			c-0.8,0.5-1.5,1.1-2.3,1.7c-0.7,0.6-1.4,1.2-1.9,1.8c-0.6,0.6-1.1,1.2-1.5,1.9c-0.4,0.6-0.8,1.2-1,1.8l-1.1-1.7
			c0.2-0.5,0.5-1,0.9-1.6c0.4-0.6,0.9-1.3,1.5-1.9c0.6-0.7,1.2-1.3,2-1.9c0.7-0.6,1.5-1.2,2.3-1.8c0.9-0.6,1.7-1,2.6-1.4
			c0.9-0.4,1.8-0.7,2.6-1c0.8-0.3,1.6-0.4,2.4-0.6c0.7-0.1,1.4-0.2,1.9-0.1L28.7,185.1z"/>
		<path class="st7" d="M24.1,201.3c0-0.5,0-0.9,0-1.5s0.1-1.1,0.2-1.7s0.2-1.1,0.4-1.7c0.2-0.5,0.4-1,0.6-1.5
			c-0.5,0.2-1.1,0.3-1.7,0.3c-0.6,0-1.2,0.1-1.8,0c-0.6,0-1.2-0.1-1.8-0.1c-0.6-0.1-1.1-0.2-1.6-0.3c-0.2,0-0.3-0.2-0.4-0.3
			c-0.1-0.2-0.1-0.4,0-0.8c0-0.3,0.1-0.6,0.1-0.8c0-0.2,0.2-0.2,0.3-0.2c0.8,0.2,1.6,0.3,2.4,0.3s1.6,0.1,2.3,0
			c0.8-0.1,1.5-0.2,2.2-0.5c0.7-0.3,1.3-0.6,1.9-1.1l1.9-1.6l1.6,1.9l-1.9,1.6c-0.5,0.5-1,1-1.4,1.7c-0.4,0.7-0.7,1.3-0.9,2.1
			c-0.2,0.7-0.4,1.5-0.5,2.2c-0.1,0.8-0.2,1.5-0.2,2.1c0,0.2-0.1,0.3-0.2,0.3c-0.2,0-0.4,0.1-0.8,0c-0.3,0-0.6-0.1-0.7-0.1
			C24.2,201.6,24.1,201.5,24.1,201.3z M35.5,195.6l1.4,1.8l-4.4,3.6l1.9,2.3l-1.5,1.2l-1.9-2.3l-6.6,5.4c-0.1,0.1-0.3,0.1-0.5,0
			c-0.2-0.1-0.4-0.3-0.6-0.6c-0.5-0.6-0.6-1-0.4-1.2L35.5,195.6z"/>
		<path class="st7" d="M41,199.7c-0.1,0.5-0.3,1.1-0.5,1.8c-0.3,0.7-0.6,1.4-1,2.2c-0.4,0.8-0.9,1.6-1.5,2.4
			c-0.6,0.8-1.2,1.6-1.9,2.3c-0.7,0.7-1.4,1.3-2.2,1.9s-1.6,1.1-2.3,1.5c-0.8,0.4-1.5,0.8-2.2,1.1c-0.7,0.3-1.3,0.5-1.8,0.5L26,212
			c0.6-0.1,1.2-0.4,1.9-0.7c0.7-0.3,1.4-0.7,2.1-1.1c0.7-0.4,1.5-0.9,2.2-1.5c0.7-0.6,1.4-1.2,2.1-1.9c0.7-0.7,1.3-1.4,1.9-2.1
			c0.6-0.7,1.1-1.5,1.5-2.2c0.4-0.7,0.8-1.5,1.1-2.2s0.5-1.4,0.6-2L41,199.7z"/>
		<path class="st7" d="M35.8,220.5c-0.2-0.1-0.3-0.4-0.4-0.7c-0.1-0.3-0.2-0.6-0.2-1c0-0.3,0-0.6,0-0.9c0-0.3,0.1-0.5,0.2-0.7
			l2.2-2.7l1.7,1.4l-2,2.4c-0.3,0.3-0.2,0.6,0.1,0.9l6.7,5.5c0.3,0.2,0.2,0.6-0.2,1.1c-0.2,0.3-0.4,0.4-0.6,0.5s-0.3,0-0.4-0.1
			L35.8,220.5z M45.4,215.3c-0.3,0.4-0.7,0.7-1.2,0.9c-0.5,0.2-0.9,0.3-1.4,0.3s-1-0.1-1.5-0.3c-0.5-0.2-1-0.5-1.5-0.9
			c-0.5-0.4-0.8-0.8-1.1-1.3c-0.3-0.5-0.5-0.9-0.6-1.4c-0.1-0.5-0.1-1,0-1.5c0.1-0.5,0.3-0.9,0.7-1.3c0.3-0.4,0.7-0.7,1.2-0.9
			s0.9-0.3,1.4-0.3c0.5,0,1,0.1,1.5,0.3c0.5,0.2,1,0.5,1.5,0.9c0.5,0.4,0.8,0.8,1.1,1.3c0.3,0.5,0.5,0.9,0.6,1.4
			c0.1,0.5,0.1,1,0,1.5C46,214.5,45.7,214.9,45.4,215.3z M43.7,213.9c0.3-0.4,0.4-0.8,0.4-1.3c0-0.5-0.3-1-0.8-1.4
			c-0.5-0.4-1-0.6-1.5-0.5s-0.9,0.3-1.2,0.6c-0.1,0.2-0.3,0.4-0.3,0.6s-0.1,0.5-0.1,0.7c0,0.2,0.1,0.5,0.2,0.7
			c0.1,0.2,0.3,0.5,0.5,0.7c0.3,0.2,0.5,0.4,0.8,0.4c0.3,0.1,0.5,0.1,0.7,0.1c0.2,0,0.5-0.1,0.7-0.2
			C43.3,214.2,43.5,214.1,43.7,213.9z M40.7,205.9l1.1-1.4l3.1,2.6l1.2-1.4l1.8,1.5l-1.2,1.4l2.9,2.3c0.3,0.2,0.2,0.5-0.2,1
			c-0.2,0.3-0.4,0.4-0.5,0.5c-0.1,0.1-0.3,0-0.4-0.1L40.7,205.9z M52.6,211.2l1.8,1.4l-3.3,4l2.3,1.9l-1.2,1.5l-2.3-1.9l-3.5,4.2
			c-0.1,0.1-0.3,0.2-0.5,0.1c-0.2-0.1-0.4-0.2-0.7-0.4c-0.6-0.5-0.8-0.8-0.6-1.1L52.6,211.2z"/>
		<path class="st7" d="M59.2,237.3c-0.1,0.2-0.2,0.2-0.4,0.1c-0.2-0.1-0.4-0.2-0.7-0.4c-0.3-0.2-0.5-0.4-0.7-0.5
			c-0.1-0.2-0.2-0.3-0.1-0.5l2.6-4l-8.6-5.5l1-1.6l4.3,2.8l1.4-2.1l-6.4-4.1l1-1.6l10.3,6.7l2.2-3.4c0.1-0.2,0.2-0.4,0.2-0.5
			c0-0.1-0.2-0.3-0.4-0.4l-7.6-4.9l1-1.6l8.1,5.2c0.2,0.1,0.4,0.3,0.5,0.7c0.2,0.3,0.3,0.6,0.3,0.9c0.1,0.3,0.1,0.6,0.1,0.9
			c0,0.3,0,0.5-0.1,0.7l-2.4,3.7l2.1,1.4c0.3,0.2,0.2,0.5-0.1,1c-0.2,0.3-0.4,0.5-0.5,0.5c-0.1,0.1-0.3,0.1-0.4,0l-6.1-4l-1.4,2.1
			l3.5,2.3c0.3,0.2,0.5,0.4,0.5,0.5c0.1,0.2,0,0.4-0.2,0.7L59.2,237.3z"/>
		<path class="st7" d="M76.8,235.2c0.1,0.2,0.1,0.3,0,0.4c-0.1,0.1-0.4,0.2-0.7,0.3c-0.3,0.1-0.6,0.2-0.7,0.1s-0.3-0.1-0.3-0.2
			c-0.2-0.3-0.3-0.6-0.5-1c-0.2-0.4-0.4-0.8-0.5-1.2s-0.3-0.9-0.4-1.3c-0.1-0.5-0.1-0.9-0.1-1.3c-0.4,0.3-0.8,0.5-1.2,0.7
			c-0.5,0.2-1,0.4-1.5,0.5s-1,0.2-1.5,0.3c-0.5,0.1-0.9,0.1-1.2,0.1c-0.2,0-0.3,0-0.4-0.1c-0.1-0.1-0.2-0.3-0.3-0.8
			c-0.1-0.3-0.1-0.6-0.2-0.8c0-0.2,0.1-0.3,0.3-0.3c0.6-0.1,1.2-0.2,1.8-0.3c0.6-0.1,1.2-0.3,1.7-0.5c0.5-0.2,1-0.5,1.5-0.8
			s0.8-0.8,1.1-1.3l-3.1-1.6l0.9-1.7l8,4.2c0.3,0.2,0.3,0.5,0,1.1c-0.3,0.5-0.6,0.7-0.9,0.6l-2.8-1.4c-0.2,0.5-0.3,1-0.3,1.6
			c0,0.6,0.1,1.1,0.2,1.7c0.1,0.6,0.3,1.1,0.6,1.6C76.4,234.2,76.6,234.7,76.8,235.2z M77.4,243.1c-0.3,0.6-0.7,1-1.1,1.4
			c-0.5,0.4-1,0.6-1.6,0.7c-0.6,0.1-1.2,0.1-1.8,0c-0.6-0.1-1.2-0.3-1.8-0.6c-0.6-0.3-1.1-0.7-1.6-1.2c-0.4-0.5-0.8-1-1-1.5
			c-0.2-0.5-0.3-1.1-0.3-1.7c0-0.6,0.2-1.2,0.5-1.7c0.3-0.6,0.7-1,1.1-1.4s1-0.6,1.6-0.7c0.6-0.1,1.2-0.1,1.8,0
			c0.6,0.1,1.2,0.3,1.8,0.6c0.6,0.3,1.1,0.7,1.6,1.2c0.4,0.5,0.8,1,1,1.5s0.3,1.1,0.3,1.7C77.9,241.9,77.7,242.5,77.4,243.1z
			 M70.7,239.6c-0.3,0.6-0.4,1.2-0.2,1.9c0.2,0.6,0.7,1.1,1.4,1.5c0.7,0.4,1.4,0.5,2,0.3s1.1-0.6,1.4-1.2s0.4-1.2,0.2-1.9
			c-0.2-0.6-0.7-1.1-1.4-1.5s-1.4-0.5-2-0.3C71.5,238.6,71,239,70.7,239.6z M82.4,229.6l2,1l-1.7,3.2l2.7,1.4l-0.9,1.7l-2.7-1.4
			l-1.8,3.6c-0.1,0.2-0.2,0.2-0.4,0.2c-0.2,0-0.5-0.1-0.8-0.3s-0.5-0.3-0.7-0.5c-0.2-0.2-0.2-0.3-0.1-0.5L82.4,229.6z"/>
		<path class="st7" d="M92.6,241.6c-0.3,0.7-0.7,1.3-1.1,1.8c-0.4,0.5-0.9,0.8-1.5,1c-0.5,0.2-1.1,0.3-1.7,0.3
			c-0.6,0-1.2-0.2-1.8-0.4c-0.6-0.3-1.2-0.6-1.6-1c-0.4-0.4-0.8-0.9-1-1.4s-0.3-1.1-0.3-1.7s0.2-1.3,0.5-2c0.3-0.7,0.7-1.3,1.1-1.8
			c0.4-0.5,0.9-0.8,1.5-1c0.5-0.2,1.1-0.3,1.7-0.3c0.6,0,1.2,0.2,1.8,0.4c0.6,0.3,1.2,0.6,1.6,1s0.8,0.9,1,1.4s0.3,1.1,0.3,1.7
			S92.9,240.9,92.6,241.6z M90.5,240.8c0.2-0.4,0.2-0.7,0.3-1.1c0-0.4,0-0.7-0.1-1c-0.1-0.3-0.2-0.6-0.5-0.9
			c-0.2-0.3-0.5-0.5-0.9-0.6s-0.7-0.2-1.1-0.2s-0.7,0.1-0.9,0.3c-0.3,0.2-0.5,0.4-0.8,0.7c-0.2,0.3-0.4,0.6-0.6,1
			c-0.2,0.4-0.2,0.7-0.3,1.1c0,0.4,0,0.7,0.1,1c0.1,0.3,0.2,0.6,0.5,0.9c0.2,0.3,0.5,0.5,0.9,0.6c0.4,0.2,0.7,0.2,1.1,0.2
			s0.7-0.1,0.9-0.3c0.3-0.2,0.5-0.4,0.8-0.7C90.2,241.5,90.4,241.1,90.5,240.8z M99.9,237.6l2.1,0.9l-6.2,14.9
			c-0.1,0.3-0.5,0.3-1.2,0c-0.7-0.3-1-0.6-0.9-0.9l3.3-7.9l-1.9-0.8l-3.2,7.7c-0.1,0.1-0.2,0.2-0.4,0.2c-0.2,0-0.5-0.1-0.8-0.2
			c-0.7-0.3-1-0.6-0.9-0.9l6.1-14.6l2.1,0.9l-2.1,5.1l1.9,0.8L99.9,237.6z"/>
		<path class="st7" d="M111,246.6c-0.2,0.6-0.5,1.1-0.9,1.6c-0.4,0.5-0.8,0.8-1.4,1.1c-0.5,0.3-1.1,0.4-1.8,0.4
			c-0.6,0-1.3-0.1-2-0.3c-0.7-0.2-1.3-0.6-1.8-1c-0.5-0.4-0.9-0.9-1.1-1.4s-0.4-1.1-0.4-1.7c0-0.6,0-1.2,0.2-1.8
			c0.2-0.6,0.5-1.1,0.9-1.6s0.8-0.8,1.4-1.1s1.1-0.4,1.8-0.4c0.6,0,1.3,0.1,2,0.3c0.7,0.2,1.3,0.6,1.8,1c0.5,0.4,0.9,0.9,1.1,1.4
			c0.3,0.5,0.4,1.1,0.4,1.7C111.3,245.4,111.2,246,111,246.6z M103.6,257.7c-0.2-0.1-0.4-0.2-0.7-0.5c-0.2-0.3-0.4-0.5-0.5-0.8
			c-0.1-0.3-0.2-0.5-0.3-0.8c-0.1-0.3-0.1-0.5,0-0.7l1.3-4l2.2,0.7l-1.2,3.7c-0.1,0.4,0,0.7,0.4,0.8l8.2,2.7
			c0.3,0.1,0.4,0.5,0.2,1.1c-0.1,0.3-0.2,0.5-0.4,0.6c-0.1,0.1-0.3,0.1-0.4,0.1L103.6,257.7z M108.9,245.9c0.1-0.3,0.2-0.7,0.2-1
			c0-0.3-0.1-0.7-0.2-1c-0.1-0.3-0.3-0.6-0.6-0.8c-0.3-0.2-0.6-0.4-1-0.6c-0.4-0.1-0.8-0.2-1.1-0.1c-0.4,0-0.7,0.1-1,0.3
			c-0.3,0.2-0.5,0.4-0.7,0.7c-0.2,0.3-0.4,0.6-0.5,0.9c-0.1,0.3-0.2,0.7-0.2,1c0,0.3,0.1,0.7,0.2,1c0.1,0.3,0.3,0.6,0.6,0.8
			c0.3,0.2,0.6,0.4,1,0.6s0.8,0.2,1.1,0.1s0.7-0.1,1-0.3c0.3-0.2,0.5-0.4,0.7-0.7C108.6,246.5,108.8,246.2,108.9,245.9z
			 M114.2,255.1c-0.1,0.2-0.2,0.2-0.4,0.2c-0.2,0-0.5-0.1-0.8-0.2c-0.7-0.2-1-0.5-0.9-0.8l3.8-11.4l2.2,0.7L114.2,255.1z"/>
		<path class="st7" d="M120.2,254.1c-0.2-0.1-0.5-0.2-0.7-0.5c-0.2-0.3-0.4-0.5-0.6-0.8c-0.1-0.2-0.3-0.5-0.4-0.8
			c-0.1-0.3-0.1-0.5-0.1-0.7l1.7-6.4l8.5,2.2c0.3,0.1,0.4,0.4,0.2,1c-0.2,0.6-0.4,0.9-0.7,0.8l-6.3-1.6l-1.1,4.3
			c-0.1,0.2-0.1,0.4,0,0.5c0.1,0.1,0.2,0.2,0.4,0.2l6.8,1.8c0.3,0.1,0.4,0.4,0.2,1s-0.4,0.9-0.7,0.8L120.2,254.1z M120.8,263
			c-0.2-0.1-0.5-0.2-0.7-0.5s-0.4-0.5-0.6-0.8c-0.1-0.2-0.3-0.5-0.4-0.8c-0.1-0.3-0.1-0.5-0.1-0.7l1.1-4.1l2.2,0.6l-1,3.7
			c-0.1,0.4,0,0.7,0.5,0.8l8.4,2.2c0.3,0.1,0.4,0.4,0.2,1.1c-0.1,0.3-0.2,0.6-0.3,0.7c-0.1,0.1-0.3,0.2-0.4,0.1L120.8,263z
			 M132.1,247.4l2.2,0.6l-1.2,4.5l2.9,0.8l-0.5,1.8l-2.9-0.8l-1.4,5.3c0,0.2-0.2,0.2-0.4,0.3c-0.2,0-0.5,0-0.8-0.1
			c-0.7-0.2-1.1-0.4-1-0.7L132.1,247.4z"/>
		<path class="st7" d="M141.5,254.4l-0.1,0.3c-0.1,0.6-0.2,1.2-0.2,1.7c0,0.5,0.1,1,0.3,1.5c0.1,0.3,0.2,0.5,0.4,0.8
			c0.1,0.3,0.3,0.6,0.5,0.9c0.2,0.3,0.4,0.7,0.6,1s0.4,0.6,0.6,0.9c0.1,0.1,0.1,0.3,0,0.4c-0.1,0.1-0.3,0.3-0.5,0.5
			c-0.3,0.2-0.5,0.3-0.6,0.3c-0.2,0-0.3,0-0.4-0.1c-0.2-0.3-0.5-0.6-0.7-1s-0.5-0.7-0.7-1.1s-0.4-0.8-0.6-1.2s-0.3-0.8-0.4-1.1
			c-0.2,0.3-0.5,0.6-0.8,0.9c-0.3,0.3-0.7,0.6-1,0.9c-0.4,0.3-0.7,0.6-1.1,0.8c-0.3,0.3-0.7,0.5-0.9,0.6c-0.2,0.1-0.6-0.1-0.9-0.6
			c-0.2-0.2-0.3-0.5-0.4-0.6c-0.1-0.2,0-0.3,0.1-0.4c0.6-0.4,1.1-0.8,1.6-1.2c0.5-0.4,0.9-0.8,1.3-1.2c0.3-0.2,0.5-0.5,0.7-0.7
			c0.2-0.2,0.3-0.5,0.5-0.8c0.1-0.3,0.2-0.5,0.3-0.8c0.1-0.3,0.2-0.6,0.2-1l0.1-0.3l-3-0.6l0.4-1.9l3,0.6l0.5-2.5l2.3,0.4l-0.5,2.5
			l3,0.6c0.3,0.1,0.4,0.4,0.3,1.1c-0.1,0.6-0.3,0.9-0.7,0.8L141.5,254.4z M146.2,266.9c0,0.1-0.1,0.2-0.3,0.3c-0.2,0-0.5,0-0.9,0
			c-0.7-0.1-1.1-0.4-1-0.7l1.5-8l-2.8-0.5l0.4-1.9l2.8,0.5l1.1-5.6l2.2,0.4L146.2,266.9z M151,251.5l2.2,0.4l-3.1,15.9
			c-0.1,0.3-0.5,0.4-1.2,0.2c-0.7-0.1-1.1-0.4-1-0.7L151,251.5z"/>
		<path class="st7" d="M153.3,262.1l0.2-1.8l7.5,1l0.3-2.5l2.3,0.3l-0.3,2.5l7.2,0.9c0.3,0,0.4,0.4,0.4,1c0,0.3-0.1,0.6-0.2,0.7
			c-0.1,0.1-0.2,0.2-0.4,0.2L153.3,262.1z M156.6,255l0.2-1.8l5.1,0.7l0.2-1.5l2.3,0.3l-0.2,1.5l4.9,0.6c0.3,0,0.4,0.4,0.4,1
			c0,0.3-0.1,0.6-0.2,0.7c-0.1,0.1-0.2,0.2-0.4,0.2l-4.5-0.6c0.2,0.4,0.5,0.8,0.9,1.1c0.4,0.4,0.9,0.7,1.3,1s0.9,0.6,1.4,0.8
			c0.5,0.2,0.8,0.4,1.1,0.6c0.1,0.1,0.2,0.2,0.1,0.3c-0.1,0.1-0.2,0.3-0.4,0.6c-0.2,0.3-0.3,0.4-0.4,0.5s-0.2,0.1-0.4,0.1
			c-0.4-0.1-0.8-0.3-1.3-0.6s-1-0.6-1.6-0.9s-1-0.8-1.5-1.2c-0.5-0.4-0.8-0.9-1-1.3c-0.3,0.4-0.8,0.7-1.3,0.9s-1.1,0.5-1.7,0.7
			c-0.6,0.2-1.2,0.4-1.8,0.5s-1.1,0.3-1.5,0.3c-0.2,0-0.3,0-0.3-0.1c-0.1-0.1-0.2-0.3-0.2-0.6c-0.1-0.3-0.2-0.6-0.2-0.7
			s0.1-0.2,0.2-0.3c0.3-0.1,0.8-0.2,1.3-0.3c0.5-0.1,1-0.3,1.6-0.5c0.5-0.2,1-0.4,1.5-0.6c0.5-0.2,0.9-0.5,1.2-0.8L156.6,255z
			 M166.3,268.5c-0.1,0.6-0.3,1.1-0.6,1.5c-0.3,0.4-0.7,0.8-1.2,1c-0.5,0.3-1.1,0.4-1.7,0.5c-0.6,0.1-1.2,0.1-1.9,0
			c-0.6-0.1-1.2-0.2-1.8-0.5c-0.6-0.2-1.1-0.6-1.5-0.9c-0.4-0.4-0.7-0.8-0.9-1.3s-0.3-1-0.2-1.6c0.1-0.6,0.3-1.1,0.6-1.5
			c0.3-0.4,0.7-0.8,1.2-1c0.5-0.3,1.1-0.4,1.7-0.5c0.6-0.1,1.2-0.1,1.9,0c0.6,0.1,1.2,0.2,1.8,0.5c0.6,0.2,1.1,0.6,1.5,0.9
			c0.4,0.4,0.7,0.8,0.9,1.3C166.3,267.4,166.3,267.9,166.3,268.5z M158.6,267.5c-0.1,0.5,0.1,1,0.6,1.4c0.4,0.4,1.1,0.7,1.9,0.8
			c0.8,0.1,1.5,0,2-0.3c0.5-0.3,0.8-0.7,0.9-1.2c0.1-0.5-0.1-1-0.6-1.4c-0.4-0.4-1.1-0.7-1.9-0.8c-0.8-0.1-1.5,0-2,0.3
			C159,266.5,158.7,267,158.6,267.5z"/>
		<path class="st7" d="M186.5,267.4c0,0.2-0.1,0.3-0.4,0.3c-0.2,0-0.5,0.1-0.8,0c-0.4,0-0.6-0.1-0.8-0.2c-0.2-0.1-0.3-0.2-0.3-0.4
			l0.3-3.5l-5.3-0.4c-0.4,0.3-0.9,0.5-1.5,0.7c-0.6,0.1-1.2,0.2-1.8,0.1c-0.8-0.1-1.4-0.2-2-0.5c-0.6-0.3-1.1-0.6-1.5-1.1
			c-0.4-0.4-0.7-0.9-0.8-1.5c-0.2-0.6-0.2-1.2-0.2-1.8c0-0.6,0.2-1.2,0.5-1.7c0.3-0.5,0.6-1,1.1-1.4s1-0.7,1.6-0.9
			c0.6-0.2,1.3-0.3,2.1-0.2c0.8,0.1,1.5,0.3,2.2,0.6c0.6,0.3,1.1,0.8,1.5,1.3l4.7,0.4l0.2-2l2.3,0.2L186.5,267.4z M178.8,259.8
			c0-0.4,0-0.7-0.1-1c-0.1-0.3-0.2-0.6-0.4-0.9c-0.2-0.3-0.5-0.5-0.8-0.6s-0.7-0.3-1.1-0.3c-0.4,0-0.8,0-1.1,0.1
			c-0.3,0.1-0.6,0.3-0.9,0.5c-0.2,0.2-0.4,0.5-0.6,0.8c-0.1,0.3-0.2,0.6-0.2,1s0,0.7,0.1,1c0.1,0.3,0.2,0.6,0.4,0.9
			c0.2,0.3,0.5,0.5,0.8,0.6c0.3,0.2,0.7,0.3,1.1,0.3c0.4,0,0.8,0,1.1-0.1c0.3-0.1,0.6-0.3,0.9-0.5c0.2-0.2,0.4-0.5,0.6-0.8
			S178.8,260.2,178.8,259.8z M176.7,272.6c-0.2,0-0.5-0.1-0.8-0.3c-0.3-0.2-0.5-0.4-0.7-0.7c-0.2-0.2-0.4-0.4-0.5-0.7
			c-0.1-0.3-0.2-0.5-0.2-0.7l0.3-4.2l2.3,0.2l-0.3,3.9c0,0.4,0.2,0.7,0.6,0.7l8.6,0.6c0.3,0,0.5,0.4,0.4,1c0,0.3-0.1,0.6-0.2,0.7
			c-0.1,0.1-0.2,0.2-0.4,0.2L176.7,272.6z M181,260c0,0.6-0.2,1.1-0.4,1.6l3.9,0.3l0.2-2.7l-3.8-0.3
			C181.1,259.2,181.1,259.6,181,260z"/>
		<path class="st7" d="M188.8,258.6l0-1.8l4,0.1l0-1.8l2.4,0l0,1.8l3.7,0.1c0.3,0,0.5,0.3,0.5,0.9c0,0.3,0,0.6-0.1,0.7
			c-0.1,0.1-0.2,0.2-0.4,0.2L188.8,258.6z M198.3,262.7c0,0.5-0.1,0.9-0.3,1.3c-0.2,0.4-0.5,0.7-0.9,1s-0.8,0.5-1.4,0.7
			c-0.5,0.2-1.1,0.2-1.7,0.2c-0.6,0-1.2-0.1-1.7-0.3c-0.5-0.2-1-0.4-1.3-0.7s-0.7-0.7-0.9-1.1c-0.2-0.4-0.3-0.9-0.3-1.3
			s0.1-0.9,0.3-1.3c0.2-0.4,0.5-0.7,0.9-1c0.4-0.3,0.8-0.5,1.4-0.7s1.1-0.2,1.7-0.2c0.6,0,1.2,0.1,1.7,0.3c0.5,0.2,1,0.4,1.3,0.7
			c0.4,0.3,0.7,0.7,0.9,1.1C198.2,261.8,198.3,262.2,198.3,262.7z M193.7,273.7c-0.2,0-0.5-0.1-0.8-0.3c-0.3-0.2-0.5-0.4-0.7-0.6
			c-0.2-0.2-0.4-0.4-0.5-0.7c-0.2-0.2-0.2-0.5-0.2-0.6l0.1-4.7l2.3,0l0,1.5l7.1,0.1l0-1.5l2.3,0l-0.1,5.5c0,0.4-0.1,0.7-0.3,0.9
			c-0.2,0.2-0.5,0.3-0.9,0.3L193.7,273.7z M196.2,262.6c0-0.4-0.2-0.8-0.5-1.1c-0.4-0.3-0.9-0.5-1.5-0.5c-0.7,0-1.2,0.1-1.6,0.4
			s-0.6,0.7-0.6,1.1c0,0.4,0.2,0.8,0.5,1.1c0.4,0.3,0.9,0.5,1.5,0.5c0.7,0,1.2-0.1,1.6-0.4C195.9,263.5,196.1,263.1,196.2,262.6z
			 M200.8,272l0-1.5l-7.1-0.1l0,1c0,0.3,0.1,0.5,0.5,0.5L200.8,272z M201.3,255.8l2.3,0l-0.1,3.8l3,0.1l0,1.9l-3-0.1l-0.1,4.1
			c0,0.2-0.1,0.3-0.3,0.3c-0.2,0.1-0.5,0.1-0.8,0.1c-0.3,0-0.6,0-0.8-0.1c-0.2-0.1-0.3-0.2-0.3-0.4L201.3,255.8z"/>
		<path class="st7" d="M206.9,259.5l-0.1-1.9l4.4-0.1l-0.1-1.9l2.3-0.1l0.1,1.9l3.9-0.1c0.3,0,0.5,0.3,0.5,0.9c0,0.6-0.1,0.9-0.5,1
			L206.9,259.5z M217,263.3c0,0.4-0.1,0.8-0.2,1.2c-0.2,0.4-0.4,0.7-0.6,1c-0.3,0.3-0.6,0.6-1,0.8c-0.4,0.2-0.8,0.4-1.3,0.5l0.1,2.1
			l4.8-0.2c0.3,0,0.5,0.3,0.5,0.9c0,0.6-0.1,0.9-0.5,0.9l-11.8,0.4l-0.1-1.9l4.8-0.2l-0.1-2.1c-0.5-0.1-1-0.2-1.4-0.4
			c-0.4-0.2-0.8-0.4-1.1-0.7c-0.3-0.3-0.6-0.6-0.8-1s-0.3-0.8-0.3-1.3c0-0.5,0.1-1,0.3-1.5c0.2-0.4,0.5-0.8,0.9-1.2
			c0.4-0.3,0.9-0.6,1.4-0.8c0.5-0.2,1.1-0.3,1.7-0.3c0.6,0,1.2,0,1.8,0.2c0.6,0.2,1,0.4,1.5,0.7s0.8,0.7,1,1.1
			C216.8,262.3,216.9,262.8,217,263.3z M210.3,263.5c0,0.3,0.1,0.6,0.2,0.8c0.1,0.2,0.3,0.4,0.5,0.6c0.2,0.2,0.5,0.3,0.7,0.3
			c0.3,0.1,0.6,0.1,0.9,0.1c0.3,0,0.6-0.1,0.8-0.1c0.3-0.1,0.5-0.2,0.7-0.4c0.2-0.2,0.4-0.4,0.5-0.6s0.2-0.5,0.1-0.8
			c0-0.3-0.1-0.5-0.2-0.8s-0.3-0.4-0.5-0.6c-0.2-0.2-0.5-0.3-0.7-0.3s-0.6-0.1-0.9-0.1s-0.6,0.1-0.8,0.1c-0.3,0.1-0.5,0.2-0.7,0.4
			s-0.4,0.4-0.5,0.6C210.3,263,210.2,263.2,210.3,263.5z M222.5,271.7c0,0.2-0.1,0.3-0.3,0.4c-0.2,0.1-0.5,0.1-0.8,0.1
			s-0.6,0-0.8-0.1c-0.2-0.1-0.3-0.2-0.3-0.3l-0.5-16.2l2.3-0.1L222.5,271.7z"/>
		<path class="st7" d="M229.7,258.4l-0.2-1.8l4-0.4l-0.2-1.8l2.3-0.2l0.2,1.8l3.7-0.4c0.3,0,0.5,0.2,0.6,0.8c0,0.3,0,0.6,0,0.7
			c-0.1,0.1-0.2,0.2-0.4,0.2L229.7,258.4z M239.7,261.6c0.1,0.5,0,1-0.2,1.5c-0.2,0.5-0.4,0.9-0.8,1.2c-0.3,0.4-0.8,0.6-1.3,0.9
			c-0.5,0.2-1.1,0.4-1.6,0.4c-0.6,0.1-1.2,0-1.7-0.1s-1-0.3-1.4-0.6s-0.8-0.6-1-1s-0.4-0.9-0.5-1.4s0-1,0.2-1.5
			c0.2-0.5,0.4-0.9,0.8-1.2c0.3-0.4,0.8-0.6,1.3-0.9c0.5-0.2,1-0.4,1.6-0.4c0.6-0.1,1.1,0,1.7,0.1c0.5,0.1,1,0.3,1.4,0.6
			c0.4,0.3,0.8,0.6,1,1C239.4,260.6,239.6,261.1,239.7,261.6z M237.4,261.9c0-0.5-0.3-0.9-0.7-1.2s-0.9-0.5-1.6-0.4
			c-0.6,0.1-1.1,0.3-1.4,0.7c-0.3,0.4-0.4,0.8-0.4,1.3c0,0.2,0.1,0.5,0.2,0.7c0.1,0.2,0.3,0.4,0.5,0.5s0.4,0.3,0.7,0.3
			c0.3,0.1,0.5,0.1,0.9,0.1c0.3,0,0.6-0.1,0.9-0.2c0.2-0.1,0.4-0.3,0.6-0.5c0.2-0.2,0.3-0.4,0.3-0.6
			C237.4,262.3,237.4,262.1,237.4,261.9z M236.6,272.2c-0.2,0-0.5,0-0.8-0.2s-0.6-0.3-0.8-0.5c-0.2-0.2-0.4-0.4-0.6-0.6
			s-0.3-0.4-0.3-0.6l-0.4-3.4l2.2-0.2l0.3,3.1c0,0.4,0.3,0.6,0.7,0.6l8.6-0.9c0.3,0,0.5,0.3,0.6,0.9c0,0.3,0,0.6-0.1,0.7
			c-0.1,0.2-0.2,0.2-0.3,0.3L236.6,272.2z M241.7,253.6l2.3-0.2l0.6,5.2l3-0.3l0.2,1.9l-3,0.3l0.6,5.5c0,0.2-0.1,0.3-0.3,0.4
			s-0.5,0.2-0.8,0.2c-0.7,0.1-1.1,0-1.2-0.3L241.7,253.6z"/>
		<path class="st7" d="M264.4,268.2c0,0.2,0,0.3-0.2,0.4c-0.2,0.1-0.5,0.2-0.8,0.2c-0.4,0.1-0.6,0.1-0.8,0c-0.2,0-0.3-0.1-0.4-0.3
			l-0.8-4.7l-10.1,1.7l-0.3-1.9l5.1-0.8l-0.4-2.5l-7.5,1.2l-0.3-1.9l12.2-2l-0.7-4c0-0.3-0.1-0.4-0.2-0.5s-0.3-0.1-0.5,0l-8.9,1.5
			l-0.3-1.9l9.5-1.6c0.2,0,0.5,0,0.8,0.1c0.3,0.1,0.6,0.3,0.9,0.5c0.2,0.2,0.5,0.3,0.7,0.6s0.3,0.4,0.3,0.6l0.7,4.3l2.5-0.4
			c0.3-0.1,0.5,0.2,0.6,0.9c0.1,0.3,0.1,0.6,0,0.7c-0.1,0.2-0.2,0.2-0.3,0.3l-7.2,1.2l0.4,2.5l4.1-0.7c0.3-0.1,0.6,0,0.7,0.1
			c0.2,0.1,0.3,0.3,0.3,0.6L264.4,268.2z"/>
		<path class="st7" d="M273.4,250.7c0.1,0.4,0.1,0.9,0,1.3c-0.1,0.4-0.3,0.8-0.6,1.1c-0.3,0.3-0.7,0.6-1.2,0.9
			c-0.5,0.3-1,0.4-1.6,0.6c-0.6,0.1-1.1,0.2-1.6,0.2c-0.5,0-1-0.1-1.4-0.3c-0.4-0.2-0.8-0.4-1.1-0.7c-0.3-0.3-0.5-0.7-0.6-1.2
			c-0.1-0.4-0.1-0.9,0-1.3c0.1-0.4,0.3-0.8,0.6-1.1c0.3-0.3,0.7-0.6,1.2-0.9s1-0.4,1.6-0.6c0.6-0.1,1.1-0.2,1.6-0.2
			c0.5,0,1,0.1,1.4,0.3c0.4,0.2,0.8,0.4,1.1,0.7S273.3,250.3,273.4,250.7z M274.7,254.2c0.3-0.1,0.5,0.2,0.7,0.7
			c0.1,0.3,0.1,0.5,0,0.6c-0.1,0.1-0.2,0.2-0.3,0.3l-3.6,0.8l0.6,2.5c0,0.2,0,0.3-0.2,0.4s-0.4,0.2-0.8,0.3
			c-0.3,0.1-0.6,0.1-0.8,0.1c-0.2,0-0.4-0.1-0.4-0.3l-0.6-2.5l-3,0.7l-0.4-1.6L274.7,254.2z M271.2,251.2c0-0.2-0.1-0.3-0.2-0.5
			c-0.1-0.1-0.3-0.3-0.4-0.4c-0.2-0.1-0.4-0.2-0.7-0.2c-0.3,0-0.5,0-0.8,0.1c-0.3,0.1-0.6,0.2-0.8,0.3c-0.2,0.1-0.4,0.3-0.5,0.5
			s-0.2,0.3-0.2,0.5c0,0.2,0,0.4,0,0.5s0.1,0.3,0.2,0.5s0.3,0.3,0.5,0.4c0.2,0.1,0.4,0.2,0.7,0.2c0.3,0,0.5,0,0.9-0.1
			c0.3-0.1,0.6-0.2,0.8-0.3s0.4-0.3,0.5-0.5c0.1-0.2,0.2-0.3,0.2-0.5C271.2,251.6,271.2,251.4,271.2,251.2z M273.9,266.5
			c-0.1,0-0.3,0-0.5-0.1c-0.2-0.1-0.5-0.2-0.7-0.3c-0.3-0.1-0.5-0.3-0.7-0.5c-0.2-0.2-0.3-0.3-0.3-0.5l-1-4.3l2.2-0.5l0.3,1.1l8-1.8
			l-0.3-1.1l2.2-0.5l1.1,4.8c0.1,0.4,0.1,0.7-0.1,1c-0.1,0.3-0.4,0.4-0.8,0.5L273.9,266.5z M273.4,257l3-0.7l-1.9-8.3l2.2-0.5
			l2.3,10.1c0,0.2,0,0.3-0.2,0.4c-0.2,0.1-0.5,0.2-0.8,0.3c-0.7,0.2-1.1,0.1-1.2-0.2l0-0.2l-3,0.7L273.4,257z M281.9,262.8l-0.3-1.4
			l-8,1.8l0.2,0.9c0,0.2,0.1,0.3,0.2,0.4c0.1,0.1,0.2,0.1,0.4,0L281.9,262.8z M283,256.9c0,0.2,0,0.3-0.2,0.4
			c-0.2,0.1-0.5,0.2-0.8,0.3c-0.7,0.2-1.1,0.1-1.2-0.2l-2.4-10.5l2.2-0.5L283,256.9z"/>
		<path class="st7" d="M293.7,250.1c0.2,0.1,0.3,0.2,0.2,0.3s-0.1,0.4-0.3,0.8c-0.2,0.3-0.3,0.5-0.4,0.6c-0.1,0.1-0.3,0.1-0.4,0.1
			c-0.3-0.1-0.7-0.2-1.1-0.4c-0.4-0.1-0.8-0.3-1.2-0.5c-0.4-0.2-0.8-0.4-1.2-0.7c-0.4-0.3-0.7-0.5-1-0.9c0,0.5-0.2,0.9-0.4,1.4
			c-0.2,0.5-0.4,0.9-0.7,1.4s-0.5,0.9-0.8,1.2c-0.3,0.4-0.5,0.7-0.8,1c-0.1,0.1-0.2,0.2-0.4,0.2c-0.1,0-0.4-0.1-0.8-0.3
			c-0.3-0.2-0.5-0.3-0.7-0.5c-0.1-0.1-0.1-0.3,0-0.4c0.4-0.5,0.8-1,1.1-1.5c0.4-0.5,0.6-1,0.9-1.5c0.2-0.5,0.4-1.1,0.5-1.6
			s0.1-1.1-0.1-1.7l-3.4,1l-0.5-1.8l8.6-2.6c0.3-0.1,0.6,0.2,0.7,0.8c0.2,0.6,0.1,0.9-0.2,1l-3,0.9c0.2,0.5,0.5,1,0.9,1.4
			c0.4,0.4,0.8,0.7,1.3,1c0.5,0.3,1,0.6,1.5,0.8C292.8,249.7,293.3,249.9,293.7,250.1z M292.7,261.7c-0.2,0.1-0.5,0.1-0.8,0
			c-0.3-0.1-0.6-0.2-0.9-0.4c-0.3-0.1-0.5-0.3-0.7-0.5s-0.4-0.4-0.4-0.5l-1.7-5.5l2.2-0.7l0.6,2l6.8-2.1l-0.6-2l2.2-0.7l1.9,6.3
			c0.1,0.4,0.1,0.7,0,1c-0.1,0.3-0.4,0.5-0.8,0.6L292.7,261.7z M299,257.8l-0.6-1.9l-6.8,2.1l0.4,1.4c0.1,0.3,0.3,0.4,0.6,0.4
			L299,257.8z M299.2,250.1c0,0.2,0,0.3-0.2,0.4c-0.2,0.1-0.4,0.2-0.7,0.3c-0.7,0.2-1.1,0.2-1.2-0.1l-1-3.4l-3.7,1.1l-0.5-1.8
			l3.7-1.1l-1-3.3l2.2-0.7L299.2,250.1z"/>
		<path class="st7" d="M301.8,250.1l-0.7-1.8l11.5-4.4l-1.7-4.5c-0.1-0.2-0.2-0.4-0.3-0.4c-0.1,0-0.3,0-0.5,0.1l-8.4,3.2l-0.7-1.8
			l9-3.4c0.2-0.1,0.5-0.1,0.8,0c0.3,0.1,0.6,0.2,0.9,0.3c0.3,0.1,0.5,0.3,0.8,0.4c0.2,0.2,0.4,0.3,0.5,0.5l1.8,4.8l2.4-0.9
			c0.3-0.1,0.6,0.1,0.8,0.7c0.1,0.3,0.2,0.6,0.1,0.7c0,0.2-0.1,0.3-0.2,0.3L301.8,250.1z M309.4,256.1c-0.2,0.1-0.5,0.1-0.8,0
			c-0.3-0.1-0.7-0.2-0.9-0.3c-0.3-0.1-0.5-0.3-0.8-0.4c-0.2-0.2-0.4-0.3-0.5-0.5l-1.4-3.7l2.1-0.8l1.3,3.4c0.2,0.4,0.4,0.5,0.8,0.4
			l8.5-3.2c0.3-0.1,0.6,0.1,0.8,0.7c0.1,0.3,0.2,0.6,0.1,0.7c0,0.2-0.1,0.3-0.3,0.3L309.4,256.1z"/>
		<path class="st7" d="M327.2,238.8c-0.4-0.1-0.8-0.2-1.3-0.3c-0.5-0.1-0.9-0.3-1.4-0.5s-0.9-0.4-1.3-0.6c-0.4-0.2-0.8-0.5-1.1-0.7
			c0,1-0.2,2-0.5,3s-0.7,1.9-1.1,2.8c-0.1,0.2-0.2,0.2-0.4,0.3c-0.2,0-0.4,0-0.8-0.2c-0.3-0.1-0.5-0.2-0.7-0.3
			c-0.1-0.1-0.2-0.2-0.1-0.4c0.2-0.6,0.5-1.2,0.7-1.8s0.4-1.3,0.6-1.9c0.1-0.6,0.2-1.3,0.2-1.9c0-0.6-0.2-1.2-0.4-1.8l-0.5-1.1
			l2.2-1l0.5,1.1c0.2,0.3,0.4,0.6,0.7,0.9c0.3,0.3,0.6,0.5,0.9,0.8c0.3,0.3,0.7,0.5,1.1,0.7c0.4,0.2,0.8,0.4,1.2,0.5
			c0.4,0.2,0.8,0.3,1.2,0.4c0.4,0.1,0.7,0.2,1,0.3c0.2,0,0.3,0.1,0.3,0.3c0,0.1,0,0.4-0.2,0.8c-0.1,0.3-0.2,0.6-0.3,0.7
			C327.5,238.9,327.3,238.9,327.2,238.8z M333.1,236.6c0.1,0.2,0,0.3-0.2,0.5c-0.2,0.2-0.4,0.3-0.7,0.4c-0.7,0.3-1.1,0.3-1.2,0.1
			l-1.8-3.8l-3.6,1.7l-0.8-1.7l3.6-1.7l-1.4-2.9l2.1-1L333.1,236.6z M334.7,241.2c0.3,0.6,0.4,1.2,0.4,1.8c0,0.6-0.1,1.1-0.4,1.7
			c-0.2,0.5-0.6,1-1,1.4c-0.5,0.4-1,0.8-1.6,1.1c-0.6,0.3-1.2,0.5-1.9,0.5s-1.2,0-1.8-0.1s-1.1-0.4-1.5-0.8
			c-0.5-0.4-0.8-0.8-1.1-1.4s-0.4-1.2-0.4-1.8s0.1-1.1,0.4-1.7s0.6-1,1-1.4c0.5-0.4,1-0.8,1.6-1.1s1.2-0.5,1.9-0.5
			c0.6-0.1,1.2,0,1.8,0.1s1.1,0.4,1.5,0.8C334.1,240.2,334.4,240.6,334.7,241.2z M327.9,244.4c0.3,0.6,0.8,1,1.4,1.3
			c0.6,0.2,1.3,0.1,2-0.2c0.7-0.4,1.2-0.8,1.5-1.5c0.2-0.6,0.2-1.2-0.1-1.9c-0.3-0.6-0.8-1-1.4-1.3c-0.6-0.2-1.3-0.1-2,0.2
			c-0.7,0.4-1.2,0.8-1.5,1.5S327.6,243.8,327.9,244.4z"/>
		<path class="st7" d="M341.6,226.8c0.3,0.5,0.5,1.1,0.6,1.7c0.1,0.6,0.1,1.2-0.1,1.7c-0.2,0.6-0.4,1.1-0.8,1.6s-0.9,1-1.6,1.3
			c-0.6,0.4-1.3,0.6-1.9,0.7c-0.6,0.1-1.2,0.1-1.8-0.1c-0.6-0.1-1.1-0.4-1.6-0.8s-0.9-0.8-1.2-1.4c-0.3-0.5-0.5-1.1-0.6-1.7
			c-0.1-0.6-0.1-1.2,0.1-1.7s0.4-1.1,0.8-1.6s0.9-1,1.6-1.3c0.6-0.4,1.3-0.6,1.9-0.7c0.6-0.1,1.2-0.1,1.8,0.1
			c0.6,0.1,1.1,0.4,1.6,0.8C340.9,225.8,341.3,226.2,341.6,226.8z M339.7,227.9c-0.2-0.3-0.4-0.6-0.7-0.8c-0.3-0.2-0.6-0.4-0.9-0.5
			c-0.3-0.1-0.6-0.1-1-0.1c-0.3,0-0.7,0.2-1.1,0.4c-0.4,0.2-0.6,0.5-0.8,0.7c-0.2,0.3-0.3,0.6-0.4,0.9c-0.1,0.3-0.1,0.7,0,1
			c0.1,0.3,0.2,0.7,0.4,1c0.2,0.3,0.4,0.6,0.7,0.8c0.3,0.2,0.6,0.4,0.9,0.5c0.3,0.1,0.6,0.1,1,0.1s0.7-0.2,1.1-0.4
			c0.4-0.2,0.6-0.5,0.8-0.7c0.2-0.3,0.3-0.6,0.4-0.9c0.1-0.3,0.1-0.7,0-1C340,228.5,339.9,228.2,339.7,227.9z M345.1,239.7
			c-0.2,0.1-0.5,0.2-0.8,0.2c-0.3,0-0.7-0.1-1-0.1c-0.3-0.1-0.5-0.2-0.8-0.3c-0.3-0.1-0.4-0.3-0.5-0.4l-2.1-3.6l2-1.2l2,3.3
			c0.2,0.4,0.5,0.5,0.9,0.2l7.5-4.4c0.3-0.2,0.6,0,0.9,0.6c0.2,0.3,0.3,0.5,0.3,0.7c0,0.2-0.1,0.3-0.2,0.4L345.1,239.7z
			 M350.2,229.9c0.1,0.1,0,0.3-0.1,0.5c-0.2,0.2-0.4,0.3-0.7,0.5c-0.6,0.4-1,0.4-1.2,0.2l-6.1-10.4l2-1.2L350.2,229.9z"/>
		<path class="st7" d="M354.6,216.3c0,0.5,0,1-0.2,1.6s-0.3,1.1-0.6,1.7c-0.2,0.6-0.5,1.1-0.8,1.7c-0.3,0.6-0.6,1.1-1,1.5
			c-0.1,0.2-0.2,0.2-0.3,0.2s-0.3-0.1-0.6-0.2c-0.3-0.1-0.5-0.2-0.7-0.3s-0.1-0.2-0.1-0.3c0.3-0.4,0.5-0.9,0.8-1.4
			c0.3-0.5,0.6-1.1,0.8-1.6c0.2-0.5,0.4-1.1,0.5-1.6c0.1-0.5,0.1-1,0-1.5l-3.8,2.8l-1.1-1.5l9.6-7c0.3-0.2,0.6,0,0.9,0.5
			c0.2,0.3,0.3,0.5,0.3,0.6s0,0.3-0.2,0.4l-3.5,2.6c0.4,0.3,0.9,0.4,1.4,0.4c0.6,0,1.1,0,1.7,0c0.6-0.1,1.2-0.2,1.7-0.3
			s1.1-0.3,1.5-0.4c0.2,0,0.3,0,0.3,0.1c0,0.1,0.1,0.4,0.1,0.7c0,0.3,0.1,0.5,0.1,0.7c0,0.1-0.1,0.2-0.2,0.3c-0.4,0.2-1,0.3-1.6,0.4
			c-0.6,0.1-1.2,0.2-1.8,0.3c-0.6,0.1-1.2,0.1-1.8,0.1C355.5,216.6,355,216.5,354.6,216.3z M351.3,226.6l-1.1-1.5L364,215
			c0.3-0.2,0.6,0,0.9,0.5c0.2,0.3,0.3,0.5,0.3,0.7c0,0.2,0,0.3-0.2,0.4L351.3,226.6z M363.5,228.5c-0.6,0.4-1.2,0.8-1.8,1
			c-0.6,0.2-1.2,0.3-1.7,0.3c-0.5,0-1.1-0.1-1.5-0.4c-0.5-0.2-0.9-0.6-1.2-1s-0.5-0.9-0.6-1.4s-0.1-1,0.1-1.6
			c0.1-0.5,0.4-1.1,0.8-1.6c0.4-0.5,0.9-1,1.5-1.4c0.6-0.4,1.2-0.8,1.8-1c0.6-0.2,1.2-0.3,1.7-0.3c0.5,0,1.1,0.1,1.5,0.4
			c0.5,0.2,0.9,0.6,1.2,1c0.3,0.4,0.5,0.9,0.6,1.4c0.1,0.5,0.1,1-0.1,1.6c-0.1,0.5-0.4,1.1-0.8,1.6
			C364.6,227.6,364.1,228,363.5,228.5z M360,223.8c-0.6,0.5-1.1,1-1.2,1.6c-0.2,0.6-0.1,1.1,0.3,1.6c0.4,0.5,0.9,0.8,1.5,0.8
			c0.6,0,1.3-0.3,1.9-0.7c0.6-0.5,1.1-1,1.2-1.6c0.2-0.6,0.1-1.1-0.3-1.6c-0.4-0.5-0.9-0.8-1.5-0.8
			C361.3,223.1,360.6,223.3,360,223.8z"/>
		<path class="st7" d="M367.5,201.6c0.2-0.2,0.6-0.1,1,0.3c0.4,0.5,0.5,0.8,0.3,1l-1,0.9l3.2,3.4l1.3-1.2c0.2-0.2,0.6-0.1,1,0.4
			c0.4,0.4,0.5,0.8,0.3,1l-7.8,7.4l-1.3-1.4l1.4-1.3l-3.2-3.4l-1.4,1.3l-1.3-1.4L367.5,201.6z M366.1,205.4l-1.8,1.7l3.2,3.4
			l1.8-1.7L366.1,205.4z M377.5,204.2c0.1,0.1,0.1,0.3,0,0.5s-0.3,0.4-0.5,0.6c-0.5,0.5-0.9,0.7-1.1,0.5l-1.7-1.7l-1.8,1.7l-1.2-1.3
			l1.8-1.7l-1-1.1l-1.8,1.7l-1.2-1.3l1.8-1.7l-1.3-1.4l1.7-1.6L377.5,204.2z M380.6,208.2c0.4,0.4,0.7,0.9,0.9,1.5
			c0.2,0.5,0.2,1.1,0.2,1.7s-0.2,1.1-0.5,1.7c-0.3,0.6-0.7,1.1-1.2,1.6c-0.5,0.5-1,0.8-1.6,1.1c-0.6,0.3-1.2,0.4-1.7,0.4
			c-0.6,0-1.1,0-1.7-0.2c-0.5-0.2-1-0.5-1.4-0.9s-0.7-0.9-0.9-1.5c-0.2-0.5-0.2-1.1-0.2-1.7c0.1-0.6,0.2-1.1,0.5-1.7
			c0.3-0.6,0.7-1.1,1.2-1.6c0.5-0.5,1-0.8,1.6-1.1c0.6-0.3,1.2-0.4,1.7-0.4c0.6,0,1.1,0,1.7,0.2
			C379.8,207.4,380.2,207.7,380.6,208.2z M379,209.7c-0.2-0.2-0.5-0.4-0.7-0.5s-0.6-0.2-0.9-0.2s-0.6,0.1-1,0.2
			c-0.3,0.1-0.6,0.3-0.9,0.6c-0.3,0.3-0.5,0.6-0.7,0.9c-0.1,0.3-0.2,0.6-0.2,0.9c0,0.3,0,0.6,0.1,0.9c0.1,0.3,0.3,0.5,0.5,0.8
			s0.5,0.4,0.7,0.5s0.6,0.2,0.9,0.2s0.6-0.1,1-0.2c0.3-0.1,0.6-0.3,0.9-0.6c0.3-0.3,0.5-0.6,0.7-0.9c0.1-0.3,0.2-0.6,0.2-0.9
			c0-0.3,0-0.6-0.1-0.9C379.4,210.2,379.2,209.9,379,209.7z"/>
		<path class="st7" d="M379.6,193.7c-0.2-0.1-0.3-0.2-0.5-0.2s-0.3,0.1-0.5,0.3l-3.6,4.7l-1.5-1.2l4-5.2c0.2-0.2,0.4-0.3,0.7-0.4
			c0.3-0.1,0.7-0.1,1.1-0.1c0.8,0,1.3,0.1,1.7,0.3c0.5,0.4,0.9,0.8,1.2,1.2c0.3,0.4,0.6,0.9,0.8,1.4c0.2,0.5,0.3,1,0.5,1.5
			c0.1,0.5,0.2,1.1,0.2,1.6c0.1,0.9,0.1,1.8,0,2.8c0,1-0.1,2-0.3,3c0,0.2-0.1,0.3-0.2,0.4s-0.4,0.1-0.8,0.1c-0.4,0-0.6,0-0.8-0.1
			c-0.2,0-0.2-0.2-0.2-0.3c0.1-1.1,0.2-2,0.3-3c0.1-0.9,0.1-1.8,0-2.7c-0.1-0.9-0.3-1.7-0.6-2.4
			C380.8,194.8,380.3,194.2,379.6,193.7z M379.6,187.1l1.4-1.8l4.5,3.5l1.8-2.4l1.5,1.2l-1.8,2.4l6.8,5.2c0.1,0.1,0.2,0.3,0.1,0.5
			s-0.2,0.5-0.4,0.7c-0.5,0.6-0.8,0.8-1,0.6L379.6,187.1z"/>
		<path class="st7" d="M390,175.5c0.5,0.3,0.9,0.6,1.2,1s0.5,0.8,0.6,1.3c0.1,0.5,0.1,1,0,1.6c-0.1,0.6-0.3,1.1-0.6,1.7
			c-0.3,0.6-0.6,1.1-1,1.5s-0.8,0.7-1.2,1s-0.9,0.3-1.4,0.3c-0.5,0-1-0.1-1.5-0.4c-0.5-0.3-0.9-0.6-1.2-1s-0.5-0.8-0.6-1.3
			c-0.1-0.5-0.1-1,0-1.6c0.1-0.6,0.3-1.1,0.6-1.7c0.3-0.6,0.6-1.1,1-1.5c0.4-0.4,0.8-0.7,1.2-1c0.4-0.2,0.9-0.3,1.4-0.3
			C389,175.1,389.5,175.3,390,175.5z M389,177.5c-0.4-0.2-0.9-0.2-1.4-0.1s-0.9,0.6-1.2,1.3c-0.3,0.7-0.5,1.3-0.3,1.8
			c0.1,0.5,0.4,0.8,0.9,1.1c0.4,0.2,0.9,0.2,1.4,0.1s0.9-0.6,1.2-1.3s0.5-1.3,0.3-1.8C389.8,178.1,389.5,177.7,389,177.5z
			 M396,179.3l1.7-3.5l-9.3-4.6l1-2l12,6c0.2,0.1,0.2,0.2,0.2,0.5c0,0.2-0.1,0.5-0.3,0.8c-0.3,0.7-0.6,0.9-0.9,0.8l-1.1-0.6
			l-1.7,3.5L396,179.3z M394.5,176.1c0.1-0.3,0.5-0.3,1,0c0.5,0.3,0.7,0.5,0.6,0.8l-2.5,5l2,1c0.1,0.1,0.2,0.2,0.2,0.4
			c0,0.2-0.1,0.5-0.3,0.8c-0.1,0.3-0.3,0.5-0.5,0.7s-0.3,0.2-0.5,0.1l-2-1l-1.8,3.6l-1.6-0.8L394.5,176.1z M400.9,186.4
			c-0.1,0.2-0.3,0.4-0.6,0.6s-0.6,0.3-0.9,0.4c-0.3,0.1-0.5,0.2-0.8,0.2s-0.5,0-0.7-0.1l-2.4-1.2l1-2l2.1,1c0.4,0.2,0.7,0.1,0.9-0.3
			l4.2-8.5c0.1-0.3,0.5-0.3,1.1,0c0.3,0.2,0.5,0.3,0.6,0.4c0.1,0.1,0.1,0.3,0,0.4L400.9,186.4z"/>
	</g>
</g>
</svg>
