<svg xmlns="http://www.w3.org/2000/svg" width="166" height="54.543" viewBox="0 0 166 54.543">
  <g id="그룹_574" data-name="그룹 574" transform="translate(-519.45 -779.4)">
    <g id="그룹_14" data-name="그룹 14" transform="translate(519.45 805.545)">
      <g id="그룹_13" data-name="그룹 13">
        <path id="패스_20" data-name="패스 20" d="M597.872,825H602v-2.383h4.225v-3.7h-12.58v3.7h4.225Z" transform="translate(-515.267 -803.317)" fill="#414141"/>
        <path id="패스_21" data-name="패스 21" d="M611.345,825.239v-6.114h-4.129v7.189a7.335,7.335,0,0,0,.1,1.263c.368,2.069,1.824,3.076,4.452,3.076h4.5v-3.7h-3.416C612.2,826.938,611.413,826.624,611.345,825.239Z" transform="translate(-514.502 -803.306)" fill="#414141"/>
        <g id="그룹_6" data-name="그룹 6" transform="translate(0 0.866)">
          <rect id="사각형_10" data-name="사각형 10" width="14.684" height="3.695" transform="translate(0 14.953)" fill="#414141"/>
          <path id="패스_22" data-name="패스 22" d="M530.368,813.855c-.656-.02-1.443-.332-1.511-1.718V806.7c-.042-1.559-1.783-1.733-1.783-1.733h-4.5v1.9s2.153.2,2.153,1.68v3.577c-.034,1.359-.833,1.688-1.5,1.726H519.45v3.7H523a4.235,4.235,0,0,0,3.623-1.431l.173-.233.168.238c.654.924,1.873,1.405,3.622,1.427h3.547v-3.7Z" transform="translate(-519.45 -804.97)" fill="#414141"/>
        </g>
        <g id="그룹_7" data-name="그룹 7" transform="translate(18.387 0.866)">
          <path id="패스_23" data-name="패스 23" d="M551.541,808.666v-1.921l-.022.012c0-1.613-1.786-1.787-1.786-1.787H536.856v3.7H539.1v5.189h-2.244v3.7h5.277v2.588h-5.277v3.7h14.685v-3.7h-5.278v-2.588h5.278v-3.7H549.3v-5.189Zm-6.374,0v5.189h-1.937v-5.189" transform="translate(-536.856 -804.97)" fill="#414141"/>
        </g>
        <g id="그룹_8" data-name="그룹 8" transform="translate(55.162 0.866)">
          <path id="패스_24" data-name="패스 24" d="M588.576,804.97h-2.344v12.582h4.13v-10.8C590.354,805.144,588.576,804.97,588.576,804.97Z" transform="translate(-570.847 -804.97)" fill="#414141"/>
          <path id="패스_25" data-name="패스 25" d="M582.454,804.97H571.668v3.7h4.225v3.462c-.035,1.359-.835,1.688-1.5,1.726h-2.727v3.7h2.5a4.236,4.236,0,0,0,3.623-1.431l.172-.234.168.239c.654.924,1.873,1.405,3.622,1.427h2.5v-3.7h-2.715c-.655-.02-1.443-.332-1.51-1.718v-3.471h4.225v-1.914l-.008.005C584.24,805.144,582.454,804.97,582.454,804.97Z" transform="translate(-571.668 -804.97)" fill="#414141"/>
        </g>
        <g id="그룹_9" data-name="그룹 9" transform="translate(77.729 0.433)">
          <path id="패스_26" data-name="패스 26" d="M610.359,804.993h-2.343v4.334h-1.369l-.049-.144a6.825,6.825,0,0,0-6.626-4.624,7.019,7.019,0,0,0-4.422,1.507,6.306,6.306,0,0,0-2.519,5.216,6.518,6.518,0,0,0,1.541,4.272,6.686,6.686,0,0,0,5.4,2.452,7.183,7.183,0,0,0,3.124-.7,6.326,6.326,0,0,0,3.536-4.128l.043-.153h1.34v4.551h4.129v-10.8C612.138,805.167,610.359,804.993,610.359,804.993Zm-7.884,7.712,0,.006a2.617,2.617,0,0,1-2.5,1.6,2.7,2.7,0,0,1-1.332-.353,2.881,2.881,0,0,1-1.479-2.675,3.472,3.472,0,0,1,.307-1.421,2.62,2.62,0,0,1,2.5-1.607,2.672,2.672,0,0,1,1.331.354,2.881,2.881,0,0,1,1.479,2.674A3.477,3.477,0,0,1,602.475,812.7Z" transform="translate(-593.031 -804.56)" fill="#414141"/>
        </g>
        <g id="그룹_10" data-name="그룹 10" transform="translate(100.547 0.866)">
          <path id="패스_27" data-name="패스 27" d="M627.527,804.97h-12.9v3.7h2.243v5.189h-2.243v3.7h5.277v2.588h-5.277v3.7h14.684v-3.7h-5.278v-2.588h5.278v-3.7h-2.244v-5.189h2.244v-1.91h0C629.315,805.144,627.527,804.97,627.527,804.97Zm-4.586,8.885H621v-5.189h1.938Z" transform="translate(-614.631 -804.97)" fill="#414141"/>
        </g>
        <g id="그룹_11" data-name="그룹 11" transform="translate(118.242 0.866)">
          <path id="패스_28" data-name="패스 28" d="M642.906,814.071h-6.317a1.038,1.038,0,0,1-1.076-1.059l-.02-.229h6.065v-3.046h-6.046V808.45h7.395v-1.695l0,0c0-1.613-1.786-1.787-1.786-1.787h-9.736v8.675a7.185,7.185,0,0,0,.07,1.017c.3,1.944,1.623,2.889,4.053,2.889h7.4Z" transform="translate(-631.382 -804.97)" fill="#414141"/>
          <path id="패스_29" data-name="패스 29" d="M636.946,822.6H645.4v1.288h-8.451V827.8a7.175,7.175,0,0,0,.07,1.017c.3,1.944,1.624,2.888,4.053,2.888h8.457v-3.48h-7.374a1.038,1.038,0,0,1-1.076-1.059l-.02-.229h8.47v-7.812h-12.58Z" transform="translate(-631.068 -804.172)" fill="#414141"/>
          <path id="패스_30" data-name="패스 30" d="M647.384,804.97H645.04V809.3h-1.759V813h1.759v4.551h4.129V806.74C649.156,805.144,647.384,804.97,647.384,804.97Z" transform="translate(-630.711 -804.97)" fill="#414141"/>
        </g>
        <g id="그룹_12" data-name="그룹 12" transform="translate(36.774)">
          <path id="패스_31" data-name="패스 31" d="M568.946,807.669h0c0-1.555-1.656-1.772-1.775-1.785h-3.5V804.15H559.54v1.734h-5.278v3.7h5.278v2.594c-.036,1.359-.835,1.688-1.5,1.726h-3.779v3.7h3.549a4.233,4.233,0,0,0,3.623-1.431l.173-.234.168.239c.654.924,1.873,1.405,3.622,1.427h3.547v-3.7h-3.767c-.655-.02-1.443-.332-1.51-1.718v-2.6h5.277Z" transform="translate(-554.262 -804.15)" fill="#414141"/>
          <rect id="사각형_11" data-name="사각형 11" width="14.684" height="3.695" transform="translate(0 15.819)" fill="#414141"/>
        </g>
      </g>
    </g>
    <circle id="타원_7" data-name="타원 7" cx="5.426" cy="5.426" r="5.426" transform="translate(645.065 779.401)" fill="#414141"/>
    <circle id="타원_8" data-name="타원 8" cx="3.032" cy="3.032" r="3.032" transform="translate(657.618 788.694)" fill="#414141"/>
    <circle id="타원_9" data-name="타원 9" cx="5.336" cy="5.336" r="5.336" transform="translate(660.991 798.476)" fill="#414141"/>
    <circle id="타원_10" data-name="타원 10" cx="4.075" cy="4.075" r="4.075" transform="translate(671.663 790.682)" fill="#414141"/>
    <circle id="타원_11" data-name="타원 11" cx="2.36" cy="2.36" r="2.36" transform="translate(680.731 798.476)" fill="#414141"/>
  </g>
</svg>
