<svg xmlns="http://www.w3.org/2000/svg" width="203.571" height="66.888" viewBox="0 0 203.571 66.888">
  <g id="그룹_15" data-name="그룹 15" transform="translate(-519.45 -779.401)">
    <g id="그룹_14" data-name="그룹 14" transform="translate(519.45 811.463)">
      <g id="그룹_13" data-name="그룹 13">
        <path id="패스_20" data-name="패스 20" d="M598.828,826.375h5.065v-2.922h5.181v-4.534H593.647v4.534h5.181Z" transform="translate(-497.528 -799.786)" fill="#fff"/>
        <path id="패스_21" data-name="패스 21" d="M612.28,826.623v-7.5h-5.064v8.816a8.992,8.992,0,0,0,.128,1.549c.451,2.538,2.237,3.772,5.459,3.772h5.519v-4.532h-4.19C613.329,828.706,612.363,828.321,612.28,826.623Z" transform="translate(-493.518 -799.725)" fill="#fff"/>
        <g id="그룹_6" data-name="그룹 6" transform="translate(0 1.062)">
          <rect id="사각형_10" data-name="사각형 10" width="18.007" height="4.532" transform="translate(0 18.337)" fill="#fff"/>
          <path id="패스_22" data-name="패스 22" d="M532.839,815.866c-.8-.025-1.77-.407-1.852-2.106v-6.665c-.052-1.912-2.187-2.125-2.187-2.125h-5.519V807.3s2.64.25,2.64,2.06v4.386c-.041,1.666-1.022,2.07-1.837,2.117H519.45V820.4H523.8c2.087,0,3.582-.591,4.443-1.755l.213-.286.206.291c.8,1.134,2.3,1.723,4.442,1.75h4.35v-4.533Z" transform="translate(-519.45 -804.97)" fill="#fff"/>
        </g>
        <g id="그룹_7" data-name="그룹 7" transform="translate(22.549 1.062)">
          <path id="패스_23" data-name="패스 23" d="M554.864,809.5v-2.355l-.027.014c0-1.978-2.191-2.192-2.191-2.192h-15.79V809.5h2.752v6.363h-2.752V820.4h6.471v3.174h-6.471V828.1h18.008v-4.531h-6.472V820.4h6.472v-4.533h-2.753V809.5Zm-7.817,0v6.363h-2.376V809.5" transform="translate(-536.856 -804.97)" fill="#fff"/>
        </g>
        <g id="그룹_8" data-name="그룹 8" transform="translate(67.646 1.062)">
          <path id="패스_24" data-name="패스 24" d="M589.107,804.97h-2.875V820.4H591.3v-13.25C591.287,805.184,589.107,804.97,589.107,804.97Z" transform="translate(-567.365 -804.97)" fill="#fff"/>
          <path id="패스_25" data-name="패스 25" d="M584.895,804.97H571.668V809.5h5.182v4.245c-.043,1.666-1.023,2.07-1.838,2.117h-3.344V820.4h3.064c2.087,0,3.582-.591,4.443-1.755l.211-.288.206.293c.8,1.134,2.3,1.723,4.442,1.75H587.1v-4.533h-3.329c-.8-.025-1.77-.407-1.851-2.106V809.5H587.1v-2.347l-.01.006C587.085,805.184,584.895,804.97,584.895,804.97Z" transform="translate(-571.668 -804.97)" fill="#fff"/>
        </g>
        <g id="그룹_9" data-name="그룹 9" transform="translate(95.321 0.531)">
          <path id="패스_26" data-name="패스 26" d="M614.28,805.091h-2.873v5.315h-1.679l-.06-.176a8.369,8.369,0,0,0-8.125-5.67,8.607,8.607,0,0,0-5.423,1.849,7.733,7.733,0,0,0-3.09,6.4,7.994,7.994,0,0,0,1.89,5.239,8.2,8.2,0,0,0,6.622,3.007,8.809,8.809,0,0,0,3.831-.861,7.758,7.758,0,0,0,4.336-5.063l.053-.188h1.644v5.581h5.064V807.271C616.462,805.3,614.28,805.091,614.28,805.091Zm-9.668,9.457,0,.008a3.209,3.209,0,0,1-3.066,1.963,3.3,3.3,0,0,1-1.634-.433,3.533,3.533,0,0,1-1.814-3.28,4.259,4.259,0,0,1,.377-1.742,3.213,3.213,0,0,1,3.07-1.97,3.277,3.277,0,0,1,1.632.434,3.533,3.533,0,0,1,1.814,3.279A4.264,4.264,0,0,1,604.612,814.548Z" transform="translate(-593.031 -804.56)" fill="#fff"/>
        </g>
        <g id="그룹_10" data-name="그룹 10" transform="translate(123.303 1.062)">
          <path id="패스_27" data-name="패스 27" d="M630.446,804.97H614.631V809.5h2.75v6.363h-2.75V820.4H621.1v3.174h-6.471V828.1h18.007v-4.531h-6.472V820.4h6.472v-4.533h-2.752V809.5h2.752v-2.342h0C632.638,805.184,630.446,804.97,630.446,804.97Zm-5.624,10.9h-2.377V809.5h2.377Z" transform="translate(-614.631 -804.97)" fill="#fff"/>
        </g>
        <g id="그룹_11" data-name="그룹 11" transform="translate(145.004 1.062)">
          <path id="패스_28" data-name="패스 28" d="M645.514,816.13h-7.747a1.273,1.273,0,0,1-1.32-1.3l-.025-.281h7.437v-3.735h-7.414v-1.579h9.068v-2.078l0,0c0-1.978-2.191-2.192-2.191-2.192H631.382v10.638a8.8,8.8,0,0,0,.085,1.248c.364,2.384,1.99,3.543,4.971,3.543h9.076Z" transform="translate(-631.382 -804.97)" fill="#fff"/>
          <path id="패스_29" data-name="패스 29" d="M636.946,823.392H647.31v1.579H636.946v4.791a8.8,8.8,0,0,0,.086,1.248c.364,2.384,1.991,3.542,4.971,3.542h10.371v-4.267h-9.042a1.273,1.273,0,0,1-1.32-1.3l-.025-.281h10.387v-9.58H636.946Z" transform="translate(-629.738 -800.788)" fill="#fff"/>
          <path id="패스_30" data-name="패스 30" d="M648.313,804.97h-2.875v5.315h-2.157v4.533h2.157V820.4H650.5V807.141C650.486,805.184,648.313,804.97,648.313,804.97Z" transform="translate(-627.866 -804.97)" fill="#fff"/>
        </g>
        <g id="그룹_12" data-name="그룹 12" transform="translate(45.097)">
          <path id="패스_31" data-name="패스 31" d="M572.269,808.465h0c0-1.907-2.031-2.172-2.176-2.189H565.8V804.15h-5.064v2.126h-6.472v4.533h6.472v3.182c-.044,1.666-1.023,2.07-1.838,2.117h-4.634v4.533h4.353c2.088,0,3.583-.591,4.443-1.755l.213-.288.206.293c.8,1.134,2.3,1.723,4.442,1.75h4.35v-4.533h-4.62c-.8-.025-1.77-.407-1.851-2.106v-3.193h6.471Z" transform="translate(-554.262 -804.15)" fill="#fff"/>
          <rect id="사각형_11" data-name="사각형 11" width="18.008" height="4.532" transform="translate(0 19.399)" fill="#fff"/>
        </g>
      </g>
    </g>
    <circle id="타원_7" data-name="타원 7" cx="6.654" cy="6.654" r="6.654" transform="translate(673.495 779.401)" fill="#fff"/>
    <circle id="타원_8" data-name="타원 8" cx="3.718" cy="3.718" r="3.718" transform="translate(688.89 790.797)" fill="#fff"/>
    <circle id="타원_9" data-name="타원 9" cx="6.543" cy="6.543" r="6.543" transform="translate(693.026 802.794)" fill="#fff"/>
    <circle id="타원_10" data-name="타원 10" cx="4.997" cy="4.997" r="4.997" transform="translate(706.112 793.236)" fill="#fff"/>
    <circle id="타원_11" data-name="타원 11" cx="2.894" cy="2.894" r="2.894" transform="translate(717.233 802.794)" fill="#fff"/>
  </g>
</svg>
