<svg xmlns="http://www.w3.org/2000/svg" xmlns:xlink="http://www.w3.org/1999/xlink" width="228.561" height="294.741" viewBox="0 0 228.561 294.741">
  <defs>
    <radialGradient id="radial-gradient" cx="0.5" cy="0.5" r="1.344" gradientTransform="matrix(0.372, -0.119, 0.016, 0.352, -1.534, 32.375)" gradientUnits="objectBoundingBox">
      <stop offset="0" stop-color="#f77e0b"/>
      <stop offset="1" stop-color="#ffbb87"/>
    </radialGradient>
    <radialGradient id="radial-gradient-2" cx="0.5" cy="0.5" r="1.344" gradientTransform="matrix(0.372, -0.119, 0.016, 0.352, -1.544, 32.113)" xlink:href="#radial-gradient"/>
  </defs>
  <g id="그룹_791" data-name="그룹 791" transform="translate(-454.439 -1584.259)">
    <g id="그룹_790" data-name="그룹 790">
      <ellipse id="타원_15" data-name="타원 15" cx="36" cy="3.5" rx="36" ry="3.5" transform="translate(508 1845)" fill="#777" style="mix-blend-mode: multiply;isolation: isolate"/>
      <ellipse id="타원_16" data-name="타원 16" cx="36" cy="3.5" rx="36" ry="3.5" transform="translate(575 1845)" fill="#777" style="mix-blend-mode: multiply;isolation: isolate"/>
      <g id="그룹_81" data-name="그룹 81" transform="translate(322.588 1468.697)">
        <g id="그룹_60" data-name="그룹 60" transform="translate(173.194 115.562)">
          <g id="그룹_41" data-name="그룹 41" transform="translate(122.402 200.393)">
            <path id="패스_172" data-name="패스 172" d="M487.632,541.538c-.2,1.792.447,4.048.731,5.806.538,3.312,2.2,6.56,2.2,9.962,0,1.7-.72,5.282-1.983,6.461a8.1,8.1,0,0,1-4.113,2.044c-9.044.73-8.305-12.119-8.091-18.055.077-2.143.227-5.876,1.2-7.768a5.52,5.52,0,0,1,5.352-2.839S488.139,536.966,487.632,541.538Z" transform="translate(-476.27 -537.088)" fill="#003865"/>
            <path id="패스_173" data-name="패스 173" d="M488.15,541.29c.128,1.762.358,3.513.606,5.261.641,4.537,4,10.887.149,14.947a5.6,5.6,0,0,1-3.557,1.479c-8.022.715-6.962-10.026-6.762-15.707.073-2.046-.215-5.633.654-7.442,0,0,1.5-3.133,4.752-2.728C483.992,537.1,488.61,536.918,488.15,541.29Z" transform="translate(-477.404 -537.064)" fill="#0063b0"/>
            <path id="패스_174" data-name="패스 174" d="M490.624,543.087s.122,4.42-5.446,3.586c0,0-6.575-2.165,0-8.507C485.175,538.166,487.883,539.2,490.624,543.087Z" transform="translate(-479.41 -537.642)" fill="#b8a588"/>
            <g id="그룹_37" data-name="그룹 37" transform="translate(2.843 9.929)">
              <path id="패스_175" data-name="패스 175" d="M489.63,559.376a.505.505,0,0,1-.226-.025,8.908,8.908,0,0,0-6.4.516.511.511,0,0,1-.476-.9,9.79,9.79,0,0,1,7.215-.577.511.511,0,0,1-.108.989Z" transform="translate(-482.251 -557.949)" fill="#fff"/>
            </g>
            <g id="그룹_38" data-name="그룹 38" transform="translate(4.116 18.439)">
              <path id="패스_176" data-name="패스 176" d="M492.309,577.276a.5.5,0,0,1-.226-.025,8.909,8.909,0,0,0-6.405.516.511.511,0,1,1-.476-.9,9.786,9.786,0,0,1,7.216-.576.51.51,0,0,1-.108.988Z" transform="translate(-484.928 -575.849)" fill="#fff"/>
            </g>
            <g id="그룹_39" data-name="그룹 39" transform="translate(3.166 12.39)">
              <path id="패스_177" data-name="패스 177" d="M491.316,568.458a.509.509,0,0,1-.433-.156c-.035-.037-3.562-3.706-7.5-4.157a.511.511,0,0,1,.116-1.016c4.311.494,7.972,4.309,8.125,4.47a.51.51,0,0,1-.019.722A.5.5,0,0,1,491.316,568.458Z" transform="translate(-482.93 -563.126)" fill="#fff"/>
            </g>
            <g id="그룹_40" data-name="그룹 40" transform="translate(3.55 12.562)">
              <path id="패스_178" data-name="패스 178" d="M484.307,569.484a.511.511,0,0,1-.492-.779,13.885,13.885,0,0,1,6.834-5.193.51.51,0,1,1,.313.972,13.079,13.079,0,0,0-6.282,4.765A.511.511,0,0,1,484.307,569.484Z" transform="translate(-483.737 -563.487)" fill="#fff"/>
            </g>
            <path id="패스_179" data-name="패스 179" d="M491.684,589.125a2.691,2.691,0,0,0-2.394-1.215s-2.42-.144-3.3,1.2C485.992,589.114,489.094,591.378,491.684,589.125Z" transform="translate(-481.37 -563.734)" fill="#003865"/>
          </g>
          <path id="패스_180" data-name="패스 180" d="M495.681,514.553a7.069,7.069,0,0,0-6.657-1.83s-2.806-.988-5.505,4.585c0,0-1.168,8.135-1.376,12.179,0,0,.324,5.651,7.089,3.013,0,0-1.158,1.779,1.334-2.861C490.566,529.638,492.765,527.124,495.681,514.553Z" transform="translate(-356.949 -323.8)" fill="#f2955b"/>
          <path id="패스_181" data-name="패스 181" d="M485.071,465.089s4.32,20.564,3.206,24.342c0,0-.256,5.173-4.694,6.408,0,0-6.55.24-8.635-5.983l-6.92-20.124S478.919,462.835,485.071,465.089Z" transform="translate(-349.545 -298.677)" fill="#f5a970"/>
          <path id="패스_182" data-name="패스 182" d="M490.366,543.731s-.668,2.925-4.854,2.393c0,0-3.846-1.455-3.205-6.731,0,0-1.167,4.342-.084,5.691,0,0,1.171,4.4,6.557,2.078C488.78,547.163,491.358,545.954,490.366,543.731Z" transform="translate(-356.749 -337.893)" fill="#003865"/>
          <path id="패스_183" data-name="패스 183" d="M470.549,472.348c1.51,5.393,5.521,19.11,9.31,26.8a8.282,8.282,0,0,1-4.91-5.249l-6.92-20.124S469.013,473.156,470.549,472.348Z" transform="translate(-349.545 -302.723)" fill="#f2955b"/>
          <g id="그룹_42" data-name="그룹 42" transform="translate(94.917 171.186)">
            <path id="패스_184" data-name="패스 184" d="M418.459,477.144s1.644,20,3.064,26.2c0,0,.722,1.8,5.324,1.938,0,0,6.252,6.59,6.8.05l2.473-27.733S423.9,473.49,418.459,477.144Z" transform="translate(-418.459 -475.629)" fill="#f5a970"/>
            <path id="패스_185" data-name="패스 185" d="M434.944,521.768c.267,2.211,1.88,5.227,2.328,6.141.938,1.912,2.256,3.757,2.913,5.786.65,2.008.419,4.671.561,6.795q.24,3.56.478,7.119.52,7.715,1.043,15.429c.136,2.011.289,4.022.415,6.034,0,0,.17,2.744-3.816,3.979a4.366,4.366,0,0,1-4.031-3.283s-7.377-29.6-8.542-37.422c0,0-2.059-5.109-1.047-8.67C425.246,523.676,434.25,516.032,434.944,521.768Z" transform="translate(-421.873 -498.713)" fill="#f5a970"/>
          </g>
          <path id="패스_186" data-name="패스 186" d="M448.89,524.3q-.782-4.59-1.766-9.141c-.794-3.648-3-7.5-2.76-11.246.542-8.569,1.755-17.192,2.6-25.771,1.654.412,2.733.774,2.733.774l-2.4,26.94c.055.109.106.209.145.289.938,1.912,2.256,3.757,2.913,5.786.65,2.008.419,4.671.561,6.795q.24,3.56.478,7.119.52,7.715,1.043,15.429c.136,2.011.289,4.023.415,6.034a3.49,3.49,0,0,1-1.107,2.447A220.7,220.7,0,0,0,448.89,524.3Z" transform="translate(-337.121 -305.759)" fill="#f2955b"/>
          <path id="패스_187" data-name="패스 187" d="M342.185,254.078l9.271-1.38,8.753,16.821,1.612,3.956s-12.018-4.929-19.106-6.975Z" transform="translate(-283.53 -187.5)" fill="#f5a970"/>
          <path id="패스_188" data-name="패스 188" d="M308.953,260.384C305.388,259.09,292,254.677,292,254.677c-4.857-2.858-3.853-7.29-3.853-7.29a5.8,5.8,0,0,1,6.808-2.505,194.48,194.48,0,0,1,26.322,6.05c7.181,1.53,4.72,5.52,4.72,5.52s1.756,6.015-4.64,7.295C321.358,263.747,321.708,265.014,308.953,260.384Z" transform="translate(-255.139 -183.248)" fill="#f5a970"/>
          <path id="패스_189" data-name="패스 189" d="M246.847,205.654s23.292,14.356,27.032,20.592c0,0,3.512,2.776.612,6.037,0,0-2.278,4.264-6.643,1.852,0,0-7.888-5.074-25.294-24.028,0,0-1.37-1.118.273-2.827C242.827,207.28,245.28,204.674,246.847,205.654Z" transform="translate(-230.986 -162.706)" fill="#f5a970"/>
          <path id="패스_190" data-name="패스 190" d="M269.956,233.747c7.886,3.839,26.9,8.574,26.9,8.574,4.7,1.937,7.16,1.13,8.376.18l2.381,4.576,1.613,3.956s-9.335-3.828-16.4-6.138c-.757-.219-1.649-.493-2.692-.834l-.011,0h0c-1.466-.479-3.23-1.086-5.37-1.863-2.669-.969-10.843-3.686-14.783-4.99a5.6,5.6,0,0,1-2.169-.717,9.541,9.541,0,0,1-1.536-1.113c-3.055-2.334-10.746-8.745-23.757-22.915a1.636,1.636,0,0,1-.282-2.082C251.864,220.325,269.956,233.747,269.956,233.747Z" transform="translate(-230.96 -165.299)" fill="#f2955b"/>
          <path id="패스_191" data-name="패스 191" d="M510.218,233.378l-9.332.867-4.5,18.421-.625,4.226s10.5-7.648,16.9-11.324Z" transform="translate(-364.095 -177.365)" fill="#f5a970"/>
          <path id="패스_192" data-name="패스 192" d="M521.11,231.227c3.154-2.106,15.6-9.7,15.6-9.7,4.036-3.932,1.51-7.873,1.51-7.873a5.8,5.8,0,0,0-7.208-.812,138.3,138.3,0,0,1-24.125,12.143c-6.611,3.2-3.271,6.485-3.271,6.485s-.274,6.259,6.244,5.98C509.864,237.447,509.825,238.76,521.11,231.227Z" transform="translate(-367.772 -166.112)" fill="#f5a970"/>
          <path id="패스_193" data-name="패스 193" d="M572.446,151.911S559.969,176.262,560,183.533c0,0-1.565,4.194,2.606,5.48,0,0,4.158,2.465,6.64-1.86,0,0,4.116-8.428,9.175-33.659,0,0,.592-1.666-1.7-2.276C576.726,151.218,573.277,150.261,572.446,151.911Z" transform="translate(-397.641 -134.121)" fill="#f5a970"/>
          <path id="패스_194" data-name="패스 194" d="M498.541,203.672c1.9,3.478,5.57,1.93,5.57,1.93,10.5-5.556,29.515-18.117,29.515-18.117,3.89-6.787,9.634-29.655,11.221-34.925a1.614,1.614,0,0,1,.579,1.751c-5.06,25.231-9.175,33.659-9.175,33.659a4.832,4.832,0,0,1-2.632,2.345l-.034.035s-12.45,7.6-15.6,9.7c-1.894,1.264-3.462,2.274-4.771,3.088h0l-.011.006c-.933.58-1.733,1.059-2.416,1.451-6.315,3.926-14.468,9.866-14.468,9.866l.624-4.226Z" transform="translate(-364.383 -134.97)" fill="#f2955b"/>
          <path id="패스_195" data-name="패스 195" d="M440.418,634.635a9.139,9.139,0,0,1,5.891-2.734,10.778,10.778,0,0,1,6.372,1.253s4.073,9.471,4.184,12.209c0,0-1.8,2.529-8.5,3.559-6.754.6-9.1-1.433-9.1-1.433C438.719,644.8,440.418,634.635,440.418,634.635Z" transform="translate(-334.399 -386.378)" fill="#0063b0"/>
          <path id="패스_196" data-name="패스 196" d="M415.411,421.821a27.416,27.416,0,0,1-.091-14.5l18.17-.247,17.706-4.087a27.428,27.428,0,0,1,3.364,14.1s5.218,20.721,5.514,23.167c0,0-10.7,6.868-19.217,4.8l-4.315-22.677s-.044-.848-1.3-.786c-1.234.24-1.074,1.074-1.074,1.074l1.208,23.052c-8.132,2.952-19.808-.09-19.808-.09C415.274,443.188,415.411,421.821,415.411,421.821Z" transform="translate(-321.402 -266.34)" fill="#003865"/>
          <path id="패스_197" data-name="패스 197" d="M441.889,621.815a2.116,2.116,0,0,1,1.273-1.639c6.4,2.361,8.116-1.246,8.116-1.246,3.23.617,2.7,7.462,2.7,7.462-2.4,3.008-9.688,2.577-12.115,1.064A16.51,16.51,0,0,1,441.889,621.815Z" transform="translate(-335.699 -379.616)" fill="#003865"/>
          <path id="패스_198" data-name="패스 198" d="M438.833,662.432a13.039,13.039,0,0,0,4.633,1.441c.972.117,1.2-1.145,1.2-1.145-.035-1.2,2.967-1.358,2.967-1.358s2.953-.561,3.2.613c0,0,.524,1.171,1.441.826a13.042,13.042,0,0,0,4.156-2.5,4.027,4.027,0,0,1,1.04,3.172s-1.774,2.731-9.136,3.729c-7.389.784-9.761-1.447-9.761-1.447A4.024,4.024,0,0,1,438.833,662.432Z" transform="translate(-333.969 -401.32)" fill="#003865"/>
          <g id="그룹_43" data-name="그룹 43" transform="translate(107.384 247.671)">
            <path id="패스_199" data-name="패스 199" d="M453.918,637.915a.543.543,0,0,0,.058-1.068c-.218-.051-5.388-1.226-9.044,1.113a.543.543,0,1,0,.586.914c3.271-2.093,8.161-.982,8.211-.97A.567.567,0,0,0,453.918,637.915Z" transform="translate(-444.681 -636.507)" fill="#fff"/>
          </g>
          <g id="그룹_44" data-name="그룹 44" transform="translate(108.261 254.935)">
            <path id="패스_200" data-name="패스 200" d="M455.764,653.193a.543.543,0,0,0,.059-1.068c-.218-.05-5.389-1.227-9.044,1.114a.543.543,0,1,0,.586.915c3.271-2.1,8.161-.983,8.211-.971A.521.521,0,0,0,455.764,653.193Z" transform="translate(-446.527 -651.785)" fill="#fff"/>
          </g>
          <g id="그룹_45" data-name="그룹 45" transform="translate(108.114 250.811)">
            <path id="패스_201" data-name="패스 201" d="M455.377,646.324a.465.465,0,0,0,.2-.849c-.183-.121-4.525-2.936-8.967-2.258a.465.465,0,0,0,.126.921l.015,0c4.093-.631,8.273,2.087,8.314,2.114A.467.467,0,0,0,455.377,646.324Z" transform="translate(-446.217 -643.112)" fill="#fff"/>
          </g>
          <g id="그룹_46" data-name="그룹 46" transform="translate(108.256 249.943)">
            <path id="패스_202" data-name="패스 202" d="M447.036,646.392a.469.469,0,0,0,.284-.146c.033-.035,3.318-3.523,7.324-4.007.083-.01.165-.019.248-.026a.465.465,0,0,0-.082-.927c-4.48.4-8.024,4.167-8.173,4.328a.465.465,0,0,0,.4.777Z" transform="translate(-446.515 -641.286)" fill="#fff"/>
          </g>
          <path id="패스_203" data-name="패스 203" d="M500.354,450.4s-5.439-21.4-5.7-22.677a59.12,59.12,0,0,0-.161-6.768l-1,.315a27.35,27.35,0,0,1,0,6.812l5.721,22.934Z" transform="translate(-362.899 -275.764)" fill="#9d311a"/>
          <path id="패스_204" data-name="패스 204" d="M418.559,460.414s.187-22.076.139-23.382a58.932,58.932,0,0,1-1.454-6.612l1.049.067a27.384,27.384,0,0,0,1.617,6.617l-.1,23.636Z" transform="translate(-322.904 -280.728)" fill="#9d311a"/>
          <path id="패스_205" data-name="패스 205" d="M446.614,249.873l-3.331-.529-8.1,1.166,1.776,14.71,12.1-7.348Z" transform="translate(-332.317 -185.741)" fill="#f5a970"/>
          <path id="패스_206" data-name="패스 206" d="M411.173,253.878l3.109-1.306,8.141-.8,1.776,14.71-13.5-4.256Z" transform="translate(-319.469 -187.016)" fill="#f5a970"/>
          <path id="패스_207" data-name="패스 207" d="M498.837,234.648l3.477.008-7.853,27.37.293-20.711Z" transform="translate(-363.41 -178.031)" fill="#009cdc"/>
          <path id="패스_208" data-name="패스 208" d="M445.9,316.855c12.369-1.494,17.944-4.595,17.944-4.595C462.426,299.882,463,283.3,463,283.3c.983-19.261,6.517-48.655,6.517-48.655l-3.061,1.015-9.9,2.662c-.723-.171-7.469,3.953-8.173,3.84,0,0-.446,10.588-9.824,13.909Z" transform="translate(-334.086 -178.031)" fill="#0063b0"/>
          <path id="패스_209" data-name="패스 209" d="M587.559,126.026s-3.3,7.025-3.557,9.856c0,0-3.362,2.772-6.054,1.417a6.51,6.51,0,0,1-5.776-3.033s-2.985-8.574-5.889-10.472a1.484,1.484,0,0,1,.125-2.4,8.935,8.935,0,0,1,5.814,3.637s1.058-3.016,2.566-9.185a4.711,4.711,0,0,1,2.4-.227,2.97,2.97,0,0,1,1.5,3.208s-.147-.053.476.475l.623.528S586.235,122.727,587.559,126.026Z" transform="translate(-400.783 -115.562)" fill="#f5a970"/>
          <path id="패스_210" data-name="패스 210" d="M587.934,124.263l-2.719.9-1.323,6.908,5.441,6,3.581.2,3.408-5.83S592.59,125.94,587.934,124.263Z" transform="translate(-410.323 -120.126)" fill="#e28c56"/>
          <path id="패스_211" data-name="패스 211" d="M593.442,118.294l1.9,1.59-.748,7.41-2.253,1.994-1.557-.889-.488-1.524,1.575-8.077Z" transform="translate(-413.681 -116.995)" fill="#f5a970"/>
          <path id="패스_212" data-name="패스 212" d="M600.008,123.983l1.9,1.589-.748,7.41-2.253,1.994-1.557-.889-.488-1.523,1.575-8.077Z" transform="translate(-417.126 -119.979)" fill="#f5a970"/>
          <path id="패스_213" data-name="패스 213" d="M605.394,131.121l1.306,1.634-1.857,6.015-2.2,1.276-1.142-1-.149-1.343,2.656-6.43Z" transform="translate(-419.483 -123.723)" fill="#f5a970"/>
          <path id="패스_214" data-name="패스 214" d="M606.068,138l-1.668,3.351-1.472.865-.8-.714.839-4.536L601.43,141.1l.064.573,1.19,1.437,2.2-1.276Z" transform="translate(-419.523 -126.788)" fill="#9d311a"/>
          <path id="패스_215" data-name="패스 215" d="M599.032,141l-1.623-1.268-.061-2.965-.488,2.506.488,1.523,1.557.889.3.017Z" transform="translate(-417.126 -126.683)" fill="#9d311a"/>
          <path id="패스_216" data-name="패스 216" d="M594.475,126.315l-.554,3.742-1.582,1.4-1.594-1.007-.451-1.405,1.291-6.614-.575,6.6.2.967,1.129.618.88-.517Z" transform="translate(-413.681 -119.165)" fill="#9d311a"/>
          <path id="패스_217" data-name="패스 217" d="M585.026,116.1l.9,1.113-.135,7.412-2.253,1.994-1.557-.889-.488-1.524,1.575-8.077Z" transform="translate(-409.066 -115.842)" fill="#f5a970"/>
          <path id="패스_218" data-name="패스 218" d="M585.676,123.12l-.554,3.742-1.582,1.4-1.594-1.007-.451-1.405,1.291-6.614-.575,6.6.2.967,1.129.618.88-.516Z" transform="translate(-409.066 -117.489)" fill="#9d311a"/>
          <path id="패스_219" data-name="패스 219" d="M254.406,210.739a9.366,9.366,0,0,1-4.995,4.527.952.952,0,0,0-.25,1.255s3.129,3.547,4.256,4.485a1.419,1.419,0,0,0,1.322.194,10.318,10.318,0,0,0,5.714-6.506,1.869,1.869,0,0,0-.629-1.09l-4.205-2.9S254.827,210.274,254.406,210.739Z" transform="translate(-234.657 -165.376)" fill="#0063b0"/>
          <path id="패스_220" data-name="패스 220" d="M360.616,251.477l-3.375.836,14.145,24.714-5.216-20.046Z" transform="translate(-291.428 -186.859)" fill="#009cdc"/>
          <path id="패스_221" data-name="패스 221" d="M407.351,325.637c-12.873,1.555-19.028-.129-19.028-.129-1.568-12.36-6.07-28.327-6.07-28.327-5.54-18.473-17.914-45.7-17.914-45.7l3.214.256,10.245.229c.663-.339,8.2,2.061,8.853,1.783,0,0,2.954,10.177,13.358,11.109Z" transform="translate(-295.152 -186.859)" fill="#0063b0"/>
          <g id="그룹_47" data-name="그룹 47" transform="translate(0 18.766)">
            <path id="패스_222" data-name="패스 222" d="M221.1,178.947s6.467,4.295,8.15,6.585c0,0,4.312.627,5.912-1.926a6.51,6.51,0,0,0,3.367-5.588s-1.891-8.879-.393-12.008a1.484,1.484,0,0,0-1.349-1.988,8.936,8.936,0,0,0-3.087,6.123s-9.057-9.23-13.215-14.9c0,0-1.611-.749-1.675.573,0,0-.271,3.025,5.956,10.957a4.9,4.9,0,0,1,.028,2.069l-.258.774S220.526,175.439,221.1,178.947Z" transform="translate(-218.812 -155.034)" fill="#f5a970"/>
            <path id="패스_223" data-name="패스 223" d="M229.975,183.249l2.791-.642,4.712,5.222-1.542,7.952-2.96,2.023-5.937-3.219S226.863,187.1,229.975,183.249Z" transform="translate(-223.127 -169.498)" fill="#e28c56"/>
            <path id="패스_224" data-name="패스 224" d="M225.375,180.773l-.8,2.343,4.481,5.949,2.96.538.871-1.567-.373-1.556-5.534-6.09Z" transform="translate(-221.836 -168.335)" fill="#f5a970"/>
            <path id="패스_225" data-name="패스 225" d="M222.709,189.041l-.8,2.343,4.48,5.949,2.961.537.87-1.567-.372-1.556-5.534-6.091Z" transform="translate(-220.438 -172.672)" fill="#f5a970"/>
            <path id="패스_226" data-name="패스 226" d="M221.542,198.225l-.27,2.074,4.707,4.181,2.543-.049.46-1.444-.569-1.227-5.6-4.122Z" transform="translate(-220.103 -177.383)" fill="#f5a970"/>
            <path id="패스_227" data-name="패스 227" d="M224.857,203.668l3.164,2,1.706-.023.316-1.027-3.068-3.445,3.458,2.743.242.523-.273,1.846-2.543.049Z" transform="translate(-221.983 -179.238)" fill="#9d311a"/>
            <path id="패스_228" data-name="패스 228" d="M235.753,201.986l.73-1.926L235,197.493l1.717,1.89.372,1.556-.87,1.567-.247.169Z" transform="translate(-227.303 -177.307)" fill="#9d311a"/>
            <path id="패스_229" data-name="패스 229" d="M230.778,187.528l2.414,2.913,2.079.378.842-1.688-.343-1.435-4.532-4.988,3.91,5.344.329.932-.644,1.113-1.022.014Z" transform="translate(-225.089 -169.551)" fill="#9d311a"/>
          </g>
          <path id="패스_230" data-name="패스 230" d="M417.765,243.24l-.466-12.915,14.553-1.758,2.622,12.654s-.255,7.669-7.445,8.537C427.03,249.759,418.766,251.529,417.765,243.24Z" transform="translate(-322.933 -174.841)" fill="#f5a970"/>
          <path id="패스_231" data-name="패스 231" d="M417.209,236.4l.274,6.283s11.52-1.536,15.3-5.362Z" transform="translate(-322.886 -178.948)" fill="#e28c56"/>
          <path id="패스_232" data-name="패스 232" d="M465.584,312.91s-13.446-4.384-23.406-3.4c0,0,21.592,4.2,22.882,10.185Z" transform="translate(-335.984 -217.226)" fill="#004276"/>
          <path id="패스_233" data-name="패스 233" d="M475.427,397.307s-12.828,3.714-20.612,4.532l-1.639-13.563,17.6-11.293a98.937,98.937,0,0,0,1.853,10.413c.2.867,1.653,1.439,1.89,2.368A51.1,51.1,0,0,1,475.427,397.307Z" transform="translate(-341.753 -252.697)" fill="#0063b0"/>
          <path id="패스_234" data-name="패스 234" d="M396.236,318.523s12.016-7.459,21.925-8.876c0,0-19.973,9.216-19.8,15.34Z" transform="translate(-311.884 -217.374)" fill="#004276"/>
          <path id="패스_235" data-name="패스 235" d="M411.412,407.305s13.623.519,21.379-.541l-1.59-13.783-20.108-6.525a98.488,98.488,0,0,1,.68,10.554c.013.89-1.262,1.792-1.272,2.75A50.965,50.965,0,0,0,411.412,407.305Z" transform="translate(-319.367 -257.666)" fill="#0063b0"/>
          <g id="그룹_48" data-name="그룹 48" transform="translate(90.33 63.841)">
            <path id="패스_236" data-name="패스 236" d="M448.6,250.135c1.045-.776,1.514.24,1.514.24-1.039,13.138-11.081,15.1-11.081,15.1l-.058-1.685C448.029,260.761,448.6,250.135,448.6,250.135Z" transform="translate(-424.635 -249.842)" fill="#009cdc"/>
            <path id="패스_237" data-name="패스 237" d="M410.224,256.04s3.419,10.144,12.928,10.928l.057,1.685s-10.262.493-14.4-12.02C408.81,256.633,409.024,255.535,410.224,256.04Z" transform="translate(-408.81 -253.024)" fill="#009cdc"/>
          </g>
          <path id="패스_238" data-name="패스 238" d="M411.435,407.211s22.037,1.474,32.192-2.962c0,0-11.653,6.332-33.16,4.846C410.467,409.095,410.161,408.8,411.435,407.211Z" transform="translate(-319.332 -267)" fill="#004276"/>
          <path id="패스_239" data-name="패스 239" d="M481.145,399.523s-7.369,4.481-11.963,5.857a71.415,71.415,0,0,0,13.593-4.116A21.894,21.894,0,0,0,481.145,399.523Z" transform="translate(-350.15 -264.52)" fill="#004276"/>
          <g id="그룹_49" data-name="그룹 49" transform="translate(91.052 103.409)">
            <path id="패스_240" data-name="패스 240" d="M442.741,336.947s.474,17.164.576,19.079c0,0-21.52,5.117-29.082,3.512l-3.9-19.333S428.586,336.8,442.741,336.947Z" transform="translate(-410.33 -335.101)" fill="#00518f"/>
            <path id="패스_241" data-name="패스 241" d="M461.692,333.07s-11.355.1-16.311.793l2.5,21.363s11.132-1.61,14.915-2.9Z" transform="translate(-428.717 -333.07)" fill="#fff"/>
            <path id="패스_242" data-name="패스 242" d="M412.394,337.792s10.838-2.58,15.816-3.087l2.663,21.343s-11.2,1.087-15.178.739Z" transform="translate(-411.413 -333.928)" fill="#fff"/>
            <path id="패스_243" data-name="패스 243" d="M434.846,360.308l12.883-1.447.381,5.316-12.473,1.507-.36.043L422.8,367.233l-.9-5.253Z" transform="translate(-416.403 -346.599)" fill="#ae0721"/>
          </g>
          <path id="패스_244" data-name="패스 244" d="M578.543,161.535a9.373,9.373,0,0,0,6.62,1.283.951.951,0,0,1,.863.944s-.838,4.654-1.315,6.041a1.418,1.418,0,0,1-1.031.851,10.317,10.317,0,0,1-8.26-2.6,1.87,1.87,0,0,1-.026-1.258l2.092-4.661S577.942,161.356,578.543,161.535Z" transform="translate(-405.813 -139.664)" fill="#0063b0"/>
          <path id="패스_245" data-name="패스 245" d="M420.8,287.64a19.184,19.184,0,0,0,9.4-2.432c2.281-1.318,9.059-1.952,7.877,2.588-1.09,4.189-8.417,4.582-11.792,4.99-5.615.678-11.269.386-16.9.707-2.622.15-6.94,1.5-8.541-1.376-1.986-3.567,1.383-6.224,4.717-6.118C410.657,286.16,415.624,287.757,420.8,287.64Z" transform="translate(-313.987 -204.047)" fill="#005b97"/>
          <g id="그룹_53" data-name="그룹 53" transform="translate(90.855 62.772)">
            <path id="패스_246" data-name="패스 246" d="M413.872,253.273s-1.785,12.863,2.265,16.106c0,0,5.646,5.3,3.226,11.334l-2.465.3a18.418,18.418,0,0,0-.324-6.871c-.889-3.452-3.385-6.187-4.689-9.464-.929-2.34-2.828-7.565-1.531-10.021C410.355,254.654,412.194,252.523,413.872,253.273Z" transform="translate(-409.916 -250.49)" fill="#94031b"/>
            <g id="그룹_52" data-name="그룹 52" transform="translate(1.755)">
              <path id="패스_247" data-name="패스 247" d="M440.395,248.427s13.895,24.02-10.715,31.782l1.046,2.779S457.038,268.2,445.24,249.2C445.24,249.2,442.478,246.181,440.395,248.427Z" transform="translate(-422.039 -247.595)" fill="#94031b"/>
              <g id="그룹_51" data-name="그룹 51" transform="translate(0 29.082)">
                <path id="패스_248" data-name="패스 248" d="M423.7,316.114a5.259,5.259,0,1,1-2.742-6.915A5.26,5.26,0,0,1,423.7,316.114Z" transform="translate(-413.607 -308.767)" fill="#ff9d00"/>
                <path id="패스_249" data-name="패스 249" d="M423.789,316.471a4.754,4.754,0,1,1-2.478-6.25A4.755,4.755,0,0,1,423.789,316.471Z" transform="translate(-414.165 -309.324)" fill="#c76b23"/>
                <path id="패스_250" data-name="패스 250" d="M423.985,317.219a3.7,3.7,0,1,1-1.927-4.86A3.7,3.7,0,0,1,423.985,317.219Z" transform="translate(-415.331 -310.491)" fill="#ff9d00"/>
                <g id="그룹_50" data-name="그룹 50" transform="translate(3.637 3.359)">
                  <path id="패스_251" data-name="패스 251" d="M424.745,316.154l-1.183,4.031-1.869-.548.634-2.161a2.158,2.158,0,0,0,.124-.575c-.009-.071-.072-.141-.187-.21a4.5,4.5,0,0,0-.821-.294l-.185-.054.138-.471a4.731,4.731,0,0,0,2.247-.041Z" transform="translate(-421.258 -315.831)" fill="#c76b23"/>
                </g>
              </g>
            </g>
          </g>
          <path id="패스_252" data-name="패스 252" d="M435.646,238.951Z" transform="translate(-332.558 -180.289)" fill="#004276"/>
          <g id="그룹_59" data-name="그룹 59" transform="translate(78.27 0.754)">
            <path id="패스_253" data-name="패스 253" d="M427.976,183.219l2.484-35.7c.231-7.938-16.535-8.4-16.535-8.4s-16.76.626-16.452,8.561l2.979,35.707s-.279,1.834,9.868,4.93a21.7,21.7,0,0,0,7.687-.038C428.122,185.085,427.976,183.219,427.976,183.219Z" transform="translate(-390.801 -128.673)" fill="#f5a970"/>
            <g id="그룹_54" data-name="그룹 54" transform="translate(37.873 30.681)">
              <path id="패스_254" data-name="패스 254" d="M463.451,183.865s4.268-2.794,5.938-2.061l2.052,2.947s-2.195,5.927-4.588,8.711c0,0-2.634.752-3.748.018Z" transform="translate(-463.105 -181.682)" fill="#f5a970"/>
              <path id="패스_255" data-name="패스 255" d="M469.418,186.334l2.833-1.274,1.084,2.122-2.867,4.451.719-4.441Z" transform="translate(-466.417 -183.454)" fill="#9d311a"/>
            </g>
            <g id="그룹_55" data-name="그룹 55" transform="translate(0 30.585)">
              <path id="패스_256" data-name="패스 256" d="M391.425,183.614s-4.3-2.752-5.958-2l-2.023,2.967s2.251,5.9,4.672,8.667c0,0,2.837.725,3.945-.019Z" transform="translate(-383.444 -181.481)" fill="#e59969"/>
              <path id="패스_257" data-name="패스 257" d="M392.339,187.734l-2.845-1.246-1.064,2.132,2.909,4.423-.762-4.433Z" transform="translate(-386.059 -184.107)" fill="#9d311a"/>
            </g>
            <path id="패스_258" data-name="패스 258" d="M414.789,190.709a1.193,1.193,0,1,0,1.144-1.513A1.367,1.367,0,0,0,414.789,190.709Z" transform="translate(-399.887 -154.943)" fill="#1a1818"/>
            <path id="패스_259" data-name="패스 259" d="M446.668,190.663a1.193,1.193,0,1,0,1.144-1.514A1.366,1.366,0,0,0,446.668,190.663Z" transform="translate(-416.61 -154.918)" fill="#1a1818"/>
            <path id="패스_260" data-name="패스 260" d="M434.178,194.46l.474,5.262-.781,1.5,3.385-1.019Z" transform="translate(-409.897 -157.704)" fill="#9d311a"/>
            <g id="그룹_56" data-name="그룹 56" transform="translate(15.633 47.035)">
              <path id="패스_261" data-name="패스 261" d="M431.669,216.655c-.131-.757-.974-.547-.974-.547-1.985.251-6.7.274-6.7.274s-4.712.023-6.7-.209c0,0-.846-.2-.968.556,0,0-.44,5.17,7.695,5.131S431.669,216.655,431.669,216.655Z" transform="translate(-416.325 -216.081)" fill="#fff"/>
            </g>
            <path id="패스_262" data-name="패스 262" d="M416.846,220.606s.654,1.233,2.815,1.175c0,0-1.867.025-1.136,1.025A4.045,4.045,0,0,1,416.846,220.606Z" transform="translate(-400.966 -171.419)" fill="#9d311a"/>
            <path id="패스_263" data-name="패스 263" d="M446.481,219.608s-.859,1.2-1.764,1.245c0,0,1.249.18.724.684A5.408,5.408,0,0,0,446.481,219.608Z" transform="translate(-415.586 -170.896)" fill="#9d311a"/>
            <path id="패스_264" data-name="패스 264" d="M402.25,151.412l1.383-2.882a79.357,79.357,0,0,1,11.3-1.108s5.533-.546,11.345-5.627c-4.9-2.462-12.29-2.668-12.29-2.668s-16.76.625-16.452,8.56l2.979,35.707s-.12.826,2.857,2.3C403.376,185.7,399.345,160.47,402.25,151.412Z" transform="translate(-390.836 -128.678)" fill="#f2955b"/>
            <g id="그룹_58" data-name="그룹 58" transform="translate(3.868)">
              <g id="그룹_57" data-name="그룹 57">
                <path id="패스_265" data-name="패스 265" d="M391.58,158.234a136.112,136.112,0,0,0,3.992,13.725s-.484-7.112,1.084-12.04Z" transform="translate(-391.58 -138.701)" fill="#4e2a0e"/>
                <path id="패스_266" data-name="패스 266" d="M467.058,153.293s-1.784,10.285-3.7,15.419c0,0,.265-6.611-1.35-11.522Z" transform="translate(-428.525 -136.109)" fill="#4e2a0e"/>
                <path id="패스_267" data-name="패스 267" d="M396.657,138.366s1.8-4.238,2.554-5.431a69.535,69.535,0,0,0,11.658,1.408s6.8-1.062,10.277-2.953c0,0,3.108,3.459,3.918,6.839,0,0,4.567-2.78,5.05-3.9,0,0-4.009-9.063-7.249-12.706,0,0-16.755-4.335-28.925-4.478a16.917,16.917,0,0,0,1.365,7.612,3.23,3.23,0,0,1-2.069-1.79s-.888,4.467.522,6.972c0,0-1.4,3.884-2.177,6.74C391.58,136.681,394.307,138.515,396.657,138.366Z" transform="translate(-391.58 -117.148)" fill="#39220a"/>
              </g>
              <path id="패스_268" data-name="패스 268" d="M399.3,119.551s2.767,11.762,9.791,14.407C409.09,133.958,400.276,133.792,399.3,119.551Z" transform="translate(-395.629 -118.409)" fill="#4e2a0e"/>
              <path id="패스_269" data-name="패스 269" d="M396.343,134.277s-.47,5.748,3.872,7.3A33.555,33.555,0,0,1,396.343,134.277Z" transform="translate(-394.07 -126.133)" fill="#4e2a0e"/>
            </g>
            <path id="패스_270" data-name="패스 270" d="M438.84,176.072s-.172.623.618,1.061l4.524-2.345a26.669,26.669,0,0,1,3.256-.365s.355-.5.1-.878a21.584,21.584,0,0,0-3.935-.9A11.78,11.78,0,0,0,438.84,176.072Z" transform="translate(-412.495 -146.253)" fill="#4e2a0e"/>
            <path id="패스_271" data-name="패스 271" d="M413.98,177.393a1.078,1.078,0,0,1-.418,1.294l-5.445-1.468a29.4,29.4,0,0,0-3.609.374s-.5-.46-.318-.926c0,0,3.443-1.927,4.044-1.9A13.062,13.062,0,0,1,413.98,177.393Z" transform="translate(-394.306 -147.372)" fill="#4e2a0e"/>
          </g>
          <path id="패스_272" data-name="패스 272" d="M444.435,439.2a40.09,40.09,0,0,1-5.41-3.816c8.109,2.373,16.048-1.938,16.048-1.938a6.248,6.248,0,0,1-3.772,4.446,160.2,160.2,0,0,0,6.885,23.517,15.346,15.346,0,0,1-4.63-.342l-4.314-22.676s-.044-.848-1.3-.786c-1.233.239-1.074,1.073-1.074,1.073l1.209,23.052a19.851,19.851,0,0,1-3.321.866C445.66,454.944,444.435,439.2,444.435,439.2Z" transform="translate(-334.33 -282.313)" fill="#00284d"/>
        </g>
        <path id="패스_273" data-name="패스 273" d="M297.48,538.15c.345,1.931-.2,4.428-.382,6.356-.393,4.122-2.263,8.078-1.529,12.277.522,2.988,1.859,6.221,5.079,7.033a11.188,11.188,0,0,0,3.067.31,6.215,6.215,0,0,0,3.367-.921,7.17,7.17,0,0,0,2.218-3.234,17.439,17.439,0,0,0,1.29-4.936,33.581,33.581,0,0,0,0-5.613c-.1-1.6-.242-3.2-.4-4.8-.017-.173-.033-.345-.051-.517-.236-2.321-.663-6.365-1.854-8.35a6.008,6.008,0,0,0-6.015-2.7S296.6,533.221,297.48,538.15Z" transform="translate(-85.793 -218.951)" fill="#004e8b"/>
        <path id="패스_274" data-name="패스 274" d="M300.259,539.816s.182,4.809,6.169,3.508c0,0,6.987-2.818-.6-9.24C305.828,534.084,302.961,535.4,300.259,539.816Z" transform="translate(-88.343 -219.546)" fill="#f5a970"/>
        <g id="그룹_61" data-name="그룹 61" transform="translate(212.886 324.843)">
          <path id="패스_275" data-name="패스 275" d="M302.825,557.534a.533.533,0,0,0,.244-.042,9.686,9.686,0,0,1,6.993.107.556.556,0,0,0,.453-1.016,10.641,10.641,0,0,0-7.876-.114.555.555,0,0,0,.187,1.065Z" transform="translate(-302.298 -555.759)" fill="#0063b0"/>
        </g>
        <g id="그룹_62" data-name="그룹 62" transform="translate(212.105 334.176)">
          <path id="패스_276" data-name="패스 276" d="M301.183,577.165a.543.543,0,0,0,.244-.043,9.7,9.7,0,0,1,6.993.107.556.556,0,1,0,.453-1.016A10.651,10.651,0,0,0,301,576.1a.555.555,0,0,0,.187,1.066Z" transform="translate(-300.656 -575.389)" fill="#0063b0"/>
        </g>
        <g id="그룹_63" data-name="그룹 63" transform="translate(211.897 327.276)">
          <path id="패스_277" data-name="패스 277" d="M300.742,567.228a.552.552,0,0,0,.458-.2c.036-.044,3.607-4.279,7.851-5.048a.556.556,0,0,0-.2-1.095c-4.648.843-8.352,5.247-8.508,5.433a.556.556,0,0,0,.072.782A.549.549,0,0,0,300.742,567.228Z" transform="translate(-300.217 -560.877)" fill="#0063b0"/>
        </g>
        <g id="그룹_64" data-name="그룹 64" transform="translate(212.548 327.956)">
          <path id="패스_278" data-name="패스 278" d="M309.59,568.36a.544.544,0,0,0,.355-.106.553.553,0,0,0,.125-.775,15.1,15.1,0,0,0-7.791-5.154.555.555,0,1,0-.271,1.076,14.249,14.249,0,0,1,7.162,4.729A.554.554,0,0,0,309.59,568.36Z" transform="translate(-301.588 -562.307)" fill="#0063b0"/>
        </g>
        <path id="패스_279" data-name="패스 279" d="M305.291,589.888a2.929,2.929,0,0,1,2.514-1.49s2.618-.328,3.667,1.074C311.472,589.472,308.264,592.15,305.291,589.888Z" transform="translate(-90.982 -248.02)" fill="#004e8b"/>
        <path id="패스_280" data-name="패스 280" d="M286.321,509.024a7.694,7.694,0,0,1,7.1-2.46s3.706-2.739,7.033,3.12c0,0,1.119,10.22,1.632,14.6,0,0,.049,6.16-7.485,3.776a5.089,5.089,0,0,1-1.652-3.013S290.38,522.469,286.321,509.024Z" transform="translate(-81.031 -204.774)" fill="#f5a970"/>
        <path id="패스_281" data-name="패스 281" d="M287.65,455.567s-3.233,22.639-1.756,26.663c0,0,.646,5.6,5.553,6.626,0,0,7.13-.2,8.952-7.11l6.088-22.346S294.173,452.683,287.65,455.567Z" transform="translate(-80.605 -177.981)" fill="#ffbb87"/>
        <path id="패스_282" data-name="패스 282" d="M310.487,486.722a10.576,10.576,0,0,0,.374-1.144l3.943-14.473.336-8.775c-.126-.059-.256-.12-.393-.183-1,4.637-4.847,12.193-5.743,19.727-.76,6.391-2.428,9.325-3.42,9.9a.852.852,0,0,1-.223.1s3.186.15,4.082,4c0,0,1.8,7.024.085,9.47,2.612-.977,2.591-4.024,2.591-4.024C311.605,496.942,310.487,486.722,310.487,486.722Z" transform="translate(-91.019 -181.81)" fill="#f5a970"/>
        <path id="패스_283" data-name="패스 283" d="M339.16,617.777s-.8,6.745-3.221,10.423l14.924.822s-3.471-6.19-2.662-10.747Z" transform="translate(-107.059 -263.449)" fill="#ffbb87"/>
        <path id="패스_284" data-name="패스 284" d="M359.255,455.223s-.759,26.083-1.878,33.011c0,0-.281-1.876-5.345-1.387,0,0-7.489.544-8.559-6.626l-3.655-23.227S352.995,451.586,359.255,455.223Z" transform="translate(-109.095 -177.518)" fill="#ffbb87"/>
        <g id="그룹_65" data-name="그룹 65" transform="translate(232.088 300.64)">
          <path id="패스_285" data-name="패스 285" d="M347.9,506.608c-.812,2.324-1.7,5.9-2.124,6.938-.9,2.177-2.218,4.306-2.8,6.589-.573,2.26-.125,5.181-.13,7.533q-.006,3.941-.014,7.882c-.012,5.7-.1,12.816-.117,18.512,0,2.226-.028,4.455-.023,6.682,0,0,.01,3.038,4.494,4.113a4.825,4.825,0,0,0,4.208-3.91s5.32-28.386,6.041-37.091a42.144,42.144,0,0,0,1.29-15.842S349.523,501.958,347.9,506.608Z" transform="translate(-342.688 -504.852)" fill="#ffbb87"/>
          <path id="패스_286" data-name="패스 286" d="M346.511,507.1s1.791,4.473-.6,10.961c0,0,5.819,2.138,6.654,1.784S355.34,509.6,355.34,509.6Z" transform="translate(-344.377 -506.034)" fill="#ffbb87"/>
        </g>
        <path id="패스_287" data-name="패스 287" d="M341.827,497.6c.373-3.266,2.015-6.69,2.56-9.8a35.077,35.077,0,0,0,.635-5.545c-1.494-5.6-3.808-19-4.635-23.9-1.592.522-2.6.937-2.6.937l3.5,22.236.157.991a9.094,9.094,0,0,0,.4,1.638,18.45,18.45,0,0,1-1.159,8.331,18.215,18.215,0,0,0-1.239,3.251c-.573,2.26-.125,5.181-.13,7.533q-.006,3.941-.014,7.882c-.012,5.7-.1,12.816-.117,18.512,0,1.493-.011,2.986-.018,4.478,0,0-.8,6.745-3.221,10.423l5.081-3.158c-2.489-4.3,1.782-17.978,2.185-28.08a41.739,41.739,0,0,0-.069-6.887c-.278-2.2-1.056-4.3-1.322-6.505A10.017,10.017,0,0,1,341.827,497.6Z" transform="translate(-107.059 -179.825)" fill="#f5a970"/>
        <path id="패스_288" data-name="패스 288" d="M347.076,633.619a10.094,10.094,0,0,0-6.692-2.59s-2.935-.424-6.935,1.84c0,0-3.808,10.734-3.734,13.763,0,0,2.166,2.659,9.628,3.311,7.49.17,9.934-2.235,9.934-2.235C349.684,644.706,347.076,633.619,347.076,633.619Z" transform="translate(-103.794 -270.384)" fill="#dad800"/>
        <g id="그룹_66" data-name="그룹 66" transform="translate(231.087 363.082)">
          <path id="패스_289" data-name="패스 289" d="M341.15,638.012a.6.6,0,0,1-.143-1.173c.237-.073,5.853-1.74,10.052.576a.6.6,0,0,1-.58,1.051c-3.757-2.074-9.068-.495-9.123-.478A.642.642,0,0,1,341.15,638.012Z" transform="translate(-340.582 -636.19)" fill="#0063b0"/>
        </g>
        <g id="그룹_67" data-name="그룹 67" transform="translate(230.643 371.154)">
          <path id="패스_290" data-name="패스 290" d="M340.217,654.991a.6.6,0,0,1-.143-1.175c.237-.071,5.852-1.74,10.052.577a.6.6,0,0,1-.581,1.051c-3.757-2.073-9.068-.5-9.123-.48A.565.565,0,0,1,340.217,654.991Z" transform="translate(-339.648 -653.168)" fill="#0063b0"/>
        </g>
        <g id="그룹_68" data-name="그룹 68" transform="translate(230.804 366.308)">
          <path id="패스_291" data-name="패스 291" d="M340.473,647.07a.5.5,0,0,1-.381-.2.512.512,0,0,1,.1-.719c.194-.146,4.777-3.563,9.723-3.134a.513.513,0,0,1-.074,1.024h-.016c-4.558-.4-8.97,2.9-9.015,2.93A.512.512,0,0,1,340.473,647.07Z" transform="translate(-339.987 -642.977)" fill="#0063b0"/>
        </g>
        <g id="그룹_69" data-name="그룹 69" transform="translate(231.268 365.854)">
          <path id="패스_292" data-name="패스 292" d="M350.426,647.088a.523.523,0,0,1-.324-.14c-.039-.036-3.912-3.646-8.364-3.891-.093-.005-.183-.008-.275-.01a.513.513,0,0,1,.023-1.026c4.968.119,9.146,4.016,9.321,4.182a.513.513,0,0,1-.381.886Z" transform="translate(-340.963 -642.021)" fill="#0063b0"/>
        </g>
        <path id="패스_293" data-name="패스 293" d="M348.2,664.959a14.453,14.453,0,0,1-5,1.922c-1.064.2-1.407-1.177-1.407-1.177-.047-1.324-3.369-1.283-3.369-1.283s-3.3-.406-3.489.905c0,0-.494,1.33-1.529,1.016a14.435,14.435,0,0,1-4.764-2.459,4.448,4.448,0,0,0-.918,3.57s2.152,2.884,10.342,3.455c8.2.33,10.658-2.3,10.658-2.3A4.448,4.448,0,0,0,348.2,664.959Z" transform="translate(-102.712 -287.635)" fill="#004e8b"/>
        <path id="패스_294" data-name="패스 294" d="M328.221,401.229c-4.963-.739-15.837,3.283-17.549,3.933-1.631-.833-12-6.024-17.011-5.834,0,0-9.7,8.01-8.333,48.626,0,0,9.6-.88,15.672,1.86,0,0,4.728-14.63,7.723-24.582a14.915,14.915,0,0,0,1.653.154c1.693,9.987,4.129,24.174,4.129,24.174,6.338-2.058,15.512.853,15.512.853C337.022,410.789,328.221,401.229,328.221,401.229Z" transform="translate(-80.441 -148.853)" fill="#483932"/>
        <path id="패스_295" data-name="패스 295" d="M330.944,445.883a11.616,11.616,0,0,1-13.841-.762,16.024,16.024,0,0,0,2.884,5.372c1.231,3.546-4.606,17.188-6.965,22.45a17.484,17.484,0,0,1,2.509.891s4.729-14.631,7.722-24.582a15.079,15.079,0,0,0,1.652.154c1.693,9.988,4.13,24.174,4.13,24.174a15.128,15.128,0,0,1,3.189-.635c-3.323-5.579-5.266-22.068-5.266-22.068C329.369,449.45,330.944,445.883,330.944,445.883Z" transform="translate(-95.038 -172.878)" fill="#342924"/>
        <path id="패스_296" data-name="패스 296" d="M304.9,141.1c-.507-1.864-3.536-3.4-5.1-3.966-12.1-4.389-19.811,8.1-20.472,18.442a33.92,33.92,0,0,0,1.7,14.448c2.313,6.175,11.393,19.37,1.579,23.434-2.57,1.065-5.169.864-7.844.985a31.611,31.611,0,0,0,2,3.144c7.719,9.43,19.78.07,21.424-9.3a29.127,29.127,0,0,0-.181-11.061q-.117-.46-.25-.929C292.974,159.476,306.145,145.677,304.9,141.1Z" transform="translate(-74.97 -10.844)" fill="#322822"/>
        <path id="패스_297" data-name="패스 297" d="M289.977,161.706c0,.015-4.795,14.239,1.878,27.237,0,0,10.274,15.133-2.822,19.888,2.152-.782,4.148-.958,5.916-2.716,3.979-3.958,2.751-8.911.495-13.4-3.264-6.5-5.681-12.207-5.971-19.565C289.342,169.813,288.912,164.868,289.977,161.706Z" transform="translate(-82.074 -24.206)" fill="#483932"/>
        <path id="패스_298" data-name="패스 298" d="M328.245,401.23c-4.963-.739-15.837,3.282-17.549,3.932-1.631-.833-12-6.024-17.011-5.834,0,0-9.7,8.01-8.332,48.626,0,0,.306-.027.837-.058.418-7.047,2.451-34.875,7.258-41.57,0,0,22.088.949,35.523,1.5,0,0,2.892,15.285-.867,42.062,1.2.289,1.937.523,1.937.523C337.045,410.79,328.245,401.23,328.245,401.23Z" transform="translate(-80.454 -148.854)" fill="#342924"/>
        <path id="패스_299" data-name="패스 299" d="M387.022,274.72l8.59,1.452-2.059,12.422s-11.147.481-16.154,4.964l6.105-14.743Z" transform="translate(-128.809 -83.49)" fill="#f5a970"/>
        <path id="패스_300" data-name="패스 300" d="M414.1,286.008c3.985-.776,10.553-1.617,10.553-1.617,5.618-2.191,4.771-7.129,4.771-7.129a6.213,6.213,0,0,0-6.766-3.807c-15.4,2.6-20.5,1.954-20.5,1.954a6.3,6.3,0,0,0-7.214,6.3c.174,5.972,2.123,4.416,5.722,6.257C400.67,287.965,401.608,288.444,414.1,286.008Z" transform="translate(-138.013 -82.79)" fill="#ffbb87"/>
        <path id="패스_301" data-name="패스 301" d="M472.891,226.115s-21.329,17.4-27.13,24.213c0,0-3.517,3.252-.152,6.491a4.939,4.939,0,0,0,7.161,1.321s8.075-5.964,25.071-27.63c0,0,1.37-1.306-.527-2.994C477.314,227.515,474.482,224.939,472.891,226.115Z" transform="translate(-163.825 -57.832)" fill="#ffbb87"/>
        <path id="패스_302" data-name="패스 302" d="M443.3,233.437,422.722,254.7c-6.812,7.164-11.306,7.238-11.306,7.238-2.611.819-16.336,2.595-16.336,2.595l-6.329.922c-3.91.572-6.97,1.019-9.241,1.353L377.4,271.9c3.912-3.5,11.579-4.564,14.74-4.859.311-.009.761-.038,1.41-.105h0c1.81-.19,5.162-.68,11.344-1.886,3.985-.776,10.553-1.617,10.553-1.617a8.9,8.9,0,0,0,2.3-1.292h0s8.075-5.964,25.071-27.63a1.751,1.751,0,0,0,.474-1.075Z" transform="translate(-128.809 -61.834)" fill="#f5a970"/>
        <g id="그룹_70" data-name="그룹 70" transform="translate(304.342 149.154)">
          <path id="패스_303" data-name="패스 303" d="M509.87,205.75c-1.036.811-2.046,1.66-3.029,2.534a17.65,17.65,0,0,0-1.89,1.866c-.863,1.038-1.451,1.636-2.852,1.609a4.047,4.047,0,0,1-3.363-1.334,5.3,5.3,0,0,1-3.087-4.329s.525-8.287-.89-10.735a1.209,1.209,0,0,1,.969-1.7s2.871,2.525,3.346,5.733a154.018,154.018,0,0,0,9.8-12.943s1.264-.711,1.4.36c0,0,.413,2.441-4.147,9.28a4,4,0,0,0,.108,1.683l.259.613S510.118,202.864,509.87,205.75Z" transform="translate(-494.665 -186.22)" fill="#ffbb87"/>
          <path id="패스_304" data-name="패스 304" d="M511.022,209.771,508.2,211.1l-3.094,4.837,1.863,4.391,2.815.7,4.341-2.231S513.794,212.7,511.022,209.771Z" transform="translate(-500.141 -198.574)" fill="#f5a970"/>
          <path id="패스_305" data-name="패스 305" d="M516.758,207.62l.8,1.853-3.267,5.117-2.371.624L511.111,214l.2-1.288,4.113-5.3Z" transform="translate(-503.292 -197.335)" fill="#ffbb87"/>
          <path id="패스_306" data-name="패스 306" d="M519.448,214.171l.8,1.853-3.266,5.117-2.372.624-.807-1.219.2-1.287,4.113-5.3Z" transform="translate(-504.704 -200.772)" fill="#ffbb87"/>
          <path id="패스_307" data-name="패스 307" d="M521.782,221.5l.351,1.669-3.561,3.695-2.07.121.187-1.377-.266-.8,4.294-3.7Z" transform="translate(-506.078 -204.519)" fill="#ffbb87"/>
          <path id="패스_308" data-name="패스 308" d="M520.557,226.173,518.113,228l-1.387.089-.322-.814,2.275-2.993-2.637,2.448-.162.44.338,1.483,2.07-.121Z" transform="translate(-505.793 -206.186)" fill="#ed7d56"/>
          <path id="패스_309" data-name="패스 309" d="M514.952,225.347l-.714-1.519,1.045-2.18-1.277,1.645-.2,1.287.807,1.219.21.121Z" transform="translate(-504.704 -204.804)" fill="#ed7d56"/>
          <path id="패스_310" data-name="패스 310" d="M515.381,213.317l-1.779,2.519-1.664.438-.791-1.318.188-1.188,3.368-4.34-2.839,4.589-.211.778.6.864.83-.053Z" transform="translate(-503.311 -198.394)" fill="#ed7d56"/>
        </g>
        <path id="패스_311" data-name="패스 311" d="M280.783,271.444l-2.781.608,1.465,12.98s11.582-1.359,17.494,2.433l-8.624-18.131Z" transform="translate(-76.667 -80.664)" fill="#f5a970"/>
        <path id="패스_312" data-name="패스 312" d="M235.761,287.847c-4.24-.138-12.056.153-12.056.153-6.161-1.326-6.111-6.56-6.111-6.56a6.492,6.492,0,0,1,6.346-5.054c16.32.118,22.373-1.463,22.375-1.463,4.476-.495,8.206.471,8.932,4.963C256.958,290.467,241.892,288.045,235.761,287.847Z" transform="translate(-44.979 -83.535)" fill="#ffbb87"/>
        <path id="패스_313" data-name="패스 313" d="M164.5,237.914s24.9,14.4,32.024,20.462c0,0,4.169,2.77,1.238,6.672a5.161,5.161,0,0,1-7.168,2.556s-9.324-4.809-30.467-24.332c0,0-1.631-1.119.042-3.176C160.167,240.1,162.662,236.965,164.5,237.914Z" transform="translate(-14.458 -64.089)" fill="#ffbb87"/>
        <path id="패스_314" data-name="패스 314" d="M159.5,247.217l24.772,18.511c8.22,6.258,12.87,5.584,12.87,5.584,2.831.41,18.189-.108,18.189-.108,7.468-.116,12.873-.195,16.442-.245l3.024,4.9c-4.621-2.965-12.707-2.781-16.017-2.559-.322.043-.791.088-1.472.126h0c-1.9.107-5.437.158-12.017-.055l-12.056.153a9.3,9.3,0,0,1-2.592-.949h0s-9.325-4.809-30.467-24.332a1.834,1.834,0,0,1-.671-1.029Z" transform="translate(-14.504 -69.063)" fill="#f5a970"/>
        <g id="그룹_71" data-name="그룹 71" transform="translate(131.851 152.172)">
          <path id="패스_315" data-name="패스 315" d="M139.821,212.84c.069,1.551,3.712,4.1,4.769,5,2.814,2.393,3.765,1.593,6.9.573a5.683,5.683,0,0,0,3.529-4.47s-.135-8.893,1.506-11.438a1.3,1.3,0,0,0-.949-1.87s-2.025.475-3.875,5.961a36.927,36.927,0,0,1-3.95-4.707,92.317,92.317,0,0,1-5.293-9.034s-1.315-.825-1.514.313c0,0-.691,2.95,3.833,10.5a1.838,1.838,0,0,0-.648.822l-.309.641S139.707,209.737,139.821,212.84Z" transform="translate(-136.031 -192.568)" fill="#ffbb87"/>
          <path id="패스_316" data-name="패스 316" d="M138.6,212.978c-6.912-6.106-6.732-7.96-6.732-7.96-.184-1.108,1.39-.634,1.39-.634,2.367,2.168,5.422,4.351,8.452,6.6,0,0,1.253,1.179.143,2.068C141.85,213.056,139.866,214.1,138.6,212.978Z" transform="translate(-131.851 -198.714)" fill="#ffbb87"/>
          <path id="패스_317" data-name="패스 317" d="M143.594,222.376l4.979,1.984,2.279,2.822-1.215,4.5-3.047.6-4.527-2.611S140.476,225.366,143.594,222.376Z" transform="translate(-136.996 -208.204)" fill="#f5a970"/>
          <path id="패스_318" data-name="패스 318" d="M140.481,221.286l-.948,1.941,3.228,5.644,2.506.79.926-1.262-.02-1.732-4.257-5.539Z" transform="translate(-135.881 -207.55)" fill="#ffbb87"/>
          <path id="패스_319" data-name="패스 319" d="M138.473,229.006l-.462,1.768,3.619,4.137,2.207.236.557-1.2-.358-1.125-4.4-4.186Z" transform="translate(-135.082 -211.488)" fill="#ffbb87"/>
          <path id="패스_320" data-name="패스 320" d="M140.767,234.155l2.52,2.08,1.48.167.387-.854-2.278-3.32,2.694,2.755.152.478-.439,1.569-2.207-.236Z" transform="translate(-136.528 -213.372)" fill="#ed7d56"/>
          <path id="패스_321" data-name="패스 321" d="M150.8,233.39l.976-1.932-1.036-2.267,1.311,1.706.02,1.732-.926,1.262-.232.119Z" transform="translate(-141.76 -211.779)" fill="#ed7d56"/>
        </g>
        <path id="패스_322" data-name="패스 322" d="M333.257,402.094l-18.515.889-18.306-2.915-3.3,6.177s11.012,4.845,21.127,5.4,21.922-3.032,21.922-3.032Z" transform="translate(-84.607 -149.245)" fill="#0d988c"/>
        <path id="패스_323" data-name="패스 323" d="M389.669,273.225l3.565,1.131s-6.411,13.824-10.257,16.622C382.977,290.978,386.443,280.36,389.669,273.225Z" transform="translate(-131.734 -82.706)" fill="#0d988c"/>
        <path id="패스_324" data-name="패스 324" d="M292.421,268.683l-3.812,1.788s4.867,12.914,8.383,16.118C296.992,286.589,294.845,276.128,292.421,268.683Z" transform="translate(-82.231 -80.324)" fill="#0d988c"/>
        <path id="패스_325" data-name="패스 325" d="M309.735,262.664s5.839-1.094,9.375-2.074l8.095.445-1.087,19.748S308.594,280.034,309.735,262.664Z" transform="translate(-93.286 -76.078)" fill="#ffbb87"/>
        <path id="패스_326" data-name="패스 326" d="M362.759,265.111s-6.822-1.827-10.229-3.188l-7.347-.4L344.1,281.267S361.987,282.5,362.759,265.111Z" transform="translate(-111.338 -76.565)" fill="#ffbb87"/>
        <g id="그룹_72" data-name="그룹 72" transform="translate(224.555 175.04)">
          <path id="패스_327" data-name="패스 327" d="M327.484,242.368s2.574,4.747-.641,13.89a17.2,17.2,0,0,0,17.224,1.8,50.914,50.914,0,0,1-.228-17.391S331.431,245.02,327.484,242.368Z" transform="translate(-326.843 -240.667)" fill="#ffbb87"/>
          <path id="패스_328" data-name="패스 328" d="M344,245.134a40.306,40.306,0,0,1,.545-4.467s-12.408,4.353-16.355,1.7c0,0,1.184,1.424.628,7.771C332.164,250.332,338.947,251.708,344,245.134Z" transform="translate(-327.551 -240.667)" fill="#f5a970"/>
        </g>
        <path id="패스_329" data-name="패스 329" d="M313.646,143.75s-8.251-9.255-16.906,4.364c0,0,6.1-10.109,15.4-3.932,0,0-8.136-2.2-12.573,4.211,0,0,4.951-4.141,11.092-2.984,0,0-9.372,1.683-11.008,10.244,0,0,2.346-6.893,11.17-8.9C310.822,146.749,313.21,145.656,313.646,143.75Z" transform="translate(-86.497 -13.175)" fill="#5d463c"/>
        <path id="패스_330" data-name="패스 330" d="M326.124,144.47c-11.395-1.119-22.061,7.844-23.484,19.027a44.632,44.632,0,0,0,.068,11.9c0,.016,3.059,19.929,21.89,19.868a19.366,19.366,0,0,0,9.654-3.758c6.347-5.856,7.72-8.449,8.474-15.356.334-3.069,1.294-5.967,1.22-9.05C343.675,155.889,338.387,145.673,326.124,144.47Z" transform="translate(-89.4 -15.115)" fill="#483932"/>
        <path id="패스_331" data-name="패스 331" d="M324.684,160.672s-18.642-.6-15.176,24.792a27.019,27.019,0,0,0,2.766,9.48c2.69,5.094,9.357,12.417,17.189,11.324,3.705-.517,7.842-5.439,9.694-7.91,2.873-3.834,4.006-8.811,4.273-13.268C343.43,185.09,348.406,160.176,324.684,160.672Z" transform="translate(-92.969 -23.66)" fill="#ffbb87"/>
        <path id="패스_332" data-name="패스 332" d="M307.122,207.579s-2.709-3.837-4.434.092c0,0-1.247,6.418,4.033,8.373.185.068.378.132.581.189,0,0,.988.144.931-2.648C308.233,213.585,307.761,208.308,307.122,207.579Z" transform="translate(-89.55 -47.389)" fill="#f5a970"/>
        <path id="패스_333" data-name="패스 333" d="M377.656,206.09s2.546-3.946,4.433-.092c0,0,1.511,6.361-3.682,8.532-.182.077-.373.147-.573.213,0,0-.981.185-1.038-2.607C376.795,212.136,377.047,206.845,377.656,206.09Z" transform="translate(-128.491 -46.554)" fill="#ffbb87"/>
        <path id="패스_334" data-name="패스 334" d="M312.23,183.676s18.412-1.914,22.878-11.495c0,0,3.705,5.862,8.755,7.952.06-7.24-2.255-19.815-19.178-19.461,0,0-18.643-.6-15.176,24.792a27.028,27.028,0,0,0,2.765,9.48c2.328,4.406,7.633,10.478,14.093,11.329C321.753,203.731,311.444,196.995,312.23,183.676Z" transform="translate(-92.97 -23.66)" fill="#f5a970"/>
        <path id="패스_335" data-name="패스 335" d="M334.261,166.8S331.9,175.224,310,180.075a35.754,35.754,0,0,0-.561,8.817s-2.439-3.79-2.622-12.656c0,0-.161-21.436,27.241-19.292,18.074,8.388,7.468,31.577,7.335,31.883,0,0,.724-4.222-.432-11.819C340.96,177.007,335.463,173.307,334.261,166.8Z" transform="translate(-91.782 -21.629)" fill="#483932"/>
        <path id="패스_336" data-name="패스 336" d="M312.844,166.614s18.553-12.29,32.978-.683c0,0-5.669-10.647-16.708-10.254C329.114,155.677,315.542,156.49,312.844,166.614Z" transform="translate(-94.944 -21.038)" fill="#fe9d2b"/>
        <path id="패스_337" data-name="패스 337" d="M338.292,170.426s-2.721,11.309-22.868,14.232C315.424,184.658,331.678,180.256,338.292,170.426Z" transform="translate(-96.298 -28.78)" fill="#5d463c"/>
        <path id="패스_338" data-name="패스 338" d="M365.768,170.379s.357,9.223,6.591,12.775C372.359,183.154,368.593,179.849,365.768,170.379Z" transform="translate(-122.707 -28.756)" fill="#5d463c"/>
        <path id="패스_339" data-name="패스 339" d="M331.286,170.368s-13.713-1.759-21.024,8.5a17.442,17.442,0,0,1,5.192-1.775,26.489,26.489,0,0,0-7.36,5.8,103.563,103.563,0,0,1,9.774-4,42.345,42.345,0,0,1-5.179,3.72s13.54-4.6,18.119-9.54a16.322,16.322,0,0,1-3.957,1.314s4.105-2.073,6.008-3.386c0,0-5.164.822-6.651,1.263A17.919,17.919,0,0,1,331.286,170.368Z" transform="translate(-92.453 -28.69)" fill="#5d463c"/>
        <path id="패스_340" data-name="패스 340" d="M318.3,152.965s15.8-11.991,29.566,2.1C347.871,155.064,336.545,138.631,318.3,152.965Z" transform="translate(-97.809 -16.542)" fill="#5d463c"/>
        <path id="패스_341" data-name="패스 341" d="M353.7,220.3l.352,3.37-.457.977,2.048-.723Z" transform="translate(-116.319 -54.945)" fill="#9d311a"/>
        <path id="패스_342" data-name="패스 342" d="M358.539,199.911a5.769,5.769,0,0,1,7.382-1.115S360.922,194.188,358.539,199.911Z" transform="translate(-118.915 -42.743)" fill="#483932"/>
        <g id="그룹_74" data-name="그룹 74" transform="translate(223.347 160.038)">
          <g id="그룹_73" data-name="그룹 73" transform="translate(2.215 0.392)">
            <path id="패스_343" data-name="패스 343" d="M332.135,212.559c.047,1.458-.625,2.647-1.5,2.657s-1.624-1.165-1.67-2.623.626-2.647,1.5-2.657S332.087,211.1,332.135,212.559Z" transform="translate(-328.961 -209.936)" fill="#483932"/>
            <path id="패스_344" data-name="패스 344" d="M332.293,213.733c.031.955-.409,1.733-.981,1.74s-1.064-.763-1.094-1.717.409-1.733.983-1.74S332.262,212.779,332.293,213.733Z" transform="translate(-329.619 -211.027)" fill="#313133"/>
            <path id="패스_345" data-name="패스 345" d="M332.992,212.388c.1.322.324.563.505.538s.249-.307.151-.629-.323-.563-.505-.538S332.894,212.066,332.992,212.388Z" transform="translate(-331.052 -210.891)" fill="#b8a588"/>
          </g>
          <path id="패스_346" data-name="패스 346" d="M329.414,210.757a2.5,2.5,0,0,0-.5-.764,1.037,1.037,0,0,0-1.4-.228,1.97,1.97,0,0,0-.861,1.214l-2.348-.559,2.091-.022c.021,0,.3-.545.344-.605a1.826,1.826,0,0,1,.787-.62,1.385,1.385,0,0,1,1.466.509A2.148,2.148,0,0,1,329.414,210.757Z" transform="translate(-324.303 -209.112)" fill="#313133"/>
        </g>
        <path id="패스_347" data-name="패스 347" d="M331.955,201.883a5.768,5.768,0,0,0-7.421-.809S329.339,196.262,331.955,201.883Z" transform="translate(-101.077 -43.852)" fill="#483932"/>
        <g id="그룹_75" data-name="그룹 75" transform="translate(229.773 171.165)">
          <path id="패스_348" data-name="패스 348" d="M337.827,233.468a19.764,19.764,0,0,0,11.035-.952s-1.159,5.132-7.3,4.441C341.56,236.957,337.934,236.485,337.827,233.468Z" transform="translate(-337.823 -232.516)" fill="#fff"/>
          <path id="패스_349" data-name="패스 349" d="M337.819,233.334a17.032,17.032,0,0,0,11.014-.818A37.475,37.475,0,0,1,337.819,233.334Z" transform="translate(-337.819 -232.516)" fill="#9d311a"/>
          <path id="패스_350" data-name="패스 350" d="M337.819,233.334s.24,3.617,5.657,3.521c0,0,4.271-.5,5.358-4.338,0,0,.141,4.755-5.325,5.242C343.508,237.758,338.323,238.462,337.819,233.334Z" transform="translate(-337.819 -232.516)" fill="#9d311a"/>
        </g>
        <path id="패스_351" data-name="패스 351" d="M301.9,264.952c1.916,4.748,6.922,14.409,16.485,16.253,9.709-.784,15.745-9.838,18.17-14.347a32.62,32.62,0,0,1,6.829,2.027c-3.308,7.607-6.384,20.65-6.384,20.65,3.37,10.489-2.767,16.134-2.767,16.134-1.469,18.994,1.854,28.172,1.854,28.172a57.045,57.045,0,0,1-41.072-2.26s4.309-8.759,4.933-27.8c0,0-6.3-6.488-.981-16.34,0,0-.886-13.046-4.222-20.538A49.368,49.368,0,0,1,301.9,264.952Z" transform="translate(-85.451 -78.366)" fill="#f77e0b"/>
        <path id="패스_352" data-name="패스 352" d="M312.8,271.538s5.285,12.143,15.058,13.122c0,0,8.83.677,16.066-10.88C343.92,273.78,329.455,289.125,312.8,271.538Z" transform="translate(-94.919 -81.821)" fill="#0d988c"/>
        <path id="패스_353" data-name="패스 353" d="M305.61,394.184s20.418,4.779,27.986.109c0,0,1.655-1.18,2.47-7.335a26.388,26.388,0,0,1,1.255,8.97S328.127,403.53,305.61,394.184Z" transform="translate(-91.15 -142.368)" fill="#ea6913"/>
        <path id="패스_354" data-name="패스 354" d="M314.557,282.708a15.022,15.022,0,0,0,14.044,9.674s10.689.014,16.038-9.021c0,0-1.88,10.754-16.224,10.919C328.415,294.28,315.7,293.739,314.557,282.708Z" transform="translate(-95.843 -87.681)" fill="#fe9d2b"/>
        <path id="패스_355" data-name="패스 355" d="M341.239,310.588c.017-.348-.263-.7-1.03-1.016-1.393-.57-3.406.61-4.784.843a31.013,31.013,0,0,1-6.3.355c-4.572-.177-9.3-3.735-13.4-5.552-2.373-1.052-4.488,2.988-3.115,4.724,2.458,3.106,10.475,2.664,13.95,2.855,4.133.228,8.446.4,12.416-.571C339.879,312.006,341.2,311.313,341.239,310.588Z" transform="translate(-94.593 -99.399)" fill="#ea6913"/>
        <path id="패스_356" data-name="패스 356" d="M306.109,344.849c1.144-2.262,4.164-3.011,6.638-3.6-5.893-.566-10.622-2.723-12.512-4.412a12.345,12.345,0,0,0,2.536,4.653,99.4,99.4,0,0,1-2.646,20.817c2.966-5.578,3.436-9.483,5.541-15.9A11.805,11.805,0,0,1,306.109,344.849Z" transform="translate(-88.273 -116.077)" fill="#ea6913"/>
        <path id="패스_357" data-name="패스 357" d="M363.193,348.75c-.89-2.373-3.81-3.45-6.2-4.3,5.919.083,10.571-1.557,12.634-3.028a14.821,14.821,0,0,1-2.746,4.362,91.764,91.764,0,0,0,.24,20.088c-2.337-5.87-2.659-7.361-3.655-15.523A7.1,7.1,0,0,0,363.193,348.75Z" transform="translate(-118.102 -118.479)" fill="#ea6913"/>
        <g id="그룹_76" data-name="그룹 76" transform="translate(215.619 230.972)">
          <path id="패스_358" data-name="패스 358" d="M312.337,362.568s-1.945,16-1.923,17.8c0,0,21.21,3.521,28.209,1.552l-1.143-18.581A126.208,126.208,0,0,0,312.337,362.568Z" transform="translate(-309.289 -360.383)" fill="#ea6913"/>
          <path id="패스_359" data-name="패스 359" d="M310.453,358.8a103.147,103.147,0,0,1,12.8-.4l-1.033,20.2s-10.545-.829-14.176-1.8Z" transform="translate(-308.048 -358.314)" fill="#fff"/>
          <path id="패스_360" data-name="패스 360" d="M350.571,360.259a90.1,90.1,0,0,0-12.112-1.767l-1.191,20.192s10.575.333,14.288-.237Z" transform="translate(-323.376 -358.407)" fill="#fff"/>
          <path id="패스_361" data-name="패스 361" d="M336.262,384.383l-11.543-.737-11.475-.53-.733,4.973,11.8.649.34.019,11.8.649Z" transform="translate(-310.389 -371.324)" fill="#ae0721"/>
        </g>
        <g id="그룹_79" data-name="그룹 79" transform="translate(218.332 183.977)">
          <path id="패스_362" data-name="패스 362" d="M320.867,260.175s-12.138,24.547,12.595,30.606l-.852,2.8s-26.86-12.868-16.464-32.342C316.146,261.244,318.671,258.1,320.867,260.175Z" transform="translate(-313.754 -259.465)" fill="#94031b"/>
          <path id="패스_363" data-name="패스 363" d="M357.239,262.155s2.872,12.763-.907,16.217c0,0-5.219,5.586-2.447,11.368l2.446.135a18.188,18.188,0,0,1-.123-6.787c.653-3.456,2.936-6.31,4.008-9.621.764-2.364,2.3-7.632.864-9.966C361.078,263.5,358.844,261.309,357.239,262.155Z" transform="translate(-334.38 -260.774)" fill="#94031b"/>
          <g id="그룹_78" data-name="그룹 78" transform="translate(16.973 27.675)">
            <path id="패스_364" data-name="패스 364" d="M350.027,325.233a5.19,5.19,0,1,0,2.254-6.985A5.189,5.189,0,0,0,350.027,325.233Z" transform="translate(-349.455 -317.677)" fill="#ff9d00"/>
            <path id="패스_365" data-name="패스 365" d="M351.019,325.556a4.691,4.691,0,1,0,2.039-6.314A4.692,4.692,0,0,0,351.019,325.556Z" transform="translate(-350.005 -318.227)" fill="#c76b23"/>
            <path id="패스_366" data-name="패스 366" d="M353.1,326.232a3.649,3.649,0,1,0,1.585-4.91A3.648,3.648,0,0,0,353.1,326.232Z" transform="translate(-351.156 -319.378)" fill="#ff9d00"/>
            <g id="그룹_77" data-name="그룹 77" transform="translate(3.069 2.541)">
              <path id="패스_367" data-name="패스 367" d="M358.5,323.021l1.888,3.691-1.711.875-1.012-1.978a2.092,2.092,0,0,0-.3-.5.325.325,0,0,0-.275-.023,4.388,4.388,0,0,0-.788.347l-.169.087-.221-.43a4.673,4.673,0,0,0,1.582-1.556Z" transform="translate(-355.911 -323.021)" fill="#c76b23"/>
            </g>
          </g>
        </g>
        <path id="패스_368" data-name="패스 368" d="M360.6,221.945c.085.712,1.78,1.1,3.786.856s3.563-1.011,3.479-1.723-1.78-1.1-3.787-.856S360.512,221.233,360.6,221.945Z" transform="translate(-119.993 -54.865)" fill="url(#radial-gradient)"/>
        <path id="패스_369" data-name="패스 369" d="M323.34,227.58c.085.712,1.78,1.1,3.787.856s3.563-1.011,3.479-1.723-1.78-1.1-3.787-.856S323.255,226.867,323.34,227.58Z" transform="translate(-100.449 -57.82)" fill="url(#radial-gradient-2)"/>
        <g id="그룹_80" data-name="그룹 80" transform="translate(240.198 159.714)">
          <path id="패스_370" data-name="패스 370" d="M364.2,211.633l2.518-.875-2.028.042c-.034,0-.653-1.135-.736-1.238a3.071,3.071,0,0,0-1.319-1.044,2.1,2.1,0,0,0-2.311.967,3.93,3.93,0,0,0-.584,1.9S362.062,206.986,364.2,211.633Z" transform="translate(-359.746 -208.431)" fill="#313133"/>
        </g>
        <path id="패스_371" data-name="패스 371" d="M492.391,234.4a4.5,4.5,0,0,1,2.435-1.979s1.16,2.8,6.314,4.1a5,5,0,0,1-2.258,2.805S494.074,238.588,492.391,234.4Z" transform="translate(-189.13 -61.3)" fill="#f77e0b"/>
        <path id="패스_372" data-name="패스 372" d="M332.84,639s-.376,11.42,1.28,14.182a14.237,14.237,0,0,1-4.4-2.352A63.664,63.664,0,0,1,332.84,639Z" transform="translate(-103.796 -274.582)" fill="#afc81f"/>
        <path id="패스_373" data-name="패스 373" d="M363.818,640.685s-.878,11.392-2.828,13.957a14.239,14.239,0,0,0,4.634-1.855A41.961,41.961,0,0,0,363.818,640.685Z" transform="translate(-120.201 -275.466)" fill="#afc81f"/>
        <path id="패스_374" data-name="패스 374" d="M299.413,567.952s-2.607-4.6.951-17.295a5.3,5.3,0,0,1-1.316-1.65,37.672,37.672,0,0,1-.783,6.774S295.487,564.244,299.413,567.952Z" transform="translate(-86.796 -227.375)" fill="#afc81f"/>
        <path id="패스_375" data-name="패스 375" d="M318.269,541.983a5.313,5.313,0,0,0,.589-2.581l-.472-4.149a6.447,6.447,0,0,1,2.207,4.817s.767,7.967.855,10.021c0,0,1.123,8.207-2.549,11.087C318.9,561.178,322.4,547.822,318.269,541.983Z" transform="translate(-97.79 -220.159)" fill="#afc81f"/>
      </g>
    </g>
  </g>
</svg>
