<svg xmlns="http://www.w3.org/2000/svg" width="183.292" height="55.994" viewBox="0 0 183.292 55.994">
  <g id="그룹_575" data-name="그룹 575" transform="translate(-2063.309 -1637.546)">
    <g id="그룹_93" data-name="그룹 93" transform="translate(2103.762 1648.757)">
      <g id="그룹_88" data-name="그룹 88" transform="translate(16.81 22.76)">
        <path id="패스_379" data-name="패스 379" d="M3567.658,2545.329a1.94,1.94,0,0,1-.581-3.7,6.792,6.792,0,0,0-5.559-12.394,1.94,1.94,0,1,1-1.588-3.541,10.672,10.672,0,1,1,8.735,19.476A1.926,1.926,0,0,1,3567.658,2545.329Z" transform="translate(-3558.783 -2524.753)" fill="#f16623"/>
      </g>
      <g id="그룹_89" data-name="그룹 89" transform="translate(0 23.745)">
        <path id="패스_380" data-name="패스 380" d="M3131.914,2565.048a10.672,10.672,0,0,1-12.071-7.954,1.94,1.94,0,1,1,3.766-.938,6.791,6.791,0,1,0,13.179-3.285,1.94,1.94,0,1,1,3.766-.938,10.685,10.685,0,0,1-7.775,12.938Q3132.348,2564.978,3131.914,2565.048Z" transform="translate(-3119.784 -2550.462)" fill="#f16623"/>
      </g>
      <g id="그룹_90" data-name="그룹 90" transform="translate(19.079 0)">
        <path id="패스_381" data-name="패스 381" d="M3623.887,1940.314a5.019,5.019,0,1,1,4.128-5.773A5.024,5.024,0,0,1,3623.887,1940.314Zm-1.009-6.073a1.137,1.137,0,1,0,1.309.935A1.138,1.138,0,0,0,3622.878,1934.242Z" transform="translate(-3618.045 -1930.344)" fill="#f16623"/>
      </g>
      <g id="그룹_91" data-name="그룹 91" transform="translate(6.302 8.706)">
        <path id="패스_382" data-name="패스 382" d="M3298.949,2164.584a1.94,1.94,0,0,1-1.788-.645,6.791,6.791,0,0,0-9.58-.689,1.94,1.94,0,1,1-2.54-2.934,10.672,10.672,0,0,1,15.054,1.084,1.941,1.941,0,0,1-1.146,3.184Z" transform="translate(-3284.37 -2157.712)" fill="#f16623"/>
      </g>
      <g id="그룹_92" data-name="그룹 92" transform="translate(18.62 11.724)">
        <path id="패스_383" data-name="패스 383" d="M3616.366,2243.269a10.675,10.675,0,0,1-9.836-3.538,1.94,1.94,0,0,1,2.934-2.54,6.8,6.8,0,0,0,9.581.69,1.941,1.941,0,0,1,2.541,2.935A10.607,10.607,0,0,1,3616.366,2243.269Z" transform="translate(-3606.056 -2236.521)" fill="#f16623"/>
      </g>
    </g>
    <g id="그룹_102" data-name="그룹 102" transform="translate(2125.222 1637.546)">
      <g id="그룹_94" data-name="그룹 94" transform="translate(26.223 0)">
        <path id="패스_384" data-name="패스 384" d="M4371.243,1649.866a6.16,6.16,0,1,1,6.159-6.16A6.167,6.167,0,0,1,4371.243,1649.866Zm0-7.556a1.4,1.4,0,1,0,1.4,1.4A1.4,1.4,0,0,0,4371.243,1642.31Z" transform="translate(-4365.083 -1637.546)" fill="#f7b617"/>
      </g>
      <g id="그룹_95" data-name="그룹 95" transform="translate(10.322 28.609)">
        <path id="패스_385" data-name="패스 385" d="M3952.2,2400.814a2.382,2.382,0,0,1-.055-4.763,8.706,8.706,0,0,0,8.5-8.911,2.382,2.382,0,0,1,2.324-2.438h.058a2.383,2.383,0,0,1,2.38,2.325,13.471,13.471,0,0,1-13.147,13.787Z" transform="translate(-3949.816 -2384.702)" fill="#f7b617"/>
      </g>
      <g id="그룹_96" data-name="그룹 96" transform="translate(21.147 28.609)">
        <path id="패스_386" data-name="패스 386" d="M4245.966,2397.975a2.383,2.383,0,0,1-2.315-1.832,8.752,8.752,0,0,0-8.692-6.681,2.382,2.382,0,0,1-.122-4.761,13.526,13.526,0,0,1,13.449,10.342,2.385,2.385,0,0,1-2.319,2.933Z" transform="translate(-4232.516 -2384.697)" fill="#f7b617"/>
      </g>
      <g id="그룹_97" data-name="그룹 97" transform="translate(26.772 11.514)">
        <path id="패스_387" data-name="패스 387" d="M4390.752,1949.625a13.517,13.517,0,0,1-10.875-5.532,2.382,2.382,0,1,1,3.849-2.807,8.708,8.708,0,0,0,14.992-1.615,2.382,2.382,0,0,1,4.355,1.929,13.505,13.505,0,0,1-12.322,8.024Z" transform="translate(-4379.42 -1938.253)" fill="#f7b617"/>
      </g>
      <g id="그룹_98" data-name="그룹 98" transform="translate(10.876 12.391)">
        <path id="패스_388" data-name="패스 388" d="M3966.68,1975.719a2.385,2.385,0,0,1-2.368-2.663,13.473,13.473,0,0,1,19.307-10.52,2.382,2.382,0,1,1-2.093,4.279,8.71,8.71,0,0,0-12.483,6.8A2.382,2.382,0,0,1,3966.68,1975.719Z" transform="translate(-3964.295 -1961.156)" fill="#f7b617"/>
      </g>
      <g id="그룹_99" data-name="그룹 99" transform="translate(21.146 13.522)">
        <path id="패스_389" data-name="패스 389" d="M4234.877,2010.544a2.384,2.384,0,0,1-2.231-3.215l5.625-15.086a2.382,2.382,0,1,1,4.464,1.664l-5.625,15.086A2.385,2.385,0,0,1,4234.877,2010.544Z" transform="translate(-4232.495 -1990.693)" fill="#f7b617"/>
      </g>
      <g id="그룹_100" data-name="그룹 100" transform="translate(0 33.007)">
        <path id="패스_390" data-name="패스 390" d="M3691.885,2511.243a2.372,2.372,0,0,1-1.095-.436l-9.561-6.952a2.382,2.382,0,0,1,2.8-3.853l9.56,6.953a2.382,2.382,0,0,1-1.707,4.288Z" transform="translate(-3680.248 -2499.547)" fill="#f7b617"/>
      </g>
      <g id="그룹_101" data-name="그룹 101" transform="translate(30.247 37.168)">
        <path id="패스_391" data-name="패스 391" d="M4472.577,2627.049a2.424,2.424,0,0,1-.333-.023,2.382,2.382,0,0,1-2.028-2.689l1.97-14.062a2.382,2.382,0,0,1,4.717.661l-1.97,14.061A2.382,2.382,0,0,1,4472.577,2627.049Z" transform="translate(-4470.192 -2608.223)" fill="#f7b617"/>
      </g>
    </g>
    <g id="그룹_108" data-name="그룹 108" transform="translate(2063.309 1645.11)">
      <g id="그룹_103" data-name="그룹 103" transform="translate(13.437 0)">
        <path id="패스_392" data-name="패스 392" d="M2420.4,1847.409a6.16,6.16,0,1,1,6.16-6.16A6.167,6.167,0,0,1,2420.4,1847.409Zm0-7.556a1.4,1.4,0,1,0,1.4,1.4A1.4,1.4,0,0,0,2420.4,1839.853Z" transform="translate(-2414.239 -1835.089)" fill="#92ba3e"/>
      </g>
      <g id="그룹_104" data-name="그룹 104" transform="translate(15.553 14.429)">
        <path id="패스_393" data-name="패스 393" d="M2482.047,2227.937c-.041,0-.081,0-.123,0a13.1,13.1,0,0,1-12.419-13.748,2.382,2.382,0,0,1,4.758.242,8.335,8.335,0,0,0,7.9,8.749,2.382,2.382,0,0,1-.118,4.76Z" transform="translate(-2469.488 -2211.925)" fill="#92ba3e"/>
      </g>
      <g id="그룹_105" data-name="그룹 105" transform="translate(10.855 31.372)">
        <path id="패스_394" data-name="패스 394" d="M2358.056,2671.459a2.385,2.385,0,0,1-2.354-2.764,8.335,8.335,0,0,0-6.9-9.561,2.382,2.382,0,0,1,.762-4.7,13.1,13.1,0,0,1,10.837,15.026A2.383,2.383,0,0,1,2358.056,2671.459Z" transform="translate(-2346.804 -2654.401)" fill="#92ba3e"/>
      </g>
      <g id="그룹_106" data-name="그룹 106" transform="translate(0 31.35)">
        <path id="패스_395" data-name="패스 395" d="M2065.87,2669.136h-.219a2.382,2.382,0,0,1,.038-4.764h.04a8.334,8.334,0,0,0,8.469-8.2,2.382,2.382,0,0,1,2.381-2.344h.039a2.382,2.382,0,0,1,2.343,2.42,13.1,13.1,0,0,1-13.091,12.889Z" transform="translate(-2063.309 -2653.827)" fill="#92ba3e"/>
      </g>
      <g id="그룹_107" data-name="그룹 107" transform="translate(3.267 14.357)">
        <path id="패스_396" data-name="패스 396" d="M2151.02,2223.786a2.384,2.384,0,0,1-2.354-2.766,13.1,13.1,0,0,1,15.04-10.818,2.382,2.382,0,0,1-.768,4.7,8.335,8.335,0,0,0-9.57,6.884A2.382,2.382,0,0,1,2151.02,2223.786Z" transform="translate(-2148.635 -2210.028)" fill="#92ba3e"/>
      </g>
    </g>
    <g id="그룹_118" data-name="그룹 118" transform="translate(2171.317 1648.255)">
      <g id="그룹_109" data-name="그룹 109" transform="translate(0 22.762)">
        <path id="패스_397" data-name="패스 397" d="M4886.453,2531.356a2.382,2.382,0,0,1-1.672-4.078l15.141-14.927a2.382,2.382,0,1,1,3.344,3.392l-15.141,14.927A2.371,2.371,0,0,1,4886.453,2531.356Z" transform="translate(-4884.071 -2511.665)" fill="#6dbfeb"/>
      </g>
      <g id="그룹_110" data-name="그룹 110" transform="translate(15.141 12.097)">
        <path id="패스_398" data-name="패스 398" d="M5281.878,2248.581a2.382,2.382,0,0,1-1.672-4.078l10.818-10.665a2.382,2.382,0,1,1,3.344,3.392l-10.817,10.664A2.375,2.375,0,0,1,5281.878,2248.581Z" transform="translate(-5279.497 -2233.153)" fill="#6dbfeb"/>
      </g>
      <g id="그룹_111" data-name="그룹 111" transform="translate(15.141 21.049)">
        <path id="패스_399" data-name="패스 399" d="M5293.408,2491.167a2.382,2.382,0,0,1-1.3-4.379,8.206,8.206,0,0,0-8.939-13.764,2.382,2.382,0,1,1-2.594-3.995,12.97,12.97,0,1,1,14.128,21.754A2.374,2.374,0,0,1,5293.408,2491.167Z" transform="translate(-5279.489 -2466.931)" fill="#6dbfeb"/>
      </g>
      <g id="그룹_112" data-name="그룹 112" transform="translate(12.283 5.805)">
        <path id="패스_400" data-name="패스 400" d="M5220.907,2079.888a2.383,2.383,0,0,1-2.355-2.044,4.957,4.957,0,0,0-9.236-1.711,2.382,2.382,0,0,1-4.159-2.322,9.72,9.72,0,0,1,18.111,3.357,2.383,2.383,0,0,1-2.02,2.7A2.448,2.448,0,0,1,5220.907,2079.888Z" transform="translate(-5204.854 -2068.825)" fill="#6dbfeb"/>
      </g>
      <g id="그룹_113" data-name="그룹 113" transform="translate(25.956 12.104)">
        <path id="패스_401" data-name="패스 401" d="M5571.576,2244.4a9.724,9.724,0,0,1-9.6-8.344,2.382,2.382,0,1,1,4.715-.676,4.958,4.958,0,0,0,9.237,1.711,2.382,2.382,0,1,1,4.158,2.325,9.652,9.652,0,0,1-7.11,4.883A9.836,9.836,0,0,1,5571.576,2244.4Z" transform="translate(-5561.952 -2233.342)" fill="#6dbfeb"/>
      </g>
      <g id="그룹_114" data-name="그룹 114" transform="translate(29.885 0)">
        <path id="패스_402" data-name="패스 402" d="M5670.712,1929.544a6.16,6.16,0,1,1,6.16-6.16A6.167,6.167,0,0,1,5670.712,1929.544Zm0-7.556a1.4,1.4,0,1,0,1.4,1.4A1.4,1.4,0,0,0,5670.712,1921.988Z" transform="translate(-5664.552 -1917.224)" fill="#6dbfeb"/>
      </g>
      <g id="그룹_115" data-name="그룹 115" transform="translate(17.389 25.165)" style="mix-blend-mode: multiply;isolation: isolate">
        <path id="패스_403" data-name="패스 403" d="M5338.2,2574.44" transform="translate(-5338.196 -2574.44)" fill="#6dbfeb" stroke="#4cc0bb" stroke-linecap="round" stroke-miterlimit="10" stroke-width="124.404"/>
      </g>
      <g id="그룹_116" data-name="그룹 116" transform="translate(28.341 14.479)" style="mix-blend-mode: multiply;isolation: isolate">
        <path id="패스_404" data-name="패스 404" d="M5624.22,2295.353" transform="translate(-5624.22 -2295.353)" fill="#6dbfeb" stroke="#4cc0bb" stroke-linecap="round" stroke-miterlimit="10" stroke-width="124.404"/>
      </g>
      <g id="그룹_117" data-name="그룹 117" transform="translate(17.389 25.165)" style="mix-blend-mode: multiply;isolation: isolate">
        <path id="패스_405" data-name="패스 405" d="M5338.2,2574.44" transform="translate(-5338.196 -2574.44)" fill="#6dbfeb" stroke="#4cc0bb" stroke-linecap="round" stroke-miterlimit="10" stroke-width="124.404"/>
      </g>
    </g>
    <g id="그룹_126" data-name="그룹 126" transform="translate(2220.968 1661.533)">
      <g id="그룹_119" data-name="그룹 119" transform="translate(0 16.366)">
        <path id="패스_406" data-name="패스 406" d="M6182.512,2707.046a1.755,1.755,0,0,1-1.573-2.532l5.982-12.13a1.755,1.755,0,1,1,3.148,1.553l-5.982,12.13A1.745,1.745,0,0,1,6182.512,2707.046Z" transform="translate(-6180.758 -2691.405)" fill="#4cc0bb"/>
        <path id="패스_407" data-name="패스 407" d="M6191.806,2715.982a1.384,1.384,0,0,1-1.241-2l5.981-12.129a1.385,1.385,0,1,1,2.484,1.225l-5.982,12.13A1.385,1.385,0,0,1,6191.806,2715.982Z" transform="translate(-6190.051 -2700.712)" fill="#4cc0bb"/>
      </g>
      <g id="그룹_120" data-name="그룹 120" transform="translate(5.982 15.37)">
        <path id="패스_408" data-name="패스 408" d="M6345.453,2680.245a1.755,1.755,0,0,1-.958-3.228,4.4,4.4,0,0,0-1.482-7.995,4.43,4.43,0,0,0-.925-.1,4.37,4.37,0,0,0-2.386.711,1.756,1.756,0,1,1-1.913-2.944,7.875,7.875,0,0,1,4.293-1.279,8.03,8.03,0,0,1,1.66.175,7.911,7.911,0,0,1,2.664,14.373A1.749,1.749,0,0,1,6345.453,2680.245Z" transform="translate(-6336.991 -2665.413)" fill="#4cc0bb"/>
        <path id="패스_409" data-name="패스 409" d="M6354.744,2689.179a1.385,1.385,0,0,1-.756-2.546,4.771,4.771,0,0,0-5.2-8,1.385,1.385,0,1,1-1.509-2.323,7.541,7.541,0,0,1,8.215,12.647A1.386,1.386,0,0,1,6354.744,2689.179Z" transform="translate(-6346.283 -2674.718)" fill="#4cc0bb"/>
      </g>
      <g id="그룹_121" data-name="그룹 121" transform="translate(11.367)">
        <path id="패스_410" data-name="패스 410" d="M6481.581,2264a3.951,3.951,0,1,0,3.951,3.95A3.954,3.954,0,0,0,6481.581,2264Zm0,4.762a.812.812,0,1,1,.812-.812A.812.812,0,0,1,6481.581,2268.763Z" transform="translate(-6477.63 -2264.001)" fill="#4cc0bb"/>
        <path id="패스_411" data-name="패스 411" d="M6490.886,2273.677a3.58,3.58,0,1,0,3.581,3.58A3.583,3.583,0,0,0,6490.886,2273.677Zm0,4.392a.812.812,0,1,1,.811-.812A.812.812,0,0,1,6490.886,2278.069Z" transform="translate(-6486.935 -2273.306)" fill="#4cc0bb"/>
      </g>
      <g id="그룹_122" data-name="그룹 122" transform="translate(6.735 16.748)" style="mix-blend-mode: multiply;isolation: isolate">
        <path id="패스_412" data-name="패스 412" d="M6356.653,2701.4" transform="translate(-6356.653 -2701.398)" fill="#4cc0bb"/>
        <path id="패스_413" data-name="패스 413" d="M6356.653,2701.4" transform="translate(-6356.653 -2701.398)" fill="#4cc0bb"/>
      </g>
      <g id="그룹_123" data-name="그룹 123" transform="translate(6.735 16.748)" style="mix-blend-mode: multiply;isolation: isolate">
        <path id="패스_414" data-name="패스 414" d="M6356.653,2701.4" transform="translate(-6356.653 -2701.398)" fill="#4cc0bb"/>
        <path id="패스_415" data-name="패스 415" d="M6356.653,2701.4" transform="translate(-6356.653 -2701.398)" fill="#4cc0bb"/>
      </g>
      <g id="그룹_124" data-name="그룹 124" transform="translate(10.994 8.67)">
        <path id="패스_416" data-name="패스 416" d="M6475.452,2497.633a8.214,8.214,0,0,1-7.4-4.7,1.757,1.757,0,0,1,1.587-2.5,1.764,1.764,0,0,1,1.589,1.008,4.693,4.693,0,0,0,8.1.669,1.755,1.755,0,1,1,2.884,2,8.146,8.146,0,0,1-5.28,3.4A8.336,8.336,0,0,1,6475.452,2497.633Z" transform="translate(-6467.882 -2490.427)" fill="#4cc0bb"/>
        <path id="패스_417" data-name="패스 417" d="M6484.776,2506.577a7.845,7.845,0,0,1-7.066-4.49,1.385,1.385,0,0,1,2.506-1.18,5.062,5.062,0,0,0,8.735.723,1.385,1.385,0,0,1,2.276,1.578,7.779,7.779,0,0,1-5.042,3.242A7.9,7.9,0,0,1,6484.776,2506.577Z" transform="translate(-6477.207 -2499.741)" fill="#4cc0bb"/>
      </g>
      <g id="그룹_125" data-name="그룹 125" transform="translate(0.761 7.096)">
        <path id="패스_418" data-name="패스 418" d="M6202.4,2457.324a1.756,1.756,0,0,1-1.674-2.288,8.2,8.2,0,0,1,12.752-4.073,1.755,1.755,0,1,1-2.109,2.806,4.652,4.652,0,0,0-2.816-.947,4.738,4.738,0,0,0-1.183.151,4.671,4.671,0,0,0-3.3,3.126A1.749,1.749,0,0,1,6202.4,2457.324Z" transform="translate(-6200.643 -2449.312)" fill="#4cc0bb"/>
        <path id="패스_419" data-name="패스 419" d="M6211.7,2466.256a1.386,1.386,0,0,1-1.321-1.8,7.833,7.833,0,0,1,12.177-3.889,1.385,1.385,0,0,1-1.664,2.214,5.064,5.064,0,0,0-7.874,2.515A1.384,1.384,0,0,1,6211.7,2466.256Z" transform="translate(-6209.945 -2458.615)" fill="#4cc0bb"/>
      </g>
    </g>
  </g>
</svg>
