<svg xmlns="http://www.w3.org/2000/svg" width="67.305" height="98.612" viewBox="0 0 67.305 98.612">
  <g id="그룹_24" data-name="그룹 24" transform="translate(-6828.943 -932.332)">
    <g id="그룹_22" data-name="그룹 22" transform="translate(6837.285 933.332)">
      <circle id="타원_13" data-name="타원 13" cx="6.144" cy="6.144" r="6.144" fill="none" stroke="#3d3d3d" stroke-linecap="round" stroke-linejoin="round" stroke-width="2"/>
      <path id="패스_36" data-name="패스 36" d="M6852.224,945.97a3.909,3.909,0,0,0,2.345-2.686" transform="translate(-6845.356 -936.937)" fill="none" stroke="#3d3d3d" stroke-linecap="round" stroke-linejoin="round" stroke-width="2"/>
    </g>
    <circle id="타원_14" data-name="타원 14" cx="6.169" cy="6.169" r="6.169" transform="translate(6852.797 952.788) rotate(-80.806)" fill="none" stroke="#3d3d3d" stroke-linecap="round" stroke-linejoin="round" stroke-width="2"/>
    <path id="패스_37" data-name="패스 37" d="M6853.51,958.545l3.758,5.135a2.734,2.734,0,0,0,1.67,1.066l6.753,1.351" transform="translate(-8.537 -9.133)" fill="none" stroke="#3d3d3d" stroke-linecap="round" stroke-linejoin="round" stroke-width="2"/>
    <path id="패스_38" data-name="패스 38" d="M6871.282,961.113l13.117-10.3a2.519,2.519,0,0,1,3.516.4h0a2.519,2.519,0,0,1-.409,3.568l-11.343,8.862a2.773,2.773,0,0,0-1,2.76l2.657,12.524,8.884,20.731a3.11,3.11,0,0,1-1.667,4.1l-.255.105a3.108,3.108,0,0,1-4.022-1.589l-7.612-16.8a1.98,1.98,0,0,0-3.094-.685l-9.339,8.017a3.455,3.455,0,0,1-2.851.779l-10.884-1.929a3.109,3.109,0,0,1-2.5-3.707h0a3.108,3.108,0,0,1,3.595-2.413l8.367,1.514a1.923,1.923,0,0,0,1.586-.427l5.242-4.457a3.741,3.741,0,0,0,1.235-3.626l-1.73-8.143a2.774,2.774,0,0,0-2.159-2.14l-7.282-1.482a2.686,2.686,0,0,1-1.594-1l-6.074-7.916a2.516,2.516,0,0,1-.166-2.825" transform="translate(-5.24 -6.139)" fill="none" stroke="#3d3d3d" stroke-linecap="round" stroke-linejoin="round" stroke-width="2"/>
    <path id="패스_39" data-name="패스 39" d="M6877.453,979.923h17.795v39.808a21.927,21.927,0,0,1-2.681,10.671c-3.5,6.288-11.537,14.28-29.971,16.419-18.435-2.139-26.473-10.131-29.972-16.419a21.933,21.933,0,0,1-2.681-10.671V979.923h14.21" transform="translate(0 -16.877)" fill="none" stroke="#3d3d3d" stroke-linecap="round" stroke-linejoin="round" stroke-width="2"/>
    <path id="패스_40" data-name="패스 40" d="M6859.316,1049.7a4.388,4.388,0,1,1,0-4.7" transform="translate(-7.708 -39.712)" fill="none" stroke="#3d3d3d" stroke-linecap="round" stroke-linejoin="round" stroke-width="2"/>
    <path id="패스_41" data-name="패스 41" d="M6870.662,1042.963v8.776h5.408" transform="translate(-14.75 -39.712)" fill="none" stroke="#3d3d3d" stroke-linecap="round" stroke-linejoin="round" stroke-width="2"/>
    <path id="패스_42" data-name="패스 42" d="M6890.666,1042.963v5.375a3.4,3.4,0,0,1-3.4,3.4h0a3.4,3.4,0,0,1-3.4-3.4v-5.375" transform="translate(-19.532 -39.712)" fill="none" stroke="#3d3d3d" stroke-linecap="round" stroke-linejoin="round" stroke-width="2"/>
    <g id="그룹_23" data-name="그룹 23" transform="translate(6876.168 1003.251)">
      <line id="선_17" data-name="선 17" y2="8.776" transform="translate(0)" fill="none" stroke="#3d3d3d" stroke-linecap="round" stroke-linejoin="round" stroke-width="2"/>
      <path id="패스_43" data-name="패스 43" d="M6902.423,1054.231h3.318a2.195,2.195,0,0,0,2.193-2.194h0a2.194,2.194,0,0,0-2.193-2.194h-3.318" transform="translate(-6902.423 -1045.455)" fill="none" stroke="#3d3d3d" stroke-linecap="round" stroke-linejoin="round" stroke-width="2"/>
      <path id="패스_44" data-name="패스 44" d="M6905.741,1047.351a2.194,2.194,0,0,0,2.193-2.194h0a2.194,2.194,0,0,0-2.193-2.194h-3.318" transform="translate(-6902.423 -1042.963)" fill="none" stroke="#3d3d3d" stroke-linecap="round" stroke-linejoin="round" stroke-width="2"/>
    </g>
  </g>
</svg>
