<svg xmlns="http://www.w3.org/2000/svg" width="78" height="78" viewBox="0 0 78 78">
  <g id="training_progress_plan" data-name="training progress plan" transform="translate(-519 -215)">
    <g id="_Grupo_" data-name="&lt;Grupo&gt;" transform="translate(520 216)">
      <g id="그룹_26" data-name="그룹 26">
        <path id="패스_53" data-name="패스 53" d="M561.871,230.71v-4.9a3.677,3.677,0,0,0-3.677-3.677h-2.452V216H536.129v6.129h-2.452A3.677,3.677,0,0,0,530,225.806v4.9Z" transform="translate(-517.742 -216)" fill="none" stroke="#3d3d3d" stroke-linecap="round" stroke-linejoin="round" stroke-width="2"/>
        <path id="패스_54" data-name="패스 54" d="M540,221v2.452h7.355V221" transform="translate(-515.484 -214.871)" fill="none" stroke="#3d3d3d" stroke-linecap="square" stroke-linejoin="round" stroke-width="2"/>
        <path id="패스_55" data-name="패스 55" d="M549.419,290.194H522.452A2.451,2.451,0,0,1,520,287.742v-61.29A2.451,2.451,0,0,1,522.452,224h4.9" transform="translate(-520 -214.194)" fill="none" stroke="#3d3d3d" stroke-linecap="square" stroke-linejoin="round" stroke-width="2"/>
        <path id="패스_56" data-name="패스 56" d="M557,224h8.581a2.451,2.451,0,0,1,2.452,2.452V257.1" transform="translate(-511.645 -214.194)" fill="none" stroke="#3d3d3d" stroke-linecap="square" stroke-linejoin="round" stroke-width="2"/>
      </g>
      <g id="그룹_27" data-name="그룹 27" transform="translate(9.806 26.968)">
        <rect id="사각형_20" data-name="사각형 20" width="7" height="7" transform="translate(0.193 15.032)" fill="none" stroke="#3d3d3d" stroke-linejoin="round" stroke-width="2"/>
        <rect id="사각형_21" data-name="사각형 21" width="7" height="8" transform="translate(0.193 29.032)" fill="none" stroke="#3d3d3d" stroke-linejoin="round" stroke-width="2"/>
        <path id="패스_57" data-name="패스 57" d="M528,241.677l3.677,3.677,4.9-7.355" transform="translate(-528 -238)" fill="none" stroke="#3d3d3d" stroke-linecap="round" stroke-linejoin="round" stroke-width="2"/>
        <line id="선_18" data-name="선 18" x2="22" transform="translate(15.193 4.032)" fill="none" stroke="#3d3d3d" stroke-linecap="round" stroke-linejoin="round" stroke-width="2"/>
        <line id="선_19" data-name="선 19" x2="12" transform="translate(15.193 18.032)" fill="none" stroke="#3d3d3d" stroke-linecap="round" stroke-linejoin="round" stroke-width="2"/>
        <line id="선_20" data-name="선 20" x2="4" transform="translate(15.193 33.032)" fill="none" stroke="#3d3d3d" stroke-linecap="round" stroke-linejoin="round" stroke-width="2"/>
      </g>
    </g>
    <g id="barbell" transform="translate(556.774 263.806)">
      <path id="사각형_22" data-name="사각형 22" d="M1,0H6A0,0,0,0,1,6,0V21a0,0,0,0,1,0,0H1a1,1,0,0,1-1-1V1A1,1,0,0,1,1,0Z" transform="translate(0.226 3.193)" fill="none" stroke="#3d3d3d" stroke-linecap="round" stroke-linejoin="round" stroke-width="2"/>
      <rect id="사각형_23" data-name="사각형 23" width="6" height="28" rx="1" transform="translate(6.226 0.193)" fill="none" stroke="#3d3d3d" stroke-linecap="round" stroke-linejoin="round" stroke-width="2"/>
      <path id="사각형_24" data-name="사각형 24" d="M0,0H5A1,1,0,0,1,6,1V20a1,1,0,0,1-1,1H0a0,0,0,0,1,0,0V0A0,0,0,0,1,0,0Z" transform="translate(33.226 3.193)" fill="none" stroke="#3d3d3d" stroke-linecap="round" stroke-linejoin="round" stroke-width="2"/>
      <rect id="사각형_25" data-name="사각형 25" width="6" height="28" rx="1" transform="translate(27.226 0.193)" fill="none" stroke="#3d3d3d" stroke-linecap="round" stroke-linejoin="round" stroke-width="2"/>
      <line id="선_21" data-name="선 21" x1="13" transform="translate(13.226 17.193)" fill="none" stroke="#3d3d3d" stroke-linecap="round" stroke-linejoin="round" stroke-width="2"/>
      <line id="선_22" data-name="선 22" x2="9" transform="translate(17.226 11.193)" fill="none" stroke="#3d3d3d" stroke-linecap="square" stroke-linejoin="round" stroke-width="2"/>
    </g>
  </g>
</svg>
