<svg xmlns="http://www.w3.org/2000/svg" width="92.737" height="74.552" viewBox="0 0 92.737 74.552">
  <g id="그룹_28" data-name="그룹 28" transform="translate(-208 -53.089)">
    <path id="패스_58" data-name="패스 58" d="M222.515,72.913c4.375-4.9,5.032-14.22,4.127-18.53-2.547.535-5.5,2.691-7.642,5.653" transform="translate(9.725 0)" fill="none" stroke="#3d3d3d" stroke-miterlimit="10" stroke-width="2"/>
    <path id="패스_59" data-name="패스 59" d="M220.9,69.7a22.138,22.138,0,0,0-4.714-13.662c-2.422,2.844-3.586,7.977-2.831,12.674" transform="translate(4.017 1.607)" fill="none" stroke="#3d3d3d" stroke-miterlimit="10" stroke-width="2"/>
    <path id="패스_60" data-name="패스 60" d="M218.863,71.438c-1.233-3.819-6.6-6.464-9.863-7.521,0,5.817,1.513,17.713,11.009,18.787" transform="translate(0 9.272)" fill="none" stroke="#3d3d3d" stroke-miterlimit="10" stroke-width="2"/>
    <path id="패스_61" data-name="패스 61" d="M224.033,78.157c2.846-4.444,1.331-9.646-.736-12.332-4.815,2.562-10.632,10.853-4.134,16.208" transform="translate(7.072 11.128)" fill="none" stroke="#3d3d3d" stroke-miterlimit="10" stroke-width="2"/>
    <path id="패스_62" data-name="패스 62" d="M226.888,91.324c5.119-6.793-2.308-13.2-6.431-14.98-.876,2.543-2.558,9.022,1.619,12.8" transform="translate(10.087 21.358)" fill="none" stroke="#3d3d3d" stroke-miterlimit="10" stroke-width="2"/>
    <path id="패스_63" data-name="패스 63" d="M223.808,81c-3.768-4.643-10.4-5.456-13.808-5.642.308,4.878,5.01,17.637,15.78,15.045" transform="translate(0.973 20.398)" fill="none" stroke="#3d3d3d" stroke-miterlimit="10" stroke-width="2"/>
    <path id="패스_64" data-name="패스 64" d="M215.687,86.547c3.391,5.113,13.439,14.22,26.261,7.052C239.137,84.2,220.9,85.018,215.687,86.547Z" transform="translate(6.503 30.366)" fill="none" stroke="#3d3d3d" stroke-miterlimit="10" stroke-width="2"/>
    <path id="패스_65" data-name="패스 65" d="M245.426,72.913c-4.375-4.9-5.032-14.22-4.127-18.53a15.725,15.725,0,0,1,7.642,5.653" transform="translate(31.07 0)" fill="none" stroke="#3d3d3d" stroke-miterlimit="10" stroke-width="2"/>
    <path id="패스_66" data-name="패스 66" d="M246.933,69.7a22.138,22.138,0,0,1,4.714-13.662c2.422,2.844,3.584,7.977,2.831,12.674" transform="translate(36.884 1.607)" fill="none" stroke="#3d3d3d" stroke-miterlimit="10" stroke-width="2"/>
    <path id="패스_67" data-name="패스 67" d="M250.565,71.438c1.233-3.819,6.6-6.464,9.863-7.521,0,5.817-1.513,17.713-11.009,18.787" transform="translate(39.309 9.272)" fill="none" stroke="#3d3d3d" stroke-miterlimit="10" stroke-width="2"/>
    <path id="패스_68" data-name="패스 68" d="M244.566,78.157c-2.846-4.444-1.331-9.646.736-12.332,4.815,2.562,10.63,10.853,4.134,16.208" transform="translate(33.067 11.128)" fill="none" stroke="#3d3d3d" stroke-miterlimit="10" stroke-width="2"/>
    <path id="패스_69" data-name="패스 69" d="M241.674,91.324c-5.119-6.793,2.306-13.2,6.431-14.98.876,2.543,2.558,9.022-1.619,12.8" transform="translate(30.088 21.358)" fill="none" stroke="#3d3d3d" stroke-miterlimit="10" stroke-width="2"/>
    <path id="패스_70" data-name="패스 70" d="M247.973,81c3.768-4.643,10.4-5.456,13.808-5.642-.308,4.878-5.01,17.637-15.78,15.045" transform="translate(35.984 20.398)" fill="none" stroke="#3d3d3d" stroke-miterlimit="10" stroke-width="2"/>
    <path id="패스_71" data-name="패스 71" d="M261.259,86.547C257.87,91.66,247.822,100.767,235,93.6,237.811,84.2,256.045,85.018,261.259,86.547Z" transform="translate(25.286 30.366)" fill="none" stroke="#3d3d3d" stroke-miterlimit="10" stroke-width="2"/>
  </g>
</svg>
