<svg xmlns="http://www.w3.org/2000/svg" width="99.344" height="91.623" viewBox="0 0 99.344 91.623">
  <g id="그룹_25" data-name="그룹 25" transform="translate(-3690.155 -3805.734)">
    <path id="패스_45" data-name="패스 45" d="M3763.24,3848.907a7.543,7.543,0,1,1-7.543-7.543A7.542,7.542,0,0,1,3763.24,3848.907Z" transform="translate(-16.111 -9.789)" fill="none" stroke="#3d3d3d" stroke-linecap="round" stroke-miterlimit="10" stroke-width="2"/>
    <path id="패스_46" data-name="패스 46" d="M3742.957,3864.487l-9.827-7.883a3.112,3.112,0,0,0-4.3.315,3.028,3.028,0,0,0,.408,4.329l9.091,7.294a6.667,6.667,0,0,1,2.495,5.2v6.174a49.888,49.888,0,0,1-1.7,12.912l-3.4,12.677a3.758,3.758,0,0,0,2.645,4.6l.012,0a3.758,3.758,0,0,0,4.612-2.641l5.331-19.627a1.837,1.837,0,0,1,1.773-1.355h0a1.838,1.838,0,0,1,1.772,1.355l5.331,19.627a3.757,3.757,0,0,0,4.611,2.641h0a3.758,3.758,0,0,0,2.641-4.612l-3.549-13.068a49.879,49.879,0,0,1-1.745-13.08v-5.437a6.668,6.668,0,0,1,2.71-5.367l9.331-6.883a3.028,3.028,0,0,0,1.231-2.437h0a3.028,3.028,0,0,0-4.826-2.436l-10.438,7.7" transform="translate(-10.444 -13.895)" fill="none" stroke="#3d3d3d" stroke-linecap="round" stroke-miterlimit="10" stroke-width="2"/>
    <path id="패스_47" data-name="패스 47" d="M3800.19,3814.277a7.543,7.543,0,1,1-7.543-7.543A7.542,7.542,0,0,1,3800.19,3814.277Z" transform="translate(-26.556 0)" fill="none" stroke="#3d3d3d" stroke-linecap="round" stroke-miterlimit="10" stroke-width="2"/>
    <path id="패스_48" data-name="패스 48" d="M3779.373,3875.592l.012,0a3.759,3.759,0,0,0,4.612-2.642l5.332-19.627a1.836,1.836,0,0,1,1.772-1.355h0a1.838,1.838,0,0,1,1.773,1.355l5.331,19.627a3.758,3.758,0,0,0,4.611,2.642h0a3.759,3.759,0,0,0,2.641-4.612l-3.55-13.068a49.891,49.891,0,0,1-1.745-13.081V3839.4a6.668,6.668,0,0,1,2.71-5.366l9.331-6.883a3.029,3.029,0,0,0,1.231-2.437h0a3.028,3.028,0,0,0-4.826-2.437l-10.438,7.7" transform="translate(-24.935 -4.224)" fill="none" stroke="#3d3d3d" stroke-linecap="round" stroke-miterlimit="10" stroke-width="2"/>
    <path id="패스_49" data-name="패스 49" d="M3779.906,3829.855l-9.827-7.883a3.112,3.112,0,0,0-4.3.316,3.028,3.028,0,0,0,.407,4.329l9.091,7.294a6.666,6.666,0,0,1,2.495,5.2v2.7" transform="translate(-20.889 -4.106)" fill="none" stroke="#3d3d3d" stroke-linecap="round" stroke-miterlimit="10" stroke-width="2"/>
    <path id="패스_50" data-name="패스 50" d="M3726.291,3814.277a7.543,7.543,0,1,1-7.543-7.543A7.542,7.542,0,0,1,3726.291,3814.277Z" transform="translate(-5.667 0)" fill="none" stroke="#3d3d3d" stroke-linecap="round" stroke-miterlimit="10" stroke-width="2"/>
    <path id="패스_51" data-name="패스 51" d="M3733.669,3841.93V3839.4a6.668,6.668,0,0,1,2.71-5.366l9.331-6.883a3.029,3.029,0,0,0,1.231-2.437h0a3.029,3.029,0,0,0-4.826-2.437l-10.438,7.7" transform="translate(-11.453 -4.224)" fill="none" stroke="#3d3d3d" stroke-linecap="round" stroke-miterlimit="10" stroke-width="2"/>
    <path id="패스_52" data-name="패스 52" d="M3706.007,3829.855l-9.826-7.883a3.112,3.112,0,0,0-4.3.316,3.028,3.028,0,0,0,.408,4.329l9.091,7.294a6.666,6.666,0,0,1,2.5,5.2v6.174a49.892,49.892,0,0,1-1.7,12.913l-3.4,12.677a3.757,3.757,0,0,0,2.645,4.6l.012,0a3.758,3.758,0,0,0,4.611-2.642l5.331-19.627a1.837,1.837,0,0,1,1.773-1.355h0a1.837,1.837,0,0,1,1.772,1.355l5.332,19.627a3.757,3.757,0,0,0,4.611,2.642h0" transform="translate(0 -4.106)" fill="none" stroke="#3d3d3d" stroke-linecap="round" stroke-miterlimit="10" stroke-width="2"/>
  </g>
</svg>
