<svg xmlns="http://www.w3.org/2000/svg" width="21.964" height="34.235" viewBox="0 0 21.964 34.235">
  <g id="Shape_1" data-name="Shape 1" transform="translate(-938.571 -695.688)" fill="rgba(239,238,231,0)" stroke-linejoin="round">
    <path d="M 949.5531005859375 728.9227905273438 C 944.0490112304688 728.9227905273438 939.5711059570312 724.426025390625 939.5711059570312 718.8988037109375 L 939.5711059570312 706.7108764648438 C 939.5711059570312 701.1839599609375 944.0490112304688 696.6875 949.5531005859375 696.6875 C 955.057373046875 696.6875 959.535400390625 701.1839599609375 959.535400390625 706.7108764648438 L 959.535400390625 718.8988037109375 C 959.535400390625 724.426025390625 955.057373046875 728.9227905273438 949.5531005859375 728.9227905273438 Z" stroke="none"/>
    <path d="M 949.5531005859375 697.6875 C 944.6004028320312 697.6875 940.5711059570312 701.7353515625 940.5711059570312 706.7108764648438 L 940.5711059570312 718.8988037109375 C 940.5711059570312 723.8746337890625 944.6004028320312 727.9227905273438 949.5531005859375 727.9227905273438 C 954.5059814453125 727.9227905273438 958.535400390625 723.8746337890625 958.535400390625 718.8988037109375 L 958.535400390625 706.7108764648438 C 958.535400390625 701.7353515625 954.5059814453125 697.6875 949.5531005859375 697.6875 M 949.5531005859375 695.6875 C 955.6185302734375 695.6875 960.535400390625 700.6224975585938 960.535400390625 706.7108764648438 L 960.535400390625 718.8988037109375 C 960.535400390625 724.9871826171875 955.6185302734375 729.9227905273438 949.5531005859375 729.9227905273438 C 943.4879150390625 729.9227905273438 938.5711059570312 724.9871826171875 938.5711059570312 718.8988037109375 L 938.5711059570312 706.7108764648438 C 938.5711059570312 700.6224975585938 943.4879150390625 695.6875 949.5531005859375 695.6875 Z" stroke="none" fill="#fff"/>
  </g>
</svg>
