<svg id="그룹_590" data-name="그룹 590" xmlns="http://www.w3.org/2000/svg" width="24" height="24" viewBox="0 0 24 24">
  <path id="패스_1050" data-name="패스 1050" d="M0,0H24V24H0Z" fill="none"/>
  <path id="패스_1051" data-name="패스 1051" d="M10,5a2,2,0,0,1,4,0,7,7,0,0,1,4,6v3a4,4,0,0,0,2,3H4a4,4,0,0,0,2-3V11a7,7,0,0,1,4-6" fill="none" stroke="#3d3d3d" stroke-linecap="round" stroke-linejoin="round" stroke-width="1.5"/>
  <path id="패스_1052" data-name="패스 1052" d="M9,17v1a3,3,0,0,0,6,0V17" fill="none" stroke="#3d3d3d" stroke-linecap="round" stroke-linejoin="round" stroke-width="1.5"/>
  <path id="패스_1053" data-name="패스 1053" d="M21,6.727A11.05,11.05,0,0,0,18.206,3" fill="none" stroke="#3d3d3d" stroke-linecap="round" stroke-linejoin="round" stroke-width="1.5"/>
  <path id="패스_1054" data-name="패스 1054" d="M3,6.727A11.05,11.05,0,0,1,5.792,3" fill="none" stroke="#3d3d3d" stroke-linecap="round" stroke-linejoin="round" stroke-width="1.5"/>
</svg>
