<svg xmlns="http://www.w3.org/2000/svg" width="66" height="66" viewBox="0 0 66 66">
  <g id="그룹_883" data-name="그룹 883" transform="translate(-1084 -970)">
    <circle id="타원_35" data-name="타원 35" cx="33" cy="33" r="33" transform="translate(1084 970)" fill="#001d62"/>
    <path id="패스_1105" data-name="패스 1105" d="M402.85,791.417h5.245V788.8H400.23v7.862h2.62Zm0,18.732h-2.62v7.866h7.865V815.4H402.85Zm14.7,4.422a1.38,1.38,0,0,0-1.529,1.209,5.473,5.473,0,0,1-.814,1.983c-.055.084-.118.169-.18.253h3.164a7.308,7.308,0,0,0,.569-1.915A1.379,1.379,0,0,0,417.554,814.572Zm-2.38-6.976A7.2,7.2,0,0,1,417,802.654a1.378,1.378,0,0,0-2.113-1.771h0a10.008,10.008,0,0,0-2.469,6.713c.01,1.9.387,3.518.374,4.666a2.782,2.782,0,0,1-.408,1.65,4.309,4.309,0,0,1-2.081,1.415,1.379,1.379,0,1,0,1.021,2.562,6.977,6.977,0,0,0,3.341-2.426,5.52,5.52,0,0,0,.886-3.2C415.534,810.63,415.164,809.106,415.174,807.6Zm6.63-9.584a8.753,8.753,0,0,0-2.373.33,1.379,1.379,0,1,0,.745,2.656,6.008,6.008,0,0,1,1.628-.227c2.065-.012,4.1,1.148,6.144,2.844,1.537,1.269,3.022,2.791,4.532,4.142V803.99c-.879-.829-1.8-1.691-2.773-2.5C427.488,799.658,424.918,798.023,421.8,798.011Zm10.674-.419V788.8h-7.865v2.62h5.246v4.247a16.073,16.073,0,0,0-8.224-2.37,13.664,13.664,0,0,0-7.961,2.531,14.127,14.127,0,0,0-6.086,12.329,29.5,29.5,0,0,0,.32,4.132,1.38,1.38,0,1,0,2.732-.389,26.48,26.48,0,0,1-.293-3.744c.035-3.984,1.088-7.336,4.918-10.075a10.887,10.887,0,0,1,6.37-2.026,13.776,13.776,0,0,1,8.958,3.555c.61.54,1.244,1.071,1.887,1.6v-3.615ZM424.7,809.371a1.379,1.379,0,0,0-2.174,1.7,49.089,49.089,0,0,0,4.6,5,28.511,28.511,0,0,0,2.31,1.954h3.045v-1.274c-.152-.085-.307-.177-.466-.28C429.116,814.636,425.516,810.435,424.7,809.371Zm3.048-3.283a15.141,15.141,0,0,0-3.3-2.624,6.131,6.131,0,0,0-2.509-.586,4.343,4.343,0,0,0-3.6,1.871,6.611,6.611,0,0,0-1.113,3.828,8.637,8.637,0,0,0,.3,2.22,19.811,19.811,0,0,0,4.516,7.219h3.894c-.123-.113-.247-.224-.368-.338-2.847-2.644-4.966-5.949-5.377-7.6a5.843,5.843,0,0,1-.2-1.5,3.9,3.9,0,0,1,.6-2.228,1.553,1.553,0,0,1,1.356-.714,3.41,3.41,0,0,1,1.382.345,15.483,15.483,0,0,1,2.531,2.112c1.23,1.163,2.7,2.62,4.188,4.009.833.773,1.683,1.449,2.437,2.051v-3.567c-.188-.164-.375-.33-.557-.5C430.474,808.734,429.017,807.286,427.748,806.088Z" transform="translate(700.77 199.473)" fill="#fff"/>
  </g>
</svg>
