<svg xmlns="http://www.w3.org/2000/svg" xmlns:xlink="http://www.w3.org/1999/xlink" width="66" height="66" viewBox="0 0 66 66">
  <defs>
    <clipPath id="clip-path">
      <path id="패스_1035" data-name="패스 1035" d="M1174.229,540.648v6.528h9.081a7.774,7.774,0,0,1-3.368,5.092V556.5h5.453a16.457,16.457,0,0,0,5.031-12.4,19.435,19.435,0,0,0-.307-3.453Z" transform="translate(-1174.229 -540.648)" fill="none"/>
    </clipPath>
    <clipPath id="clip-path-2">
      <path id="패스_1036" data-name="패스 1036" d="M1154.073,549.037v4.37a16.864,16.864,0,0,0,15.078,9.3,16.11,16.11,0,0,0,11.165-4.087l-5.453-4.234a10.177,10.177,0,0,1-15.154-5.345Z" transform="translate(-1154.073 -549.037)" fill="none"/>
    </clipPath>
    <clipPath id="clip-path-3">
      <path id="패스_1037" data-name="패스 1037" d="M1153.468,534.621a16.881,16.881,0,0,0,0,15.154l5.636-4.37a9.981,9.981,0,0,1,0-6.412v-4.372Z" transform="translate(-1151.672 -534.621)" fill="none"/>
    </clipPath>
    <clipPath id="clip-path-4">
      <path id="패스_1038" data-name="패스 1038" d="M1154.073,531.49l5.636,4.372a10.054,10.054,0,0,1,9.441-6.956,9.117,9.117,0,0,1,6.449,2.523l4.841-4.839a16.22,16.22,0,0,0-11.289-4.395,16.867,16.867,0,0,0-15.078,9.3" transform="translate(-1154.073 -522.195)" fill="none"/>
    </clipPath>
  </defs>
  <g id="그룹_882" data-name="그룹 882" transform="translate(-1005 -970)">
    <g id="타원_28" data-name="타원 28" transform="translate(1005 970)" fill="#fff" stroke="#bcbcbc" stroke-width="1">
      <circle cx="33" cy="33" r="33" stroke="none"/>
      <circle cx="33" cy="33" r="32.5" fill="none"/>
    </g>
    <g id="그룹_574" data-name="그룹 574" transform="translate(1021.521 986.508)">
      <g id="그룹_573" data-name="그룹 573" transform="translate(0 0)">
        <g id="그룹_566" data-name="그룹 566" transform="translate(16.874 13.804)">
          <g id="그룹_565" data-name="그룹 565" clip-path="url(#clip-path)">
            <rect id="사각형_132" data-name="사각형 132" width="34.945" height="34.599" transform="translate(-9.374 -9.372)" fill="#507bbd"/>
          </g>
        </g>
        <g id="그룹_568" data-name="그룹 568" transform="translate(1.796 20.079)">
          <g id="그룹_567" data-name="그룹 567" clip-path="url(#clip-path-2)">
            <rect id="사각형_133" data-name="사각형 133" width="44.989" height="32.413" transform="translate(-9.373 -9.374)" fill="#32a751"/>
          </g>
        </g>
        <g id="그룹_570" data-name="그룹 570" transform="translate(0 9.295)">
          <g id="그룹_569" data-name="그룹 569" clip-path="url(#clip-path-3)">
            <rect id="사각형_134" data-name="사각형 134" width="26.179" height="33.902" transform="translate(-16.2 -6.167)" fill="#f6b916"/>
          </g>
        </g>
        <g id="그룹_572" data-name="그룹 572" transform="translate(1.796)">
          <g id="그룹_571" data-name="그룹 571" clip-path="url(#clip-path-4)">
            <rect id="사각형_135" data-name="사각형 135" width="45.114" height="32.413" transform="translate(-7.817 -0.223)" fill="#e74233"/>
          </g>
        </g>
      </g>
    </g>
  </g>
</svg>
