<svg id="그룹_874" data-name="그룹 874" xmlns="http://www.w3.org/2000/svg" width="24" height="24" viewBox="0 0 24 24">
  <path id="패스_1351" data-name="패스 1351" d="M0,0H24V24H0Z" fill="none"/>
  <line id="선_10" data-name="선 10" x2="18" y2="18" transform="translate(3 3)" fill="none" stroke="#3d3d3d" stroke-linecap="round" stroke-linejoin="round" stroke-width="1.5"/>
  <path id="패스_1352" data-name="패스 1352" d="M10.584,10.587a2,2,0,1,0,2.828,2.83" fill="none" stroke="#3d3d3d" stroke-linecap="round" stroke-linejoin="round" stroke-width="1.5"/>
  <path id="패스_1353" data-name="패스 1353" d="M9.363,5.365A9.466,9.466,0,0,1,12,5q6,0,10,7a19.028,19.028,0,0,1-2.5,3.488m-2.14,1.861A9.38,9.38,0,0,1,12,19Q6,19,2,12A15.693,15.693,0,0,1,6.632,6.659" fill="none" stroke="#3d3d3d" stroke-linecap="round" stroke-linejoin="round" stroke-width="1.5"/>
</svg>
