<svg xmlns="http://www.w3.org/2000/svg" xmlns:xlink="http://www.w3.org/1999/xlink" width="239.44" height="73.705" viewBox="0 0 239.44 73.705">
  <defs>
    <clipPath id="clip-path">
      <path id="패스_2352" data-name="패스 2352" d="M528.425,355.851c-15.215,6.02-31.2,4.235-34.31,3.685,0,0,2.694,3.293,11.84,4.858,6.606,1.133,15.24-.384,22.046-3.091,16.084-6.411,23.654-19.9,17.7-27.654,3.962,6.705-2.976,16.538-17.277,22.2" transform="translate(-494.115 -333.65)" fill="none"/>
    </clipPath>
    <linearGradient id="linear-gradient" x1="-0.938" y1="5.074" x2="-0.905" y2="5.074" gradientUnits="objectBoundingBox">
      <stop offset="0" stop-color="#00baf1"/>
      <stop offset="0.1" stop-color="#00baf1"/>
      <stop offset="0.4" stop-color="#0074bd"/>
      <stop offset="1" stop-color="#004c97"/>
    </linearGradient>
    <clipPath id="clip-path-2">
      <path id="패스_2354" data-name="패스 2354" d="M543.015,326.174c-6.358,1.216-11.261,4.326-13.543,7.186-2.371,2.967-2.232,5.834-1.078,7.24,2,2.447,6.918,1.736,8.654-1.242-2.224-1.365,2.156-7.662,10.214-7.83,5.813-.121,8.207,3.489,7.521,6.91-.724,3.608-3.983,7-6.111,8.878a27.978,27.978,0,0,0,8.084-7.293c4.91-7.136,1.35-13.823-8.475-14.265-.292-.013-.588-.019-.886-.019a23.254,23.254,0,0,0-4.38.435" transform="translate(-527.587 -325.739)" fill="none"/>
    </clipPath>
    <radialGradient id="radial-gradient" cx="0.155" cy="0.746" r="1.012" gradientTransform="matrix(0.751, 0.08, 0.061, -1.016, -1.188, 19.924)" gradientUnits="objectBoundingBox">
      <stop offset="0" stop-color="#f16522"/>
      <stop offset="0.506" stop-color="#ec1c24"/>
      <stop offset="1" stop-color="#b7292f"/>
    </radialGradient>
    <clipPath id="clip-path-3">
      <path id="패스_2356" data-name="패스 2356" d="M509.638,337.468c-5.879,7.01-3.854,13.875,5.057,15.577a29.921,29.921,0,0,0,15.7-1.621c12.5-4.627,12.531-12.8,6.6-14.721-3.5-1.135-7.421.579-8.8,2.848,2.652,1.58-.624,7.142-8.024,7.236-5.727.072-9.089-3.4-7.521-7.877,1.9-5.427,10.982-10.767,18.887-12.7-10.3,1.709-17.649,6.205-21.894,11.262" transform="translate(-506.305 -326.206)" fill="none"/>
    </clipPath>
    <radialGradient id="radial-gradient-2" cx="0.588" cy="0.509" r="0.517" gradientTransform="matrix(0.817, 0.08, 0.067, -1.016, -0.866, 16.472)" gradientUnits="objectBoundingBox">
      <stop offset="0" stop-color="#00baf1"/>
      <stop offset="0.5" stop-color="#0074bd"/>
      <stop offset="1" stop-color="#004c97"/>
    </radialGradient>
  </defs>
  <g id="그룹_1721" data-name="그룹 1721" transform="translate(-820.354 -746.273)">
    <g id="그룹_1042" data-name="그룹 1042" transform="translate(902.389 759.41)">
      <path id="패스_2320" data-name="패스 2320" d="M686.064,378.15a1.321,1.321,0,0,1-.417-1.008v-5.429H680.62v5.962a4.571,4.571,0,0,0,1.005,2.922,3.137,3.137,0,0,0,2.571,1.257h18.318v-3.323H687.142a1.533,1.533,0,0,1-1.078-.381m6.839-16.312a7.786,7.786,0,0,0-2.038-5.259h3.353v-3.146h-6.942v-3.412h-5.238v3.412h-6.824v3.146h3.165a7.8,7.8,0,0,0-2.049,5.259,8.291,8.291,0,0,0,16.574,0m-11.544-.279c0-2.879,1.459-5.216,3.261-5.216s3.265,2.337,3.265,5.216-1.461,5.221-3.265,5.221-3.261-2.336-3.261-5.221m21.155-2.924v-8.614H697.49v23.824h1.73c1.826,0,3.295-1.144,3.295-4.062v-7.909h4.622v-3.239Z" transform="translate(-642.615 -348.982)" fill="#231f20"/>
      <path id="패스_2321" data-name="패스 2321" d="M756.4,350.02v31.833h1.542c1.825,0,3.3-1.144,3.3-4.066V350.02Zm-6.893,9.881h-4.663v3.257h4.663v18.7h1.538c1.827,0,3.305-1.144,3.305-4.066V350.02h-4.844Zm-6.151,6.43a18.766,18.766,0,0,1-1.3-7.325v-2.445h4.812v-3.129h-4.812V350.02h-5.214v3.412H732v3.129h4.839v2.368a18.427,18.427,0,0,1-1.378,7.513,7.121,7.121,0,0,1-4.019,4.092v3.453a10.062,10.062,0,0,0,2.575-.795,12.195,12.195,0,0,0,4.19-3.1A6.96,6.96,0,0,0,739.3,368.3a5.153,5.153,0,0,0,1.08,1.77,11.461,11.461,0,0,0,1.939,1.781,13.587,13.587,0,0,0,2.462,1.4,9.273,9.273,0,0,0,2.678.735v-3.453a7.385,7.385,0,0,1-4.1-4.2" transform="translate(-666.017 -348.981)" fill="#231f20"/>
      <path id="패스_2322" data-name="패스 2322" d="M816.753,366.086v-3.255H808.38a8.859,8.859,0,0,0,1.8-2.726,8.4,8.4,0,0,0,0-6.5,8.315,8.315,0,0,0-1.846-2.75,9.331,9.331,0,0,0-6.624-2.616,9.256,9.256,0,0,0-6.7,2.641,8.53,8.53,0,0,0-1.847,2.737,8.169,8.169,0,0,0-.654,3.225,8.56,8.56,0,0,0,.635,3.233,7.828,7.828,0,0,0,1.866,2.754h-8.424v3.255h6.6V369.5h-3.366v3.419h18.194v8.19h1.928c1.713-.083,3.089-1.246,3.089-4.057V369.5h-2.863v-3.419ZM805.095,369.5h-6.854v-3.416h6.854Zm-.477-8.763a3.559,3.559,0,0,1-2.95,1.606,3.621,3.621,0,0,1-2.959-1.551,6.291,6.291,0,0,1-1.174-3.953,7.291,7.291,0,0,1,.3-2.081,5.942,5.942,0,0,1,.859-1.748,4.658,4.658,0,0,1,1.321-1.191,3.276,3.276,0,0,1,1.7-.456A3.488,3.488,0,0,1,804.648,353a6.408,6.408,0,0,1,1.159,3.849,6.333,6.333,0,0,1-1.189,3.9" transform="translate(-688.968 -348.241)" fill="#231f20"/>
      <path id="패스_2323" data-name="패스 2323" d="M864.179,350.021v20.955c-1.085,1.129-3.255,1.427-4.256,1.427h-6.139v-1.768a8.784,8.784,0,0,0,4.1-2.82,8.019,8.019,0,0,0,1.744-5.329,7.6,7.6,0,0,0-.7-3.306,9.666,9.666,0,0,0-1.781-2.62h3.536v-3.127H853.9v-3.412h-5.21v3.412h-6.641v3.127h3.284a8.959,8.959,0,0,0-1.753,2.62,8.791,8.791,0,0,0,1.069,8.635,8.556,8.556,0,0,0,4.151,2.82V372.4h-7.349v3.317h17.089a8.29,8.29,0,0,0,5.643-1.792v7.926h1.732c1.817,0,3.3-1.144,3.3-4.067V350.021Zm-12.925,17.865a2.8,2.8,0,0,1-2.3-1.517,6.8,6.8,0,0,1-1.009-3.883,7.369,7.369,0,0,1,1.037-4.117,2.892,2.892,0,0,1,2.3-1.57,2.809,2.809,0,0,1,2.341,1.589,7.765,7.765,0,0,1,.98,4.1,6.57,6.57,0,0,1-1.063,3.9,2.916,2.916,0,0,1-2.287,1.5" transform="translate(-711.803 -348.982)" fill="#231f20"/>
      <path id="패스_2324" data-name="패스 2324" d="M643.587,350.02v9.945h-2.42V350.02h-4.845v19.249c-1.074,1.129-3.255,1.427-4.252,1.427h-6.064a1.886,1.886,0,0,1-1.19-.328,1.168,1.168,0,0,1-.416-.965V355.21h9.464v-3.14H619.373V369.7a4.469,4.469,0,0,0,1.119,3.04,3.575,3.575,0,0,0,2.795,1.28h7.451v-.01a8.272,8.272,0,0,0,5.585-1.779v9.625h1.544c1.823,0,3.3-1.146,3.3-4.066V363.211h2.42v18.644h1.538c1.826,0,3.3-1.146,3.3-4.066V350.02Z" transform="translate(-619.373 -348.981)" fill="#231f20"/>
      <path id="패스_2325" data-name="패스 2325" d="M619.39,415.472h1.018V418.6l3.04-3.129H624.8l-3.344,3.363,3.608,3.751h-1.487l-3.172-3.485v3.485H619.39Z" transform="translate(-619.38 -376.223)" fill="#231f20"/>
      <path id="패스_2326" data-name="패스 2326" d="M631.664,418.544a2.563,2.563,0,0,1,2.639,2.722,2.645,2.645,0,1,1-5.289,0,2.567,2.567,0,0,1,2.65-2.722m0,4.669a1.744,1.744,0,0,0,1.621-1.947,1.653,1.653,0,1,0-3.252,0,1.745,1.745,0,0,0,1.632,1.947" transform="translate(-623.386 -377.502)" fill="#231f20"/>
      <path id="패스_2327" data-name="패스 2327" d="M639.749,418.668h.9v.805h.022a1.581,1.581,0,0,1,1.354-.926,2.747,2.747,0,0,1,.633.07v.856a1.455,1.455,0,0,0-.531-.092c-.856,0-1.416.816-1.416,2.12v2.366h-.959Z" transform="translate(-627.854 -377.503)" fill="#231f20"/>
      <path id="패스_2328" data-name="패스 2328" d="M649.615,423.652a3.982,3.982,0,0,1-1.64.337,2.488,2.488,0,0,1-2.692-2.814,2.415,2.415,0,0,1,2.437-2.628c1.732,0,2.294,1.263,2.294,2.935H646.3a1.7,1.7,0,0,0,1.712,1.732,3.076,3.076,0,0,0,1.6-.52Zm-.622-2.884a1.313,1.313,0,0,0-1.295-1.448,1.438,1.438,0,0,0-1.4,1.448Z" transform="translate(-630.157 -377.503)" fill="#231f20"/>
      <path id="패스_2329" data-name="패스 2329" d="M654.934,419.034a3.311,3.311,0,0,1,1.713-.488c1.487,0,2.089.733,2.089,2.151v2.149a7.949,7.949,0,0,0,.041,1.02h-.9v-.673h-.022a1.927,1.927,0,0,1-1.61.794c-1.12,0-1.907-.487-1.907-1.621,0-1.3,1.427-1.713,2.416-1.713.379,0,.643,0,1.021.022,0-.9-.326-1.357-1.285-1.357a2.445,2.445,0,0,0-1.508.53Zm2.844,2.356c-.2,0-.407-.021-.612-.021-.52,0-1.8.083-1.8,1a.914.914,0,0,0,.967.845,1.312,1.312,0,0,0,1.449-1.365Z" transform="translate(-633.928 -377.503)" fill="#231f20"/>
      <path id="패스_2330" data-name="패스 2330" d="M664.037,418.668h.927v.827h.021a1.866,1.866,0,0,1,1.7-.948c1.346,0,1.946.835,1.946,2.232v3.088h-.958v-2.692c0-1.212-.265-1.8-1.1-1.855-1.091,0-1.58.878-1.58,2.141v2.407h-.959Z" transform="translate(-637.963 -377.503)" fill="#231f20"/>
      <path id="패스_2331" data-name="패스 2331" d="M681.487,416.456a3.127,3.127,0,0,0-1.336-.3c-.571,0-1.244.2-1.244.948,0,1.367,3.059,1.05,3.059,3.395,0,1.519-1.172,2.12-2.6,2.12a4.759,4.759,0,0,1-1.457-.3l.1-.948a4.33,4.33,0,0,0,1.478.347,1.275,1.275,0,0,0,1.4-1.163c0-1.589-3.059-1.151-3.059-3.364,0-1.263,1-1.936,2.284-1.936a4.7,4.7,0,0,1,1.518.256Z" transform="translate(-643.702 -376.136)" fill="#231f20"/>
      <path id="패스_2332" data-name="패스 2332" d="M686.615,418.669h.916v.733h.022a2.076,2.076,0,0,1,1.764-.854c1.508,0,2.241,1.233,2.241,2.628,0,1.427-.662,2.814-2.232,2.814a1.863,1.863,0,0,1-1.732-.837h-.021v2.854h-.957Zm2.5.652c-1.04,0-1.54.988-1.54,1.957,0,.867.449,1.936,1.529,1.936,1.031,0,1.457-1.152,1.438-1.969.019-.937-.388-1.925-1.427-1.925" transform="translate(-647.36 -377.504)" fill="#231f20"/>
      <path id="패스_2333" data-name="패스 2333" d="M698.9,418.544a2.563,2.563,0,0,1,2.639,2.722,2.645,2.645,0,1,1-5.289,0,2.566,2.566,0,0,1,2.65-2.722m0,4.669a1.744,1.744,0,0,0,1.621-1.947,1.653,1.653,0,1,0-3.252,0,1.745,1.745,0,0,0,1.632,1.947" transform="translate(-651.371 -377.502)" fill="#231f20"/>
      <path id="패스_2334" data-name="패스 2334" d="M706.987,418.668h.9v.805h.022a1.581,1.581,0,0,1,1.354-.926,2.746,2.746,0,0,1,.633.07v.856a1.448,1.448,0,0,0-.53-.092c-.856,0-1.417.816-1.417,2.12v2.366h-.959Z" transform="translate(-655.839 -377.503)" fill="#231f20"/>
      <path id="패스_2335" data-name="패스 2335" d="M716.06,418.454h-1.376V421.3a.826.826,0,0,0,.8.929,1.2,1.2,0,0,0,.652-.183v.814a2.987,2.987,0,0,1-.816.142c-.988,0-1.6-.469-1.6-1.508v-3.037h-1.172v-.775h1.172v-1.2l.959-.306v1.508h1.376Z" transform="translate(-658.156 -376.514)" fill="#231f20"/>
      <path id="패스_2336" data-name="패스 2336" d="M729.084,418.656a4.719,4.719,0,0,1-.816,2.437l1.243,1.408h-1.274l-.581-.694a2.459,2.459,0,0,1-2.038.816,2.02,2.02,0,0,1-2.292-1.987,2.152,2.152,0,0,1,1.589-2.079,2.506,2.506,0,0,1-.733-1.621,1.644,1.644,0,0,1,1.853-1.672,1.58,1.58,0,0,1,1.764,1.611,2.248,2.248,0,0,1-1.559,1.855l1.448,1.651a3.4,3.4,0,0,0,.439-1.723Zm-3.283,3.191a1.771,1.771,0,0,0,1.316-.681l-1.712-2.009c-.541.366-1,.7-1,1.406a1.317,1.317,0,0,0,1.395,1.284m-.03-3.689c.429-.2,1.072-.642,1.072-1.244a.764.764,0,0,0-.848-.876.83.83,0,0,0-.856.916,1.889,1.889,0,0,0,.632,1.2" transform="translate(-662.64 -376.136)" fill="#231f20"/>
      <path id="패스_2337" data-name="패스 2337" d="M740.785,415.263a3.357,3.357,0,0,1,3.425,3.681c0,2.159-1.255,3.678-3.425,3.678s-3.425-1.519-3.425-3.678a3.355,3.355,0,0,1,3.425-3.681m0,6.463c1.64,0,2.345-1.365,2.345-2.782,0-1.448-.775-2.795-2.345-2.784-1.57-.011-2.345,1.336-2.345,2.784,0,1.416.7,2.782,2.345,2.782" transform="translate(-668.481 -376.136)" fill="#231f20"/>
      <rect id="사각형_732" data-name="사각형 732" width="0.959" height="7.645" transform="translate(76.904 38.719)" fill="#231f20"/>
      <path id="패스_2338" data-name="패스 2338" d="M754.267,425.36a1.475,1.475,0,0,0,.447.081c.859,0,1.142-1.182,1.142-1.285a2.849,2.849,0,0,0-.183-.549l-1.764-4.852h1.05l1.4,4.3h.022l1.427-4.3h.967l-1.917,5.31c-.356,1-.733,2.151-2,2.151a3.227,3.227,0,0,1-.652-.071Z" transform="translate(-675.369 -377.59)" fill="#231f20"/>
      <path id="패스_2339" data-name="패스 2339" d="M763.383,418.668h.9v.754h.021a1.756,1.756,0,0,1,1.651-.876,1.535,1.535,0,0,1,1.478,1.008,1.852,1.852,0,0,1,1.611-1.008c1.325,0,1.8.856,1.8,1.987v3.333h-.959v-3.1c0-.643-.154-1.448-.926-1.448-.98,0-1.367.959-1.367,1.928v2.62h-.957v-3.1c0-.643-.153-1.448-.929-1.448-.977,0-1.365.959-1.365,1.928v2.62h-.959Z" transform="translate(-679.312 -377.503)" fill="#231f20"/>
      <path id="패스_2340" data-name="패스 2340" d="M778.364,418.669h.916v.733h.022a2.076,2.076,0,0,1,1.764-.854c1.508,0,2.241,1.233,2.241,2.628,0,1.427-.662,2.814-2.232,2.814a1.862,1.862,0,0,1-1.732-.837h-.021v2.854h-.957Zm2.5.652c-1.04,0-1.54.988-1.54,1.957,0,.867.45,1.936,1.53,1.936,1.03,0,1.457-1.152,1.437-1.969.019-.937-.388-1.925-1.427-1.925" transform="translate(-685.547 -377.504)" fill="#231f20"/>
      <path id="패스_2341" data-name="패스 2341" d="M789.607,416h-1.08v-1.08h1.08Zm-1.018,1.161h.959v5.2h-.959Z" transform="translate(-689.777 -375.992)" fill="#231f20"/>
      <path id="패스_2342" data-name="패스 2342" d="M795.675,419.544a2.759,2.759,0,0,0-1.039-.224,1.778,1.778,0,0,0-1.672,1.946,1.759,1.759,0,0,0,1.734,1.947,2,2,0,0,0,1.029-.3l.07.856a2.915,2.915,0,0,1-1.2.213,2.628,2.628,0,0,1-2.649-2.72,2.565,2.565,0,0,1,2.649-2.722,3.547,3.547,0,0,1,1.161.2Z" transform="translate(-691.2 -377.502)" fill="#231f20"/>
      <path id="패스_2343" data-name="패스 2343" d="M808.936,416.557a2.867,2.867,0,0,0-1.468-.4,2.784,2.784,0,0,0-.051,5.566,3.481,3.481,0,0,0,1.548-.347l.062.991a4.454,4.454,0,0,1-1.621.253,3.5,3.5,0,0,1-3.751-3.711,3.547,3.547,0,0,1,3.762-3.649,3.906,3.906,0,0,1,1.6.306Z" transform="translate(-696.074 -376.136)" fill="#231f20"/>
      <path id="패스_2344" data-name="패스 2344" d="M816.252,418.544a2.563,2.563,0,0,1,2.639,2.722,2.645,2.645,0,1,1-5.289,0,2.566,2.566,0,0,1,2.65-2.722m0,4.669a1.744,1.744,0,0,0,1.621-1.947,1.653,1.653,0,1,0-3.252,0,1.745,1.745,0,0,0,1.632,1.947" transform="translate(-700.214 -377.502)" fill="#231f20"/>
      <path id="패스_2345" data-name="패스 2345" d="M824.328,418.668h.9v.754h.021a1.757,1.757,0,0,1,1.651-.876,1.536,1.536,0,0,1,1.478,1.008,1.851,1.851,0,0,1,1.61-1.008c1.325,0,1.8.856,1.8,1.987v3.333h-.959v-3.1c0-.643-.154-1.448-.926-1.448-.98,0-1.368.959-1.368,1.928v2.62h-.956v-3.1c0-.643-.154-1.448-.929-1.448-.978,0-1.365.959-1.365,1.928v2.62h-.958Z" transform="translate(-704.678 -377.503)" fill="#231f20"/>
      <path id="패스_2346" data-name="패스 2346" d="M839.3,418.668h.9v.754h.021a1.757,1.757,0,0,1,1.651-.876,1.536,1.536,0,0,1,1.478,1.008,1.851,1.851,0,0,1,1.61-1.008c1.325,0,1.8.856,1.8,1.987v3.333H845.8v-3.1c0-.643-.154-1.448-.926-1.448-.98,0-1.368.959-1.368,1.928v2.62h-.956v-3.1c0-.643-.154-1.448-.929-1.448-.977,0-1.365.959-1.365,1.928v2.62H839.3Z" transform="translate(-710.909 -377.503)" fill="#231f20"/>
      <path id="패스_2347" data-name="패스 2347" d="M855.333,416h-1.08v-1.08h1.08Zm-1.018,1.161h.958v5.2h-.958Z" transform="translate(-717.133 -375.992)" fill="#231f20"/>
      <path id="패스_2348" data-name="패스 2348" d="M860.668,418.454h-1.376V421.3a.826.826,0,0,0,.805.929,1.2,1.2,0,0,0,.652-.183v.814a2.987,2.987,0,0,1-.816.142c-.988,0-1.6-.469-1.6-1.508v-3.037h-1.172v-.775h1.172v-1.2l.959-.306v1.508h1.376Z" transform="translate(-718.344 -376.514)" fill="#231f20"/>
      <path id="패스_2349" data-name="패스 2349" d="M867.384,418.454h-1.376V421.3a.826.826,0,0,0,.805.929,1.2,1.2,0,0,0,.651-.183v.814a2.987,2.987,0,0,1-.815.142c-.988,0-1.6-.469-1.6-1.508v-3.037h-1.172v-.775h1.172v-1.2l.959-.306v1.508h1.376Z" transform="translate(-721.139 -376.514)" fill="#231f20"/>
      <path id="패스_2350" data-name="패스 2350" d="M874.991,423.652a3.983,3.983,0,0,1-1.642.337,2.487,2.487,0,0,1-2.69-2.814,2.415,2.415,0,0,1,2.437-2.628c1.732,0,2.294,1.263,2.294,2.935h-3.711a1.7,1.7,0,0,0,1.713,1.732,3.072,3.072,0,0,0,1.6-.52Zm-.622-2.884a1.313,1.313,0,0,0-1.3-1.448,1.439,1.439,0,0,0-1.4,1.448Z" transform="translate(-723.961 -377.503)" fill="#231f20"/>
      <path id="패스_2351" data-name="패스 2351" d="M884.253,423.652a3.98,3.98,0,0,1-1.642.337,2.487,2.487,0,0,1-2.69-2.814,2.415,2.415,0,0,1,2.437-2.628c1.731,0,2.294,1.263,2.294,2.935h-3.711a1.7,1.7,0,0,0,1.712,1.732,3.072,3.072,0,0,0,1.6-.52Zm-.622-2.884a1.313,1.313,0,0,0-1.295-1.448,1.438,1.438,0,0,0-1.4,1.448Z" transform="translate(-727.816 -377.503)" fill="#231f20"/>
    </g>
    <g id="그룹_1044" data-name="그룹 1044" transform="translate(829.264 750.893)">
      <g id="그룹_1043" data-name="그룹 1043" transform="translate(0 0)" clip-path="url(#clip-path)">
        <rect id="사각형_733" data-name="사각형 733" width="65.737" height="54.461" transform="translate(-12.861 6.524) rotate(-26.898)" fill="url(#linear-gradient)"/>
      </g>
    </g>
    <g id="그룹_1046" data-name="그룹 1046" transform="translate(848.805 746.273)">
      <g id="그룹_1045" data-name="그룹 1045" clip-path="url(#clip-path-2)">
        <path id="패스_2353" data-name="패스 2353" d="M525.817,319.708l35.994,3.7-1.993,24.922-35.994-3.7Z" transform="translate(-526.021 -323.229)" fill="url(#radial-gradient)"/>
      </g>
    </g>
    <g id="그룹_1048" data-name="그룹 1048" transform="translate(836.381 746.547)">
      <g id="그룹_1047" data-name="그룹 1047" transform="translate(0 0)" clip-path="url(#clip-path-3)">
        <path id="패스_2355" data-name="패스 2355" d="M500.7,319.373l41.043,4.215-2.518,31.49-41.043-4.215Z" transform="translate(-502.922 -323.362)" fill="url(#radial-gradient-2)"/>
      </g>
    </g>
    <g id="그룹_1049" data-name="그룹 1049" transform="translate(820.354 787.006)">
      <path id="패스_2357" data-name="패스 2357" d="M560.356,415.138a9.234,9.234,0,0,1,.946.049,9.061,9.061,0,0,1,1.962.413,9.409,9.409,0,0,1,6.373,7.523,9.366,9.366,0,0,0,1.96.413,11.3,11.3,0,0,0-8.425-9.93,10.862,10.862,0,0,0-1.88-.315c-.309-.026-.624-.043-.935-.043a10.167,10.167,0,0,0-1.02.053c.028.3.041.6.041.912,0,.33-.018.656-.049.982a9.092,9.092,0,0,1,1.029-.058" transform="translate(-512.347 -402.894)" fill="#00a551"/>
      <path id="패스_2358" data-name="패스 2358" d="M573.945,395.512a11.292,11.292,0,0,0-11.253,10.4,11.066,11.066,0,0,1,1.879.313,9.4,9.4,0,1,1,9.374,9.979,9.432,9.432,0,0,1-2.91-.464,9.4,9.4,0,0,1-6.371-7.522,9.512,9.512,0,0,0-1.962-.415,11.3,11.3,0,0,0,8.425,9.934,11.592,11.592,0,0,0,1.876.311c.311.026.624.04.942.04a11.288,11.288,0,1,0,0-22.576" transform="translate(-513.747 -395.512)" fill="#ed334e"/>
      <path id="패스_2359" data-name="패스 2359" d="M501.4,405.949a11.289,11.289,0,1,0-11.259,12.142c.343,0,.675-.015,1-.043-.017-.285-.032-.567-.032-.859,0-.349.019-.7.047-1.046a8.369,8.369,0,0,1-1.014.06,9.4,9.4,0,1,1,9.383-9.928c.006.175.026.347.026.528a9.621,9.621,0,0,1-.128,1.473,9.407,9.407,0,0,1-6.3,7.438,9.164,9.164,0,0,0-.13,1.474c0,.181.017.356.027.528a11.283,11.283,0,0,0,8.36-9.875,9.874,9.874,0,0,0,.055-1.039c0-.29-.013-.573-.039-.855" transform="translate(-478.852 -395.513)" fill="#0080c7"/>
      <path id="패스_2360" data-name="패스 2360" d="M518.458,415.2a9.38,9.38,0,0,1,2.91.465,9.4,9.4,0,0,1,6.375,7.517,9.378,9.378,0,0,0,1.962.413,11.3,11.3,0,0,0-8.428-9.926,11.128,11.128,0,0,0-1.877-.313c-.309-.023-.624-.041-.942-.041-.336,0-.667.018-1,.045.023.283.039.565.039.856,0,.347-.022.7-.055,1.039a10.1,10.1,0,0,1,1.013-.055" transform="translate(-494.915 -402.92)" fill="#fbb031"/>
      <path id="패스_2361" data-name="패스 2361" d="M520.508,425.439a9.39,9.39,0,0,1-18.748-.049c-.01-.175-.028-.347-.028-.528a9.5,9.5,0,0,1,6.425-8.912,9.388,9.388,0,0,0,.128-1.474c0-.183-.013-.356-.026-.53a11.3,11.3,0,0,0-8.367,9.868c-.03.349-.047.7-.047,1.048,0,.29.017.571.032.856a11.287,11.287,0,0,0,22.508.032,11.354,11.354,0,0,1-1.877-.311" transform="translate(-487.59 -403.184)" fill="#fbb031"/>
      <path id="패스_2362" data-name="패스 2362" d="M532.054,425.018a8.624,8.624,0,0,1-.948-.049,9.4,9.4,0,0,1-8.335-7.93,9.457,9.457,0,0,0-1.957-.416,11.3,11.3,0,0,0,8.422,9.93,11.556,11.556,0,0,0,1.877.311c.315.027.626.038.942.038.345,0,.684-.015,1.02-.043-.025-.3-.043-.6-.043-.914,0-.335.018-.66.045-.986a9.519,9.519,0,0,1-1.022.057" transform="translate(-496.317 -404.299)" fill="#231f20"/>
      <path id="패스_2363" data-name="패스 2363" d="M543.3,405.937a11.288,11.288,0,0,0-22.5.027,11.119,11.119,0,0,1,1.876.311,9.391,9.391,0,0,1,18.748-.011c.015.192.03.386.03.586a9.5,9.5,0,0,1-6.418,8.912,8.836,8.836,0,0,0-.119,1.419c0,.2.019.389.027.583a11.288,11.288,0,0,0,8.35-9.932c.032-.326.049-.654.049-.982,0-.309-.013-.611-.04-.914" transform="translate(-496.309 -395.532)" fill="#231f20"/>
      <path id="패스_2364" data-name="패스 2364" d="M562.407,425.389a9.39,9.39,0,0,1-18.746.008c-.013-.194-.03-.39-.03-.584a8.854,8.854,0,0,1,.119-1.419,9.391,9.391,0,0,1,6.3-7.5,9.4,9.4,0,0,0,.12-1.417c0-.2-.017-.394-.032-.586a11.3,11.3,0,0,0-8.35,9.928c-.027.326-.044.652-.044.988,0,.3.017.612.04.912a11.287,11.287,0,0,0,22.5-.023,11.8,11.8,0,0,1-1.879-.313" transform="translate(-505.028 -403.164)" fill="#00a551"/>
    </g>
  </g>
</svg>
