<svg xmlns="http://www.w3.org/2000/svg" xmlns:xlink="http://www.w3.org/1999/xlink" width="138" height="42.48" viewBox="0 0 138 42.48">
  <defs>
    <clipPath id="clip-path">
      <path id="패스_2352" data-name="패스 2352" d="M513.89,346.445a40.979,40.979,0,0,1-19.775,2.124s1.553,1.9,6.824,2.8c3.807.653,8.784-.221,12.706-1.781,9.27-3.7,13.633-11.469,10.2-15.938,2.283,3.865-1.715,9.531-9.957,12.8" transform="translate(-494.115 -333.65)" fill="#fff"/>
    </clipPath>
    <clipPath id="clip-path-2">
      <path id="패스_2354" data-name="패스 2354" d="M536.479,325.99a13.545,13.545,0,0,0-7.805,4.142c-1.366,1.71-1.287,3.363-.621,4.173,1.151,1.41,3.987,1,4.988-.716-1.282-.787,1.243-4.416,5.887-4.513,3.35-.07,4.73,2.011,4.335,3.983-.418,2.079-2.3,4.033-3.522,5.117a16.126,16.126,0,0,0,4.659-4.2c2.83-4.113.778-7.967-4.885-8.221-.168-.007-.339-.011-.511-.011a13.4,13.4,0,0,0-2.524.251" transform="translate(-527.587 -325.739)" fill="#fff"/>
    </clipPath>
    <clipPath id="clip-path-3">
      <path id="패스_2356" data-name="패스 2356" d="M508.226,332.7c-3.388,4.04-2.221,8,2.914,8.977a17.245,17.245,0,0,0,9.046-.934c7.2-2.666,7.222-7.375,3.8-8.484a4.616,4.616,0,0,0-5.069,1.641c1.529.911-.36,4.116-4.624,4.171-3.3.042-5.238-1.957-4.335-4.54,1.1-3.128,6.33-6.206,10.885-7.322-5.939.985-10.172,3.576-12.619,6.491" transform="translate(-506.304 -326.206)" fill="#fff"/>
    </clipPath>
  </defs>
  <g id="그룹_1065" data-name="그룹 1065" transform="translate(-478.852 -325.739)">
    <g id="그룹_1042" data-name="그룹 1042" transform="translate(526.132 333.31)">
      <path id="패스_2320" data-name="패스 2320" d="M681.467,366.233a.761.761,0,0,1-.241-.581v-3.129h-2.9v3.436a2.634,2.634,0,0,0,.579,1.684,1.808,1.808,0,0,0,1.482.724h10.558v-1.915h-8.86a.883.883,0,0,1-.621-.22m3.942-9.4a4.488,4.488,0,0,0-1.175-3.031h1.932v-1.813h-4v-1.967h-3.019v1.967h-3.933V353.8h1.824a4.5,4.5,0,0,0-1.181,3.031,4.779,4.779,0,0,0,9.552,0m-6.654-.161c0-1.659.841-3.006,1.88-3.006s1.882,1.347,1.882,3.006-.842,3.009-1.882,3.009-1.88-1.347-1.88-3.009m12.193-1.685v-4.965h-2.9v13.731h1c1.052,0,1.9-.659,1.9-2.341v-4.558h2.664v-1.867Z" transform="translate(-656.426 -349.422)" fill="#fff"/>
      <path id="패스_2321" data-name="패스 2321" d="M745.826,350.02v18.347h.889c1.052,0,1.9-.659,1.9-2.344v-16Zm-3.973,5.7h-2.687v1.877h2.687v10.775h.887c1.053,0,1.9-.659,1.9-2.344v-16h-2.792Zm-3.545,3.706a10.816,10.816,0,0,1-.751-4.222V353.79h2.773v-1.8h-2.773V350.02h-3.005v1.967h-2.789v1.8h2.789v1.365a10.622,10.622,0,0,1-.794,4.33,4.1,4.1,0,0,1-2.317,2.358v1.99a5.8,5.8,0,0,0,1.484-.458,7.028,7.028,0,0,0,2.415-1.786,4.014,4.014,0,0,0,.63-1.034,2.969,2.969,0,0,0,.622,1.02,6.609,6.609,0,0,0,1.118,1.026,7.826,7.826,0,0,0,1.419.808,5.343,5.343,0,0,0,1.543.424v-1.99a4.257,4.257,0,0,1-2.363-2.422" transform="translate(-693.734 -349.421)" fill="#fff"/>
      <path id="패스_2322" data-name="패스 2322" d="M803.971,358.526V356.65h-4.826a5.107,5.107,0,0,0,1.038-1.571,4.842,4.842,0,0,0,0-3.745,4.793,4.793,0,0,0-1.064-1.585,5.377,5.377,0,0,0-3.818-1.508,5.335,5.335,0,0,0-3.864,1.522,4.915,4.915,0,0,0-1.064,1.578A4.707,4.707,0,0,0,790,353.2a4.933,4.933,0,0,0,.366,1.863,4.511,4.511,0,0,0,1.075,1.587h-4.855v1.876h3.8v1.97h-1.94v1.97h10.486v4.72h1.111c.987-.048,1.78-.718,1.78-2.338V360.5h-1.65v-1.97Zm-6.719,1.97H793.3v-1.969h3.95Zm-.275-5.05a2.051,2.051,0,0,1-1.7.926,2.088,2.088,0,0,1-1.705-.894,3.626,3.626,0,0,1-.677-2.279,4.2,4.2,0,0,1,.172-1.2,3.426,3.426,0,0,1,.495-1.008,2.684,2.684,0,0,1,.761-.686,1.888,1.888,0,0,1,.978-.263,2.01,2.01,0,0,1,1.693.938,3.694,3.694,0,0,1,.668,2.218,3.651,3.651,0,0,1-.685,2.247" transform="translate(-730.323 -348.241)" fill="#fff"/>
      <path id="패스_2323" data-name="패스 2323" d="M854.548,350.021V362.1a3.8,3.8,0,0,1-2.453.823h-3.538V361.9a5.063,5.063,0,0,0,2.362-1.625,4.622,4.622,0,0,0,1.005-3.072,4.379,4.379,0,0,0-.406-1.905,5.568,5.568,0,0,0-1.027-1.51h2.038v-1.8h-3.909v-1.967h-3v1.967h-3.828v1.8h1.893a5.164,5.164,0,0,0-1.01,1.51,5.067,5.067,0,0,0,.616,4.977,4.931,4.931,0,0,0,2.393,1.625v1.019h-4.235v1.911H851.3a4.778,4.778,0,0,0,3.252-1.033v4.568h1c1.047,0,1.9-.659,1.9-2.344v-16Zm-7.449,10.3a1.615,1.615,0,0,1-1.327-.874,3.917,3.917,0,0,1-.582-2.238,4.247,4.247,0,0,1,.6-2.373,1.667,1.667,0,0,1,1.328-.9,1.619,1.619,0,0,1,1.349.916,4.476,4.476,0,0,1,.565,2.362,3.786,3.786,0,0,1-.613,2.249,1.681,1.681,0,0,1-1.318.863" transform="translate(-766.727 -349.422)" fill="#fff"/>
      <path id="패스_2324" data-name="패스 2324" d="M633.329,350.02v5.732h-1.395V350.02h-2.793v11.094a3.79,3.79,0,0,1-2.45.823h-3.5a1.088,1.088,0,0,1-.686-.189.673.673,0,0,1-.24-.556v-8.18h5.454V351.2h-8.352v10.16a2.576,2.576,0,0,0,.645,1.752,2.06,2.06,0,0,0,1.611.738h4.294v-.006a4.768,4.768,0,0,0,3.219-1.025v5.548h.89c1.051,0,1.9-.66,1.9-2.343v-8.4h1.395v10.745h.886c1.052,0,1.9-.66,1.9-2.343v-16Z" transform="translate(-619.373 -349.421)" fill="#fff"/>
      <path id="패스_2325" data-name="패스 2325" d="M619.39,415.472h.587v1.8l1.752-1.8h.781l-1.927,1.938,2.08,2.162H621.8l-1.828-2.008v2.008h-.587Z" transform="translate(-619.384 -392.851)" fill="#fff"/>
      <path id="패스_2326" data-name="패스 2326" d="M630.541,418.544a1.477,1.477,0,0,1,1.521,1.569,1.525,1.525,0,1,1-3.048,0,1.479,1.479,0,0,1,1.527-1.569m0,2.691a1,1,0,0,0,.934-1.122.952.952,0,1,0-1.874,0,1.006,1.006,0,0,0,.94,1.122" transform="translate(-625.77 -394.89)" fill="#fff"/>
      <path id="패스_2327" data-name="패스 2327" d="M639.749,418.617h.517v.464h.012a.911.911,0,0,1,.781-.534,1.584,1.584,0,0,1,.365.04v.494a.838.838,0,0,0-.306-.053c-.493,0-.816.47-.816,1.222v1.364h-.552Z" transform="translate(-632.893 -394.892)" fill="#fff"/>
      <path id="패스_2328" data-name="패스 2328" d="M647.779,421.489a2.294,2.294,0,0,1-.946.194,1.434,1.434,0,0,1-1.552-1.622,1.392,1.392,0,0,1,1.4-1.515c1,0,1.322.728,1.322,1.691H645.87a.98.98,0,0,0,.987,1,1.772,1.772,0,0,0,.922-.3Zm-.359-1.662a.757.757,0,0,0-.746-.835.829.829,0,0,0-.8.835Z" transform="translate(-636.565 -394.892)" fill="#fff"/>
      <path id="패스_2329" data-name="패스 2329" d="M654.683,418.827a1.909,1.909,0,0,1,.987-.281c.857,0,1.2.422,1.2,1.24v1.239a4.591,4.591,0,0,0,.023.588h-.517v-.388h-.012a1.111,1.111,0,0,1-.928.458c-.646,0-1.1-.281-1.1-.934,0-.751.823-.987,1.392-.987.218,0,.371,0,.588.012,0-.517-.188-.782-.741-.782a1.41,1.41,0,0,0-.869.305Zm1.639,1.358c-.118,0-.234-.012-.353-.012-.3,0-1.04.048-1.04.576a.527.527,0,0,0,.557.487.756.756,0,0,0,.835-.787Z" transform="translate(-642.576 -394.891)" fill="#fff"/>
      <path id="패스_2330" data-name="패스 2330" d="M664.037,418.617h.534v.476h.012a1.075,1.075,0,0,1,.981-.546c.776,0,1.122.481,1.122,1.287v1.78h-.552v-1.552c0-.7-.152-1.04-.634-1.069-.628,0-.911.506-.911,1.234v1.387h-.552Z" transform="translate(-649.009 -394.892)" fill="#fff"/>
      <path id="패스_2331" data-name="패스 2331" d="M679.936,415.95a1.8,1.8,0,0,0-.77-.171c-.329,0-.717.118-.717.546,0,.788,1.763.6,1.763,1.957,0,.875-.675,1.222-1.5,1.222a2.743,2.743,0,0,1-.84-.171l.059-.546a2.5,2.5,0,0,0,.852.2.735.735,0,0,0,.805-.67c0-.916-1.763-.663-1.763-1.939,0-.728.576-1.116,1.316-1.116a2.711,2.711,0,0,1,.875.147Z" transform="translate(-658.159 -392.713)" fill="#fff"/>
      <path id="패스_2332" data-name="패스 2332" d="M686.615,418.618h.528v.422h.012a1.2,1.2,0,0,1,1.016-.492c.869,0,1.291.711,1.291,1.515,0,.823-.382,1.622-1.286,1.622a1.073,1.073,0,0,1-1-.483h-.012v1.645h-.551Zm1.439.376c-.6,0-.888.57-.888,1.128,0,.5.259,1.116.881,1.116.594,0,.84-.664.829-1.135.011-.54-.223-1.11-.822-1.11" transform="translate(-663.99 -394.892)" fill="#fff"/>
      <path id="패스_2333" data-name="패스 2333" d="M697.779,418.544a1.477,1.477,0,0,1,1.521,1.569,1.525,1.525,0,1,1-3.048,0,1.479,1.479,0,0,1,1.527-1.569m0,2.691a1,1,0,0,0,.934-1.122.952.952,0,1,0-1.874,0,1.006,1.006,0,0,0,.94,1.122" transform="translate(-670.385 -394.89)" fill="#fff"/>
      <path id="패스_2334" data-name="패스 2334" d="M706.987,418.617h.517v.464h.012a.911.911,0,0,1,.781-.534,1.584,1.584,0,0,1,.365.04v.494a.834.834,0,0,0-.306-.053c-.494,0-.817.47-.817,1.222v1.364h-.552Z" transform="translate(-677.508 -394.892)" fill="#fff"/>
      <path id="패스_2335" data-name="패스 2335" d="M714.575,417.487h-.793v1.639a.476.476,0,0,0,.464.535.693.693,0,0,0,.376-.106v.469a1.721,1.721,0,0,1-.47.082c-.57,0-.922-.27-.922-.869v-1.751h-.675v-.447h.675v-.692l.552-.177v.869h.793Z" transform="translate(-681.202 -393.315)" fill="#fff"/>
      <path id="패스_2336" data-name="패스 2336" d="M726.645,417.219a2.719,2.719,0,0,1-.47,1.4l.717.812h-.734l-.335-.4a1.417,1.417,0,0,1-1.175.47,1.164,1.164,0,0,1-1.321-1.145,1.241,1.241,0,0,1,.916-1.2,1.444,1.444,0,0,1-.422-.934.948.948,0,0,1,1.068-.964.911.911,0,0,1,1.016.928,1.3,1.3,0,0,1-.9,1.069l.835.952a1.962,1.962,0,0,0,.253-.993Zm-1.892,1.839a1.021,1.021,0,0,0,.759-.393l-.987-1.158c-.312.211-.576.405-.576.81a.759.759,0,0,0,.8.74m-.017-2.126c.247-.118.618-.37.618-.717a.44.44,0,0,0-.489-.5.478.478,0,0,0-.493.528,1.089,1.089,0,0,0,.364.694" transform="translate(-688.35 -392.713)" fill="#fff"/>
      <path id="패스_2337" data-name="패스 2337" d="M739.334,415.263a2.126,2.126,0,1,1-1.974,2.121,1.935,1.935,0,0,1,1.974-2.121m0,3.725c.945,0,1.352-.787,1.352-1.6,0-.835-.447-1.611-1.352-1.6s-1.352.77-1.352,1.6c0,.816.405,1.6,1.352,1.6" transform="translate(-697.662 -392.713)" fill="#fff"/>
      <rect id="사각형_732" data-name="사각형 732" width="0.552" height="4.406" transform="translate(44.323 22.316)" fill="#fff"/>
      <path id="패스_2338" data-name="패스 2338" d="M754.115,422.562a.85.85,0,0,0,.258.047c.495,0,.658-.681.658-.741a1.65,1.65,0,0,0-.106-.317l-1.016-2.8h.605l.805,2.478h.013l.823-2.478h.557l-1.1,3.06c-.2.576-.422,1.24-1.151,1.24a1.861,1.861,0,0,1-.376-.041Z" transform="translate(-708.643 -395.03)" fill="#fff"/>
      <path id="패스_2339" data-name="패스 2339" d="M763.383,418.617h.517v.435h.012a1.012,1.012,0,0,1,.951-.5.885.885,0,0,1,.852.581,1.067,1.067,0,0,1,.928-.581c.763,0,1.04.494,1.04,1.145v1.921h-.552v-1.786c0-.37-.089-.835-.534-.835-.565,0-.788.552-.788,1.111v1.51h-.552v-1.786c0-.37-.088-.835-.535-.835-.563,0-.786.552-.786,1.111v1.51h-.553Z" transform="translate(-714.929 -394.892)" fill="#fff"/>
      <path id="패스_2340" data-name="패스 2340" d="M778.364,418.618h.528v.422h.012a1.2,1.2,0,0,1,1.016-.492c.869,0,1.291.711,1.291,1.515,0,.823-.382,1.622-1.286,1.622a1.074,1.074,0,0,1-1-.483h-.012v1.645h-.551Zm1.439.376c-.6,0-.888.57-.888,1.128,0,.5.259,1.116.881,1.116.594,0,.84-.664.828-1.135.011-.54-.223-1.11-.822-1.11" transform="translate(-724.869 -394.892)" fill="#fff"/>
      <path id="패스_2341" data-name="패스 2341" d="M789.149,415.538h-.622v-.622h.622Zm-.587.669h.553v3h-.553Z" transform="translate(-731.613 -392.482)" fill="#fff"/>
      <path id="패스_2342" data-name="패스 2342" d="M794.1,419.121a1.59,1.59,0,0,0-.6-.129,1.025,1.025,0,0,0-.964,1.122,1.014,1.014,0,0,0,1,1.122,1.152,1.152,0,0,0,.593-.171l.04.494a1.68,1.68,0,0,1-.692.123,1.515,1.515,0,0,1-1.527-1.568,1.479,1.479,0,0,1,1.527-1.569,2.046,2.046,0,0,1,.669.118Z" transform="translate(-733.881 -394.89)" fill="#fff"/>
      <path id="패스_2343" data-name="패스 2343" d="M806.7,416.008a1.652,1.652,0,0,0-.846-.229,1.6,1.6,0,0,0-.029,3.208,2.006,2.006,0,0,0,.892-.2l.036.571a2.568,2.568,0,0,1-.934.146,2.02,2.02,0,0,1-2.162-2.139,2.045,2.045,0,0,1,2.168-2.1,2.251,2.251,0,0,1,.922.177Z" transform="translate(-741.652 -392.712)" fill="#fff"/>
      <path id="패스_2344" data-name="패스 2344" d="M815.129,418.544a1.477,1.477,0,0,1,1.521,1.569,1.525,1.525,0,1,1-3.048,0,1.479,1.479,0,0,1,1.527-1.569m0,2.691a1,1,0,0,0,.934-1.122.952.952,0,1,0-1.874,0,1.006,1.006,0,0,0,.94,1.122" transform="translate(-748.251 -394.89)" fill="#fff"/>
      <path id="패스_2345" data-name="패스 2345" d="M824.328,418.617h.517v.435h.012a1.012,1.012,0,0,1,.952-.5.885.885,0,0,1,.852.581,1.067,1.067,0,0,1,.928-.581c.764,0,1.04.494,1.04,1.145v1.921h-.552v-1.786c0-.37-.089-.835-.534-.835-.565,0-.788.552-.788,1.111v1.51H826.2v-1.786c0-.37-.089-.835-.535-.835-.564,0-.787.552-.787,1.111v1.51h-.552Z" transform="translate(-755.368 -394.892)" fill="#fff"/>
      <path id="패스_2346" data-name="패스 2346" d="M839.3,418.617h.517v.435h.012a1.012,1.012,0,0,1,.951-.5.885.885,0,0,1,.852.581,1.067,1.067,0,0,1,.928-.581c.764,0,1.04.494,1.04,1.145v1.921h-.553v-1.786c0-.37-.088-.835-.534-.835-.565,0-.788.552-.788,1.111v1.51h-.551v-1.786c0-.37-.089-.835-.535-.835-.563,0-.787.552-.787,1.111v1.51H839.3Z" transform="translate(-765.302 -394.892)" fill="#fff"/>
      <path id="패스_2347" data-name="패스 2347" d="M854.875,415.538h-.623v-.622h.623Zm-.587.669h.552v3h-.552Z" transform="translate(-775.224 -392.482)" fill="#fff"/>
      <path id="패스_2348" data-name="패스 2348" d="M859.183,417.487h-.793v1.639a.476.476,0,0,0,.464.535.694.694,0,0,0,.376-.106v.469a1.722,1.722,0,0,1-.47.082c-.57,0-.922-.27-.922-.869v-1.751h-.675v-.447h.675v-.692l.552-.177v.869h.793Z" transform="translate(-777.155 -393.315)" fill="#fff"/>
      <path id="패스_2349" data-name="패스 2349" d="M865.9,417.487h-.793v1.639a.476.476,0,0,0,.464.535.692.692,0,0,0,.375-.106v.469a1.721,1.721,0,0,1-.47.082c-.57,0-.922-.27-.922-.869v-1.751h-.675v-.447h.675v-.692l.552-.177v.869h.793Z" transform="translate(-781.611 -393.315)" fill="#fff"/>
      <path id="패스_2350" data-name="패스 2350" d="M873.156,421.489a2.294,2.294,0,0,1-.946.194,1.433,1.433,0,0,1-1.55-1.622,1.392,1.392,0,0,1,1.4-1.515c1,0,1.322.728,1.322,1.691h-2.138a.98.98,0,0,0,.987,1,1.769,1.769,0,0,0,.922-.3Zm-.358-1.662a.757.757,0,0,0-.747-.835.829.829,0,0,0-.8.835Z" transform="translate(-786.111 -394.892)" fill="#fff"/>
      <path id="패스_2351" data-name="패스 2351" d="M882.418,421.489a2.292,2.292,0,0,1-.946.194,1.433,1.433,0,0,1-1.55-1.622,1.392,1.392,0,0,1,1.4-1.515c1,0,1.322.728,1.322,1.691h-2.139a.98.98,0,0,0,.987,1,1.769,1.769,0,0,0,.922-.3Zm-.358-1.662a.757.757,0,0,0-.746-.835.829.829,0,0,0-.8.835Z" transform="translate(-792.256 -394.892)" fill="#fff"/>
    </g>
    <g id="그룹_1044" data-name="그룹 1044" transform="translate(483.987 328.401)">
      <g id="그룹_1043" data-name="그룹 1043" clip-path="url(#clip-path)">
        <rect id="사각형_733" data-name="사각형 733" width="37.887" height="31.388" transform="translate(-7.413 3.76) rotate(-26.898)" fill="#fff"/>
      </g>
    </g>
    <g id="그룹_1046" data-name="그룹 1046" transform="translate(495.25 325.739)">
      <g id="그룹_1045" data-name="그룹 1045" clip-path="url(#clip-path-2)">
        <path id="패스_2353" data-name="패스 2353" d="M524.972,319.708l20.745,2.131L544.568,336.2l-20.745-2.131Z" transform="translate(-525.09 -321.737)" fill="#fff"/>
      </g>
    </g>
    <g id="그룹_1048" data-name="그룹 1048" transform="translate(488.089 325.896)">
      <g id="그룹_1047" data-name="그룹 1047" clip-path="url(#clip-path-3)">
        <path id="패스_2355" data-name="패스 2355" d="M499.629,319.373l23.655,2.429-1.451,18.149-23.655-2.43Z" transform="translate(-500.912 -321.672)" fill="#fff"/>
      </g>
    </g>
    <g id="그룹_1049" data-name="그룹 1049" transform="translate(478.852 349.215)">
      <path id="패스_2357" data-name="패스 2357" d="M559.92,414.338a5.337,5.337,0,0,1,.545.028,5.226,5.226,0,0,1,1.13.238,5.423,5.423,0,0,1,3.673,4.336,5.394,5.394,0,0,0,1.129.238,6.512,6.512,0,0,0-4.855-5.723,6.258,6.258,0,0,0-1.084-.182c-.178-.015-.36-.025-.539-.025a5.878,5.878,0,0,0-.588.031c.016.173.024.348.024.526s-.01.378-.028.566a5.228,5.228,0,0,1,.593-.033" transform="translate(-532.25 -407.281)" fill="#fff"/>
      <path id="패스_2358" data-name="패스 2358" d="M569.178,395.512a6.508,6.508,0,0,0-6.486,5.993,6.374,6.374,0,0,1,1.083.18,5.417,5.417,0,1,1,5.4,5.751,5.436,5.436,0,0,1-1.677-.267,5.42,5.42,0,0,1-3.672-4.335,5.481,5.481,0,0,0-1.131-.239,6.512,6.512,0,0,0,4.856,5.726,6.684,6.684,0,0,0,1.081.179c.179.015.36.023.543.023a6.506,6.506,0,1,0,0-13.012" transform="translate(-534.483 -395.512)" fill="#fff"/>
      <path id="패스_2359" data-name="패스 2359" d="M491.847,401.528a6.507,6.507,0,1,0-6.489,7c.2,0,.389-.009.576-.025-.01-.164-.018-.327-.018-.495,0-.2.011-.4.027-.6a4.815,4.815,0,0,1-.584.034,5.419,5.419,0,1,1,5.408-5.722c0,.1.015.2.015.3a5.55,5.55,0,0,1-.074.849,5.422,5.422,0,0,1-3.629,4.287,5.282,5.282,0,0,0-.075.85c0,.1.01.205.016.3a6.5,6.5,0,0,0,4.818-5.691,5.679,5.679,0,0,0,.032-.6c0-.167-.007-.33-.022-.493" transform="translate(-478.852 -395.513)" fill="#fff"/>
      <path id="패스_2360" data-name="패스 2360" d="M518.029,414.4a5.406,5.406,0,0,1,1.677.268A5.415,5.415,0,0,1,523.38,419a5.409,5.409,0,0,0,1.131.238,6.514,6.514,0,0,0-4.857-5.721,6.413,6.413,0,0,0-1.082-.18c-.178-.013-.36-.024-.543-.024s-.384.01-.574.026c.013.163.022.325.022.494,0,.2-.013.4-.032.6a5.813,5.813,0,0,1,.584-.032" transform="translate(-504.46 -407.322)" fill="#fff"/>
      <path id="패스_2361" data-name="패스 2361" d="M511.754,420.569a5.412,5.412,0,0,1-10.806-.028c-.006-.1-.016-.2-.016-.3a5.479,5.479,0,0,1,3.7-5.136,5.4,5.4,0,0,0,.074-.85c0-.105-.007-.2-.015-.305a6.515,6.515,0,0,0-4.822,5.688c-.017.2-.027.4-.027.6,0,.167.01.329.018.494a6.505,6.505,0,0,0,12.973.019,6.543,6.543,0,0,1-1.082-.179" transform="translate(-492.782 -407.743)" fill="#fff"/>
      <path id="패스_2362" data-name="패스 2362" d="M527.292,421.462a4.977,4.977,0,0,1-.546-.028,5.417,5.417,0,0,1-4.8-4.57,5.455,5.455,0,0,0-1.128-.24,6.51,6.51,0,0,0,4.854,5.723,6.655,6.655,0,0,0,1.082.179c.182.016.361.022.543.022.2,0,.394-.008.588-.025-.015-.174-.025-.349-.025-.527s.01-.381.026-.568a5.5,5.5,0,0,1-.589.033" transform="translate(-506.695 -409.521)" fill="#fff"/>
      <path id="패스_2363" data-name="패스 2363" d="M533.764,401.54a6.505,6.505,0,0,0-12.97.016,6.4,6.4,0,0,1,1.081.179,5.413,5.413,0,0,1,10.805-.006c.009.111.018.222.018.338A5.476,5.476,0,0,1,529,407.2a5.1,5.1,0,0,0-.069.818c0,.113.011.224.016.336a6.506,6.506,0,0,0,4.813-5.724c.018-.188.028-.377.028-.566s-.008-.352-.023-.527" transform="translate(-506.682 -395.543)" fill="#fff"/>
      <path id="패스_2364" data-name="패스 2364" d="M553.653,420.52a5.412,5.412,0,0,1-10.8,0c-.007-.112-.017-.225-.017-.336a5.1,5.1,0,0,1,.069-.818,5.413,5.413,0,0,1,3.631-4.32,5.417,5.417,0,0,0,.069-.817c0-.115-.01-.227-.018-.337a6.51,6.51,0,0,0-4.812,5.722c-.016.188-.026.376-.026.57,0,.176.01.353.023.526a6.505,6.505,0,0,0,12.969-.013,6.807,6.807,0,0,1-1.083-.18" transform="translate(-520.583 -407.711)" fill="#fff"/>
    </g>
  </g>
</svg>
