<svg id="그룹_1428" data-name="그룹 1428" xmlns="http://www.w3.org/2000/svg" width="20.671" height="21.25" viewBox="0 0 20.671 21.25">
  <path id="패스_2442" data-name="패스 2442" d="M20.5,13.666a8.28,8.28,0,0,0,.074-1.041,8.28,8.28,0,0,0-.074-1.041l2.242-1.753a.536.536,0,0,0,.128-.68L20.747,5.474a.531.531,0,0,0-.468-.266.5.5,0,0,0-.181.032L17.453,6.3a7.763,7.763,0,0,0-1.8-1.041l-.4-2.816A.518.518,0,0,0,14.733,2h-4.25a.518.518,0,0,0-.521.446l-.4,2.816A8.163,8.163,0,0,0,7.763,6.3L5.118,5.241a.6.6,0,0,0-.191-.032.526.526,0,0,0-.457.266L2.344,9.151a.524.524,0,0,0,.128.68l2.242,1.753a8.426,8.426,0,0,0-.074,1.041,8.426,8.426,0,0,0,.074,1.041L2.472,15.42a.536.536,0,0,0-.128.68l2.125,3.676a.531.531,0,0,0,.468.266.5.5,0,0,0,.181-.032l2.646-1.063a7.763,7.763,0,0,0,1.8,1.041l.4,2.816a.518.518,0,0,0,.521.446h4.25a.518.518,0,0,0,.521-.446l.4-2.816a8.163,8.163,0,0,0,1.8-1.041L20.1,20.01a.6.6,0,0,0,.191.032.526.526,0,0,0,.457-.266L22.872,16.1a.536.536,0,0,0-.128-.68ZM18.4,11.85a5.677,5.677,0,0,1,.053.776c0,.223-.021.457-.053.776l-.149,1.2.946.744,1.148.893L19.6,17.523l-1.349-.542-1.105-.446-.956.723a6.223,6.223,0,0,1-1.328.776l-1.126.457-.17,1.2-.213,1.434H11.865l-.2-1.434-.17-1.2-1.126-.457a6.029,6.029,0,0,1-1.307-.754l-.967-.744-1.126.457-1.349.542-.744-1.286,1.148-.893.946-.744-.149-1.2c-.032-.329-.053-.574-.053-.786s.021-.457.053-.776l.149-1.2-.946-.744L4.873,9.013l.744-1.286,1.349.542,1.105.446.956-.723a6.223,6.223,0,0,1,1.328-.776l1.126-.457.17-1.2.213-1.434h1.477l.2,1.434.17,1.2,1.126.457a6.029,6.029,0,0,1,1.307.754l.967.744,1.126-.457,1.349-.542L20.333,9l-1.137.9-.946.744Z" transform="translate(-2.271 -2)" fill="#3d3d3d"/>
  <path id="패스_2443" data-name="패스 2443" d="M12.25,8a4.25,4.25,0,1,0,4.25,4.25A4.249,4.249,0,0,0,12.25,8Zm0,6.375a2.125,2.125,0,1,1,2.125-2.125A2.131,2.131,0,0,1,12.25,14.375Z" transform="translate(-1.912 -1.625)" fill="#3d3d3d"/>
</svg>
