<svg xmlns="http://www.w3.org/2000/svg" width="50" height="50" viewBox="0 0 50 50">
  <g id="그룹_822" data-name="그룹 822" transform="translate(-1510 -625)">
    <g id="타원_67" data-name="타원 67" transform="translate(1510 625)" fill="#f1f1f1" stroke="#929292" stroke-width="1">
      <circle cx="25" cy="25" r="25" stroke="none"/>
      <circle cx="25" cy="25" r="24.5" fill="none"/>
    </g>
    <path id="패스_4810" data-name="패스 4810" d="M661.483,82.939a4.616,4.616,0,0,0-3.27,1.352l-6.991-4.043a4.606,4.606,0,0,0,.049-3.439l6.459-4.412a4.646,4.646,0,1,0-.7-1.436l-6.57,4.488a4.633,4.633,0,1,0-.095,6.128l6.935,4.011a4.628,4.628,0,1,0,4.181-2.649Zm0-16.3a3.053,3.053,0,1,1-3.053,3.052A3.056,3.056,0,0,1,661.483,66.64ZM646.948,81.514A3.053,3.053,0,1,1,650,78.461,3.056,3.056,0,0,1,646.948,81.514Zm14.535,9.109a3.053,3.053,0,1,1,3.052-3.053A3.056,3.056,0,0,1,661.483,90.623Z" transform="translate(878.684 570.939)" fill="#3d3d3d" stroke="#3d3d3d" stroke-width="0.5"/>
  </g>
</svg>
