<svg xmlns="http://www.w3.org/2000/svg" width="74" height="81.471" viewBox="0 0 74 81.471">
  <g id="그룹_766" data-name="그룹 766" transform="translate(-778.82 -982.061)">
    <path id="패스_4752" data-name="패스 4752" d="M827.39,994.7a1.508,1.508,0,0,1-1.508-1.508v-9.618a1.508,1.508,0,0,1,3.017,0v9.618A1.508,1.508,0,0,1,827.39,994.7Z" transform="translate(-11.57 0)" fill="#424242"/>
    <path id="패스_4753" data-name="패스 4753" d="M804.827,1001.335a1.508,1.508,0,0,1-1.308-.754l-4.81-8.329a1.509,1.509,0,0,1,2.613-1.508l4.81,8.33a1.508,1.508,0,0,1-1.3,2.263Z" transform="translate(-4.84 -1.949)" fill="#424242"/>
    <path id="패스_4754" data-name="패스 4754" d="M788.9,1015.987a1.51,1.51,0,0,1-.753-.2l-8.33-4.81a1.509,1.509,0,0,1,1.508-2.613l8.33,4.81a1.508,1.508,0,0,1-.756,2.814Z" transform="translate(-0.059 -6.417)" fill="#424242"/>
    <path id="패스_4755" data-name="패스 4755" d="M848.386,1001.335a1.508,1.508,0,0,1-1.306-2.263l4.81-8.33a1.509,1.509,0,0,1,2.613,1.508l-4.81,8.329A1.507,1.507,0,0,1,848.386,1001.335Z" transform="translate(-16.732 -1.949)" fill="#424242"/>
    <path id="패스_4756" data-name="패스 4756" d="M863.167,1015.987a1.508,1.508,0,0,1-.756-2.814l8.33-4.81a1.509,1.509,0,0,1,1.508,2.613l-8.33,4.81A1.506,1.506,0,0,1,863.167,1015.987Z" transform="translate(-20.365 -6.417)" fill="#424242"/>
    <path id="패스_4757" data-name="패스 4757" d="M843.692,1030.492a1.508,1.508,0,0,1-1.508-1.508c0-6.543-6.36-11.477-14.793-11.477a1.508,1.508,0,0,1,0-3.017c10.154,0,17.81,6.231,17.81,14.493A1.508,1.508,0,0,1,843.692,1030.492Z" transform="translate(-11.57 -7.973)" fill="#424242"/>
    <g id="그룹_764" data-name="그룹 764" transform="translate(790.003 1054.384)">
      <path id="패스_4758" data-name="패스 4758" d="M797.7,1080.978h-2.545a1.508,1.508,0,1,1,0-3.017H797.7a1.508,1.508,0,0,1,0,3.017Z" transform="translate(-793.649 -1077.961)" fill="#424242"/>
    </g>
    <g id="그룹_765" data-name="그룹 765" transform="translate(836.074 1054.384)">
      <path id="패스_4759" data-name="패스 4759" d="M858.792,1080.978h-2.545a1.508,1.508,0,0,1,0-3.017h2.545a1.508,1.508,0,0,1,0,3.017Z" transform="translate(-854.738 -1077.961)" fill="#424242"/>
    </g>
    <path id="패스_4760" data-name="패스 4760" d="M849.768,1085.111h-67.9a3.05,3.05,0,0,1-2.839-4.167l3.156-8.05a4.861,4.861,0,0,1,4.493-3.064h58.276a4.86,4.86,0,0,1,4.493,3.064l3.158,8.051a3.051,3.051,0,0,1-2.841,4.166Zm-63.086-12.264A1.822,1.822,0,0,0,785,1074l-3.158,8.051,67.928.047c.014,0,.02-.033.029-.048L846.643,1074a1.823,1.823,0,0,0-1.685-1.149Z" transform="translate(0 -21.578)" fill="#424242"/>
    <path id="패스_4761" data-name="패스 4761" d="M844.424,1054.029v-27.241c0-11.9-10.781-21.227-24.543-21.227s-24.544,9.324-24.544,21.227v27.241Zm-46.07-27.241c0-10.382,9.254-18.21,21.527-18.21s21.526,7.829,21.526,18.21V1053.9H798.354Z" transform="translate(-4.061 -5.777)" fill="#424242"/>
  </g>
</svg>
