<svg id="그룹_43" data-name="그룹 43" xmlns="http://www.w3.org/2000/svg" width="41.105" height="42" viewBox="0 0 41.105 42">
  <g id="그룹_29" data-name="그룹 29" transform="translate(0 0)">
    <path id="패스_165" data-name="패스 165" d="M205.87,297.414a44.177,44.177,0,0,0-12.492,4.291l-.547.311.021.628a43.746,43.746,0,0,0,10.378,26.849,42.823,42.823,0,0,0,9.824,8.784l.563.334.546-.362A44.011,44.011,0,0,0,231.525,315.4a43.513,43.513,0,0,0,2.411-12.955l0-.607-.53-.3A40.372,40.372,0,0,0,205.87,297.414Zm.465,2.033a38.389,38.389,0,0,1,25.5,3.625,44.1,44.1,0,0,1-2.31,11.742,42,42,0,0,1-15.965,21.312,43.407,43.407,0,0,1-8.785-8.034,41.721,41.721,0,0,1-9.8-24.871A44.6,44.6,0,0,1,206.335,299.447Z" transform="translate(-192.831 -296.611)" fill="#121f5e"/>
    <path id="패스_166" data-name="패스 166" d="M224.842,328.652l-.456.193.1.486a37.262,37.262,0,0,0,11.552,20.319l.4.329.388-.347a36.541,36.541,0,0,0,11.547-20.51l.066-.486-.462-.167A33.967,33.967,0,0,0,224.842,328.652Zm22.239.8a36.32,36.32,0,0,1-10.672,18.908,37.1,37.1,0,0,1-10.624-18.767A33.574,33.574,0,0,1,247.081,329.452Z" transform="translate(-215.898 -318.48)" fill="#121f5e"/>
    <path id="패스_167" data-name="패스 167" d="M260.137,341.985a2.287,2.287,0,1,0,2.287-2.287A2.29,2.29,0,0,0,260.137,341.985Zm.174,0a2.114,2.114,0,1,1,2.113,2.113A2.116,2.116,0,0,1,260.311,341.985Z" transform="translate(-242.033 -328.108)" fill="#121f5e"/>
    <path id="패스_168" data-name="패스 168" d="M238.975,341.818c-.374.34-1.034.94-.532,1.417,0,0,.235.412,1.448-.058l.961-.444s.225-.158.414.244l7.071,12.411s.293.658.9.049a2.643,2.643,0,0,0,.317-.439c.112-.208.1-.411-.244-.926l-7.7-12.241S240.782,340.352,238.975,341.818Z" transform="translate(-226.042 -329.184)" fill="#121f5e"/>
    <path id="패스_169" data-name="패스 169" d="M268.334,341.495c.374.34,1.033.941.532,1.417,0,0-.235.412-1.447-.058l-.961-.444s-.225-.158-.414.244l-7.071,12.411s-.293.658-.9.049a2.634,2.634,0,0,1-.317-.439c-.112-.208-.1-.411.244-.927l7.7-12.24S266.527,340.029,268.334,341.495Z" transform="translate(-240.244 -328.948)" fill="#121f5e"/>
    <path id="패스_170" data-name="패스 170" d="M229.072,317.49l-.847.207-.806-3.392.847-.206Z" transform="translate(-218.115 -309.394)" fill="#121f5e"/>
    <rect id="사각형_329" data-name="사각형 329" width="0.872" height="3.401" transform="matrix(0.476, -0.879, 0.879, 0.476, 30.747, 20.449)" fill="#121f5e"/>
    <rect id="사각형_330" data-name="사각형 330" width="0.872" height="3.401" transform="translate(25.522 28.896) rotate(-50.295)" fill="#121f5e"/>
    <path id="패스_171" data-name="패스 171" d="M233.045,311.974l1.064-.253-.992,1.968,1.749,1.514-1.017.209-1.753-1.478Z" transform="translate(-221.534 -307.657)" fill="#121f5e"/>
    <path id="패스_172" data-name="패스 172" d="M245.989,309.471a1.859,1.859,0,1,0,1.858,1.858A1.859,1.859,0,0,0,245.989,309.471Zm0,3.023a1.2,1.2,0,1,1,1-1.185A1.1,1.1,0,0,1,245.989,312.494Z" transform="translate(-230.332 -306.012)" fill="#121f5e"/>
    <path id="패스_173" data-name="패스 173" d="M314.7,354.5a1.859,1.859,0,1,0,.96,2.446A1.858,1.858,0,0,0,314.7,354.5Zm.324,2.169a1.2,1.2,0,1,1-.686-1.391A1.1,1.1,0,0,1,315.021,356.668Z" transform="translate(-280.015 -338.815)" fill="#121f5e"/>
    <path id="패스_174" data-name="패스 174" d="M266.568,421.91a1.859,1.859,0,1,0-1.692,2.012A1.859,1.859,0,0,0,266.568,421.91Zm-1.752,1.32a1.2,1.2,0,1,1,.9-1.266A1.1,1.1,0,0,1,264.816,423.23Z" transform="translate(-244.021 -386.965)" fill="#121f5e"/>
    <path id="패스_175" data-name="패스 175" d="M214.721,352.008a1.865,1.865,0,1,0-.987,2.564A1.947,1.947,0,0,0,214.721,352.008ZM213.41,353.7a1.094,1.094,0,1,1,.7-1.448A1.14,1.14,0,0,1,213.41,353.7Z" transform="translate(-206.193 -336.14)" fill="#121f5e"/>
    <path id="패스_176" data-name="패스 176" d="M266.644,311.18a.628.628,0,0,0-.613-.572.685.685,0,0,0,.694-.694s.122-.817-.613-.858l-2.614-.041-.082,3.391,1.021.041.046-1.36.812.012s.272-.081.286.286l.122,1.021,1.062.041Zm-.9-1.4v.333c0,.347-.408.286-.408.286h-.858l0-.835.934.019C265.775,309.569,265.746,309.785,265.746,309.785Z" transform="translate(-244.431 -305.679)" fill="#121f5e"/>
    <path id="패스_177" data-name="패스 177" d="M295.277,391.419l-.633.99,1.9,3.151.556-.781-.371-.674.841-1.269.813.169.48-.892Zm1.026,2.211-.742-1.207,1.351.262Z" transform="translate(-267.258 -365.917)" fill="#121f5e"/>
    <path id="패스_178" data-name="패스 178" d="M297.553,312.105l-1.151-.234-2.258,2.9.929.238.5-.589,1.486.33.136.819,1.027.343Zm-1.695,1.752.86-1.127.242,1.355Z" transform="translate(-266.893 -307.766)" fill="#121f5e"/>
    <path id="패스_179" data-name="패스 179" d="M231.851,391.959l-3.636.551.51.812.765-.086.851,1.263-.466.687.642.784,2.009-3.048Zm-1.12,1.99-.642-.925,1.4-.225Z" transform="translate(-218.697 -366.312)" fill="#121f5e"/>
    <path id="패스_180" data-name="패스 180" d="M320.038,321.761a.76.76,0,1,1-.76-.76A.76.76,0,0,1,320.038,321.761Z" transform="translate(-284.711 -314.441)" fill="#121f5e"/>
    <path id="패스_181" data-name="패스 181" d="M213.5,323.065a.76.76,0,1,1-.76-.76A.76.76,0,0,1,213.5,323.065Z" transform="translate(-206.83 -315.394)" fill="#121f5e"/>
    <path id="패스_182" data-name="패스 182" d="M317.585,334.171l3.206.768-.323,1.495-2.756.609-.05.215,2.5.594-.19.876-3.245-.761.335-1.662,2.69-.589.027-.173-2.4-.454Z" transform="translate(-283.401 -324.068)" fill="#121f5e"/>
    <g id="그룹_24" data-name="그룹 24" transform="translate(28.8 21.456)">
      <path id="패스_183" data-name="패스 183" d="M303.42,382.2l2.488,1.428.434-.756-2.491-1.43" transform="translate(-302.473 -380.08)" fill="#121f5e"/>
      <path id="패스_184" data-name="패스 184" d="M301.278,377.741l.652-1.147-.378-.214-1.652,2.907.377.215.569-1" transform="translate(-299.9 -376.38)" fill="#121f5e"/>
    </g>
    <path id="패스_185" data-name="패스 185" d="M252.041,413.228l.679.675a.875.875,0,0,0,.168-1.022,3.525,3.525,0,0,0-1.281-1.346,1.494,1.494,0,0,0-1.02-.2.781.781,0,0,0-.456.391s-.217.217.043.825c0,0,.514.8.738,1.107a.6.6,0,0,1,.109.369s.087.3-.282.369a.544.544,0,0,1-.521-.173.859.859,0,0,1-.282-.521s-.065-.087.087-.391l-.738-.868a1.5,1.5,0,0,0-.217,1.15,2.184,2.184,0,0,0,.738,1.021,3.113,3.113,0,0,0,1,.564s.478.261,1.086-.348a.79.79,0,0,0,.108-.695,2.142,2.142,0,0,0-.369-.673l-.434-.608a.809.809,0,0,1-.13-.456.348.348,0,0,1,.2-.3.427.427,0,0,1,.369.065.847.847,0,0,1,.369.5A1.189,1.189,0,0,1,252.041,413.228Z" transform="translate(-233.907 -380.463)" fill="#121f5e"/>
    <path id="패스_186" data-name="패스 186" d="M242.273,402.735l.679.675a.875.875,0,0,0,.168-1.022,3.527,3.527,0,0,0-1.281-1.346,1.493,1.493,0,0,0-1.021-.2.777.777,0,0,0-.456.391s-.217.217.043.825c0,0,.514.8.738,1.107a.605.605,0,0,1,.109.369s.087.3-.282.369a.547.547,0,0,1-.521-.173.859.859,0,0,1-.282-.521s-.065-.087.087-.391l-.738-.869a1.5,1.5,0,0,0-.217,1.151,2.184,2.184,0,0,0,.738,1.02,3.112,3.112,0,0,0,1,.565s.478.261,1.086-.348a.79.79,0,0,0,.108-.695,2.133,2.133,0,0,0-.369-.673l-.434-.608a.809.809,0,0,1-.13-.456.348.348,0,0,1,.2-.3.426.426,0,0,1,.369.065.844.844,0,0,1,.369.5A1.182,1.182,0,0,1,242.273,402.735Z" transform="translate(-226.767 -372.792)" fill="#121f5e"/>
    <g id="그룹_25" data-name="그룹 25" transform="translate(7.646 20.974)">
      <path id="패스_187" data-name="패스 187" d="M224.118,375.757l.894,1.477.49-.291-1.4-2.357-2.845,1.691.547.921,1.147-.63.783,1.426.542-.322-.89-1.471Z" transform="translate(-221.256 -374.586)" fill="#121f5e"/>
    </g>
    <path id="패스_188" data-name="패스 188" d="M208.108,336.976l.737-.119.289,1.767-1.8.368a10.847,10.847,0,0,1-.6-2.012,2.666,2.666,0,0,1,.172-1.384,1.646,1.646,0,0,1,.957-.788,2.219,2.219,0,0,1,1.477.173,1.841,1.841,0,0,1,.869,1.3,3.894,3.894,0,0,1,.043,1.39,1.3,1.3,0,0,1-.521.782l-.217-1a.5.5,0,0,0,.225-.45s.043-.9-.485-1.07a2.16,2.16,0,0,0-1.066.008s-.571.084-.732.478a1.661,1.661,0,0,0,.061,1.208l.13.3.564-.13Z" transform="translate(-202.98 -324.494)" fill="#121f5e"/>
    <g id="그룹_26" data-name="그룹 26" transform="translate(23.52 3.461)">
      <path id="패스_189" data-name="패스 189" d="M281.259,310.969l.066-.929,1.951.138.033-.519-2.815-.182-.222,3.433,2.816.181.009-.549-1.979-.125.034-.865,2.027.126.036-.569Z" transform="translate(-280.271 -309.477)" fill="#121f5e"/>
    </g>
    <g id="그룹_27" data-name="그룹 27" transform="translate(23.022 30.403)">
      <path id="패스_190" data-name="패스 190" d="M281.977,410.614l-.717.712a.919.919,0,0,1-.147.928,1.22,1.22,0,0,1-1.762-1.6.951.951,0,0,1,1.034-.2l.722-.686a2,2,0,0,0-2.321.718,1.79,1.79,0,1,0,2.938,2.024A1.915,1.915,0,0,0,281.977,410.614Z" transform="translate(-278.42 -409.641)" fill="#121f5e"/>
    </g>
    <g id="그룹_28" data-name="그룹 28" transform="translate(6.305 18.182)">
      <path id="패스_191" data-name="패스 191" d="M219.779,365.26l-.5-1.051-3.005,1.441,1.246,2.6.535-.257-.742-1.546Z" transform="translate(-216.27 -364.209)" fill="#121f5e"/>
    </g>
    <path id="패스_192" data-name="패스 192" d="M263.361,343.653a.085.085,0,1,1-.085-.085A.085.085,0,0,1,263.361,343.653Z" transform="translate(-244.266 -330.937)" fill="#121f5e"/>
    <path id="패스_193" data-name="패스 193" d="M264.871,344.672a.085.085,0,1,1-.086-.085A.085.085,0,0,1,264.871,344.672Z" transform="translate(-245.369 -331.682)" fill="#121f5e"/>
    <path id="패스_194" data-name="패스 194" d="M266.309,346.006a.085.085,0,1,1-.084-.085A.085.085,0,0,1,266.309,346.006Z" transform="translate(-246.421 -332.658)" fill="#121f5e"/>
    <path id="패스_195" data-name="패스 195" d="M268.1,347.739a.085.085,0,1,1-.085-.085A.085.085,0,0,1,268.1,347.739Z" transform="translate(-247.728 -333.924)" fill="#121f5e"/>
    <path id="패스_196" data-name="패스 196" d="M270.672,348.656a.085.085,0,1,1-.085-.085A.085.085,0,0,1,270.672,348.656Z" transform="translate(-249.61 -334.595)" fill="#121f5e"/>
    <path id="패스_197" data-name="패스 197" d="M272.626,348.546a.085.085,0,1,1-.085-.086A.086.086,0,0,1,272.626,348.546Z" transform="translate(-251.038 -334.514)" fill="#121f5e"/>
    <path id="패스_198" data-name="패스 198" d="M274.064,346.055a.085.085,0,1,1-.085-.085A.085.085,0,0,1,274.064,346.055Z" transform="translate(-252.09 -332.693)" fill="#121f5e"/>
    <path id="패스_199" data-name="패스 199" d="M270.66,346.581a.085.085,0,1,1-.085-.085A.085.085,0,0,1,270.66,346.581Z" transform="translate(-249.601 -333.078)" fill="#121f5e"/>
    <path id="패스_200" data-name="패스 200" d="M271.607,345.108a.085.085,0,1,1-.085-.085A.085.085,0,0,1,271.607,345.108Z" transform="translate(-250.294 -332.001)" fill="#121f5e"/>
    <path id="패스_201" data-name="패스 201" d="M268.73,345.142a.085.085,0,1,1-.084-.085A.085.085,0,0,1,268.73,345.142Z" transform="translate(-248.19 -332.026)" fill="#121f5e"/>
    <path id="패스_202" data-name="패스 202" d="M270.345,343.023a.085.085,0,1,1-.085-.085A.085.085,0,0,1,270.345,343.023Z" transform="translate(-249.371 -330.477)" fill="#121f5e"/>
    <path id="패스_203" data-name="패스 203" d="M267.291,343.128a.085.085,0,1,1-.085-.085A.085.085,0,0,1,267.291,343.128Z" transform="translate(-247.138 -330.554)" fill="#121f5e"/>
    <path id="패스_204" data-name="패스 204" d="M272.379,342.252a.085.085,0,1,1-.085-.085A.085.085,0,0,1,272.379,342.252Z" transform="translate(-250.858 -329.913)" fill="#121f5e"/>
    <path id="패스_205" data-name="패스 205" d="M268.66,340.707a.085.085,0,1,1-.085-.085A.085.085,0,0,1,268.66,340.707Z" transform="translate(-248.139 -328.784)" fill="#121f5e"/>
    <path id="패스_206" data-name="패스 206" d="M265.116,341.55a.085.085,0,1,1-.085-.085A.085.085,0,0,1,265.116,341.55Z" transform="translate(-245.548 -329.4)" fill="#121f5e"/>
    <path id="패스_207" data-name="패스 207" d="M262.134,345.724a.085.085,0,1,1-.085-.085A.085.085,0,0,1,262.134,345.724Z" transform="translate(-243.369 -332.451)" fill="#121f5e"/>
    <path id="패스_208" data-name="패스 208" d="M263.818,347.585a.085.085,0,1,1-.085-.085A.085.085,0,0,1,263.818,347.585Z" transform="translate(-244.6 -333.812)" fill="#121f5e"/>
    <path id="패스_209" data-name="패스 209" d="M266.2,348.532a.085.085,0,1,1-.085-.085A.085.085,0,0,1,266.2,348.532Z" transform="translate(-246.343 -334.504)" fill="#121f5e"/>
    <path id="패스_210" data-name="패스 210" d="M268.238,350.953a.085.085,0,1,1-.085-.085A.085.085,0,0,1,268.238,350.953Z" transform="translate(-247.831 -336.274)" fill="#121f5e"/>
    <path id="패스_211" data-name="패스 211" d="M270.168,351.059a.085.085,0,1,1-.085-.085A.085.085,0,0,1,270.168,351.059Z" transform="translate(-249.242 -336.351)" fill="#121f5e"/>
    <path id="패스_212" data-name="패스 212" d="M269.713,353.375a.085.085,0,1,1-.085-.085A.085.085,0,0,1,269.713,353.375Z" transform="translate(-248.909 -338.044)" fill="#121f5e"/>
    <path id="패스_213" data-name="패스 213" d="M267.817,354.568a.085.085,0,1,1-.085-.085A.085.085,0,0,1,267.817,354.568Z" transform="translate(-247.523 -338.917)" fill="#121f5e"/>
    <path id="패스_214" data-name="패스 214" d="M265.433,354.32a.085.085,0,1,1-.085-.085A.085.085,0,0,1,265.433,354.32Z" transform="translate(-245.78 -338.735)" fill="#121f5e"/>
    <path id="패스_215" data-name="패스 215" d="M266.275,352.356a.085.085,0,1,1-.085-.085A.085.085,0,0,1,266.275,352.356Z" transform="translate(-246.396 -337.3)" fill="#121f5e"/>
    <path id="패스_216" data-name="패스 216" d="M266.309,350.427a.085.085,0,1,1-.084-.085A.085.085,0,0,1,266.309,350.427Z" transform="translate(-246.421 -335.889)" fill="#121f5e"/>
    <path id="패스_217" data-name="패스 217" d="M264.414,349.97a.085.085,0,1,1-.085-.085A.085.085,0,0,1,264.414,349.97Z" transform="translate(-245.035 -335.555)" fill="#121f5e"/>
    <path id="패스_218" data-name="패스 218" d="M262.379,350.882a.085.085,0,1,1-.085-.085A.085.085,0,0,1,262.379,350.882Z" transform="translate(-243.548 -336.222)" fill="#121f5e"/>
    <path id="패스_219" data-name="패스 219" d="M261.889,348.426a.085.085,0,1,1-.085-.085A.085.085,0,0,1,261.889,348.426Z" transform="translate(-243.189 -334.427)" fill="#121f5e"/>
    <path id="패스_220" data-name="패스 220" d="M263.4,352.878a.085.085,0,1,1-.09-.08A.085.085,0,0,1,263.4,352.878Z" transform="translate(-244.292 -337.684)" fill="#121f5e"/>
    <path id="패스_221" data-name="패스 221" d="M271.883,351.868a.085.085,0,1,1-.085-.085A.085.085,0,0,1,271.883,351.868Z" transform="translate(-250.495 -336.943)" fill="#121f5e"/>
    <path id="패스_222" data-name="패스 222" d="M272.025,353.865a.085.085,0,1,1-.085-.085A.085.085,0,0,1,272.025,353.865Z" transform="translate(-250.599 -338.403)" fill="#121f5e"/>
    <path id="패스_223" data-name="패스 223" d="M273.572,351.374a.085.085,0,1,1-.084-.085A.084.084,0,0,1,273.572,351.374Z" transform="translate(-251.731 -336.582)" fill="#121f5e"/>
    <path id="패스_224" data-name="패스 224" d="M274.38,349.058a.085.085,0,1,1-.085-.085A.085.085,0,0,1,274.38,349.058Z" transform="translate(-252.321 -334.889)" fill="#121f5e"/>
    <path id="패스_225" data-name="패스 225" d="M274.809,350.485a.085.085,0,1,1-.085-.085A.085.085,0,0,1,274.809,350.485Z" transform="translate(-252.634 -335.932)" fill="#121f5e"/>
  </g>
</svg>
