<svg xmlns="http://www.w3.org/2000/svg" width="46.608" height="47.622" viewBox="0 0 46.608 47.622">
  <g id="그룹_30" data-name="그룹 30" transform="translate(-192.831 -296.611)">
    <g id="그룹_29" data-name="그룹 29" transform="translate(192.831 296.611)">
      <path id="패스_165" data-name="패스 165" d="M207.615,297.521a50.091,50.091,0,0,0-14.164,4.865l-.62.353.023.712a49.6,49.6,0,0,0,11.767,30.443,48.555,48.555,0,0,0,11.14,9.96l.638.379.619-.411a49.9,49.9,0,0,0,19.687-25.9,49.337,49.337,0,0,0,2.734-14.69l0-.688-.6-.336A45.777,45.777,0,0,0,207.615,297.521Zm.527,2.305a43.528,43.528,0,0,1,28.914,4.11,50.005,50.005,0,0,1-2.619,13.314,47.626,47.626,0,0,1-18.1,24.165,49.218,49.218,0,0,1-9.962-9.109,47.305,47.305,0,0,1-11.116-28.2A50.568,50.568,0,0,1,208.143,299.827Z" transform="translate(-192.831 -296.611)" fill="#121f5e"/>
      <path id="패스_166" data-name="패스 166" d="M224.9,328.937l-.517.219.111.551a42.25,42.25,0,0,0,13.1,23.039l.456.373.439-.393a41.432,41.432,0,0,0,13.092-23.256l.074-.551-.524-.189A38.514,38.514,0,0,0,224.9,328.937Zm25.216.907a41.182,41.182,0,0,1-12.1,21.439A42.063,42.063,0,0,1,225.973,330,38.068,38.068,0,0,1,250.119,329.843Z" transform="translate(-214.762 -317.403)" fill="#121f5e"/>
      <path id="패스_167" data-name="패스 167" d="M260.137,342.291a2.593,2.593,0,1,0,2.593-2.593A2.6,2.6,0,0,0,260.137,342.291Zm.2,0a2.4,2.4,0,1,1,2.4,2.4A2.4,2.4,0,0,1,260.334,342.291Z" transform="translate(-239.609 -326.557)" fill="#121f5e"/>
      <path id="패스_168" data-name="패스 168" d="M239.071,341.9c-.424.385-1.172,1.066-.6,1.606,0,0,.266.467,1.641-.066l1.089-.5s.255-.18.47.277l8.018,14.072s.332.747,1.023.055a3,3,0,0,0,.36-.5c.127-.236.113-.466-.277-1.05l-8.736-13.879S241.12,340.243,239.071,341.9Z" transform="translate(-224.406 -327.58)" fill="#121f5e"/>
      <path id="패스_169" data-name="패스 169" d="M269.759,341.581c.424.386,1.171,1.067.6,1.607,0,0-.266.467-1.641-.066l-1.089-.5s-.256-.18-.47.277l-8.018,14.072s-.332.746-1.023.056a2.985,2.985,0,0,1-.359-.5c-.127-.235-.113-.466.277-1.051l8.736-13.879S267.71,339.92,269.759,341.581Z" transform="translate(-237.909 -327.355)" fill="#121f5e"/>
      <path id="패스_170" data-name="패스 170" d="M229.293,317.944l-.961.234-.913-3.847.96-.234Z" transform="translate(-216.87 -308.765)" fill="#121f5e"/>
      <rect id="사각형_329" data-name="사각형 329" width="0.988" height="3.857" transform="matrix(0.476, -0.879, 0.879, 0.476, 34.863, 23.186)" fill="#121f5e"/>
      <rect id="사각형_330" data-name="사각형 330" width="0.989" height="3.857" transform="translate(28.938 32.764) rotate(-50.295)" fill="#121f5e"/>
      <path id="패스_171" data-name="패스 171" d="M233.173,312.008l1.206-.286-1.125,2.232,1.983,1.716-1.154.237-1.988-1.676Z" transform="translate(-220.12 -307.113)" fill="#121f5e"/>
      <path id="패스_172" data-name="패스 172" d="M246.238,309.471a2.107,2.107,0,1,0,2.107,2.107A2.108,2.108,0,0,0,246.238,309.471Zm0,3.427a1.362,1.362,0,1,1,1.135-1.343A1.252,1.252,0,0,1,246.237,312.9Z" transform="translate(-228.484 -305.549)" fill="#121f5e"/>
      <path id="패스_173" data-name="패스 173" d="M315.045,354.52a2.107,2.107,0,1,0,1.089,2.774A2.107,2.107,0,0,0,315.045,354.52Zm.367,2.459a1.362,1.362,0,1,1-.777-1.577A1.251,1.251,0,0,1,315.413,356.979Z" transform="translate(-275.721 -336.736)" fill="#121f5e"/>
      <path id="패스_174" data-name="패스 174" d="M267.064,422.137a2.107,2.107,0,1,0-1.919,2.281A2.107,2.107,0,0,0,267.064,422.137Zm-1.986,1.5a1.362,1.362,0,1,1,1.016-1.436A1.253,1.253,0,0,1,265.078,423.634Z" transform="translate(-241.5 -382.515)" fill="#121f5e"/>
      <path id="패스_175" data-name="패스 175" d="M215.2,352.185a2.115,2.115,0,1,0-1.119,2.908A2.208,2.208,0,0,0,215.2,352.185Zm-1.486,1.914a1.24,1.24,0,1,1,.8-1.642A1.293,1.293,0,0,1,213.718,354.1Z" transform="translate(-205.535 -334.193)" fill="#121f5e"/>
      <path id="패스_176" data-name="패스 176" d="M267.076,311.47a.712.712,0,0,0-.695-.649.777.777,0,0,0,.787-.787s.139-.926-.695-.973l-2.964-.047-.093,3.844,1.158.046.052-1.542.921.014s.309-.092.324.324l.139,1.158,1.2.046Zm-1.018-1.582v.378c0,.394-.463.324-.463.324h-.973l.005-.947,1.06.021C266.091,309.643,266.057,309.888,266.057,309.888Z" transform="translate(-241.889 -305.232)" fill="#121f5e"/>
      <path id="패스_177" data-name="패스 177" d="M295.361,391.419l-.717,1.122,2.152,3.573.63-.885-.421-.764.954-1.439.922.191.544-1.012Zm1.163,2.507-.841-1.369,1.532.3Z" transform="translate(-263.592 -362.504)" fill="#121f5e"/>
      <path id="패스_178" data-name="패스 178" d="M298.009,312.137l-1.305-.266-2.56,3.292,1.053.27.561-.668,1.685.374.154.929,1.165.389Zm-1.921,1.986.975-1.277.274,1.537Z" transform="translate(-263.245 -307.217)" fill="#121f5e"/>
      <path id="패스_179" data-name="패스 179" d="M232.338,391.959l-4.123.625.578.92.867-.1.965,1.432-.529.779.727.889,2.278-3.456Zm-1.27,2.257-.727-1.048,1.586-.255Z" transform="translate(-217.423 -362.879)" fill="#121f5e"/>
      <path id="패스_180" data-name="패스 180" d="M320.241,321.863a.862.862,0,1,1-.862-.862A.862.862,0,0,1,320.241,321.863Z" transform="translate(-280.185 -313.562)" fill="#121f5e"/>
      <path id="패스_181" data-name="패스 181" d="M213.7,323.167a.862.862,0,1,1-.862-.862A.861.861,0,0,1,213.7,323.167Z" transform="translate(-206.14 -314.469)" fill="#121f5e"/>
      <path id="패스_182" data-name="패스 182" d="M317.7,334.171l3.635.871-.366,1.695-3.125.69-.057.244,2.835.674-.216.993-3.679-.863.379-1.885,3.05-.668.031-.2-2.718-.514Z" transform="translate(-278.94 -322.716)" fill="#121f5e"/>
      <g id="그룹_24" data-name="그룹 24" transform="translate(32.655 24.329)">
        <path id="패스_183" data-name="패스 183" d="M303.42,382.3l2.821,1.619.492-.858-2.825-1.621" transform="translate(-302.346 -379.898)" fill="#121f5e"/>
        <path id="패스_184" data-name="패스 184" d="M301.462,377.924l.739-1.3-.428-.243-1.873,3.3.428.243.646-1.136" transform="translate(-299.9 -376.38)" fill="#121f5e"/>
      </g>
      <path id="패스_185" data-name="패스 185" d="M252.445,413.484l.769.765a.992.992,0,0,0,.19-1.159,4,4,0,0,0-1.452-1.526,1.694,1.694,0,0,0-1.157-.222.885.885,0,0,0-.517.443s-.246.246.049.936c0,0,.583.908.837,1.255a.684.684,0,0,1,.124.418s.1.345-.32.418a.617.617,0,0,1-.591-.2.974.974,0,0,1-.32-.591s-.074-.1.1-.443l-.837-.984a1.7,1.7,0,0,0-.246,1.3,2.477,2.477,0,0,0,.837,1.157,3.53,3.53,0,0,0,1.132.64s.542.3,1.231-.394a.9.9,0,0,0,.123-.787,2.429,2.429,0,0,0-.418-.763l-.492-.689a.918.918,0,0,1-.148-.517.4.4,0,0,1,.222-.345.484.484,0,0,1,.418.074.96.96,0,0,1,.418.566A1.348,1.348,0,0,1,252.445,413.484Z" transform="translate(-231.884 -376.333)" fill="#121f5e"/>
      <path id="패스_186" data-name="패스 186" d="M242.678,402.991l.769.765a.992.992,0,0,0,.191-1.159,4,4,0,0,0-1.452-1.526,1.693,1.693,0,0,0-1.157-.221.881.881,0,0,0-.517.443s-.246.246.049.936c0,0,.583.908.837,1.255a.687.687,0,0,1,.123.419s.1.345-.32.418a.62.62,0,0,1-.591-.2.974.974,0,0,1-.32-.591s-.074-.1.1-.443l-.837-.985a1.706,1.706,0,0,0-.246,1.305,2.476,2.476,0,0,0,.837,1.157,3.528,3.528,0,0,0,1.132.64s.542.3,1.231-.394a.9.9,0,0,0,.123-.788,2.419,2.419,0,0,0-.418-.763l-.492-.689a.917.917,0,0,1-.148-.517.4.4,0,0,1,.222-.345.483.483,0,0,1,.418.074.957.957,0,0,1,.418.566A1.34,1.34,0,0,1,242.678,402.991Z" transform="translate(-225.096 -369.039)" fill="#121f5e"/>
      <g id="그룹_25" data-name="그룹 25" transform="translate(8.669 23.782)">
        <path id="패스_187" data-name="패스 187" d="M224.5,375.914l1.013,1.675.555-.33-1.588-2.672-3.226,1.917.62,1.044,1.3-.715.888,1.617.614-.365-1.009-1.668Z" transform="translate(-221.256 -374.586)" fill="#121f5e"/>
      </g>
      <path id="패스_188" data-name="패스 188" d="M208.295,337.274l.836-.135.328,2-2.04.418a12.3,12.3,0,0,1-.675-2.281,3.023,3.023,0,0,1,.2-1.569,1.867,1.867,0,0,1,1.085-.893,2.516,2.516,0,0,1,1.674.2,2.087,2.087,0,0,1,.985,1.477,4.416,4.416,0,0,1,.049,1.576,1.475,1.475,0,0,1-.591.886l-.246-1.132a.561.561,0,0,0,.255-.51s.049-1.019-.55-1.213a2.449,2.449,0,0,0-1.209.009s-.648.1-.83.542a1.883,1.883,0,0,0,.069,1.37l.148.344.64-.148Z" transform="translate(-202.48 -323.121)" fill="#121f5e"/>
      <g id="그룹_26" data-name="그룹 26" transform="translate(26.668 3.924)">
        <path id="패스_189" data-name="패스 189" d="M281.391,311.169l.074-1.053,2.212.156.038-.589-3.192-.206-.251,3.892,3.193.206.011-.623-2.244-.142.038-.981,2.3.142.041-.645Z" transform="translate(-280.271 -309.477)" fill="#121f5e"/>
      </g>
      <g id="그룹_27" data-name="그룹 27" transform="translate(26.104 34.473)">
        <path id="패스_190" data-name="패스 190" d="M282.453,410.745l-.812.807a1.041,1.041,0,0,1-.167,1.052,1.383,1.383,0,0,1-2-1.817,1.078,1.078,0,0,1,1.173-.224l.819-.778a2.262,2.262,0,0,0-2.632.814,2.03,2.03,0,1,0,3.331,2.3A2.171,2.171,0,0,0,282.453,410.745Z" transform="translate(-278.42 -409.641)" fill="#121f5e"/>
      </g>
      <g id="그룹_28" data-name="그룹 28" transform="translate(7.149 20.616)">
        <path id="패스_191" data-name="패스 191" d="M220.249,365.4l-.572-1.192-3.407,1.634,1.413,2.945.607-.291-.841-1.753Z" transform="translate(-216.27 -364.209)" fill="#121f5e"/>
      </g>
      <path id="패스_192" data-name="패스 192" d="M263.384,343.665a.1.1,0,1,1-.1-.1A.1.1,0,0,1,263.384,343.665Z" transform="translate(-241.732 -329.247)" fill="#121f5e"/>
      <path id="패스_193" data-name="패스 193" d="M264.894,344.684a.1.1,0,1,1-.1-.1A.1.1,0,0,1,264.894,344.684Z" transform="translate(-242.782 -329.955)" fill="#121f5e"/>
      <path id="패스_194" data-name="패스 194" d="M266.332,346.017a.1.1,0,1,1-.1-.1A.1.1,0,0,1,266.332,346.017Z" transform="translate(-243.782 -330.882)" fill="#121f5e"/>
      <path id="패스_195" data-name="패스 195" d="M268.121,347.75a.1.1,0,1,1-.1-.1A.1.1,0,0,1,268.121,347.75Z" transform="translate(-245.024 -332.087)" fill="#121f5e"/>
      <path id="패스_196" data-name="패스 196" d="M270.695,348.668a.1.1,0,1,1-.1-.1A.1.1,0,0,1,270.695,348.668Z" transform="translate(-246.813 -332.724)" fill="#121f5e"/>
      <path id="패스_197" data-name="패스 197" d="M272.649,348.557a.1.1,0,1,1-.1-.1A.1.1,0,0,1,272.649,348.557Z" transform="translate(-248.171 -332.647)" fill="#121f5e"/>
      <path id="패스_198" data-name="패스 198" d="M274.086,346.067a.1.1,0,1,1-.1-.1A.1.1,0,0,1,274.086,346.067Z" transform="translate(-249.171 -330.916)" fill="#121f5e"/>
      <path id="패스_199" data-name="패스 199" d="M270.683,346.593a.1.1,0,1,1-.1-.1A.1.1,0,0,1,270.683,346.593Z" transform="translate(-246.805 -331.282)" fill="#121f5e"/>
      <path id="패스_200" data-name="패스 200" d="M271.63,345.119a.1.1,0,1,1-.1-.1A.1.1,0,0,1,271.63,345.119Z" transform="translate(-247.463 -330.258)" fill="#121f5e"/>
      <path id="패스_201" data-name="패스 201" d="M268.752,345.154a.1.1,0,1,1-.1-.1A.1.1,0,0,1,268.752,345.154Z" transform="translate(-245.464 -330.282)" fill="#121f5e"/>
      <path id="패스_202" data-name="패스 202" d="M270.368,343.034a.1.1,0,1,1-.1-.1A.1.1,0,0,1,270.368,343.034Z" transform="translate(-246.586 -328.809)" fill="#121f5e"/>
      <path id="패스_203" data-name="패스 203" d="M267.314,343.139a.1.1,0,1,1-.1-.1A.1.1,0,0,1,267.314,343.139Z" transform="translate(-244.463 -328.882)" fill="#121f5e"/>
      <path id="패스_204" data-name="패스 204" d="M272.4,342.263a.1.1,0,1,1-.1-.1A.1.1,0,0,1,272.4,342.263Z" transform="translate(-248 -328.273)" fill="#121f5e"/>
      <path id="패스_205" data-name="패스 205" d="M268.682,340.718a.1.1,0,1,1-.1-.1A.1.1,0,0,1,268.682,340.718Z" transform="translate(-245.415 -327.199)" fill="#121f5e"/>
      <path id="패스_206" data-name="패스 206" d="M265.139,341.561a.1.1,0,1,1-.1-.1A.1.1,0,0,1,265.139,341.561Z" transform="translate(-242.952 -327.785)" fill="#121f5e"/>
      <path id="패스_207" data-name="패스 207" d="M262.157,345.736a.1.1,0,1,1-.1-.1A.1.1,0,0,1,262.157,345.736Z" transform="translate(-240.879 -330.686)" fill="#121f5e"/>
      <path id="패스_208" data-name="패스 208" d="M263.84,347.6a.1.1,0,1,1-.1-.1A.1.1,0,0,1,263.84,347.6Z" transform="translate(-242.05 -331.979)" fill="#121f5e"/>
      <path id="패스_209" data-name="패스 209" d="M266.226,348.543a.1.1,0,1,1-.1-.1A.1.1,0,0,1,266.226,348.543Z" transform="translate(-243.707 -332.638)" fill="#121f5e"/>
      <path id="패스_210" data-name="패스 210" d="M268.261,350.965a.1.1,0,1,1-.1-.1A.1.1,0,0,1,268.261,350.965Z" transform="translate(-245.122 -334.32)" fill="#121f5e"/>
      <path id="패스_211" data-name="패스 211" d="M270.191,351.07a.1.1,0,1,1-.1-.1A.1.1,0,0,1,270.191,351.07Z" transform="translate(-246.463 -334.394)" fill="#121f5e"/>
      <path id="패스_212" data-name="패스 212" d="M269.736,353.386a.1.1,0,1,1-.1-.1A.1.1,0,0,1,269.736,353.386Z" transform="translate(-246.147 -336.004)" fill="#121f5e"/>
      <path id="패스_213" data-name="패스 213" d="M267.84,354.579a.1.1,0,1,1-.1-.1A.1.1,0,0,1,267.84,354.579Z" transform="translate(-244.829 -336.833)" fill="#121f5e"/>
      <path id="패스_214" data-name="패스 214" d="M265.455,354.332a.1.1,0,1,1-.1-.1A.1.1,0,0,1,265.455,354.332Z" transform="translate(-243.172 -336.66)" fill="#121f5e"/>
      <path id="패스_215" data-name="패스 215" d="M266.3,352.367a.1.1,0,1,1-.1-.1A.1.1,0,0,1,266.3,352.367Z" transform="translate(-243.757 -335.295)" fill="#121f5e"/>
      <path id="패스_216" data-name="패스 216" d="M266.332,350.438a.1.1,0,1,1-.1-.1A.1.1,0,0,1,266.332,350.438Z" transform="translate(-243.782 -333.955)" fill="#121f5e"/>
      <path id="패스_217" data-name="패스 217" d="M264.437,349.982a.1.1,0,1,1-.1-.1A.1.1,0,0,1,264.437,349.982Z" transform="translate(-242.464 -333.637)" fill="#121f5e"/>
      <path id="패스_218" data-name="패스 218" d="M262.4,350.893a.1.1,0,1,1-.1-.1A.1.1,0,0,1,262.4,350.893Z" transform="translate(-241.05 -334.271)" fill="#121f5e"/>
      <path id="패스_219" data-name="패스 219" d="M261.912,348.437a.1.1,0,1,1-.1-.1A.1.1,0,0,1,261.912,348.437Z" transform="translate(-240.709 -332.564)" fill="#121f5e"/>
      <path id="패스_220" data-name="패스 220" d="M263.42,352.889a.1.1,0,1,1-.1-.091A.1.1,0,0,1,263.42,352.889Z" transform="translate(-241.757 -335.661)" fill="#121f5e"/>
      <path id="패스_221" data-name="패스 221" d="M271.905,351.88a.1.1,0,1,1-.1-.1A.1.1,0,0,1,271.905,351.88Z" transform="translate(-247.655 -334.956)" fill="#121f5e"/>
      <path id="패스_222" data-name="패스 222" d="M272.047,353.876a.1.1,0,1,1-.1-.1A.1.1,0,0,1,272.047,353.876Z" transform="translate(-247.754 -336.344)" fill="#121f5e"/>
      <path id="패스_223" data-name="패스 223" d="M273.6,351.386a.1.1,0,1,1-.1-.1A.1.1,0,0,1,273.6,351.386Z" transform="translate(-248.83 -334.613)" fill="#121f5e"/>
      <path id="패스_224" data-name="패스 224" d="M274.4,349.07a.1.1,0,1,1-.1-.1A.1.1,0,0,1,274.4,349.07Z" transform="translate(-249.39 -333.003)" fill="#121f5e"/>
      <path id="패스_225" data-name="패스 225" d="M274.831,350.5a.1.1,0,1,1-.1-.1A.1.1,0,0,1,274.831,350.5Z" transform="translate(-249.689 -333.995)" fill="#121f5e"/>
    </g>
  </g>
</svg>
