<svg xmlns="http://www.w3.org/2000/svg" width="72.08" height="72" viewBox="0 0 72.08 72">
  <g id="그룹_798" data-name="그룹 798" transform="translate(-376.968 -127.075)">
    <path id="패스_4774" data-name="패스 4774" d="M413.048,199.075a36,36,0,1,1,36-36A36.081,36.081,0,0,1,413.048,199.075Zm0-69.218a33.218,33.218,0,1,0,33.221,33.217A33.3,33.3,0,0,0,413.048,129.857Z" transform="translate(0)" fill="#3d3d3d"/>
    <path id="패스_4775" data-name="패스 4775" d="M423.131,203.186a29.986,29.986,0,1,1,29.946-30.028A30.06,30.06,0,0,1,423.131,203.186Zm0-57.191A27.2,27.2,0,1,0,450.3,173.158,27.235,27.235,0,0,0,423.131,146Z" transform="translate(-10.084 -10.084)" fill="#3d3d3d"/>
    <path id="패스_4776" data-name="패스 4776" d="M470.823,149.922a1.389,1.389,0,0,1-1.39-1.391V144.6a1.39,1.39,0,1,1,2.779,0v3.926A1.389,1.389,0,0,1,470.823,149.922Z" transform="translate(-57.775 -10.084)" fill="#3d3d3d"/>
    <path id="패스_4777" data-name="패스 4777" d="M470.823,291.758a1.389,1.389,0,0,1-1.39-1.391v-4.01a1.39,1.39,0,1,1,2.779,0v4.01A1.389,1.389,0,0,1,470.823,291.758Z" transform="translate(-57.775 -98.655)" fill="#3d3d3d"/>
    <path id="패스_4778" data-name="패스 4778" d="M398.5,222.1H394.5a1.391,1.391,0,0,1,0-2.782H398.5a1.391,1.391,0,0,1,0,2.782Z" transform="translate(-10.084 -57.64)" fill="#3d3d3d"/>
    <path id="패스_4779" data-name="패스 4779" d="M540.4,222.1h-3.93a1.391,1.391,0,0,1,0-2.782h3.93a1.391,1.391,0,0,1,0,2.782Z" transform="translate(-98.791 -57.64)" fill="#3d3d3d"/>
    <path id="패스_4780" data-name="패스 4780" d="M447.7,203.224a1.39,1.39,0,0,1-.863-2.481l8.146-6.456V179.5a1.39,1.39,0,1,1,2.779,0v15.463a1.382,1.382,0,0,1-.527,1.089l-8.673,6.873A1.375,1.375,0,0,1,447.7,203.224Z" transform="translate(-43.328 -31.885)" fill="#3d3d3d"/>
  </g>
</svg>
