<svg xmlns="http://www.w3.org/2000/svg" width="68" height="68" viewBox="0 0 68 68">
  <g id="그룹_1655" data-name="그룹 1655" transform="translate(-2416 -416)">
    <g id="그룹_1653" data-name="그룹 1653" transform="translate(2439.967 435.508)">
      <path id="패스_5429" data-name="패스 5429" d="M2851.813,762.58l-19.133-11.047a3.338,3.338,0,0,0-5.007,2.891v22.093a3.338,3.338,0,0,0,5.007,2.891l19.133-11.047A3.338,3.338,0,0,0,2851.813,762.58Z" transform="translate(-2827.672 -751.082)" fill="#fff"/>
    </g>
    <g id="그룹_1654" data-name="그룹 1654" transform="translate(2416 416)">
      <path id="패스_5430" data-name="패스 5430" d="M2450,484a34,34,0,1,1,34-34A34.039,34.039,0,0,1,2450,484Zm0-62.984A28.984,28.984,0,1,0,2478.984,450,29.016,29.016,0,0,0,2450,421.016Z" transform="translate(-2416 -416)" fill="#fff"/>
    </g>
  </g>
</svg>
