<svg xmlns="http://www.w3.org/2000/svg" width="52.162" height="49.657" viewBox="0 0 52.162 49.657">
  <g id="그룹_1583" data-name="그룹 1583" transform="translate(18320.943 15088.159)">
    <path id="패스_1470" data-name="패스 1470" d="M228.942,168.793l1.689-2.926s4.193-.506,5.742-3.187l2.252-3.9" transform="translate(-18527.672 -15216.023)" fill="none" stroke="#fff" stroke-miterlimit="10" stroke-width="2"/>
    <path id="패스_1471" data-name="패스 1471" d="M236.293,142.885l-7.129,1.086c-2.108.47-3.1.86-4.2,2.776l-3.822,6.621-5.186,8.985" transform="translate(-18529.311 -15218.03)" fill="none" stroke="#fff" stroke-miterlimit="10" stroke-width="2"/>
    <path id="패스_1472" data-name="패스 1472" d="M210,167.989l4.752-8.819,18.532,10.7L229.442,177" transform="translate(-18530.063 -15215.974)" fill="none" stroke="#fff" stroke-miterlimit="10" stroke-width="2"/>
    <path id="패스_1473" data-name="패스 1473" d="M225.92,151.289l12.308-3.3c2.834-.759,3.044,5.328-.643,6.769l-3.862,1.035c-.252.438-1.469,2.545-1.689,2.926a4.194,4.194,0,0,1-6.154,1.649" transform="translate(-18528.059 -15217.394)" fill="none" stroke="#fff" stroke-miterlimit="10" stroke-width="2"/>
    <path id="패스_1474" data-name="패스 1474" d="M230.513,151.041l10.136-17.556a2.253,2.253,0,0,1,3.077-.824l12.68,7.321a2.253,2.253,0,0,1,.824,3.077l-11.826,20.483a2.254,2.254,0,0,1-3.077.824l-9.754-5.631" transform="translate(-18527.473 -15219.358)" fill="none" stroke="#fff" stroke-miterlimit="10" stroke-width="2"/>
    <line id="선_62" data-name="선 62" y1="5.631" transform="translate(-18303.168 -15086.277)" fill="none" stroke="#fff" stroke-linejoin="round" stroke-width="2"/>
    <line id="선_63" data-name="선 63" x1="4.585" y1="4.585" transform="translate(-18311.133 -15084.105)" fill="none" stroke="#fff" stroke-linejoin="round" stroke-width="2"/>
    <line id="선_64" data-name="선 64" x1="5.631" transform="translate(-18313.305 -15076.142)" fill="none" stroke="#fff" stroke-linejoin="round" stroke-width="2"/>
  </g>
</svg>
