<svg xmlns="http://www.w3.org/2000/svg" width="44.29" height="45.212" viewBox="0 0 44.29 45.212">
  <g id="그룹_1586" data-name="그룹 1586" transform="translate(-289 -129)">
    <path id="패스_4816" data-name="패스 4816" d="M317.378,160.3a4.053,4.053,0,0,0,3.845-3.845v-8.65c0-3.175-6.272-4.806-9.611-4.806S302,144.631,302,147.806v8.65a4.053,4.053,0,0,0,3.845,3.845" transform="translate(-0.466 -0.505)" fill="none" stroke="#fff" stroke-linejoin="round" stroke-width="2"/>
    <path id="패스_4817" data-name="패스 4817" d="M329.767,162.339c1.869,0,3.845-1.014,3.845-2.883v-8.65c0-3.175-5.646-4.806-8.65-4.806-.3,0-.621.016-.961.048" transform="translate(-1.322 -0.622)" fill="none" stroke="#fff" stroke-linejoin="round" stroke-width="2"/>
    <path id="패스_4818" data-name="패스 4818" d="M311.845,139.611a3.685,3.685,0,0,0,3.845-3.845v-1.922a3.845,3.845,0,0,0-7.689,0v1.922A3.685,3.685,0,0,0,311.845,139.611Z" transform="translate(-0.7)" fill="none" stroke="#fff" stroke-linejoin="round" stroke-width="2"/>
    <line id="선_91" data-name="선 91" y1="22.106" transform="translate(328.445 152.106)" fill="none" stroke="#fff" stroke-linejoin="round" stroke-width="2"/>
    <line id="선_92" data-name="선 92" y1="24.989" transform="translate(316.912 149.223)" fill="none" stroke="#fff" stroke-linejoin="round" stroke-width="2"/>
    <line id="선_93" data-name="선 93" y2="24.989" transform="translate(305.378 149.223)" fill="none" stroke="#fff" stroke-linejoin="round" stroke-width="2"/>
    <line id="선_94" data-name="선 94" y2="15.378" transform="translate(311.145 158.834)" fill="none" stroke="#fff" stroke-linejoin="round" stroke-width="2"/>
    <path id="패스_4819" data-name="패스 4819" d="M324.845,142.611a3.685,3.685,0,0,0,3.845-3.845v-1.922a3.845,3.845,0,1,0-7.689,0v1.922A3.685,3.685,0,0,0,324.845,142.611Z" transform="translate(-1.205 -0.117)" fill="none" stroke="#fff" stroke-linejoin="round" stroke-width="2"/>
    <path id="패스_4820" data-name="패스 4820" d="M293.845,162.339c-1.869,0-3.845-1.014-3.845-2.883v-8.65c0-3.175,5.646-4.806,8.65-4.806.3,0,.621.016.961.048" transform="translate(0 -0.622)" fill="none" stroke="#fff" stroke-linejoin="round" stroke-width="2"/>
    <line id="선_95" data-name="선 95" y1="22.106" transform="translate(293.845 152.106)" fill="none" stroke="#fff" stroke-linejoin="round" stroke-width="2"/>
    <path id="패스_4821" data-name="패스 4821" d="M298.845,142.611A3.685,3.685,0,0,1,295,138.767v-1.922a3.845,3.845,0,1,1,7.689,0v1.922A3.685,3.685,0,0,1,298.845,142.611Z" transform="translate(-0.194 -0.117)" fill="none" stroke="#fff" stroke-linejoin="round" stroke-width="2"/>
  </g>
</svg>
