<svg xmlns="http://www.w3.org/2000/svg" width="42.206" height="50.024" viewBox="0 0 42.206 50.024">
  <g id="그룹_1584" data-name="그룹 1584" transform="translate(18417.102 15088)">
    <path id="패스_1475" data-name="패스 1475" d="M245.964,325.337A14.52,14.52,0,1,1,228.926,303" transform="translate(-18630.518 -15375.481)" fill="none" stroke="#fff" stroke-miterlimit="10" stroke-width="2"/>
    <path id="패스_1476" data-name="패스 1476" d="M232.869,297.948a20.1,20.1,0,1,0,4.467,0v-3.481h3.35V290H229.519v4.467h3.35Z" transform="translate(-18631.102 -15377)" fill="none" stroke="#fff" stroke-miterlimit="10" stroke-width="2"/>
    <ellipse id="타원_211" data-name="타원 211" cx="3.162" cy="3.614" rx="3.162" ry="3.614" transform="translate(-18398.936 -15062.605)" fill="none" stroke="#fff" stroke-miterlimit="10" stroke-width="2"/>
    <line id="선_65" data-name="선 65" y1="11.746" transform="translate(-18396.225 -15074.351)" fill="none" stroke="#fff" stroke-miterlimit="10" stroke-width="2"/>
    <line id="선_66" data-name="선 66" y2="2.711" transform="translate(-18396.225 -15055.377)" fill="none" stroke="#fff" stroke-miterlimit="10" stroke-width="2"/>
    <line id="선_67" data-name="선 67" x1="4.518" y1="4.518" transform="translate(-18381.768 -15081.579)" fill="none" stroke="#fff" stroke-miterlimit="10" stroke-width="2"/>
    <line id="선_68" data-name="선 68" y1="1.807" x2="2.711" transform="translate(-18381.768 -15078.868)" fill="none" stroke="#fff" stroke-miterlimit="10" stroke-width="2"/>
    <line id="선_69" data-name="선 69" y1="4.518" x2="4.518" transform="translate(-18415.197 -15081.579)" fill="none" stroke="#fff" stroke-miterlimit="10" stroke-width="2"/>
    <line id="선_70" data-name="선 70" x1="1.807" y1="1.807" transform="translate(-18412.488 -15078.868)" fill="none" stroke="#fff" stroke-miterlimit="10" stroke-width="2"/>
    <line id="선_71" data-name="선 71" x1="4.518" transform="translate(-18398.031 -15082.482)" fill="none" stroke="#fff" stroke-miterlimit="10" stroke-width="2"/>
  </g>
</svg>
