<svg xmlns="http://www.w3.org/2000/svg" width="50.052" height="50.437" viewBox="0 0 50.052 50.437">
  <g id="그룹_1585" data-name="그룹 1585" transform="translate(18523.076 15088.413)">
    <path id="패스_1486" data-name="패스 1486" d="M331.968,131.971c0-2.6-7.746-6.971-7.746-6.971l-1.764,4.411a17.483,17.483,0,0,1-3.871,5.871l-.057.057a6.974,6.974,0,0,1-4.94,2.053h-.55a6.973,6.973,0,0,1-6.236-3.854l-1.171-2.342-.518.518a3.874,3.874,0,0,0-.857,4.177l1.567,3.918a6.965,6.965,0,0,1,.486,3.023l-.428,6.853a7.746,7.746,0,0,1-3.626,6.085l-6.234,3.9a4.166,4.166,0,0,0-1.764,4.794v0a2.279,2.279,0,0,0,2.171,1.589h9.577a13.939,13.939,0,0,0,8.925-3.232l4.558-3.8a6.191,6.191,0,0,0,1.414-1.686l1.87-3.273a6.2,6.2,0,0,1,1.778-1.968l3.806-2.718a6.186,6.186,0,0,0,.939-.826l7.417-7.987a3.1,3.1,0,0,0-.287-4.489l-2.136-1.78L325.287,144.8a6.311,6.311,0,0,1-.624.631l-4.945,4.327a6.2,6.2,0,0,0-1.462,1.892l-2.008,4.017a6.187,6.187,0,0,1-1.462,1.892l-1.337,1.17a13.942,13.942,0,0,1-9.181,3.45h-9.478" transform="translate(-18816.063 -15205.028)" fill="none" stroke="#fff" stroke-linecap="round" stroke-linejoin="round" stroke-width="2"/>
    <line id="선_78" data-name="선 78" x2="2.324" transform="translate(-18509.654 -15053.692)" fill="none" stroke="#fff" stroke-linecap="round" stroke-linejoin="round" stroke-width="2"/>
    <line id="선_79" data-name="선 79" x2="3.098" transform="translate(-18509.654 -15057.565)" fill="none" stroke="#fff" stroke-linecap="round" stroke-linejoin="round" stroke-width="2"/>
    <line id="선_80" data-name="선 80" x2="3.098" transform="translate(-18508.881 -15061.438)" fill="none" stroke="#fff" stroke-linecap="round" stroke-linejoin="round" stroke-width="2"/>
    <line id="선_81" data-name="선 81" x1="8.52" y1="9.295" transform="translate(-18518.176 -15087)" fill="none" stroke="#fff" stroke-linecap="round" stroke-linejoin="round" stroke-width="2"/>
    <line id="선_82" data-name="선 82" x1="3.873" y1="4.647" transform="translate(-18499.586 -15087)" fill="none" stroke="#fff" stroke-linecap="round" stroke-linejoin="round" stroke-width="2"/>
    <line id="선_83" data-name="선 83" x2="8.52" transform="translate(-18482.545 -15052.919)" fill="none" stroke="#fff" stroke-linecap="round" stroke-linejoin="round" stroke-width="2"/>
    <line id="선_84" data-name="선 84" x2="8.52" transform="translate(-18489.516 -15046.723)" fill="none" stroke="#fff" stroke-linecap="round" stroke-linejoin="round" stroke-width="2"/>
    <line id="선_85" data-name="선 85" x2="10.844" transform="translate(-18485.643 -15040.525)" fill="none" stroke="#fff" stroke-linecap="round" stroke-linejoin="round" stroke-width="2"/>
    <line id="선_86" data-name="선 86" x2="0.775" transform="translate(-18477.896 -15046.723)" fill="none" stroke="#fff" stroke-linecap="round" stroke-linejoin="round" stroke-width="2"/>
  </g>
</svg>
