<svg xmlns="http://www.w3.org/2000/svg" width="50.737" height="43.688" viewBox="0 0 50.737 43.688">
  <g id="그룹_1582" data-name="그룹 1582" transform="translate(18221.152 15086.004)">
    <path id="패스_1479" data-name="패스 1479" d="M330.3,143.656a5.3,5.3,0,0,1-5.3,5.3h0" transform="translate(-18532.439 -15220.181)" fill="none" stroke="#fff" stroke-miterlimit="10" stroke-width="2"/>
    <path id="패스_1480" data-name="패스 1480" d="M326.773,173.1h-9.535A4.238,4.238,0,0,1,313,168.864V158.437a5.3,5.3,0,0,1,3.487-4.978l6.049-1.814v-3.3a5.268,5.268,0,0,1-2.119-4.214v-2.951a5.451,5.451,0,0,1,4.777-5.5,5.3,5.3,0,0,1,5.818,5.272v3.178a5.268,5.268,0,0,1-2.119,4.214v3.3l6.072,1.849a5.3,5.3,0,0,1,3.463,4.97" transform="translate(-18533.152 -15220.656)" fill="none" stroke="#fff" stroke-linecap="round" stroke-linejoin="round" stroke-width="2"/>
    <path id="패스_1481" data-name="패스 1481" d="M326.476,162l4.238,4.238H318" transform="translate(-18532.855 -15219.09)" fill="none" stroke="#fff" stroke-linecap="round" stroke-linejoin="round" stroke-width="2"/>
    <line id="선_76" data-name="선 76" y2="4.238" transform="translate(-18215.914 -15047.554)" fill="none" stroke="#fff" stroke-linecap="round" stroke-linejoin="round" stroke-width="2"/>
    <path id="패스_1482" data-name="패스 1482" d="M340.321,171.966l3.228-10.657-.185-.278L331.745,161l-4.4,14.666.167.167h9.318" transform="translate(-18532.299 -15219.149)" fill="none" stroke="#fff" stroke-miterlimit="10" stroke-width="2"/>
    <path id="패스_1483" data-name="패스 1483" d="M340.638,175.238H336.4v-3.1l.848-1.139h5.085v1.7Z" transform="translate(-18531.762 -15218.554)" fill="none" stroke="#fff" stroke-miterlimit="10" stroke-width="2"/>
    <path id="패스_1484" data-name="패스 1484" d="M342,143.656a5.3,5.3,0,0,0,5.3,5.3h0" transform="translate(-18531.428 -15220.181)" fill="none" stroke="#fff" stroke-miterlimit="10" stroke-width="2"/>
    <path id="패스_1485" data-name="패스 1485" d="M360.205,177.34v-18.9a5.3,5.3,0,0,0-3.487-4.978l-6.049-1.814v-3.3a5.268,5.268,0,0,0,2.119-4.214v-2.951a5.451,5.451,0,0,0-4.777-5.5,5.3,5.3,0,0,0-5.818,5.272v3.178a5.268,5.268,0,0,0,2.119,4.214v3.3l-5.582,1.792" transform="translate(-18531.621 -15220.656)" fill="none" stroke="#fff" stroke-linecap="round" stroke-linejoin="round" stroke-width="2"/>
    <line id="선_77" data-name="선 77" y2="12.714" transform="translate(-18176.715 -15056.03)" fill="none" stroke="#fff" stroke-linecap="round" stroke-linejoin="round" stroke-width="2"/>
  </g>
</svg>
