<svg xmlns="http://www.w3.org/2000/svg" width="96.069" height="70.326" viewBox="0 0 96.069 70.326">
  <g id="그룹_808" data-name="그룹 808" transform="translate(1.5 1.5)">
    <g id="그룹_806" data-name="그룹 806" transform="translate(0 0)">
      <path id="패스_4789" data-name="패스 4789" d="M1735.854,1042.826v-14.907a3.961,3.961,0,0,0-7.921,0v8.967" transform="translate(-1720.013 -1019.064)" fill="none" stroke="#3d3d3d" stroke-linecap="round" stroke-linejoin="round" stroke-width="3"/>
      <path id="패스_4790" data-name="패스 4790" d="M1748.871,1034.783v-19.935a3.963,3.963,0,0,1,7.921,0v21.915" transform="translate(-1733.03 -1011.021)" fill="none" stroke="#3d3d3d" stroke-linecap="round" stroke-linejoin="round" stroke-width="3"/>
      <path id="패스_4791" data-name="패스 4791" d="M1769.807,1030.832a3.961,3.961,0,0,1,7.922,0l-.02,13.805" transform="translate(-1746.045 -1020.875)" fill="none" stroke="#3d3d3d" stroke-linecap="round" stroke-linejoin="round" stroke-width="3"/>
      <path id="패스_4792" data-name="패스 4792" d="M1724.418,1149.575c1.98,1.98,3.311,3.326,3.311,7.387v3.56" transform="translate(-1717.828 -1097.157)" fill="none" stroke="#3d3d3d" stroke-linecap="round" stroke-linejoin="round" stroke-width="3"/>
      <path id="패스_4793" data-name="패스 4793" d="M1796.46,1158.88a5.667,5.667,0,0,0-.486,2.42v5.007" transform="translate(-1762.313 -1102.941)" fill="none" stroke="#3d3d3d" stroke-linecap="round" stroke-linejoin="round" stroke-width="3"/>
      <path id="패스_4794" data-name="패스 4794" d="M1790.744,1048.855a3.961,3.961,0,1,1,7.921,0l0,5.006" transform="translate(-1759.061 -1032.079)" fill="none" stroke="#3d3d3d" stroke-linecap="round" stroke-linejoin="round" stroke-width="3"/>
      <path id="패스_4795" data-name="패스 4795" d="M1722.7,1182.471v-3.96h31.683v3.96" transform="translate(-1716.762 -1115.145)" fill="none" stroke="#3d3d3d" stroke-linecap="round" stroke-linejoin="round" stroke-width="3"/>
      <path id="패스_4796" data-name="패스 4796" d="M1712.941,1098.469s-5.941-5.94-5.941-9.9v-18.349a2.866,2.866,0,0,1,4.155-2.545c2.173,1.076,3.764,3.22,3.764,6.9h0v8.05a22.3,22.3,0,0,1,9.9,7.12" transform="translate(-1707 -1046.051)" fill="none" stroke="#3d3d3d" stroke-linecap="round" stroke-linejoin="round" stroke-width="3"/>
    </g>
    <g id="그룹_807" data-name="그룹 807" transform="translate(53.465 0)">
      <path id="패스_4797" data-name="패스 4797" d="M1911.129,1042.826v-14.907a3.961,3.961,0,0,1,7.921,0v8.967" transform="translate(-1887.366 -1019.064)" fill="none" stroke="#3d3d3d" stroke-linecap="round" stroke-linejoin="round" stroke-width="3"/>
      <path id="패스_4798" data-name="패스 4798" d="M1898.113,1034.783v-19.935a3.963,3.963,0,0,0-7.921,0v21.915" transform="translate(-1874.35 -1011.021)" fill="none" stroke="#3d3d3d" stroke-linecap="round" stroke-linejoin="round" stroke-width="3"/>
      <path id="패스_4799" data-name="패스 4799" d="M1877.177,1030.832a3.961,3.961,0,0,0-7.922,0l.019,13.805" transform="translate(-1861.334 -1020.875)" fill="none" stroke="#3d3d3d" stroke-linecap="round" stroke-linejoin="round" stroke-width="3"/>
      <path id="패스_4800" data-name="패스 4800" d="M1930.141,1149.575c-1.981,1.98-3.311,3.326-3.311,7.387v3.56" transform="translate(-1897.127 -1097.157)" fill="none" stroke="#3d3d3d" stroke-linecap="round" stroke-linejoin="round" stroke-width="3"/>
      <path id="패스_4801" data-name="패스 4801" d="M1862.741,1158.88a5.674,5.674,0,0,1,.486,2.42v5.007" transform="translate(-1857.285 -1102.941)" fill="none" stroke="#3d3d3d" stroke-linecap="round" stroke-linejoin="round" stroke-width="3"/>
      <path id="패스_4802" data-name="패스 4802" d="M1856.24,1048.855a3.961,3.961,0,1,0-7.921,0l0,5.006" transform="translate(-1848.319 -1032.079)" fill="none" stroke="#3d3d3d" stroke-linecap="round" stroke-linejoin="round" stroke-width="3"/>
      <path id="패스_4803" data-name="패스 4803" d="M1885.236,1182.471v-3.96h-31.683v3.96" transform="translate(-1851.573 -1115.145)" fill="none" stroke="#3d3d3d" stroke-linecap="round" stroke-linejoin="round" stroke-width="3"/>
      <path id="패스_4804" data-name="패스 4804" d="M1917.774,1098.469s5.941-5.94,5.941-9.9v-18.349a2.866,2.866,0,0,0-4.155-2.545c-2.173,1.076-3.764,3.22-3.764,6.9h0l0,8.05a22.3,22.3,0,0,0-9.9,7.12" transform="translate(-1884.111 -1046.051)" fill="none" stroke="#3d3d3d" stroke-linecap="round" stroke-linejoin="round" stroke-width="3"/>
    </g>
    <path id="패스_4805" data-name="패스 4805" d="M1801.352,1112.02c8.258-5.716,15.806-9.521,15.841-17.437.026-5.8-3.33-10.191-8.9-10.218-2.481-.012-5.181,1.7-6.944,4.384-1.738-2.7-4.294-4.44-6.775-4.452-5.568-.027-9.039,4.329-9.066,10.13C1785.475,1102.343,1793.146,1106.223,1801.352,1112.02Z" transform="translate(-1755.808 -1056.576)" fill="none" stroke="#3d3d3d" stroke-linecap="round" stroke-linejoin="round" stroke-width="3"/>
  </g>
</svg>
