<svg xmlns="http://www.w3.org/2000/svg" width="49.263" height="47.274" viewBox="0 0 49.263 47.274">
  <g id="그룹_822" data-name="그룹 822" transform="translate(-125.488 -98.384)">
    <path id="패스_1033" data-name="패스 1033" d="M184.465,98.384H163.046l-14.878,23.637,14.878,23.637h22.337l-16.446-24.172Z" transform="translate(-10.632)" fill="#e60019" fill-rule="evenodd"/>
    <g id="그룹_821" data-name="그룹 821" transform="translate(125.488 98.384)">
      <path id="패스_1034" data-name="패스 1034" d="M145.835,105.689l1.377,1.186v24.746l-1.147,3.94-.23,1.492v8.606H125.488V98.384h20.348Z" transform="translate(-125.488 -98.384)" fill="#0e2350" fill-rule="evenodd"/>
      <g id="그룹_820" data-name="그룹 820" transform="translate(2.858 3.595)">
        <g id="그룹_819" data-name="그룹 819" transform="translate(0.584 0.076)">
          <path id="패스_1035" data-name="패스 1035" d="M142.435,109.35c.038-.038.076-.038.115-.076a4.051,4.051,0,0,0,.382-.459.8.8,0,0,1,.229-.153c.077-.076.115-.153.153-.191a4.17,4.17,0,0,0,.421-.229.528.528,0,0,0,.153-.115c.076-.076.153-.076.229-.115.076-.076.153-.115.229-.191.038-.038.115-.038.153-.076a.528.528,0,0,0,.153-.115c.038,0,.115-.038.153-.038a2.68,2.68,0,0,1,.382-.306c.115-.076.229-.076.344-.153.038-.038.077-.038.115-.076a.836.836,0,0,1,.191-.115.709.709,0,0,0,.268-.076c.076,0,.115-.038.191-.076a.2.2,0,0,1,.153-.076,2.436,2.436,0,0,1,.268-.076c.038-.038.115-.076.191-.153a.23.23,0,0,0,.153-.038c.115-.038.229-.115.344-.153.077,0,.153-.076.191-.076a.709.709,0,0,1,.268-.076c.038-.038.076-.038.115-.076h.191a1.663,1.663,0,0,0,.268-.153.553.553,0,0,0,.268-.076h.191c.191-.038.344-.115.5-.153s.306-.038.421-.076a1.132,1.132,0,0,1,.382-.076h.191c.076,0,.191-.038.306-.038s.191-.076.306-.115v-.038c-.076,0-.153-.038-.268-.038h0a.037.037,0,0,1-.038.038h-.229a.141.141,0,0,1-.115.038c-.076,0-.153-.038-.229,0h0c-.115,0-.191-.038-.268,0a.2.2,0,0,1-.153.076h-.191a1.216,1.216,0,0,1-.344.115c-.076.038-.153,0-.229.038a3.612,3.612,0,0,1-.344.115.485.485,0,0,1-.229.038c-.038,0-.115.038-.153.038a.544.544,0,0,1-.229.076c-.076.038-.153.038-.229.076h-.077c-.115,0-.153.076-.229.076a2.636,2.636,0,0,0-.306.115,4.646,4.646,0,0,0-.765.344,2.156,2.156,0,0,1-.459.153c-.115.038-.191.115-.306.153-.038.038-.077.038-.115.076-.038,0-.077.038-.115.076-.076,0-.115.038-.191.076-.077,0-.115.076-.191.115a.141.141,0,0,0-.115.038l-.115.115c-.076.038-.153,0-.229.038s-.115.115-.191.191a.8.8,0,0,0-.229.153c-.038.038-.115.076-.153.115a.292.292,0,0,1-.191.076c-.038.038-.076.115-.115.153-.076.038-.115.076-.191.115-.077.076-.153.115-.229.191-.038,0-.038,0-.077.038-.115.038-.076.115-.229.153a.621.621,0,0,1-.191.344l-.115.115c0,.038-.038.076-.076.115-.191.153-.459.268-.535.459a.037.037,0,0,0-.038.038A1.042,1.042,0,0,0,142.435,109.35Z" transform="translate(-136.66 -105.296)" fill="#fff" fill-rule="evenodd"/>
          <path id="패스_1036" data-name="패스 1036" d="M140.68,114.107a.515.515,0,0,0,.344-.191c.038-.076.153-.191.076-.268a1.455,1.455,0,0,0-.421.421h0Z" transform="translate(-136.052 -109.211)" fill="#fff" fill-rule="evenodd"/>
          <path id="패스_1037" data-name="패스 1037" d="M133.235,137.961v.191a.842.842,0,0,0,.038.306.345.345,0,0,0,.038.191c0,.153-.191.535-.191.65v.229a1.919,1.919,0,0,1,.076.459c0,.076.038.115.038.153,0,.076.076.115.115.191v.153h0c0,.038.115-.038.153-.038,0-.038-.076-.076-.076-.153.038-.038.038-.077.038-.153.038-.077-.038-.153-.038-.229a1.657,1.657,0,0,0,.038-.191c-.038-.115.038-.268,0-.382a1.215,1.215,0,0,1,.115-.344c0-.076-.076-.115-.038-.191,0-.076.077-.115.077-.191a1.656,1.656,0,0,0-.038-.191v-.268A.29.29,0,0,0,133.5,138v-.153c0-.038-.038-.076-.038-.115v-.153c0-.076-.038-.115-.038-.153,0-.076.076-.153,0-.229v-.038h-.038a.037.037,0,0,0-.038-.038c-.076.115-.038.268-.038.421A1.181,1.181,0,0,0,133.235,137.961Z" transform="translate(-132.508 -120.215)" fill="#fff" fill-rule="evenodd"/>
          <path id="패스_1038" data-name="패스 1038" d="M132.389,150.669c0-.077-.038-.115-.038-.191v-.229l-.115-.344v-.115c0-.076-.038-.115-.038-.191a1.273,1.273,0,0,0-.229-.382,4.5,4.5,0,0,0,.115.8.823.823,0,0,1,0,.306c.038.077.076.191.115.268a.23.23,0,0,0,.038.153c0,.038.038.076.076.038C132.35,150.784,132.427,150.708,132.389,150.669Z" transform="translate(-131.968 -125.885)" fill="#fff" fill-rule="evenodd"/>
        </g>
        <path id="패스_1039" data-name="패스 1039" d="M164.077,122.631a1.359,1.359,0,0,0-.153-.344.134.134,0,0,1-.077.038h0v-.076h0c.115,0,.115-.115.115-.229a.037.037,0,0,1,.038.038c0-.038.038-.038.038,0h.038c0-.077-.153-.268-.153-.344a1.626,1.626,0,0,1-.077-.421.544.544,0,0,1-.076-.229v-.229a.544.544,0,0,0-.077-.229,1.117,1.117,0,0,0-.076-.344,5.486,5.486,0,0,0-.153-.841l-.344-1.147v-.153a.345.345,0,0,1-.038-.191c-.038-.076-.076-.191-.115-.268a1.117,1.117,0,0,0-.077-.344.543.543,0,0,0-.076-.229c0-.115-.038-.191-.038-.306a1.861,1.861,0,0,0-.115-.268l-.115-.344a.672.672,0,0,0-.153-.191.646.646,0,0,0-.076-.191l-.229-.574c-.076-.191-.153-.382-.229-.535a3.53,3.53,0,0,1-.191-.306.646.646,0,0,1-.077-.191.528.528,0,0,0-.115-.153c-.038-.038-.038-.076-.076-.115,0-.076-.077-.076-.115-.115a1.657,1.657,0,0,1-.038-.191c0-.038-.038-.077-.077-.115-.038,0-.038-.038-.076-.076s-.038-.115-.077-.153h0l-.038.038c-.077,0-.115-.038-.191-.076-.038-.076-.038-.115-.076-.191a.8.8,0,0,1-.153-.229c-.038-.076-.076-.115-.115-.191a1.664,1.664,0,0,1-.229-.268c-.038-.038,0-.115-.038-.153a.836.836,0,0,1-.191-.115,2.256,2.256,0,0,1-.153-.306c-.076-.076-.153-.076-.191-.191-.038-.076.038-.153.038-.229a.141.141,0,0,1,.115.076h.076a2.635,2.635,0,0,1-.115-.306c-.038,0-.038-.038-.076-.038h0c-.038,0,0,0-.038.038a1.657,1.657,0,0,1,.038.191l-.038.038c-.153.038-.229-.115-.268-.229.268.038.191-.153.038-.268-.038,0-.115-.038-.153-.038-.077,0-.115.038-.191,0-.038-.038-.038-.076-.076-.115s-.077-.038-.115-.076c-.038-.076,0-.153,0-.268-.038-.038-.038-.115-.077-.153h-.038l-.038.115a.8.8,0,0,1-.229-.153c-.038-.076,0-.115-.076-.191a.141.141,0,0,0-.115-.038.528.528,0,0,0-.153-.115c-.076-.076-.115-.191-.191-.268l-.115-.115c-.038-.038-.076-.038-.115-.076,0-.038.038-.115,0-.153a.646.646,0,0,0-.077-.191c0-.038-.038-.038-.076-.038-.038-.038-.115-.076-.115-.153h0c.077,0,.115.038.191.038,0-.038-.115-.115-.153-.153a3.3,3.3,0,0,0-.535-.5,1.62,1.62,0,0,1-.268-.191c-.115-.077-.191-.191-.306-.268l-.229-.115-.153-.153-.115-.115c-.038-.038-.115-.038-.153-.076l-.115-.115c-.076,0-.115-.038-.191-.076a1.922,1.922,0,0,0-.459-.306c-.076-.038-.153-.038-.229-.076-.038,0-.077-.038-.115-.076l-.229-.115a1.122,1.122,0,0,0-.382-.115,2.866,2.866,0,0,0-.612-.191.553.553,0,0,1-.268-.076.2.2,0,0,0-.153-.076c-.115-.038-.229-.038-.306-.076-.076,0-.153-.076-.229-.038a.2.2,0,0,1-.153-.077c-.076-.038-.153-.038-.191-.076-.077,0-.115.038-.153.038a.345.345,0,0,0-.191-.038c-.076-.038-.115-.076-.191-.076a.544.544,0,0,0-.229-.076.14.14,0,0,1-.115-.038.553.553,0,0,1-.268-.076c-.115,0-.191-.038-.306-.038-.229-.038-.5-.115-.765-.153-.115,0-.306-.076-.421-.038-.191,0-.344-.076-.5-.076H148.7c-.076,0-.115.038-.191,0a2.021,2.021,0,0,0-.5-.038h-.229a.345.345,0,0,0-.191-.038h-.344c-.038,0,0,.038,0,.038.076.038.191,0,.268.038.076,0,.115,0,.153.038a.23.23,0,0,1,.153.038h0c-.038,0-.038.038-.077.076h-.153a.416.416,0,0,0-.191.038,2.162,2.162,0,0,0-.5,0h-.076a.913.913,0,0,0-.344.076h-.077a.72.72,0,0,0-.306.076c-.077,0-.153.038-.229.038a.567.567,0,0,0-.268.038h-.459c-.077.038-.115.038-.153.076h-.115a.914.914,0,0,0-.344.115h-.115c-.076.038-.191.076-.268.115a.709.709,0,0,0-.268.076.416.416,0,0,0-.191.038c-.153,0-.229.076-.382.115-.038.038-.115,0-.191.038-.038,0-.076.038-.153.038-.038,0-.076.038-.115.038a.544.544,0,0,0-.229.076c-.038,0-.077,0-.077.038a.55.55,0,0,1-.076.115c-.076.038-.153.038-.191.076-.038,0-.038,0-.038.038h-.076v.038h-.153a.134.134,0,0,0-.076.038.141.141,0,0,1-.115.038c-.038.038-.076.038-.076.076-.038,0-.076.038-.153.076-.038.038-.076.038-.153.076s-.115.076-.191.115a.2.2,0,0,0-.153.076c-.038,0-.076.038-.115.038l-.153.153c-.076,0-.115.038-.191.038a.836.836,0,0,0-.191.115c-.038,0-.076.038-.115.038-.076.076-.153.076-.229.115l-.574.344-.076.076c-.115.076-.191.115-.306.191l-.153.153c-.038.038-.038.076-.076.076a2.137,2.137,0,0,1-.306.191c-.077.076-.038.191-.077.268-.077.115-.229.038-.306.115s-.115.153-.153.191a.8.8,0,0,1-.229.153c-.038.038-.077.115-.115.153-.038,0-.076.153-.115.191a.461.461,0,0,1-.191.191,1.767,1.767,0,0,0-.268.268c-.038,0-.076.038-.115.076s-.115.076-.153.115h0v.038c-.038,0,0-.038,0-.038.038-.076.076-.115.115-.191,0-.038.038-.076.076-.153-.076,0-.421.344-.5.421a.686.686,0,0,1-.191.268h.038v.038c0-.038.153-.076.153-.076h0c.038,0,0,.038,0,.038,0,.038-.115.115-.153.115h-.153c-.076.076-.459.421-.421.459a.122.122,0,0,0,.115.115h0v.038c-.229,0-.077.115-.191.191h-.229v.076h0c0,.038.076.038.076.038v.038h-.076c-.076-.038-.153.038-.191.115-.038,0,.038.038.038.038h.115c0,.115-.229.306-.306.421-.038.038-.038.076-.076.115h-.076V112.5c-.038,0-.038.038-.077.038-.038.038.038.115,0,.153l-.153.153c-.038.038-.076.115-.115.153-.038,0-.038.191-.076.191-.038.038-.077.076-.077.115a.528.528,0,0,1-.115.153c-.076.115-.115.229-.191.344-.038.076-.077.115-.115.191a2.256,2.256,0,0,1-.153.306c-.038.038-.077.115-.115.153-.038.076-.038.191-.077.268-.038.153-.115.191-.191.306,0,.076-.038.191-.038.229h0v.038h.038a.134.134,0,0,1,.038-.076h0a.037.037,0,0,1,.038-.038v.153c-.038.038-.076,0-.115.038a.314.314,0,0,0-.229.153v.229h0v.038c.038,0,.076-.038.115-.038a.037.037,0,0,0,.038.038c0,.115-.229.191-.268.191l-.038.038h0c-.038.038-.076.076-.076.115h0a.133.133,0,0,1,.038.076c.076.076-.038.153-.076.229-.038.115-.038.153-.076.268-.038,0-.038-.038-.076-.076h0v.038c-.038,0-.038.077-.038.077v.076c.038.076.038.153.076.229s.115.153.076.229-.153.115-.191.229c0,.038-.038.076,0,.115h.077c.115,0,.076-.076.153-.115.038-.038.076-.076.076-.115a.141.141,0,0,0,.038-.115c.038-.076.077-.115.115-.191a.289.289,0,0,1,.038-.153c0-.077.153.038.153-.153-.038,0-.191-.076-.153-.153.038-.038.153-.038.191-.038.038-.115.076-.153-.115-.115v-.115c.038-.038,0-.191.115-.191a.141.141,0,0,0,.115-.038v-.115a.141.141,0,0,0,.115.038h0v-.076c0-.076-.115-.038-.153-.115,0,0,.115-.229.153-.229,0-.038.038-.038.038-.076.038-.038,0-.115,0-.153.038-.038.077-.076.077-.115.076-.076.153-.344.306-.191.038.038.077.076.077.115.038.038,0,.115-.038.153,0,.076-.038.153-.038.229l-.115.115c0,.038-.038.115-.038.153a2.018,2.018,0,0,0-.115.459c-.038.076-.115.153-.115.229v.153l-.115.229v.153c-.038.115-.038.229-.076.344v.153c-.038.038-.153.076-.153.153l-.115.574c0,.076-.115.153-.115.229v.191c0,.038-.038.115-.038.153,0,.076-.038.115-.038.153v.153c0,.153-.038.344-.038.535-.038.076-.038.153-.076.229a4.177,4.177,0,0,1-.191.65v.153c-.038.038-.038.076-.076.076h-.038c0-.038-.038-.076-.038-.115a.141.141,0,0,1-.038-.115c0-.038-.038-.077-.038-.115v-.115c-.038,0-.038-.038-.038-.076s.077-.038.115-.076v-.076h-.038c-.038,0-.038-.038-.038-.077a.416.416,0,0,0,.038-.191h0v-.038h.038a.485.485,0,0,1-.038-.229h0l-.077-.076c0-.038.038-.076.038-.153a1.551,1.551,0,0,1,.115-.382h0c.077.038.115.076.153.076h.038c0-.115-.115-.115-.153-.191s-.038-.306.115-.268c.038,0,.076.038.115.076,0,.038,0,0,.038,0V118.5c-.038-.115-.076-.115-.191-.115,0-.076-.038-.115-.038-.191.076,0,.115-.076.153-.153-.115,0,.038-.229-.153-.268-.038.038-.038.115-.077.191a.292.292,0,0,0-.076.191.97.97,0,0,0-.077.459.141.141,0,0,0-.038.115,8.179,8.179,0,0,0-.268.956.364.364,0,0,0,.076.268,1.179,1.179,0,0,0-.038.382.381.381,0,0,0-.038.153.9.9,0,0,0-.077.306c0,.076.077.115.077.191,0,0-.077.038-.077.076v.038c0,.077.077-.038.077-.038a.053.053,0,0,1,.076,0,.037.037,0,0,1,.038.038c0,.077,0,.115.038.153,0,.038.038.076.038.153v.191c.077.229.153.229.268.038.153,0,.153.153.191.229a.951.951,0,0,1,.038.306v.191c0,.038.038.115,0,.191,0,.076-.076.115-.038.191,0,.076.038.153.038.229s.038.077.038.153-.038.153-.038.268a.292.292,0,0,1,.076.191,3.967,3.967,0,0,0-.153.382c0,.038.038.038.076.115,0,.038-.038.115-.038.153.038.076.038.153.076.229,0,.076-.038.115-.038.191s.038.115.038.191c-.038.077-.076.115-.038.191,0,.038.038.076.076.115v.382c.038.038.038.115.076.153v.153a.586.586,0,0,1-.076.5c-.076,0-.076-.153-.153-.153-.153,0,0,.382-.191.421.038.038-.115-.382-.076-.459,0-.153.268,0,.153-.306-.038,0-.038-.038-.076-.038-.115-.038-.115.076-.191.115-.038.038-.076,0-.153,0-.038,0-.076.038-.115.038-.077,0-.153-.115-.191-.153a1010.609,1010.609,0,0,1-.229.076,1.614,1.614,0,0,0-.115.459c-.115,0-.076-.229-.115-.306-.077-.115,0-.115-.115-.153-.038-.038-.077-.115-.115-.153a.536.536,0,0,1,0-.421c0-.038.076-.076.076-.115s-.038-.077-.038-.115a1.04,1.04,0,0,0,0-.344c0-.077-.076-.115-.076-.191a.23.23,0,0,1,.038-.153.651.651,0,0,0-.038-.268.23.23,0,0,0-.038-.153V123.7c-.038-.115.038-.268,0-.382,0-.077.038-.191.038-.306,0-.076.038-.115.038-.229,0-.076.038-.153.038-.229s-.038-.153-.038-.268c.038-.076.038-.191.076-.268v-.076c.038-.076-.038-.115-.076-.153v-.229a.141.141,0,0,1,.038-.115v-.421c.038-.076.077-.115.077-.191s.038-.268.038-.344.038-.191.038-.268v-.153c.038-.076.038-.115.076-.153v-.153c0-.038.038-.076.038-.115,0-.076-.038-.153-.038-.229.038-.076.191-.153.229-.229A.345.345,0,0,1,131.8,119c0-.076.038-.191.038-.306a.544.544,0,0,1,.076-.229v-.268a8.044,8.044,0,0,0,.229-.918c.038-.038.038-.344.115-.459a1.162,1.162,0,0,1,.191-.268h-.038a.141.141,0,0,1-.038-.115c.038-.038.038-.076.076-.115a.544.544,0,0,1,.077-.229.29.29,0,0,0,.076-.153c.038-.115,0-.115.038-.191s0-.115.038-.153v-.115c.038-.038.038-.077.076-.115s.038-.115.076-.153c.038-.076.038-.115.077-.191.076-.115.153-.382.229-.535v-.115l.153-.153.115-.229c.038-.038.076-.038.115-.076.038-.076.038-.191.076-.268.038-.038.115-.153.191-.191,0-.038.038-.076.077-.115a2.573,2.573,0,0,1,.268-.421.3.3,0,0,1,.153-.153c.038-.038,0-.115.038-.191.038,0-.038,0-.038-.038a.671.671,0,0,0,.153-.191c.038-.076.077-.115.077-.153.076-.076.115-.153.153-.191l.229-.229a1.915,1.915,0,0,1,.268-.306c.038,0,.076-.038.115-.076s.038-.115.115-.153a2.774,2.774,0,0,1,.191-.344.528.528,0,0,1,.115-.153c.038-.038.076-.076.115-.076a.2.2,0,0,1,.076-.153c.038-.076.115-.115.153-.229h0c0-.038-.038,0-.038-.038v.038a.21.21,0,0,0-.191.115c-.038,0-.038.038-.038.076a.528.528,0,0,0-.153.115c-.038,0-.076,0-.076.038a.141.141,0,0,0-.038.115l-.115.115c-.038.038-.076.115-.115.153h-.115v.076a.8.8,0,0,0-.153.229c-.038,0-.076-.038-.115-.038l-.038.038v.115c-.038.038-.076.038-.076.076-.038.038-.077.115-.115.153s-.077.115-.153.153a1.162,1.162,0,0,1-.191.268c0,.038-.076.076-.115.115s-.038.076-.076.115-.115.076-.153.115c-.077.115,0,.191-.077.306-.038.038-.115.115-.115.153-.038.038-.038.076-.076.115l-.115.115a.8.8,0,0,1-.153.229c-.038.077-.038.115-.077.191-.076.077-.115.153-.191.229a4.488,4.488,0,0,0-.191.421c-.038.038-.076.191-.115.229-.076.115-.115.268-.191.382,0,.038-.038.077-.038.115a.289.289,0,0,0-.038.153c-.038.077-.038.115-.076.191v.115l-.115.115a.292.292,0,0,0-.077.191c-.038.115-.076.191-.115.306-.038.038-.038.076-.038.153a18.091,18.091,0,0,0-.994,3.978,4.312,4.312,0,0,1-.115.688,2.9,2.9,0,0,1-.038.574.23.23,0,0,1-.038.153c0,.076.038.115.038.153a.23.23,0,0,1-.038.153v.5c0,.077-.038.115-.038.191a.544.544,0,0,0,.076.229c0,.038-.076.038-.076.115a2.507,2.507,0,0,0,0,.535v.229c-.038.077-.115.268-.076.344,0,.038.038.077.038.153v.115a.289.289,0,0,0,.038.153v.574a.485.485,0,0,1,.038.229.141.141,0,0,0,.038.115c0,.077-.038.153-.038.229v.382c.038.038.038.076.076.153,0,.076.038.115.038.191a.745.745,0,0,0,.038.306v.038h.038v-.115h.038c.076,0,.115.076.229.076s.076-.076.229-.076c.038,0,.076.038.115.038a.509.509,0,0,1,.191.115c.038,0,.038.038.076.115,0,.038-.038.115.038.153.038,0,.153-.076.268-.038s.038.306,0,.344l-.038-.038c-.115,0-.382.459-.306.5s.115,0,.153,0v-.038c.038,0,.038.038.038.076a.289.289,0,0,1,.038.153.842.842,0,0,1,.038.306c0,.076.229-.153.229-.076.038.038.038.115.076.153a1.13,1.13,0,0,0,.076.5.29.29,0,0,0,.076.153c.038.038.115.076.115.153v.115c0,.038.076.076.038.153s-.077.076-.077.153h0v.038c0,.076.038.115.077.191.038,0,.038.038.076.076a.14.14,0,0,1-.038.115c0,.115-.076.344,0,.421v.038c0,.038.038,0,.038,0,.153,0,.153.153.153.268-.038,0-.076.038-.115.038,0,.191.153.115.229.229.038.115.038.229.076.306a.973.973,0,0,1,.076.268c0,.038.038.115.038.153.038.115.191.153.191.268a.134.134,0,0,0-.076.038.325.325,0,0,0,.115.191.9.9,0,0,0,.076.306.289.289,0,0,0,.038.153c0,.038.038.076.077.115a.973.973,0,0,1,.076.268c.038.153.153.382.115.535-.076,0-.115-.038-.191-.038h0c0,.153.038.459.191.5s.115-.153.115-.229h0c.038,0,.038,0,.038.038.038.038.038.076.076.115a.2.2,0,0,0,.077.153c.038.077.038.115.076.191,0,.038.077.077.038.115-.038.115-.229.115-.344.153-.115,0-.153-.038-.153-.153a.141.141,0,0,0-.038-.115h-.153v.038a.14.14,0,0,0,.038.115.3.3,0,0,0,0,.268,2.253,2.253,0,0,1-.153-.306.834.834,0,0,1-.153-.191.436.436,0,0,1-.115-.229l-.076-.077a.345.345,0,0,0-.038-.191h-.038l-.038-.115c.076-.153-.153-.5-.191-.574v-.038a.686.686,0,0,0-.153-.306c-.115-.115,0-.229-.038-.268v-.153c-.038-.038-.076-.038-.076-.076,0-.076-.076-.076-.076-.115-.038-.115-.115-.153-.153-.229v-.115c0-.076-.038-.076-.038-.153-.038-.038-.038-.115-.076-.191-.038-.038-.077-.191-.115-.229,0-.038.038-.115.038-.153a.345.345,0,0,1-.038-.191.622.622,0,0,0-.459-.459.235.235,0,0,0-.038.229c0,.038.038.076.038.115.038.038,0,.115.038.153s.115.038.115.076a.842.842,0,0,1,.038.306c.038.115.115.268.153.382.077.191.077.382.153.574.038.115.038.229.077.344a.292.292,0,0,1,.076.191h.038a1.657,1.657,0,0,1,.038.191h0a2.95,2.95,0,0,0,.306.727h0c.038,0,.038.038.076.077h-.038c0,.153.038.153.076.268a.416.416,0,0,0,.038.191,1.619,1.619,0,0,1,.191.268,1.6,1.6,0,0,0,.153.382c.038.076.115.115.153.191s.076.191.115.268c.038.038.077.115.153.191,0,.038.306.765.344.841a.134.134,0,0,1,.038.076c.077.076.153.038.229.076.038.038.038.076.076.076a4.5,4.5,0,0,0,.421.727c0,.038.153.038.191.076a11.747,11.747,0,0,0,.65,1.186c.076.038.229,0,.306.038.153.115,0,.382.191.5a6.532,6.532,0,0,0,.535.421c0,.038.688.765.688.765.038.038.115.076.115.115.038.038.038.076.076.115l.115.229c.077.076.229.076.306.191v.153h-.076c-.153,0-.344-.191-.459-.268a.118.118,0,0,1-.076-.038h0a1.033,1.033,0,0,1-.344,0c0,.038-.115.077-.115.077,0,.076,0,.115-.038.153v.038a.118.118,0,0,1-.076-.038c-.077-.038-.115-.076-.191-.115s-.191-.038-.229-.076a.671.671,0,0,0-.153-.191c-.038,0-.038.076-.038.115.038.115.229.115.229.229,0,.077-.229.191-.306.153a1.657,1.657,0,0,0-.191-.038c0-.038,0-.038-.038-.038v.038s.688.688.765.612c.115-.038.191.038.268.077.076,0,.153-.038.229-.038.038-.038.115,0,.153.038h.153c.191.038.268.153.421.268.115.038.382.115.382.229,0,.076-.038.076-.076.115-.268.038-.382-.153-.535-.268-.038-.038-.115-.038-.191-.077h0c-.038.038,0,.077.038.115a.528.528,0,0,0,.153.115c.038.038.038.076.076.115a.528.528,0,0,1,.153.115.8.8,0,0,0,.153.229.325.325,0,0,1,.115.191c-.038.153-.65-.191-.765-.229-.076,0,.038.076.038.115.077.038.115.076.191.115.076.076-.038.229.076.306a.23.23,0,0,1,.153.038c.115.038.191.191.306.229.076.038.076.153.153.191s.191.038.229.115c.076.038.115.191.229.229.268.077.191-.459.382-.229.038,0-.038.076-.076.076v.038h0c.038.038.115.076.153.115a1.643,1.643,0,0,0,.459.077c.076,0,.115.038.191.076.153.076-.153.191-.153.191,0,.038.306.077.382.077s.153-.038.229,0c.038,0,.077.076.115.115a.945.945,0,0,0,.344.153c-.038-.076.191-.268.344-.306.077-.038.153.191.306.153.115-.038.306,0,.306.115,0,.076.841,0,.841.115,0,.038-.038.076-.076.115.038.153.688-.229.841-.038.038.076-.153,0-.153.076a.23.23,0,0,1,.038.153c-.077,0-.153.038-.229.038a.238.238,0,0,0-.191.115c-.229.038-.421-.115-.574.115h0c.038,0,.076.038.115.038.077,0,.153.038.229.038.153.038.688-.115.612.038h0a.14.14,0,0,0,.115.038h.191a.29.29,0,0,0,.153.076c.077.038.65-.229.727-.229a.29.29,0,0,0,.153.077c.115,0,.5-.268.574-.268.153.038.268-.115.382-.115h.038v-.038c.077-.115.191.038.191-.076,0-.038.306.268.306.229.038-.115.076-.077.076-.153s.153,0,.153-.076a.23.23,0,0,0,.038-.153c0-.077.5.115.5.038,0-.153.5.115.535-.038l.153-.153c0-.076-.077-.076-.077-.153,0-.191.574.076.727.153.038,0,.574-.076.612-.076v-.115c.115-.038,0-.191.153-.191.076,0-.076-.268-.038-.268.115.038-.153-.421,0-.459.077-.038,0-.229.038-.306s.038-.191.153-.229c.076-.038-.115-.153-.038-.153.115-.038-.115-.229,0-.268.038,0,.077-.038.115-.038h.153c.077,0,.077-.038.153-.076s-.153-.268-.076-.306c.076-.076-.115-.229-.191-.306,0-.076-.115-.076-.115-.153l.115-.115c.038-.038,0-.115.038-.191a.382.382,0,0,1,.153-.191.528.528,0,0,1,.115-.153.54.54,0,0,0-.038-.344.331.331,0,0,0-.115-.229c-.038-.038-.115-.076-.153-.115,0-.038-.038-.115-.038-.153l-.115-.115a.364.364,0,0,0-.076-.268c-.038-.076.038-.191-.038-.229-.076-.115-.076,0-.153-.115-.038-.076,0-.153-.038-.229a.141.141,0,0,1-.038-.115c-.038-.038-.038-.115-.076-.153,0-.077-.076-.115-.076-.191.038-.038.076-.038.153-.077,0,.038.115-.153.115-.115l.076-.076c0,.038.5-.574.459-.65.115-.076.191-.535.191-.535a2.121,2.121,0,0,1,.229-.306c.115-.076.344-.382.306-.5-.038.038-.038.038-.076.038V136.4s.076-.268.115-.268c.038-.421.229-.076.229-.421,0,0,.153-.153.191-.153a5.322,5.322,0,0,1-.038.65c-.038.268,0,.574-.038.8-.077,0-.153.306-.153.306h.191c0-.076.153-.382.268-.727.038-.153.115-.115.191-.421a4.078,4.078,0,0,0,.153-.88c-.038-.191.153-.153.306-.65,0-.076-.153,0-.153-.076a1.215,1.215,0,0,1,.076-.5.577.577,0,0,1,.344-.535,8.062,8.062,0,0,1,3.442.268,1.6,1.6,0,0,1,.612.5,3.361,3.361,0,0,1,.229.382c-.038.038-.038.421-.076.459a.835.835,0,0,1-.153.191c-.038.076-.038.153-.076.191s-.076.076-.076.115c-.038.038-.038.077-.076.115s-.038.076-.076.115a.709.709,0,0,1-.077.268,3.611,3.611,0,0,0-.115.344c-.038.077-.038.153-.077.229-.038.115-.421.956-.421.918.038-.038.038.153.038.191a.141.141,0,0,0-.038.115.509.509,0,0,0-.115.306h.038a.082.082,0,0,1,.076-.077.686.686,0,0,1,.191-.268c.038-.038.038-.076.076-.153l.229-.229c.115-.191.268-.421.382-.612.038-.076.038-.153.076-.229s.076-.115.115-.191c.077-.115.038-.038.077-.153.038-.076.421-.5.421-.535.076-.115.115-.421.191-.5,0-.076,0-.115.038-.153a.51.51,0,0,1,.191-.115c.153,0-.038.306-.115.382h.038c0,.038,0,0,.038,0l.076-.076c.038,0,.077-.038.115-.038.077-.076.038-.038.077-.115a3.6,3.6,0,0,0,.459-.841v-.191c0-.038.229-.459.459-.421,0,0-.191.382-.229.421a.651.651,0,0,0-.038.268h.038c.038-.038.038-.115.076-.153h.076c.038,0,0,.038,0,.038a.225.225,0,0,1-.076.191v.115a3.683,3.683,0,0,1,.344-.574h.077v.115l-.115.229a2.1,2.1,0,0,1-.306.574c-.038.038-.153.077-.191.153l-.229.459c-.038.038-.038.115-.076.153a2.571,2.571,0,0,1-.229.459,2.271,2.271,0,0,1-.153.306l-.344.574a.875.875,0,0,0-.268.382c-.038,0,0,.038,0,.038.077,0,.077-.076.191-.038-.038.076-.115.153-.115.191l-.115.229a.29.29,0,0,1-.076.153c0,.076-.038.115-.076.191l-.115.229a.2.2,0,0,1-.076.153,1.145,1.145,0,0,0-.153.306h.038l.268-.268c.153-.382.191-.459.038-.115l.076-.076c.038-.077.038-.191.076-.268a.528.528,0,0,1,.115-.153.609.609,0,0,1,.344-.344h0v-.115c.038-.115.153-.115.115-.229h.038a.686.686,0,0,1,.191-.268c0-.076-.153-.038-.038-.191h.038v-.038h0v.153c.153.038.229-.115.344-.115h0v.038c-.038,0-.038.076-.076.115h.038c0-.038.076-.038.076-.077a1.358,1.358,0,0,0,.153-.344,1.663,1.663,0,0,0,.229-.268c.038-.076.076-.115.115-.191s.115-.191.153-.268a8.822,8.822,0,0,1,.535-.727c.038-.076.115-.076.153-.115a.358.358,0,0,0,.191-.268h0c.038-.038.077-.077.077-.115a1.213,1.213,0,0,0,.191-.229c.038,0,.038-.038.076-.076s0-.115,0-.153c.115-.153.612-.382.65-.459l.038.076c.077,0,.077.038.077.076-.038.076-.115.115-.115.191-.038.115,0,.229-.076.306-.038.038-.076.115-.153.115-.038.038-.038.038-.076.038a.21.21,0,0,0-.115.191h.038v.038c0-.077.115-.115.153-.115,0,.076-.038.115-.038.153a3.755,3.755,0,0,1-.306.688c-.038.076-.076.191-.115.268s-.153.115-.191.191v.191h.038a1.663,1.663,0,0,0,.153-.268h.038c0,.153-.191.5-.115.574,0,.038.038.038.077.038h0c.038,0,0-.076,0-.115.038-.077.076-.191.153-.229l.076-.076c.038-.076.038-.191.115-.229.038-.038-.038-.076-.038-.153,0-.038.038-.076.076-.115.038-.115.038-.268.153-.344h0c.038,0,.038.153.038.191h0c.038,0,.038-.038.038-.076a3.861,3.861,0,0,0,.268-.574c0-.038.038-.077.038-.115a.141.141,0,0,0,.038-.115c.038-.038.038-.076.076-.115,0-.076.038-.115.038-.153a1.663,1.663,0,0,1,.153-.268v-.038h.038c0,.115.038.268.038.382h0c-.038.076-.076.076-.076.153-.038.038,0,.115-.038.153a.082.082,0,0,1-.077.076l-.115.344c0,.038-.038.076-.076.115a.836.836,0,0,1-.115.191,1.146,1.146,0,0,1-.153.382l-.229.344c0,.038-.038.115-.038.153a1.145,1.145,0,0,1-.153.306.29.29,0,0,1-.076.153c0,.076-.038.153-.038.229-.038.038-.038.115-.076.153h0v.038h.038c.038-.038.038-.076.077-.115l.115-.229a1.085,1.085,0,0,1,.306-.421h0c.038.038,0,.076,0,.115-.038.077-.038.115-.076.191a.485.485,0,0,1-.038.229,1.55,1.55,0,0,1-.191.344l-.115.344-.153.306a.5.5,0,0,0-.115.344c.038.153.268-.115.268-.115l.382-.727c.038-.076.076-.191.115-.268.076-.076.191-.153.229-.229s.038-.115.076-.191c0-.038.038-.115.038-.153,0-.077.077-.115.077-.153a.141.141,0,0,0,.038-.115c.038-.076.077-.115.115-.191,0-.038.038-.076.076-.115a1.014,1.014,0,0,0,.191-.229.141.141,0,0,0,.038-.115c.038-.038.077-.115.115-.153a.287.287,0,0,1,.038-.191c0-.076.038-.115.077-.191,0-.038-.038-.115,0-.153,0-.076.077-.076.115-.153v-.115c.038-.038.038-.076.076-.115a.118.118,0,0,1,.038-.076c.038-.077.076-.115.115-.191a.9.9,0,0,1,.076-.306c.038-.038.038-.115.077-.153s.038-.115.076-.153a.134.134,0,0,1,.038-.076c0-.076.038-.115.038-.153.038-.038.038-.076.076-.115a.289.289,0,0,1,.038-.153l.115-.229a.485.485,0,0,1,.038-.229,2.867,2.867,0,0,0,.191-.612c.038-.115.076-.229.115-.382,0-.076.038-.115.077-.191,0-.076.038-.153.038-.229.038-.115.038-.191.076-.306,0-.038.038-.076.038-.115v-.153a.709.709,0,0,0,.076-.268.646.646,0,0,0,.076-.191,2.431,2.431,0,0,1,.077-.268c.076-.268.191-.535.268-.8a2.239,2.239,0,0,0,.076-.5,2.656,2.656,0,0,0,.191-.5c0-.038.038-.076.038-.153,0-.038.038-.115.038-.153v-.115l.115-.344c0-.077.038-.115.038-.191.077-.306.077-.65.153-.994,0-.038.038-.076.038-.115a.141.141,0,0,0,.038-.115c.038-.077.077-.077.077-.153,0-.115-.077-.153-.038-.268v-.535c0-.076.038-.191.038-.306v-.306a.345.345,0,0,0-.038-.191c.038-.153.115-.421.153-.574a.721.721,0,0,0,.076-.306l-.038-.038a1.227,1.227,0,0,1-.115.191h-.038v-.038a1.656,1.656,0,0,1-.038-.191c0-.077.038-.115.038-.191v-.191c0-.076.076-.229.191-.153a.133.133,0,0,1,.076.038c0,.038.076-.038.076-.038,0-.076-.038-.115-.038-.153ZM135.2,112.572h0Zm1.912-.727c-.115.153-.191.306-.306.459-.153.153-.191.344-.344.535a2.138,2.138,0,0,0-.191.306.528.528,0,0,1-.153.115c-.038.038-.038.076-.077.115l-.115.115c-.038.076-.038.115-.076.191-.038,0-.038.038-.077.076v.115a.29.29,0,0,0-.076.153.14.14,0,0,0-.038.115l-.115.115a.29.29,0,0,1-.076.153c-.038.077-.076.115-.115.191l-.115.229c-.038.038-.038.076-.076.115,0,.038-.038.076-.038.115a.133.133,0,0,0-.076.038v.153c0,.038-.038.076-.038.115v.115c-.038.115-.153.268-.191.382-.038.077-.038.153-.076.229a.29.29,0,0,1-.076.153c-.038.038,0,.115,0,.153-.038.077-.153.077-.191.115h-.038c0-.076-.038-.115-.038-.191s.076-.153.076-.229c0-.038.038-.076.038-.153s.038-.115.076-.191v-.153c.038-.038.077-.076.077-.115.076-.191.115-.344.191-.5.038-.038.038-.115.076-.153s.038-.115.076-.153c.038-.077.076-.115.115-.191a.972.972,0,0,1,.076-.268c.038-.076.115-.153.153-.229.076-.115.115-.229.191-.344.038-.038.076-.038.115-.115a2.122,2.122,0,0,0,.229-.306.836.836,0,0,0,.115-.191l.115-.115a1.663,1.663,0,0,1,.153-.268c.038-.038,0-.076.038-.115.038-.076.038-.115.077-.191a.528.528,0,0,0,.153-.115c.077-.115.115-.191.191-.306a2.187,2.187,0,0,0,.268-.306.29.29,0,0,0,.153-.076c.038-.038.038-.115.115-.153a.937.937,0,0,1-.153.459Zm20.156,4.475v.038c.038.191.65.229.8.306v.038c0,.076.038,0,0,.076a.118.118,0,0,0,.038.076c0,.038.077.038.115.077a.23.23,0,0,1,.038.153,1.117,1.117,0,0,1,.077.344c0,.076.115.153.153.191,0,.076.077.076.115.115,0,.038.038.038.038.077a2.339,2.339,0,0,0,.191.459.141.141,0,0,0,.038.115c0,.038.038.076.038.115.038.115-.076.191-.076.306s.076.229.076.382c0,.076.229.727.268.841l-.918-.268c-.076-.076-.115-.229-.191-.229h-.459c-.459-.076-.421-.229-.918-.076-.191-.268-.344-.229-.65-.306l-.574-.115c-.765-.038-2.563-.153-2.869-.765a8.708,8.708,0,0,0-.344-1.951c0-.115.038-.191.038-.268-.038-.229-.038-.459-.076-.727h.038c.038-.076.077-.153.115-.038a12.2,12.2,0,0,1,2.257.229,2.894,2.894,0,0,1,.574.038,4.458,4.458,0,0,1,1.262.421c.191.076.459.229.8.344ZM138.8,120.948a1.059,1.059,0,0,1,.038-.344.835.835,0,0,0,.115-.191V120.3c.038-.038.038-.076.077-.115.038-.115-.038-.268,0-.382l.115-.115c.038-.038,0-.115.038-.191a1.663,1.663,0,0,0,.153-.268.951.951,0,0,1,.038-.306.141.141,0,0,1-.038-.115c.038-.115.153-.153.191-.229a.625.625,0,0,0,0-.268l.115-.229a.485.485,0,0,1,.038-.229c0-.038.076-.076.115-.115a.72.72,0,0,1,.076-.306c.038-.076.076-.076.115-.153.038-.038,0-.115,0-.153.038-.077.076-.077.115-.153s0-.153.038-.191c0-.076.115-.115.115-.191h0l.344-.115a1.773,1.773,0,0,1,.535.076v.038c.115-.038.153,0,.115-.115.535-.421.5-.038.841-.153.038-.076.191-.153.153-.229.038-.038.076-.038.115-.076.421.229.841-.153,1.262-.229.765-.076,5.01-.88,5.278-.574a9.067,9.067,0,0,1,.344,3.4c-.038.115-.038.268-.153.306-.191.038-.382.115-.574.153a57.264,57.264,0,0,0-9.1,1.836c-.229.077-.421.153-.65.229V121.1c0-.038.038-.076.038-.153Zm2.83-6.426a2.187,2.187,0,0,1,.268-.306h.115c.115.038.115-.076.076-.153,0-.115.612-.688.765-.8.076-.076.153-.115.229-.191.077-.038.115-.115.153-.153.077-.038.115-.076.191-.115a2,2,0,0,0,.421-.382c.038-.038.115-.076.153-.115.076-.038.153-.115.229-.153.076-.076.076-.191.191-.229a.23.23,0,0,1,.153-.038h.115c.115-.076.153-.191.268-.229.077-.038.115,0,.191,0,.038,0,.076-.038.115-.076.038,0,.115-.038.153-.038h0c0-.076,0-.115.038-.153.115-.076.229-.038.344-.076a17.62,17.62,0,0,1,2.371-.535c.153.268.191.8.421,1.339-.076.65.229.88.038,1.568-.115.344-.421.115-.688.115-.994.076-2.371.421-3.366.574-.421.076-.88.115-1.3.191l-1.836.459v-.038c.038-.038,0-.115.038-.153.038-.076.115-.076.153-.153v-.153Zm7.267,18.971c.038.038.038.038.038.076a21.889,21.889,0,0,1-.229,2.83c.115.191-.076.8-.076.8-.077.038-.077.191-.153.229-.038-.076,0,.038.115.038v.038c-.153.076-.153.191-.076.191a.141.141,0,0,0,.038.115c-.038,0-.038,0-.076.038,0,.038-.077.344-.115.574-.077-.038-.268-.038-.306-.115a.958.958,0,0,1-.268-.153c-.038-.038-.077-.076-.115-.076-.038-.038-.115-.076-.153-.115-.076-.038-.076-.115-.191-.153a1.457,1.457,0,0,0-.382-.115,2.778,2.778,0,0,1-.344-.191c-.076-.038-.153-.038-.191-.076-.076-.038-.115-.038-.153-.076-.076-.038-.115-.038-.153-.077-.038,0-.077-.038-.115-.038a.292.292,0,0,0-.191-.076,2.865,2.865,0,0,0-.612-.153,3.213,3.213,0,0,1-.459-.153c-.076-.038-.306-.115-.382-.153a5.755,5.755,0,0,0-.382-.65.647.647,0,0,1-.191-.076c-.038,0-.229-.344-.268-.382l-.306-.153c-.077,0-.077-.191-.153-.229-.038,0-.382-.535-.421-.574s-.115-.076-.153-.153c-.038,0-.076-.038-.115-.077a.23.23,0,0,1-.038-.153c0-.038-.229-.115-.268-.153-.038-.077-.115-.077-.153-.115.88,0,1.53-.382,2.448-.382a2.569,2.569,0,0,0,1.071-.038c.344.077.535-.076.88-.076.229,0,.382.115.612.076.153-.076.268-.115.421-.191v.076a.134.134,0,0,0,.077-.038,10.928,10.928,0,0,0,1.492.038.133.133,0,0,1,.076-.038v.076Zm.535-3.863c.038.038-.077.8-.038.918h-.038a.8.8,0,0,0-.038.421c-.038.115-.115.077-.038.268,0,.038-.038.038-.077.038v-.038c-.076.038,0,.191.038.306-.038,0-.038.038-.076.038,0,.115.038.574-.115.65-1.339.229-2.639.268-4.169.5a6.441,6.441,0,0,0-.918.229l-2.18.344a1.479,1.479,0,0,0-.344.038.037.037,0,0,1-.038-.038c-.038-.115-.076-.191-.115-.306,0-.038-.038-.076-.038-.153a.141.141,0,0,1-.038-.115c0-.038-.038-.076-.038-.115s-.191-.076-.191-.153a2.273,2.273,0,0,1-.153-.306V132c-.038-.115-.268-.574-.306-.65a.485.485,0,0,0-.038-.229c-.038-.038-.268-.076-.268-.115a.651.651,0,0,1-.038-.268c0-.076.038-.115,0-.191a.2.2,0,0,1-.076-.153c-.038-.076-.153-.115-.191-.191s-.115-.153-.153-.229c0-.115.115-.191.076-.306a.646.646,0,0,0-.115-.229c-.038-.038-.076-.038-.076-.115s.115-.153.115-.268a3.861,3.861,0,0,1-.268-.574v-.076c.459-.115.956-.229.956-.153.038,0,.077-.038.115-.038a12.92,12.92,0,0,0,1.683-.421,2.834,2.834,0,0,0,1.224-.268c.077-.038.191-.115.229,0,.038-.038.038-.038.076-.038,0,.038.038.076.038.153a1.786,1.786,0,0,0,.612-.038c.038.038.038.038.038.076.038,0,.038-.038.076-.038a2.05,2.05,0,0,0,.421-.191c-.038.153.344.076.306-.038.038,0,.038-.038.076-.038a1.582,1.582,0,0,0,.727.191c.191,0,.459-.306.459-.268.076,0,.344.076.306-.076.229-.038,1.109.191,1.186.382a.879.879,0,0,1,.535-.076c.421-.076.688-.153.841-.038.229.268-.191,1.453.038,2.142Zm.191-4.666h-.076a2.181,2.181,0,0,0-.038.5c-.038.038-.076.038-.115.076a5.624,5.624,0,0,0-1.568.115,2.043,2.043,0,0,0-.8.115c.038.038-.306.115-.191.076-.038-.115,0-.076-.076-.038-.153-.038-1.339.076-1.262.344h.229v.076c-.229.038-.5.115-.727.153-.038-.038-.038-.077-.038-.153.077-.038.268-.076.229-.191l-.038.038a4.589,4.589,0,0,0-1.568.229,28.483,28.483,0,0,0-3.825.994v.038h.115a1.275,1.275,0,0,0,.382,0c0,.038.038.038.038.076a8.008,8.008,0,0,1-.88.306.134.134,0,0,1-.038-.076v-.306a1.94,1.94,0,0,0-.344.076.23.23,0,0,0,.038-.153c0-.038-.038-.115-.038-.153a1.657,1.657,0,0,1,.038-.191c-.038-.115.153-.191.115-.229a.617.617,0,0,1-.115-.344v-.268c-.038-.038-.038-.115-.077-.191a.134.134,0,0,1-.038-.076c0-.115.077-.153.038-.268-.076,0-.115.115-.153.153h0a.082.082,0,0,1-.076-.076c-.077-.191.191-.115.268-.229.038-.077-.038-.191-.077-.268h-.038a.134.134,0,0,0-.038.077l-.038-.038v-.038c-.038-.076-.076-.191-.115-.268,0-.115.077-.229.038-.306,0-.115.191-.229.153-.344v-.153a.141.141,0,0,0-.038-.115V123.7c0-.038-.038-.077-.038-.153.038-.038.038-.076.038-.153s-.115-.229-.077-.306c0-.038.038-.076.038-.115a.543.543,0,0,0,.077-.229c0-.115-.077-.191-.077-.268v-.115c.077-.038.191-.038.268-.076.612-.153,1.224-.268,1.836-.421.306-.038.612-.115.88-.153a4.569,4.569,0,0,0,1.262-.115c-.038.076-.115.115-.076.229a2.892,2.892,0,0,1,.688-.344v.038a.118.118,0,0,0-.077.038c.038.076.077.038-.038.076.076,0,.076.038.153,0,.115-.076.344-.153.382-.076a2.961,2.961,0,0,1,1.8-.153c.076.038.115.038.038.076a1.862,1.862,0,0,1,.459.038c.038-.038.115-.038.153-.076-.038-.077-.115-.153,0-.191a10.512,10.512,0,0,0,1.53-.076c.229,0,1.186.191,1.3.153a6.483,6.483,0,0,0,.191.918.037.037,0,0,1-.038.038c0,.115.115.612,0,.65.038.076,0,.153.115.115v.115c.038.994-.077,1.721-.038,1.8Zm.956-17.785h-.306a4.512,4.512,0,0,0-.765-.153h-.268c-.038.038-.038.115-.076.115-.115,0-.268-.076-.344-.038a.823.823,0,0,0-.306,0c0,.038-.153-.038-.191-.038,0,.038-.076.038-.115.076,0,.038-.077-.076-.115-.038-.077,0-.115.115-.153.115-.077-.038-.153,0-.191,0-.038-.038-.076-.038-.153-.038H147.4a.345.345,0,0,0-.191.038.485.485,0,0,0-.229-.038c-.038,0-.076.038-.115.076h-.115a.553.553,0,0,0-.268.076.646.646,0,0,0-.191.076c-.076,0-.115-.038-.191,0a1.123,1.123,0,0,0-.382.115h-.153a.468.468,0,0,0-.344.115,1.117,1.117,0,0,0-.344.076,1.657,1.657,0,0,1-.191.038.913.913,0,0,0-.344.076c-.038.038-.076.038-.115.076h-.115a2.434,2.434,0,0,0-.268.076.544.544,0,0,1-.229.076,1.359,1.359,0,0,1-.344.153l-.229.115c-.038,0-.115.153-.153.153a.671.671,0,0,0-.191.153c-.076-.038-.115.038-.191.038-.077.038-.115.115-.229.153-.038.038-.076.038-.115.076-.077.038-.115.038-.191.076a.9.9,0,0,0-.535.268.959.959,0,0,1-.268.153c-.038.038-.038.076-.077.115a.2.2,0,0,0-.153.076c-.038.038-.076.076-.115.076-.038.038-.076.038-.115.076-.038,0-.076.038-.115.038-.038.038-.076.038-.115.076l-.344.229-.115.115a.14.14,0,0,1-.115.038.082.082,0,0,1-.077.076c-.038.038-.076.038-.115.076a.835.835,0,0,0-.191.153.3.3,0,0,1-.153.153c-.076.076-.153.115-.229.191-.076.038-.115.115-.153.153h-.038c-.038,0-.038-.076-.038-.076.038-.153.229-.268.306-.344s.115-.153.191-.191v-.038h-.038c0,.076-.229.153-.268.191h-.038v-.115a.23.23,0,0,0,.038-.153.487.487,0,0,1,.344-.268h0c.153-.191.153,0,.268-.115s.268-.191.382-.306c.038-.038.115-.076.153-.115.076-.076.191-.153.268-.229l.191-.191a.8.8,0,0,0,.229-.153c.038-.038.077-.038.115-.076.038-.076.153-.076.229-.115h0c0,.038,0,.153.076.153a2.121,2.121,0,0,0,.688-.306c.038,0,.076-.038.153-.076.038,0,.038-.038.038-.076a.037.037,0,0,0-.038-.038c-.076-.153-.344.115-.421.191h-.191c0-.153.5-.344.612-.421l.229-.115.115-.115a3.727,3.727,0,0,1,.421-.191c.077-.038.115-.076.191-.115.115-.076.306-.115.459-.191a.29.29,0,0,0,.153-.076c.077-.038.153-.038.229-.076a.553.553,0,0,0,.268-.076.23.23,0,0,0,.153-.038c.115-.038.191-.076.229-.191.076,0,.115-.076.191-.115v-.038a.141.141,0,0,0-.115.038,1.418,1.418,0,0,0-.574.153c-.038,0-.076.038-.115.038h-.229c-.038.038-.115.076-.153.115s-.076.076-.115.076c-.038.038-.077.076-.115.076h-.153a.227.227,0,0,1-.268-.038h0l.076-.076a2.637,2.637,0,0,1,.306-.115.8.8,0,0,0,.229-.153c.077,0,.115,0,.153-.038.038,0,.077-.038.153-.038a.553.553,0,0,1,.268-.076.2.2,0,0,1,.153-.076c.076,0,.115-.038.153-.038.076,0,.115-.038.191-.038h.115c.038-.038.077-.076.115-.076h.153a.345.345,0,0,1,.191-.038h.306c.115-.038.229-.038.344-.076.115,0,.229-.038.306-.038h.268a1.3,1.3,0,0,1,.382-.038h.535a.485.485,0,0,0,.229-.038,1.033,1.033,0,0,0,.344,0h1.109c.077.038.077.076.153.076h.115c.077,0,.153.038.229.038.038,0,.115.038.153.038.077,0,.115.038.191.038a7.659,7.659,0,0,1,.918.153,2.272,2.272,0,0,0,.306.153h.115c.038.038.076.038.115.076.153.038.191.115.076.115h-.229a2.9,2.9,0,0,0-.612-.115c-.077-.038-.191-.115-.268-.076h-.038c0,.115.382.115.5.153,0,.038-.038.038-.038.076h-.038a.141.141,0,0,0,.115.038H151c.038,0,.038.038.076.038,0,.038-.115.076-.153.076-.115,0-.229-.076-.344-.038Zm.344,3.6c.076,0,.115-.038.153-.038-.038-.076-.038-.153-.076-.229a1.864,1.864,0,0,1,.268.115.747.747,0,0,1,.268.038.29.29,0,0,1,.153.076.485.485,0,0,1,.229.038c.076,0,.115.038.191.038.077.038.115.191.229.229.076.038.191,0,.268.038a2.463,2.463,0,0,1,.765.421c.115.115.229.191.306.268.115.115.191.268.344.268.077,0,.077-.038.115-.076h0a1.165,1.165,0,0,1,.382.268c.038.038.115,0,.153.038l.115.115a2,2,0,0,1,.421.382.528.528,0,0,0,.115.153,5.622,5.622,0,0,1,.382.5c.076.076.115.153.191.191,0,.038.038.038.076.038.191,0,.459.612.612.88-.344-.076-.65-.153-.956-.229a8.063,8.063,0,0,0-1.339-.191,11.061,11.061,0,0,1-2.027-.191c-.076-.076-.153-.191-.229-.268-.382-.8-.306-2.448-1.109-2.869Zm7.42,17.747H158.3v.038c-.038,0-.076.076-.076.153v.191a1.863,1.863,0,0,1-.115.268,1.657,1.657,0,0,1-.038.191c-.077.191,0,.344-.077.535a.416.416,0,0,1-.038.191c-.038.115-.115.229-.153.344s-.038.229-.076.306-.038.153-.077.191a.485.485,0,0,0-.038.229.29.29,0,0,0-.076.153c-.038.038-.038.077-.038.153-.038.038.153.115.115.191a.836.836,0,0,0-.115.191.528.528,0,0,0-.115.153c0,.038-.038.076-.038.115a.2.2,0,0,0-.153.076c0,.038-.153.038-.153.115-.038.076.153.153.115.229-.153-.038-.344-.038-.535-.076-.115,0-.191.229-.344.229a11.445,11.445,0,0,1-2.333-.306,9.873,9.873,0,0,1-1.874-.115c-.153-.038.038-.459-.038-.535.229-.382.115-.65.191-1.033.076-.535.344-1.109.115-1.606a.134.134,0,0,0,.076-.038c0-.038,0-.038-.038-.077.153,0,.115-.115.077-.229v-.535a3.188,3.188,0,0,0,.153-.574c.115-.038.076-.038.115.038.115.076.956-.076,1.109,0,1.033.306,1.262-.421,1.759.306.077.076,1.071-.191,1.262-.038.115.076.382.5.765.382a1.332,1.332,0,0,1,.765.038c0,.038-.038.115-.038.153Zm1.071-5.967a.651.651,0,0,0-.038.268.842.842,0,0,1-.038.306v.344a1.132,1.132,0,0,0-.076.382v.115a.416.416,0,0,0-.038.191c0,.076-.038.153-.038.229v.229a4.448,4.448,0,0,0-.153.688c-.191.574-.229.841-.268.956l-.229-.076a2.909,2.909,0,0,1-1.3-.153,13.225,13.225,0,0,0-2.257-.229,6.592,6.592,0,0,1-2.18-.153c-.076-.115-.076-.268-.153-.382.344-.612,0-.574-.038-1.186,0-.076,0-.076.038-.115v-.038c.076,0,.076-.574.153-.612-.076-.382-.268-1.683.115-1.874a5.209,5.209,0,0,1,1.53.076c.65.153,1.568,0,2.18.344.268.268,1.492-.076,1.721.153a2.8,2.8,0,0,0,1.071.229Z" transform="translate(-130.868 -105.152)" fill="#fff" fill-rule="evenodd"/>
      </g>
    </g>
  </g>
</svg>
