<svg xmlns="http://www.w3.org/2000/svg" width="97.42" height="22" viewBox="0 0 97.42 22">
  <g id="그룹_1484" data-name="그룹 1484" transform="translate(-42.52 -42.52)">
    <path id="패스_5409" data-name="패스 5409" d="M70.467,50.036H50.977a4.9,4.9,0,0,0-4.409,3.477,2.591,2.591,0,0,0,2.546,3.477h6.073a.586.586,0,0,1,.573.783,1.1,1.1,0,0,1-.993.784H45.182L42.52,61.251H54.044a4.9,4.9,0,0,0,4.409-3.477A2.591,2.591,0,0,0,55.908,54.3H49.835a.586.586,0,0,1-.573-.783,1.11,1.11,0,0,1,.993-.784h19.49a.587.587,0,0,1,.574.784l-.276,1.027a1.112,1.112,0,0,1-.993.783H64.273A4.9,4.9,0,0,0,59.864,58.8l-.657,2.45H61.9l.656-2.45a1.11,1.11,0,0,1,.993-.783h4.777a4.9,4.9,0,0,0,4.409-3.477l.276-1.027a2.592,2.592,0,0,0-2.546-3.477" transform="translate(0 -2.632)" fill="#7b7b7b"/>
    <path id="패스_5410" data-name="패스 5410" d="M100.856,50.881l-1.142,4.261a1.109,1.109,0,0,1-.992.783H92.649a.586.586,0,0,1-.573-.783q.57-2.13,1.141-4.261a1.112,1.112,0,0,1,.993-.783h6.073a.586.586,0,0,1,.573.783m2.694,0A2.591,2.591,0,0,0,101,47.4H94.932a4.9,4.9,0,0,0-4.409,3.477q-.571,2.13-1.142,4.261a2.592,2.592,0,0,0,2.546,3.477H98a4.9,4.9,0,0,0,4.409-3.477Zm14.523,0a2.591,2.591,0,0,0-2.546-3.477h-6.073a4.9,4.9,0,0,0-4.409,3.477l-2.072,7.738h2.694l2.074-7.738a1.11,1.11,0,0,1,.992-.783h6.073a.587.587,0,0,1,.574.783l-.276,1.028a1.111,1.111,0,0,1-.993.782H109l-2.015,2.694H109.8l2.367,3.233h3.809L113.6,55.38a4.993,4.993,0,0,0,4.192-3.47Zm13.011-.783,1.3-2.694H118.833L119.4,50.1H123.8l-2.283,8.521h2.693l2.284-8.521Zm12.635-.008.724-2.7h-7.995a4.913,4.913,0,0,0-4.418,3.485,2.6,2.6,0,0,0,2.551,3.487H140.4a.587.587,0,0,1,.574.785,1.1,1.1,0,0,1-.995.785h-8.306l-1.015,2.7h8.6a4.908,4.908,0,0,0,4.42-3.485,2.6,2.6,0,0,0-2.551-3.487H135.3a.588.588,0,0,1-.575-.785,1.114,1.114,0,0,1,1-.785Zm11.008-7.57h-5.711l-2.032,3.657h2.954L146.5,58.619h5.892l3.774-13.844s.8-2.256-1.439-2.256" transform="translate(-16.365)" fill="#7b7b7b"/>
    <path id="패스_5411" data-name="패스 5411" d="M154.592,70.426h1.79a.533.533,0,0,1,.539.289c.119.24,1.171,2.353,1.171,2.353h-1.059s-.837-1.709-.884-1.8a.248.248,0,0,0-.247-.147h-.854a.253.253,0,0,0-.223.142l-.892,1.806h-1.053s1.085-2.176,1.177-2.364a.53.53,0,0,1,.534-.278m14.846,3.864H152.759V73.6h16.678Z" transform="translate(-38.598 -9.771)" fill="#7b7b7b"/>
    <path id="패스_5412" data-name="패스 5412" d="M164.966,72.089a.214.214,0,0,1-.214.214h-1a.214.214,0,0,1-.214-.214v-.755a.214.214,0,0,1,.214-.214h1a.214.214,0,0,1,.214.214Zm.107,1.508a.214.214,0,0,1-.214-.214v-.1a.214.214,0,0,1,.214-.214h1.387a.214.214,0,0,0,.214-.214v-.338a.214.214,0,0,0-.214-.214h-.351a.214.214,0,0,1-.214-.214v-.755a.214.214,0,0,1,.214-.214h.29a.214.214,0,0,0,.214-.214V70.64a.214.214,0,0,0-.214-.214h-4.284a.215.215,0,0,0-.214.214v.266a.215.215,0,0,0,.214.214h.218a.214.214,0,0,1,.213.214v.755a.214.214,0,0,1-.213.214h-.273a.214.214,0,0,0-.214.214v.338a.214.214,0,0,0,.214.214h1.393a.214.214,0,0,1,.214.214v.1a.214.214,0,0,1-.214.214h-1.709a.214.214,0,0,0-.214.214v.266a.214.214,0,0,0,.214.214h5.027a.214.214,0,0,0,.213-.214v-.266a.214.214,0,0,0-.213-.214" transform="translate(-41.669 -9.771)" fill="#7b7b7b"/>
    <path id="패스_5413" data-name="패스 5413" d="M171.556,72.834l.8-1.761s.064-.139.183-.139h.922a.189.189,0,0,1,.2.131l.8,1.77h1.118l-.895-1.9h.669v-.742h-1.662v-.26a.189.189,0,0,0-.2-.173H172.5a.158.158,0,0,0-.166.173v.26H170.67v.742h.669l-.894,1.9Z" transform="translate(-44.791 -9.537)" fill="#7b7b7b"/>
    <path id="패스_5414" data-name="패스 5414" d="M184.7,73.224h.936V70.06H184.7v1.131h-.441v.746h.441Z" transform="translate(-49.629 -9.643)" fill="#7b7b7b"/>
    <path id="패스_5415" data-name="패스 5415" d="M180.361,74.037v-.207h-1.388v-.673h3.622v.673h-1.107v.207c0,.088-.081.158-.207.158h-.738a.169.169,0,0,1-.183-.158" transform="translate(-47.776 -10.727)" fill="#7b7b7b"/>
    <path id="패스_5416" data-name="패스 5416" d="M180.082,74.937v-.305h-1.109v1.131h4.814v-.694h-3.524c-.131,0-.181-.061-.181-.131" transform="translate(-47.776 -11.243)" fill="#7b7b7b"/>
    <path id="패스_5417" data-name="패스 5417" d="M181.207,71.223h-1.072a.233.233,0,1,1,0-.466h1.072a.233.233,0,1,1,0,.466m.29-1.122h-1.654a.889.889,0,0,0,0,1.779H181.5a.889.889,0,0,0,0-1.779" transform="translate(-47.77 -9.657)" fill="#7b7b7b"/>
  </g>
</svg>
